<svg id="Capa_1" enable-background="new 0 0 512 512" height="512" viewBox="0 0 512 512" width="512" xmlns="http://www.w3.org/2000/svg"><g><path d="m350.321 263.865c-16.938-13.941-26.654-34.423-26.654-56.195v-70.65h2.326c10.226 0 18.545-8.319 18.545-18.544v-29.337c0-10.226-8.319-18.545-18.545-18.545h-8.227l1.251-3.984c1.02-3.25 1.537-6.625 1.537-10.028v-25.872c0-16.934-13.777-30.71-30.71-30.71h-29.542c-4.14 0-7.494 3.355-7.494 7.494s3.355 7.494 7.494 7.494h29.542c8.669 0 15.722 7.053 15.722 15.722v25.872c0 1.879-.286 3.744-.849 5.539l-2.66 8.473h-92.112l-2.66-8.471c-.564-1.797-.85-3.661-.85-5.541v-25.872c0-8.669 7.052-15.722 15.722-15.722h4.303c4.14 0 7.494-3.355 7.494-7.494s-3.355-7.494-7.494-7.494h-4.303c-16.934 0-30.71 13.777-30.71 30.71v25.872c0 3.403.517 6.777 1.538 10.029l1.25 3.983h-8.228c-10.226 0-18.545 8.319-18.545 18.545v29.337c0 10.225 8.319 18.544 18.545 18.544h2.326v70.65c0 21.772-9.715 42.254-26.654 56.195-34.444 28.347-54.199 70.16-54.199 114.72 0 27.493 7.52 54.512 21.745 78.136 13.942 23.153 33.613 41.962 56.886 54.396 1.087.581 2.3.884 3.531.884h129.923c1.175 0 2.334-.277 3.382-.807 24.144-12.211 44.52-30.797 58.928-53.748 14.813-23.599 22.643-50.868 22.643-78.861.002-44.56-19.753-86.373-54.197-114.72zm-37.261-178.282h12.934c1.96 0 3.556 1.595 3.556 3.556v29.337c0 1.96-1.595 3.555-3.556 3.555h-24.378zm-15.71 0-11.444 36.448h-59.811l-11.444-36.448zm-41.35 93.424c-15.482 0-28.078-12.596-28.078-28.078v-13.909h56.155v13.909c.001 15.482-12.595 28.078-28.077 28.078zm8.674 14.111v140.459c0 4.783-3.892 8.674-8.674 8.674s-8.674-3.891-8.674-8.674v-140.459c2.803.575 5.704.878 8.674.878s5.871-.303 8.674-.878zm-78.668-71.087c-1.96 0-3.556-1.595-3.556-3.555v-29.337c0-1.961 1.595-3.556 3.556-3.556h12.934l11.444 36.448zm131.748 374.98h-126.206c-42.023-23.25-69.079-69.523-69.079-118.427 0-40.062 17.763-77.657 48.734-103.146 20.411-16.798 32.118-41.499 32.118-67.768v-70.65h9.612v13.909c0 15.011 7.725 28.246 19.403 35.958v81.01c-21.369 4.524-40.966 15.174-56.699 31.085-2.91 2.944-2.884 7.689.06 10.599 2.942 2.91 7.688 2.883 10.599-.06 12.87-13.017 28.729-21.954 46.041-26.222v50.278c0 13.047 10.615 23.663 23.663 23.663s23.663-10.615 23.663-23.663v-50.247c42.652 10.615 74.359 49.219 74.359 95.109 0 35.812-19.349 68.527-50.626 85.824h-97.495c-29.173-17.449-47.923-50.913-47.923-85.824 0-14.887 3.25-29.181 9.659-42.485 1.797-3.729.229-8.208-3.499-10.004-3.728-1.797-8.209-.229-10.004 3.499-7.395 15.349-11.144 31.832-11.144 48.99 0 20.407 5.446 40.586 15.749 58.355 10.131 17.473 24.457 31.815 41.43 41.477 1.129.643 2.407.981 3.707.981h101.418c1.223 0 2.426-.299 3.506-.871 37.14-19.659 60.212-57.955 60.212-99.942 0-54.2-38.356-99.598-89.348-110.505v-81.047c11.678-7.711 19.403-20.946 19.403-35.958v-13.909h9.612v70.65c0 26.27 11.707 50.97 32.118 67.768 30.971 25.489 48.734 63.085 48.734 103.146 0 50.075-27.454 95.288-71.777 118.427z"/></g></svg>