<svg height="503pt" viewBox="-4 0 503 503.94796" width="503pt" xmlns="http://www.w3.org/2000/svg"><path d="m287.921875 228.058594c-30.765625 12.671875-55.214844 37.082031-67.9375 67.828125-.058594.117187-.160156.183593-.199219.300781-.042968.117188 0 .242188-.078125.359375-26.394531 64.015625 3.960938 137.324219 67.886719 163.933594.125.058593.203125.167969.328125.21875s.269531 0 .394531.074219c63.9375 26.363281 137.160156-3.902344 163.824219-67.71875.082031-.167969.210937-.292969.277344-.460938.066406-.167969 0-.242188.074219-.359375 26.398437-64.015625-3.960938-137.320313-67.886719-163.933594-.125-.058593-.199219-.167969-.328125-.21875-.125-.050781-.257813 0-.382813-.074219-30.726562-12.746093-65.261719-12.730468-95.972656.050782zm82.003906 12.722656-33.824219 81.660156-33.84375-81.710937c21.957032-7.355469 45.71875-7.339844 67.667969.050781zm69.808594 69.757812c7.207031 21.980469 7.207031 45.6875 0 67.667969l-81.703125-33.832031zm-207.269531 67.667969c-7.207032-21.980469-7.207032-45.6875 0-67.667969l81.703125 33.835938zm54.289062-131.035156 33.835938 81.691406-81.667969-33.824219c10.433594-20.648437 27.195313-37.417968 47.832031-47.867187zm-47.839844 146.554687 81.707032-33.839843-33.816406 81.660156c-20.6875-10.390625-37.488282-27.152344-47.925782-47.820313zm63.394532 54.238282 33.792968-81.660156 33.839844 81.710937c-21.976562 7.238281-45.699218 7.21875-67.667968-.050781zm83.171875-6.386719-33.835938-81.691406 81.667969 33.824219c-10.445312 20.652343-27.214844 37.425781-47.867188 47.867187zm47.839843-146.558594-81.707031 33.84375 33.816407-81.660156c20.675781 10.394531 37.464843 27.15625 47.890624 47.816406zm0 0"/><path d="m.496094 84.789062c0 .328126.023437.652344.066406.976563.167969.753906.433594 1.480469.789062 2.164063.109376.210937.152344.445312.277344.644531l.042969.109375c22.167969 30.234375 53.046875 52.96875 88.5 65.160156-11.746094 15.183594-21.898437 31.539062-30.300781 48.800781-27.613282 57.15625-22.207032 133.007813 12.375 182.90625-14.625 27.222657-9.496094 41.472657-2.277344 48.683594 4.53125 4.652344 10.773438 7.238281 17.265625 7.152344 12.054687-1.058594 23.457031-5.933594 32.550781-13.917969 26.863282 12.886719 56.4375 19.121094 86.21875 18.171875h4.847656 2.015626c44.542968 54.289063 119.367187 73.035156 184.246093 46.164063 61.132813-25.214844 100.320313-85.59375 98.457031-151.699219-1.867187-66.101563-44.394531-124.175781-106.851562-145.90625-7.277344-23.03125-19.339844-44.265625-35.402344-62.304688.707032-7.515625-.558594-15.089843-3.675781-21.964843 31.640625-24.433594 43.191406-53.71875 40.53125-64.167969-.847656-3.878907-4.070313-6.789063-8.015625-7.234375-7.109375-.773438-10.519531 6.152344-11.632812 8.390625-3.570313 7.144531-21.933594 11.003906-36.4375 11.929687-4.289063-11.03125-17.988282-30.664062-61.859376-49.464844-6.359374-2.652343-12.960937-4.691406-19.707031-6.09375-.1875-.066406-.355469-.074218-.570312-.125-35.566407-7.554687-79.226563-.839843-117.660157 12.269532h-.050781c-25.847656 8.328125-50.160156 20.828125-71.972656 37.007812-29.957031 23.972656-45 24.601563-49.101563 24.183594l-2.375-.589844c-.179687-.050781-.347656 0-.523437 0-.703125-.128906-1.425781-.164062-2.140625-.101562-.304688 0-.609375.019531-.914062.0625-.929688.164062-1.828126.484375-2.652344.945312-.175782.109375-.300782.269532-.46875.386719-.554688.34375-1.066406.757813-1.519532 1.226563-.09375.101562-.132812.226562-.21875.335937-.210937.292969-.410156.597656-.585937.914063-.386719.578124-.695313 1.199218-.925781 1.855468-.050782.175782-.175782.300782-.226563.476563s0 .355469 0 .539062c-.128906.695313-.167969 1.40625-.117187 2.113281zm185.078125-65.140624c4.851562 11.523437 9.019531 23.320312 12.480469 35.335937-13.351563.984375-26.628907 2.804687-39.753907 5.449219-1.785156-6.640625-5.335937-19.0625-9.988281-31.894532 12.207031-3.800781 24.652344-6.769531 37.261719-8.890624zm146.042969 92.597656.058593.125c.058594.085937.152344.109375.210938.183594 3.808593 4.792968 5.59375 10.882812 4.96875 16.972656-2.417969 1.050781-6.320313 1.21875-13.773438-2.519532-7.050781-2.882812-13.347656-7.335937-18.414062-13.023437 4.242187-3.46875 8.246093-7.21875 11.984375-11.222656 5.761718 1.710937 10.929687 4.996093 14.925781 9.484375zm-67.40625 7.554687c6.351562-20.429687 11.035156-41.441406 12.515624-48.371093 16.703126.898437 30.625 2.179687 39.507813 3.113281-5.3125 10.390625-18.742187 28.761719-52.066406 45.230469zm-4.507813-49.09375c-4.238281 19.648438-9.648437 39.027344-16.207031 58.03125-14.925782 5.492188-30.234375 9.878907-45.804688 13.128907 8.613282-23.160157 15.445313-46.945313 20.429688-71.144532 14.238281-.554687 28.378906-.460937 41.539062-.042968zm-58.964844.972657c-4.253906 19.253906-13.6875 56.429687-23.171875 73.746093-13.488281 1.839844-27.132812 2.265625-40.710937 1.265625 9-22.320312 16.023437-45.386718 20.984375-68.933594 14.117187-3.089843 28.441406-5.128906 42.859375-6.101562zm-81.464843 72.839843c-4.199219-.757812-8.242188-1.679687-12.171876-2.660156-.433593-.144531-.882812-.246094-1.332031-.3125-28.277343-7.558594-54.011719-22.550781-74.535156-43.417969 25.441406 4.992188 53.769531 5.277344 106.417969-14.453125.546875-.210937 1.125-.386719 1.679687-.589843-4.546875 21.113281-11.285156 41.691406-20.101562 61.40625zm-37.4375 277.855469c-3.574219-3.585938-2.785157-11.589844 1.914062-22.242188 6.117188 6.644532 12.921875 12.625 20.296875 17.835938-7.855469 5.050781-17.324219 9.289062-22.210937 4.40625zm386.101562-132.617188c24.050781 58.050782 7.296875 124.996094-41.257812 164.878907-48.554688 39.882812-117.480469 43.308593-169.75 8.4375-52.269532-34.871094-75.578126-99.828125-57.402344-159.976563 18.175781-60.144531 73.554687-101.324218 136.386718-101.410156 57.863282-.34375 110.121094 34.527344 132.015626 88.085938zm-192.867188-92.722656c-39.074218 16.1875-70.121093 47.230469-86.308593 86.308594s-16.1875 82.984375 0 122.058594c3.371093 8.09375 7.402343 15.894531 12.054687 23.328125-26.945312.472656-53.578125-5.804688-77.472656-18.265625l-2.207031-1.300782c-12.574219-7.507812-23.550781-17.40625-32.316407-29.132812-33.371093-44.261719-39.324218-117.375-13.832031-170.078125 8.875-18.222656 19.824219-35.359375 32.625-51.074219 4.199219 1 8.511719 1.878906 12.976563 2.601563.949218.386719 1.957031.597656 2.980468.621093.269532 0 .527344-.074218.839844-.101562 8.9375 1.324219 17.957032 2.007812 26.992188 2.058594 14.675781-.054688 29.308594-1.566406 43.6875-4.507813 33.960937-5.726562 66.53125-17.820312 96.003906-35.636719 6.65625 7.855469 15.027344 14.074219 24.46875 18.179688 5.515625 3.011719 11.65625 4.707031 17.9375 4.941406 3.167969-.015625 6.300781-.644531 9.230469-1.855468 11.101562 12.8125 19.929687 27.425781 26.105469 43.210937-31.410157-6.6875-64.109376-3.671875-93.765626 8.644531zm64.277344-100.410156c-3.609375-3.117188-7.664062-5.683594-12.027344-7.613281 2.714844-4.222657 4.96875-8.722657 6.714844-13.429688 10.417969-.402343 20.726563-2.234375 30.644532-5.445312-6.921876 10.167969-15.480469 19.121093-25.332032 26.488281zm-25.179687-39.222656c-9.769531-1-23.746094-2.207032-40.078125-3.03125-2.652344-9.230469-6.019532-19.90625-9.855469-30.113282.445313.183594.941406.292969 1.386719.484376 29.117187 12.433593 42.46875 24.5625 48.574218 32.660156zm-70.394531-38.894532c4.941406 11.457032 9.160156 23.210938 12.640624 35.195313-13.085937-.347656-27.0625-.335937-41.1875.257813-3.488281-12.398438-7.628906-24.605469-12.398437-36.570313 13.640625-1.375 27.398437-1 40.945313 1.117187zm-171.015626 47.042969c18.179688-13.484375 38.296876-24.148437 59.667969-31.625 4.40625 12.164063 7.832031 24.140625 9.585938 30.59375-3.542969 1.050781-7 2.167969-10.308594 3.398438-40.398437 15.160156-64.628906 17.710937-85.226563 15.519531 9.257813-5.195312 18.050782-11.179688 26.28125-17.886719zm0 0"/><path d="m112.492188 195.238281c-2.226563 1.855469-54.308594 46.527344-27.84375 134.757813 1.066406 3.550781 4.335937 5.984375 8.042968 5.984375.816406 0 1.625-.121094 2.40625-.351563 2.132813-.640625 3.925782-2.097656 4.980469-4.058594 1.058594-1.960937 1.292969-4.257812.652344-6.390624-23.164063-77.21875 20.664062-115.476563 22.546875-117.0625 3.554687-2.980469 4.023437-8.277344 1.042968-11.832032-2.976562-3.554687-8.273437-4.023437-11.828124-1.046875zm0 0"/></svg>