<?xml version="1.0" encoding="iso-8859-1"?>
<!-- Generator: Adobe Illustrator 19.0.0, SVG Export Plug-In . SVG Version: 6.00 Build 0)  -->
<svg version="1.1" id="Capa_1" xmlns="http://www.w3.org/2000/svg" xmlns:xlink="http://www.w3.org/1999/xlink" x="0px" y="0px"
	 viewBox="0 0 511.999 511.999" style="enable-background:new 0 0 511.999 511.999;" xml:space="preserve">
<g>
	<g>
		<path d="M424.445,493.683c-142.011-21.346-249.1-145.927-249.1-289.783c0-4.056,0.083-8.157,0.248-12.188
			c0.583-14.304-4.573-27.887-14.52-38.249c-8.345-8.692-19.097-14.12-30.816-15.7v-5.671c0-30.66,19.258-58.573,47.92-69.458
			l-5.336-14.049c-17.016,6.463-31.475,17.798-41.812,32.781c-10.336,14.983-15.801,32.524-15.801,50.727v5.764
			c-24.277,3.646-43.269,23.94-44.634,49.183c-0.355,6.561-0.503,13.242-0.44,19.856c0.397,41.561,8.988,81.845,25.537,119.733
			c15.969,36.564,38.624,69.331,67.332,97.39c28.731,28.082,62.043,49.998,99.01,65.143c37.008,15.161,76.077,22.836,116.204,22.836
			c1.399,0,2.804-0.009,4.206-0.028c14.099-0.188,28.234-1.341,42.008-3.424l49.278-7.453L424.445,493.683z M173.528,413.273
			c-56.225-54.954-87.6-128.297-88.345-206.518c-0.06-6.298,0.081-12.658,0.419-18.903c1.077-19.936,17.539-35.552,37.477-35.552
			c10.345,0,19.988,4.11,27.153,11.572c7.086,7.381,10.76,17.051,10.344,27.228c-0.172,4.234-0.26,8.541-0.26,12.801
			c0,74.221,26.762,145.92,75.356,201.892c36.935,42.543,84.566,73.936,137.363,91.133
			C298.132,495.613,227.589,466.112,173.528,413.273z"/>
	</g>
</g>
<g>
	<g>
		<path d="M15.042,174.693c-0.058-6.236,0.084-12.598,0.421-18.907c0.517-9.641,4.658-18.607,11.667-25.251
			c6.998-6.642,16.167-10.3,25.817-10.3c11.307,0,21.91,5.017,29.089,13.765l11.619-9.536
			c-8.436-10.278-20.255-16.856-33.197-18.706v-5.729c0-30.66,19.258-58.573,47.92-69.458l-5.337-14.047
			c-17.016,6.463-31.475,17.798-41.812,32.781c-10.336,14.983-15.801,32.524-15.801,50.727v5.71
			c-10.709,1.534-20.679,6.333-28.642,13.891c-9.808,9.298-15.607,21.853-16.331,35.353c-0.354,6.622-0.502,13.299-0.442,19.85
			c0.457,47.671,11.58,93.319,33.061,135.676c20.459,40.344,50.215,76.428,86.051,104.354l9.239-11.855
			C57.204,347.557,15.9,264.338,15.042,174.693z"/>
	</g>
</g>
<g>
	<g>
		<path d="M505.012,310.367c-5.506-6.822-14.199-9.797-22.684-7.764c-5.518,1.322-11.216,1.992-16.939,1.992
			c-16.577,0-32.189-5.45-45.149-15.76l-4.425-3.521l-27.151,19.309l0.097,3.992c0.392,16.155,6.897,31.342,18.32,42.765
			c12.211,12.21,28.243,18.312,44.28,18.312c16.034,0,32.071-6.105,44.277-18.31c5.031-5.028,9.131-10.804,12.185-17.167
			C511.604,326.336,510.527,317.198,505.012,310.367z M494.276,327.712c-2.318,4.827-5.432,9.215-9.261,13.04
			c-18.555,18.555-48.747,18.556-67.304,0c-7.759-7.759-12.534-17.806-13.673-28.62l11.423-8.124
			c14.687,10.235,31.832,15.615,49.927,15.615c6.9,0,13.778-0.81,20.44-2.406c4.201-1.008,6.795,1.727,7.492,2.589
			C494.019,320.673,496.152,323.801,494.276,327.712z"/>
	</g>
</g>
<g>
	<g>
		<path d="M419.882,379.858l-4.425,3.521c-12.96,10.31-28.573,15.76-45.15,15.76c-5.725,0-11.423-0.67-16.939-1.992
			c-8.486-2.036-17.178,0.942-22.686,7.763c-5.514,6.831-6.591,15.969-2.809,23.848c3.054,6.364,7.154,12.141,12.184,17.165
			c11.829,11.828,27.554,18.343,44.279,18.343c16.726,0,32.451-6.514,44.278-18.343c11.423-11.422,17.931-26.611,18.322-42.765
			l0.097-3.992L419.882,379.858z M417.987,435.297c-8.99,8.99-20.94,13.94-33.652,13.94s-24.662-4.951-33.655-13.943
			c-3.827-3.823-6.943-8.21-9.259-13.038c-1.877-3.911,0.257-7.038,0.955-7.903c0.59-0.73,2.547-2.808,5.691-2.808
			c0.562,0,1.162,0.066,1.799,0.219c6.661,1.596,13.538,2.406,20.441,2.406c18.096,0,35.242-5.38,49.928-15.615l11.423,8.124
			C430.521,417.491,425.747,427.537,417.987,435.297z"/>
	</g>
</g>
<g>
	<g>
		<path d="M384.25,0.002c-21.68,0-43.086,5.528-61.904,15.985l7.301,13.137c16.59-9.219,35.471-14.092,54.603-14.092
			c62.154,0,112.72,50.565,112.72,112.719c0,34.595-15.558,66.786-42.687,88.318l9.344,11.772
			c30.741-24.4,48.371-60.881,48.371-100.09C511.999,57.31,454.691,0.002,384.25,0.002z"/>
	</g>
</g>
<g>
	<g>
		<path d="M389.044,30.181l-0.728,15.011c44.072,2.14,78.596,38.405,78.596,82.56c0,9.607-1.64,19.016-4.872,27.966l14.135,5.106
			c3.826-10.592,5.767-21.719,5.767-33.072C481.942,75.568,441.136,32.71,389.044,30.181z"/>
	</g>
</g>
<g>
	<g>
		<path d="M324.134,40.08c-70.441,0-127.749,57.308-127.749,127.749s57.308,127.749,127.749,127.749
			c70.441,0,127.749-57.308,127.749-127.749S394.575,40.08,324.134,40.08z M324.134,280.548
			c-62.153,0-112.719-50.565-112.719-112.719S261.981,55.109,324.134,55.109s112.72,50.565,112.72,112.719
			S386.287,280.548,324.134,280.548z"/>
	</g>
</g>
<g>
	<g>
		<path d="M324.134,70.139c-53.867,0-97.69,43.823-97.69,97.69s43.823,97.69,97.69,97.69s97.69-43.823,97.69-97.69
			S378.001,70.139,324.134,70.139z M260.644,114.967l45.348,45.348H241.83C243.385,143.158,250.192,127.497,260.644,114.967z
			 M241.83,175.344h64.162l-45.348,45.348C250.192,208.16,243.384,192.501,241.83,175.344z M316.62,250.133
			c-17.157-1.554-32.817-8.362-45.348-18.814l45.348-45.348V250.133z M316.62,149.688l-45.348-45.348
			c12.531-10.451,28.192-17.26,45.348-18.814V149.688z M331.649,85.526c17.157,1.554,32.817,8.362,45.348,18.814l-13.542,13.542
			l10.628,10.627l13.541-13.541c10.451,12.531,17.26,28.191,18.814,45.348h-64.161l21.179-21.179l-10.628-10.627l-21.179,21.179
			V85.526z M331.649,250.133v-64.162l45.348,45.348C364.466,241.771,348.806,248.579,331.649,250.133z M387.625,220.692
			l-45.348-45.348h64.162C404.883,192.501,398.076,208.16,387.625,220.692z"/>
	</g>
</g>
<g>
	<g>
		<rect x="297.078" y="334.653" width="15.029" height="15.029"/>
	</g>
</g>
<g>
	<g>
		<rect x="327.137" y="334.653" width="15.029" height="15.029"/>
	</g>
</g>
<g>
	<g>
		<rect x="267.02" y="334.653" width="15.029" height="15.029"/>
	</g>
</g>
<g>
	<g>
		<path d="M148.237,247.155l-14.89,2.043c0.692,5.058,1.514,10.165,2.439,15.18l14.781-2.726
			C149.683,256.863,148.899,251.986,148.237,247.155z"/>
	</g>
</g>
<g>
	<g>
		<path d="M145.286,203.9c0-4.469,0.092-8.982,0.273-13.413l-15.017-0.615c-0.189,4.635-0.286,9.355-0.286,14.027
			c-0.001,9.983,0.454,20.085,1.353,30.023l14.968-1.354C145.72,223.079,145.285,213.434,145.286,203.9z"/>
	</g>
</g>
<g>
	<g>
		<path d="M139.505,313.953l-13.631,6.333c12.08,25.991,28.085,49.94,47.573,71.183l11.075-10.161
			C166.078,361.205,150.932,338.543,139.505,313.953z"/>
	</g>
</g>
<g>
	<g>
		<path d="M194.694,391.806l-10.5,10.751c3.668,3.584,7.483,7.111,11.335,10.481l9.896-11.311
			C201.778,398.536,198.168,395.199,194.694,391.806z"/>
	</g>
</g>
<g>
	<g>
		<path d="M216.685,411.047l-9.264,11.835c4.034,3.156,8.212,6.245,12.419,9.179l8.597-12.328
			C224.455,416.956,220.501,414.033,216.685,411.047z"/>
	</g>
</g>
<g>
	<g>
		<path d="M45.101,174.416c-0.008-0.807-0.011-1.614-0.011-2.425c0-4.832,0.131-9.744,0.39-14.598l-15.009-0.8
			c-0.273,5.119-0.411,10.3-0.411,15.398c0,0.858,0.003,1.713,0.011,2.568c0.1,10.341,0.778,20.765,2.016,30.982l14.92-1.807
			C45.836,194.067,45.194,184.202,45.101,174.416z"/>
	</g>
</g>
<g>
	<g>
		<path d="M55.884,246.597l-14.409,4.272c1.459,4.921,3.075,9.86,4.805,14.683l14.147-5.075
			C58.792,255.918,57.264,251.248,55.884,246.597z"/>
	</g>
</g>
<g>
	<g>
		<path d="M49.166,218.182l-14.797,2.636c0.899,5.046,1.953,10.134,3.132,15.124l14.626-3.458
			C51.012,227.766,50.016,222.953,49.166,218.182z"/>
	</g>
</g>
<g>
	<g>
		<rect x="340.162" y="220.43" width="15.029" height="15.029"/>
	</g>
</g>
<g>
	<g>
		<rect x="257" y="183.358" width="15.029" height="15.029"/>
	</g>
</g>
<g>
</g>
<g>
</g>
<g>
</g>
<g>
</g>
<g>
</g>
<g>
</g>
<g>
</g>
<g>
</g>
<g>
</g>
<g>
</g>
<g>
</g>
<g>
</g>
<g>
</g>
<g>
</g>
<g>
</g>
</svg>
