<svg xmlns="http://www.w3.org/2000/svg" viewBox="0 0 819.76 275.24"><defs><style>.cls-1{fill:#fff8f8;}.cls-2{fill:#ffe3f3;opacity:0.48;isolation:isolate;}</style></defs><g id="圖層_2" data-name="圖層 2"><g id="背景"><g id="背景-2" data-name="背景"><g id="cloud"><g id="light"><path id="Path_61" data-name="Path 61" class="cls-1" d="M819.72,155.21c-1.6-23-45.34-39.85-107.5-45-22.6-24.73-70.06-44.87-126.42-50.8a277.08,277.08,0,0,0-82.65,3C481.73,25.94,427.57,0,364.12,0,297.5,0,241.1,28.61,222.2,68c-36,7.6-64.85,22.25-80.13,40.63C63,110,0,135.32,0,166.48c0,16,16.59,30.41,43.43,41,7.87,2.68,16,4.74,24.09,6.65,7.53,1.78,15.08,3.56,22.56,5.57l.85.25,2.5.37a104.93,104.93,0,0,1,13.32,1.78c7.55.86,15.34,1.5,23.32,1.89,1.6-.13,3.21-.23,4.81-.27a41.78,41.78,0,0,1,9.47.7h4.84c.15.39.33.76.49,1.15a3.6,3.6,0,0,1,1.24,1.78,10.63,10.63,0,0,0,1.18,2.75l.2.33a29.93,29.93,0,0,0,7,7c4,3.16,8.17,6.11,12.3,9A100,100,0,0,0,192.46,257a89.17,89.17,0,0,1,14.89,5.63,268.13,268.13,0,0,0,30.92,6.94c3.65.3,7.12.43,11,.46a36.88,36.88,0,0,1,9.32.73,3.46,3.46,0,0,1,1,.13l6.09,1.78a68,68,0,0,1,14.8,1.23q7.86.33,16,.36c44.12,0,83.68-7.48,111-19.36a215.29,215.29,0,0,0,37.76,6.87c3.24.15,6.48.32,9.73.66a217.32,217.32,0,0,0,26.15-.37,226.85,226.85,0,0,0,45.32-7.8c7.46-5,15.67-8.9,23.43-13.37,9.15-5.35,17.8-11.77,27.9-15.12a4.48,4.48,0,0,1,1.89-.2,40.37,40.37,0,0,1,15.54,2h0c1.42,0,2.87.13,4.29.25q5.67,0,11.43-.16a59.19,59.19,0,0,1,13.48-1.07c2.1,0,4.2.2,6.3.29l4.11-.25a4.41,4.41,0,0,1,1.52-.29,163.18,163.18,0,0,0,20.81-2.22c6.82-.91,13.62-1.62,20.41-2.82s13.65-2.49,20.58-3.22c2.37-.25,4.75-.48,7.12-.76a34.12,34.12,0,0,1,4.63-2.05,3.7,3.7,0,0,1,.8-.18c.43-.23.86-.46,1.28-.73a109.4,109.4,0,0,1,10.24-5.75,19.89,19.89,0,0,1,2.9-1.91,43.57,43.57,0,0,1,7.91-3.4,25.68,25.68,0,0,1,10.34-1.06,75.54,75.54,0,0,1,9.15.41h0a57.42,57.42,0,0,0,6-.43c4.06-1.23,8.18-2.23,12.32-3.08C802.16,186.37,820.84,170.83,819.72,155.21Z"/></g><g id="dark"><path id="Path_62" data-name="Path 62" class="cls-2" d="M736.08,201.83c-1.33-8.46-40.63-9.3-88.65-2.1-16.13-4.58-38.59-7.43-63.41-7.43-30.27,0-57,4.24-73.09,10.68a226.59,226.59,0,0,0-40.86-3.56,234.76,234.76,0,0,0-28.3,1.66c-14.35-12.57-44.92-21.24-80.32-21.24-7,0-13.88.33-20.44,1-8.22-5.85-22.1-10.07-38.39-11.3a8.69,8.69,0,0,0,0-1.25c.07-13.35-25-24-56-24s-56.09,10.68-56.09,24a9,9,0,0,0,0,1.27q-4.82-.37-9.87-.38A111.88,111.88,0,0,0,147,174a111.72,111.72,0,0,0-33.92-4.81,129,129,0,0,0-21.76,1.79,117.15,117.15,0,0,0-29.88-3.57c-28,0-50.75,8.37-50.75,18.7,0,5.18,5.72,9.86,15,13.26l-.36.22C38.5,206.67,53,210.57,67.52,214c7.53,1.78,15.08,3.56,22.56,5.57l2,.55a148.62,148.62,0,0,1,21.7,3.19l7.51.73a126.31,126.31,0,0,0,13.62-.43,41.74,41.74,0,0,1,10.69.94,4.45,4.45,0,0,1,5.34,2.8c1,4.12,4.93,7.34,8.37,10.06,4,3.16,8.17,6.11,12.3,9.05A99.46,99.46,0,0,0,192.46,257c6.78,1.63,12.91,5,19.39,7.51s14.24,3.56,21.37,4.5a120.81,120.81,0,0,0,16,1,37.31,37.31,0,0,1,9.37.73,3.47,3.47,0,0,1,1,.13l6.05,1.78c6.47-.48,13,1.18,19.41,1.78a125.65,125.65,0,0,0,13,.14h14.74a5.29,5.29,0,0,1,2.46.63,194.18,194.18,0,0,0,29.84-3.19c10.22-1.78,20.42-3.79,30.61-5.77a123.94,123.94,0,0,0,14.61-3.56,99.54,99.54,0,0,1,13.63-3.92c8.54-1.42,17.21,1.18,25.67,2.07,11,1.14,22.13.35,33,2.7l.2-.09c2.37.08,4.77.11,7.21.11a210.29,210.29,0,0,0,52.52-6.18,4.91,4.91,0,0,1,1.21-1.32c8.14-6,17.4-10.18,26.1-15.26,9.16-5.34,17.81-11.76,27.9-15.11a4.59,4.59,0,0,1,1.91-.2,40.32,40.32,0,0,1,15.53,2h0c4.16.16,8.31.66,12.46.94a3.7,3.7,0,0,1,.78-.3,56.16,56.16,0,0,1,15.92-1.6c2.55,0,5.09.27,7.64.36h2.08a4.13,4.13,0,0,1,2.21-.62,163.55,163.55,0,0,0,20.82-2.23c6.81-.91,13.62-1.62,20.4-2.81s13.66-2.5,20.58-3.23c2.37-.24,4.76-.48,7.13-.76a35.41,35.41,0,0,1,4.63-2.05,5.17,5.17,0,0,1,.8-.18c.42-.23.85-.46,1.28-.73a106.91,106.91,0,0,1,10.24-5.75,18.11,18.11,0,0,1,2.9-1.9,42.12,42.12,0,0,1,7.9-3.4,28.08,28.08,0,0,1,3-.73A3.49,3.49,0,0,0,736.08,201.83Z"/></g></g></g></g></g></svg>