<svg xmlns="http://www.w3.org/2000/svg" viewBox="0 0 3914 302"><defs><style>.cls-1{fill:#fff8f8;}.cls-2{fill:#ffe3f3;opacity:0.48;isolation:isolate;}</style></defs><g id="圖層_2" data-name="圖層 2"><g id="背景"><g id="cloud"><g id="light"><path class="cls-1" d="M243.71,47.3c-.48-7-13.47-12.14-32-13.72C205,26.06,190.92,19.91,174.14,18.1a80.39,80.39,0,0,0-24.57.93C143.22,7.9,127.12,0,108.26,0,88.45,0,71.68,8.72,66.06,20.73c-10.69,2.32-19.28,6.79-23.84,12.39C18.73,33.53,0,41.26,0,50.73,0,55.6,4.93,60,12.91,63.19c2.34.81,4.75,1.44,7.16,2,2.25.54,4.49,1.08,6.71,1.7L27,67l.75.12a29.44,29.44,0,0,1,4,.54c2.24.27,4.56.46,6.93.58.48,0,1-.07,1.43-.08a12,12,0,0,1,2.82.21h1.44c0,.12.09.23.14.35a1.09,1.09,0,0,1,.37.57,3.18,3.18,0,0,0,.35.83l.06.1a9.14,9.14,0,0,0,2.08,2.13c1.18,1,2.43,1.86,3.66,2.76a29.91,29.91,0,0,0,6.2,3.22A26.16,26.16,0,0,1,61.65,80a76.42,76.42,0,0,0,9.19,2.11c1.09.1,2.14.14,3.28.15a10.34,10.34,0,0,1,2.77.22,1,1,0,0,1,.3,0l1.81.52a19.87,19.87,0,0,1,4.4.37c1.56.07,3.14.11,4.74.11,13.12,0,24.9-2.28,33-5.9a62.59,62.59,0,0,0,11.25,2.08c1,0,1.93.09,2.89.2a63,63,0,0,0,7.77-.12,66,66,0,0,0,13.48-2.37c2.22-1.54,4.65-2.7,7-4.08,2.73-1.62,5.27-3.58,8.3-4.6a1.25,1.25,0,0,1,.56-.07,11.78,11.78,0,0,1,4.63.62h0c.42,0,.85,0,1.27.08,1.12,0,2.26,0,3.4-.05a17.39,17.39,0,0,1,4-.33c.63,0,1.25.06,1.88.09l1.22-.07a1.24,1.24,0,0,1,.45-.09,46.13,46.13,0,0,0,6.19-.68c2-.28,4-.49,6.06-.85s4.06-.76,6.12-1c.71-.07,1.42-.14,2.12-.23a9,9,0,0,1,1.38-.62,1.05,1.05,0,0,1,.24-.06l.38-.22a32.76,32.76,0,0,1,3-1.75,4.81,4.81,0,0,1,.86-.58,12.28,12.28,0,0,1,2.35-1A7.51,7.51,0,0,1,221,61.6a22.52,22.52,0,0,1,2.72.13h0c.6,0,1.19-.07,1.79-.13,1.21-.38,2.43-.68,3.66-.94C238.49,56.79,244,52.06,243.71,47.3Z"/></g><g id="dark"><path class="cls-2" d="M218.85,61.51c-.4-2.58-12.08-2.84-26.36-.64a70.44,70.44,0,0,0-18.85-2.27c-9,0-16.95,1.29-21.73,3.26a65.21,65.21,0,0,0-12.15-1.09,69.83,69.83,0,0,0-8.42.51c-4.26-3.83-13.35-6.48-23.88-6.48-2.09,0-4.12.11-6.07.3C98.94,53.32,94.82,52,90,51.66a2.53,2.53,0,0,0,0-.38C90,47.23,82.53,44,73.32,44s-16.68,3.28-16.68,7.33a2.53,2.53,0,0,0,0,.38c-1-.07-1.94-.11-2.94-.11a32.4,32.4,0,0,0-10,1.46,32.33,32.33,0,0,0-10.1-1.46,35.93,35.93,0,0,0-6.47.55A33.78,33.78,0,0,0,18.26,51C9.93,51,3.18,53.56,3.18,56.7c0,1.58,1.7,3,4.44,4l-.1.07a49,49,0,0,0,12.55,4.41c2.25.54,4.49,1.08,6.71,1.7l.58.16a44.18,44.18,0,0,1,6.46,1c.74.08,1.48.16,2.23.22a36.53,36.53,0,0,0,4.05-.12,12,12,0,0,1,3.17.28,1.33,1.33,0,0,1,1.6.86,6.51,6.51,0,0,0,2.49,3.06c1.18,1,2.43,1.86,3.66,2.76a29.74,29.74,0,0,0,6.21,3.22A43.1,43.1,0,0,1,63,80.61,27.76,27.76,0,0,0,69.36,82a36.23,36.23,0,0,0,4.76.31,10.38,10.38,0,0,1,2.78.22.92.92,0,0,1,.29,0l1.8.52a31.25,31.25,0,0,1,5.77.56,38.43,38.43,0,0,0,3.87,0H93a1.5,1.5,0,0,1,.73.19,55.08,55.08,0,0,0,8.87-1c3-.54,6.08-1.16,9.11-1.76a36.29,36.29,0,0,0,4.34-1.1,28.91,28.91,0,0,1,4-1.2c2.54-.43,5.12.37,7.64.63,3.27.35,6.57.11,9.81.83l.06,0c.7,0,1.42,0,2.14,0a60.84,60.84,0,0,0,15.62-1.89,1.44,1.44,0,0,1,.35-.4,84.67,84.67,0,0,1,7.76-4.65c2.73-1.62,5.27-3.58,8.3-4.6a1.28,1.28,0,0,1,.57-.07,11.73,11.73,0,0,1,4.62.62h0c1.24.05,2.47.2,3.72.29a.87.87,0,0,1,.24-.1,16.38,16.38,0,0,1,4.73-.49c.76,0,1.51.09,2.27.11h.62a1.2,1.2,0,0,1,.66-.19,46.13,46.13,0,0,0,6.19-.68c2-.28,4-.49,6.06-.85s4.06-.76,6.12-1c.71-.07,1.42-.14,2.12-.23a9,9,0,0,1,1.38-.62,1.05,1.05,0,0,1,.24-.06l.38-.22a32.76,32.76,0,0,1,3-1.75,4.81,4.81,0,0,1,.86-.58,12.28,12.28,0,0,1,2.35-1,8.93,8.93,0,0,1,.89-.23A.61.61,0,0,0,218.85,61.51Z"/></g></g><g id="cloud-2" data-name="cloud"><g id="light-2" data-name="light"><path class="cls-1" d="M482.82,241.72c-.79-11.52-22.21-20-52.67-22.59-11.08-12.41-34.34-22.54-62-25.52a132.31,132.31,0,0,0-40.5,1.53c-10.46-18.34-37-31.36-68.09-31.36-32.65,0-60.28,14.36-69.54,34.16-17.62,3.82-31.78,11.19-39.29,20.41-38.72.69-69.58,13.42-69.58,29,0,8,8.13,15.27,21.28,20.53,3.85,1.34,7.82,2.38,11.8,3.34,3.69.89,7.39,1.78,11,2.8l.42.12,1.23.19a51.11,51.11,0,0,1,6.52.9c3.7.43,7.52.75,11.43,1,.79-.06,1.57-.12,2.35-.14a20.57,20.57,0,0,1,4.65.35l2.12,0h.25c.07.2.16.39.24.58a1.78,1.78,0,0,1,.6.93,5.25,5.25,0,0,0,.58,1.38l.1.17a15.43,15.43,0,0,0,3.43,3.51c1.95,1.58,4,3.06,6,4.54a48.35,48.35,0,0,0,10.22,5.3,44.48,44.48,0,0,1,7.29,2.82,125.94,125.94,0,0,0,15.16,3.49c1.79.16,3.52.22,5.4.24a17.35,17.35,0,0,1,4.56.37,1.67,1.67,0,0,1,.5.05l3,.87a32.3,32.3,0,0,1,7.25.61c2.57.12,5.17.18,7.82.18,21.62,0,41-3.76,54.38-9.72a103.79,103.79,0,0,0,18.54,3.42c1.59.06,3.18.15,4.76.32a103.52,103.52,0,0,0,12.82-.18,108.53,108.53,0,0,0,22.21-3.92c3.65-2.53,7.67-4.44,11.47-6.71,4.49-2.68,8.69-5.91,13.68-7.59a2.15,2.15,0,0,1,.92-.11,19.38,19.38,0,0,1,7.62,1h0q1,0,2.1.12c1.85,0,3.72,0,5.61-.08a28,28,0,0,1,6.6-.54c1,0,2.06.1,3.09.15l2-.13a2.18,2.18,0,0,1,.75-.14,77.79,77.79,0,0,0,10.2-1.12c3.34-.46,6.67-.81,10-1.41s6.7-1.25,10.09-1.62c1.16-.12,2.33-.24,3.49-.39a16.43,16.43,0,0,1,2.27-1,1.83,1.83,0,0,1,.39-.09l.63-.37a54.2,54.2,0,0,1,5-2.89,10.14,10.14,0,0,1,1.43-.95,20.25,20.25,0,0,1,3.87-1.71,12.3,12.3,0,0,1,5.07-.54,35.28,35.28,0,0,1,4.48.21h0a29.05,29.05,0,0,0,2.95-.22c2-.61,4-1.12,6-1.55C474.22,257.37,483.35,249.57,482.82,241.72Z"/></g><g id="dark-2" data-name="dark"><path class="cls-2" d="M441.84,265.14c-.66-4.24-19.91-4.67-43.44-1.05-7.91-2.3-18.91-3.74-31.07-3.74-14.83,0-27.93,2.13-35.81,5.37a107.66,107.66,0,0,0-20-1.79,112.7,112.7,0,0,0-13.86.83c-7-6.31-22-10.66-39.36-10.66-3.44,0-6.8.17-10,.49-4-2.94-10.83-5.07-18.81-5.68q0-.32,0-.63c0-6.66-12.3-12.07-27.48-12.07s-27.48,5.41-27.48,12.07a4.58,4.58,0,0,0,0,.64c-1.57-.13-3.19-.19-4.84-.19a53.7,53.7,0,0,0-16.5,2.41,53.41,53.41,0,0,0-16.65-2.41,61.45,61.45,0,0,0-10.66.9,56.13,56.13,0,0,0-14.64-1.79c-13.74,0-24.87,4.2-24.87,9.39,0,2.6,2.81,4.95,7.33,6.65l-.17.11c6.47,3.61,13.55,5.54,20.69,7.27,3.69.89,7.39,1.78,11,2.8l1,.27a72.3,72.3,0,0,1,10.64,1.6l3.68.37a59.54,59.54,0,0,0,6.67-.22,19.5,19.5,0,0,1,5.24.48,2.17,2.17,0,0,1,2.62,1.4c.52,2.07,2.42,3.69,4.11,5.06,1.95,1.58,4,3.06,6,4.54a48.69,48.69,0,0,0,10.23,5.31c3.33.81,6.33,2.49,9.5,3.76s7,1.77,10.5,2.27a58.87,58.87,0,0,0,7.84.51,17.19,17.19,0,0,1,4.59.37,1.48,1.48,0,0,1,.47.05l3,.87c3.16-.24,6.35.58,9.51.92a61.5,61.5,0,0,0,6.37.07h7.22a2.47,2.47,0,0,1,1.21.31,92.1,92.1,0,0,0,14.62-1.6c5-.89,10-1.9,15-2.89a60.54,60.54,0,0,0,7.16-1.82,46.43,46.43,0,0,1,6.68-2c4.19-.72,8.43.59,12.58,1,5.39.57,10.84.17,16.17,1.36l.09-.05c1.17,0,2.35.05,3.53.05a100.7,100.7,0,0,0,25.74-3.1,2.47,2.47,0,0,1,.6-.66c4-3,8.52-5.11,12.78-7.66,4.49-2.68,8.69-5.91,13.68-7.59a2,2,0,0,1,.93-.11,19.3,19.3,0,0,1,7.61,1h0c2.05.08,4.08.33,6.14.47a1.66,1.66,0,0,1,.39-.15,26.62,26.62,0,0,1,7.8-.81c1.25,0,2.5.14,3.74.18l1,0a2,2,0,0,1,1.09-.32,77.79,77.79,0,0,0,10.2-1.12c3.34-.46,6.67-.81,10-1.41s6.7-1.25,10.09-1.62c1.16-.12,2.33-.24,3.49-.39a16.43,16.43,0,0,1,2.27-1,1.83,1.83,0,0,1,.39-.09l.63-.37a54.2,54.2,0,0,1,5-2.89,10.14,10.14,0,0,1,1.43-.95,20.25,20.25,0,0,1,3.87-1.71,12.16,12.16,0,0,1,1.47-.37A1.22,1.22,0,0,0,441.84,265.14Z"/></g></g><g id="cloud-3" data-name="cloud"><g id="light-3" data-name="light"><path class="cls-1" d="M1105.86,47.3c.48-7,13.48-12.14,32-13.72,6.72-7.52,20.83-13.67,37.61-15.48A80.39,80.39,0,0,1,1200,19c6.35-11.13,22.45-19,41.31-19,19.81,0,36.58,8.72,42.2,20.73,10.69,2.32,19.28,6.79,23.84,12.39,23.49.41,42.22,8.14,42.22,17.61,0,4.87-4.93,9.27-12.91,12.46-2.34.81-4.75,1.44-7.16,2-2.24.54-4.48,1.08-6.71,1.7l-.25.07-.75.12a29.44,29.44,0,0,0-4,.54c-2.24.27-4.56.46-6.93.58-.48,0-1-.07-1.43-.08a12,12,0,0,0-2.82.21h-1.44c0,.12-.09.23-.14.35a1.16,1.16,0,0,0-.37.57,2.88,2.88,0,0,1-.35.83l-.06.1a9.14,9.14,0,0,1-2.08,2.13c-1.18,1-2.43,1.86-3.66,2.76a29.91,29.91,0,0,1-6.2,3.22,26.06,26.06,0,0,0-4.42,1.71,77,77,0,0,1-9.2,2.11c-1.09.1-2.14.14-3.28.15a10.34,10.34,0,0,0-2.77.22,1,1,0,0,0-.3,0l-1.81.52a19.87,19.87,0,0,0-4.4.37c-1.55.07-3.14.11-4.74.11-13.12,0-24.9-2.28-33-5.9a62.43,62.43,0,0,1-11.25,2.08c-1,0-1.93.09-2.89.2a63,63,0,0,1-7.77-.12A66.1,66.1,0,0,1,1193,77.45c-2.21-1.54-4.65-2.7-7-4.08-2.73-1.62-5.27-3.58-8.3-4.6a1.25,1.25,0,0,0-.56-.07,11.7,11.7,0,0,0-4.62.62h0c-.42,0-.85,0-1.27.08-1.12,0-2.26,0-3.4-.05a17.39,17.39,0,0,0-4-.33c-.63,0-1.25.06-1.88.09l-1.21-.07a1.34,1.34,0,0,0-.46-.09,46.13,46.13,0,0,1-6.19-.68c-2-.28-4-.49-6.06-.85s-4.06-.76-6.12-1c-.71-.07-1.42-.14-2.12-.23a9,9,0,0,0-1.38-.62.86.86,0,0,0-.23-.06c-.13-.07-.26-.14-.38-.22a31.67,31.67,0,0,0-3-1.75A4.81,4.81,0,0,0,1134,63a12,12,0,0,0-2.35-1,7.49,7.49,0,0,0-3.08-.33,22.52,22.52,0,0,0-2.72.13h0c-.6,0-1.19-.07-1.79-.13-1.21-.38-2.43-.68-3.66-.94C1111.08,56.79,1105.54,52.06,1105.86,47.3Z"/></g><g id="dark-3" data-name="dark"><path class="cls-2" d="M1130.72,61.51c.4-2.58,12.08-2.84,26.36-.64a70.44,70.44,0,0,1,18.85-2.27c9,0,17,1.29,21.73,3.26a65.21,65.21,0,0,1,12.15-1.09,69.58,69.58,0,0,1,8.42.51c4.27-3.83,13.35-6.48,23.88-6.48,2.09,0,4.12.11,6.07.3,2.45-1.78,6.57-3.07,11.42-3.44a2.48,2.48,0,0,1,0-.38c0-4.05,7.46-7.33,16.67-7.33s16.68,3.28,16.68,7.33a2.53,2.53,0,0,1,0,.38c1-.07,1.94-.11,2.94-.11a32.36,32.36,0,0,1,10,1.46A32.35,32.35,0,0,1,1316,51.55a35.9,35.9,0,0,1,6.46.55,33.78,33.78,0,0,1,8.89-1.09c8.33,0,15.08,2.55,15.08,5.69,0,1.58-1.7,3-4.44,4l.1.07a49,49,0,0,1-12.55,4.41c-2.24.54-4.48,1.08-6.71,1.7l-.58.16a44.18,44.18,0,0,0-6.46,1c-.74.08-1.48.16-2.23.22a36.53,36.53,0,0,1-4-.12,12,12,0,0,0-3.17.28,1.33,1.33,0,0,0-1.6.86,6.45,6.45,0,0,1-2.49,3.06c-1.18,1-2.43,1.86-3.66,2.76a29.91,29.91,0,0,1-6.2,3.22,43.23,43.23,0,0,0-5.77,2.28,27.64,27.64,0,0,1-6.37,1.38,36.23,36.23,0,0,1-4.76.31,10.41,10.41,0,0,0-2.78.22.92.92,0,0,0-.29,0l-1.8.52a31.25,31.25,0,0,0-5.77.56,38.43,38.43,0,0,1-3.87,0h-4.38a1.5,1.5,0,0,0-.73.19,55.08,55.08,0,0,1-8.87-1c-3-.54-6.08-1.16-9.1-1.76a36,36,0,0,1-4.35-1.1,28.91,28.91,0,0,0-4-1.2c-2.54-.43-5.12.37-7.64.63-3.27.35-6.57.11-9.81.83l0,0c-.71,0-1.42,0-2.15,0a60.7,60.7,0,0,1-15.61-1.89,1.67,1.67,0,0,0-.36-.4,83.34,83.34,0,0,0-7.76-4.65c-2.73-1.62-5.27-3.58-8.3-4.6a1.28,1.28,0,0,0-.57-.07,11.68,11.68,0,0,0-4.61.62h0c-1.25.05-2.48.2-3.73.29a.87.87,0,0,0-.24-.1,16.38,16.38,0,0,0-4.73-.49c-.76,0-1.51.09-2.27.11H1161a1.2,1.2,0,0,0-.66-.19,46.13,46.13,0,0,1-6.19-.68c-2-.28-4-.49-6.06-.85s-4.06-.76-6.12-1c-.71-.07-1.42-.14-2.12-.23a9,9,0,0,0-1.38-.62.86.86,0,0,0-.23-.06c-.13-.07-.26-.14-.38-.22a31.67,31.67,0,0,0-3-1.75A4.81,4.81,0,0,0,1134,63a12,12,0,0,0-2.35-1,8.93,8.93,0,0,0-.89-.23A.61.61,0,0,1,1130.72,61.51Z"/></g></g><g id="cloud-4" data-name="cloud"><g id="light-4" data-name="light"><path class="cls-1" d="M836.76,241.72c.78-11.52,22.2-20,52.66-22.59,11.08-12.41,34.34-22.54,62-25.52a132.31,132.31,0,0,1,40.5,1.53c10.47-18.34,37-31.36,68.09-31.36,32.65,0,60.28,14.36,69.54,34.16,17.62,3.82,31.78,11.19,39.29,20.41,38.72.69,69.58,13.42,69.58,29,0,8-8.13,15.27-21.28,20.53-3.85,1.34-7.82,2.38-11.8,3.34-3.69.89-7.39,1.78-11,2.8l-.42.12-1.23.19a51.35,51.35,0,0,0-6.52.9c-3.7.43-7.52.75-11.43,1-.79-.06-1.57-.12-2.35-.14a20.57,20.57,0,0,0-4.65.35l-2.12,0h-.25c-.07.2-.16.39-.24.58a1.78,1.78,0,0,0-.6.93,5.25,5.25,0,0,1-.58,1.38l-.1.17a15.22,15.22,0,0,1-3.43,3.51c-1.94,1.58-4,3.06-6,4.54a48.27,48.27,0,0,1-10.21,5.3,44.58,44.58,0,0,0-7.3,2.82,125.94,125.94,0,0,1-15.16,3.49c-1.79.16-3.52.22-5.4.24a17.35,17.35,0,0,0-4.56.37,1.67,1.67,0,0,0-.5.05l-3,.87a32.3,32.3,0,0,0-7.25.61c-2.57.12-5.17.18-7.82.18-21.62,0-41-3.76-54.38-9.72a103.79,103.79,0,0,1-18.54,3.42c-1.59.06-3.18.15-4.76.32a103.36,103.36,0,0,1-12.81-.18,108.51,108.51,0,0,1-22.22-3.92c-3.65-2.53-7.67-4.44-11.47-6.71-4.49-2.68-8.69-5.91-13.68-7.59a2.15,2.15,0,0,0-.92-.11,19.38,19.38,0,0,0-7.62,1h0q-1.05,0-2.1.12c-1.85,0-3.72,0-5.61-.08a28,28,0,0,0-6.6-.54c-1,0-2.06.1-3.09.15l-2-.13a2.18,2.18,0,0,0-.75-.14,78,78,0,0,1-10.2-1.12c-3.34-.46-6.67-.81-10-1.41s-6.7-1.25-10.08-1.62c-1.17-.12-2.34-.24-3.5-.39a16.43,16.43,0,0,0-2.27-1,1.83,1.83,0,0,0-.39-.09l-.63-.37a54.2,54.2,0,0,0-5-2.89,9.1,9.1,0,0,0-1.43-.95,20.25,20.25,0,0,0-3.87-1.71,12.28,12.28,0,0,0-5.07-.54,35.28,35.28,0,0,0-4.48.21h0a29.05,29.05,0,0,1-3-.22c-2-.61-4-1.12-6-1.55C845.35,257.37,836.22,249.57,836.76,241.72Z"/></g><g id="dark-4" data-name="dark"><path class="cls-2" d="M877.73,265.14c.66-4.24,19.91-4.67,43.44-1.05,7.91-2.3,18.91-3.74,31.07-3.74,14.83,0,27.93,2.13,35.81,5.37a107.66,107.66,0,0,1,20-1.79,112.7,112.7,0,0,1,13.86.83c7-6.31,22-10.66,39.36-10.66,3.44,0,6.8.17,10,.49,4-2.94,10.83-5.07,18.81-5.68q0-.32,0-.63c0-6.66,12.3-12.07,27.48-12.07s27.48,5.41,27.48,12.07a4.58,4.58,0,0,1,0,.64c1.57-.13,3.19-.19,4.84-.19a53.7,53.7,0,0,1,16.5,2.41,53.45,53.45,0,0,1,16.65-2.41,61.37,61.37,0,0,1,10.66.9,56.13,56.13,0,0,1,14.64-1.79c13.74,0,24.87,4.2,24.87,9.39,0,2.6-2.8,4.95-7.33,6.65l.17.11c-6.47,3.61-13.55,5.54-20.69,7.27-3.69.89-7.39,1.78-11,2.8l-1,.27a72.5,72.5,0,0,0-10.64,1.6l-3.68.37a59.54,59.54,0,0,1-6.67-.22,19.5,19.5,0,0,0-5.24.48,2.17,2.17,0,0,0-2.62,1.4c-.52,2.07-2.42,3.69-4.11,5.06-1.94,1.58-4,3.06-6,4.54a48.69,48.69,0,0,1-10.23,5.31c-3.33.81-6.33,2.49-9.5,3.76s-7,1.77-10.5,2.27a58.87,58.87,0,0,1-7.84.51,17.19,17.19,0,0,0-4.59.37,1.51,1.51,0,0,0-.47.05l-3,.87c-3.16-.24-6.35.58-9.51.92a61.5,61.5,0,0,1-6.37.07h-7.22a2.47,2.47,0,0,0-1.21.31,92.23,92.23,0,0,1-14.62-1.6c-5-.89-10-1.9-15-2.89a61,61,0,0,1-7.16-1.82,46.05,46.05,0,0,0-6.68-2c-4.19-.72-8.43.59-12.58,1-5.39.57-10.84.17-16.17,1.36l-.09-.05c-1.17,0-2.34.05-3.53.05a100.7,100.7,0,0,1-25.74-3.1,2.31,2.31,0,0,0-.6-.66c-4-3-8.52-5.11-12.78-7.66-4.49-2.68-8.69-5.91-13.68-7.59a2,2,0,0,0-.93-.11,19.33,19.33,0,0,0-7.61,1h0c-2,.08-4.08.33-6.14.47a1.66,1.66,0,0,0-.39-.15,26.62,26.62,0,0,0-7.8-.81c-1.25,0-2.49.14-3.74.18l-1,0a2,2,0,0,0-1.09-.32,78,78,0,0,1-10.2-1.12c-3.34-.46-6.67-.81-10-1.41s-6.7-1.25-10.08-1.62c-1.17-.12-2.34-.24-3.5-.39a16.43,16.43,0,0,0-2.27-1,1.83,1.83,0,0,0-.39-.09l-.63-.37a54.2,54.2,0,0,0-5-2.89,9.1,9.1,0,0,0-1.43-.95,20.25,20.25,0,0,0-3.87-1.71,12.16,12.16,0,0,0-1.47-.37A1.82,1.82,0,0,1,877.73,265.14Z"/></g></g><g id="cloud-5" data-name="cloud"><g id="light-5" data-name="light"><path class="cls-1" d="M1749.26,47.3c.48-7,13.48-12.14,32-13.72,6.72-7.52,20.83-13.67,37.61-15.48a80.39,80.39,0,0,1,24.57.93c6.35-11.13,22.45-19,41.31-19,19.81,0,36.58,8.72,42.2,20.73,10.69,2.32,19.28,6.79,23.84,12.39,23.49.41,42.22,8.14,42.22,17.61,0,4.87-4.93,9.27-12.91,12.46-2.34.81-4.75,1.44-7.16,2-2.24.54-4.48,1.08-6.71,1.7l-.25.07-.75.12a29.44,29.44,0,0,0-4,.54c-2.24.27-4.56.46-6.93.58-.48,0-1-.07-1.43-.08a12,12,0,0,0-2.82.21h-1.44c0,.12-.09.23-.14.35a1.16,1.16,0,0,0-.37.57,2.88,2.88,0,0,1-.35.83l-.06.1a9,9,0,0,1-2.08,2.13c-1.18,1-2.43,1.86-3.66,2.76a29.91,29.91,0,0,1-6.2,3.22,26.06,26.06,0,0,0-4.42,1.71,77,77,0,0,1-9.2,2.11c-1.09.1-2.14.14-3.28.15a10.34,10.34,0,0,0-2.77.22,1,1,0,0,0-.3,0l-1.81.52a19.87,19.87,0,0,0-4.4.37c-1.55.07-3.14.11-4.74.11-13.12,0-24.9-2.28-33-5.9a62.43,62.43,0,0,1-11.25,2.08c-1,0-1.93.09-2.89.2a63,63,0,0,1-7.77-.12,66.1,66.1,0,0,1-13.48-2.37c-2.21-1.54-4.65-2.7-7-4.08-2.73-1.62-5.27-3.58-8.3-4.6a1.25,1.25,0,0,0-.56-.07,11.7,11.7,0,0,0-4.62.62h0c-.42,0-.85,0-1.27.08-1.12,0-2.26,0-3.4-.05a17.39,17.39,0,0,0-4-.33c-.63,0-1.25.06-1.88.09l-1.21-.07a1.34,1.34,0,0,0-.46-.09,46.13,46.13,0,0,1-6.19-.68c-2-.28-4-.49-6.06-.85s-4.06-.76-6.12-1c-.71-.07-1.42-.14-2.12-.23a9,9,0,0,0-1.38-.62.86.86,0,0,0-.23-.06c-.13-.07-.26-.14-.38-.22a31.67,31.67,0,0,0-3-1.75,4.48,4.48,0,0,0-.86-.58,12,12,0,0,0-2.35-1,7.49,7.49,0,0,0-3.08-.33,22.52,22.52,0,0,0-2.72.13h0c-.6,0-1.19-.07-1.79-.13-1.21-.38-2.43-.68-3.66-.94C1754.48,56.79,1748.94,52.06,1749.26,47.3Z"/></g><g id="dark-5" data-name="dark"><path class="cls-2" d="M1774.12,61.51c.4-2.58,12.08-2.84,26.36-.64a70.44,70.44,0,0,1,18.85-2.27c9,0,17,1.29,21.73,3.26a65.21,65.21,0,0,1,12.15-1.09,69.58,69.58,0,0,1,8.42.51c4.27-3.83,13.35-6.48,23.88-6.48,2.09,0,4.12.11,6.07.3,2.45-1.78,6.57-3.07,11.42-3.44a2.48,2.48,0,0,1,0-.38c0-4.05,7.46-7.33,16.67-7.33s16.68,3.28,16.68,7.33a2.53,2.53,0,0,1,0,.38c1-.07,1.94-.11,2.94-.11a35.39,35.39,0,0,0,20.12,0,35.9,35.9,0,0,1,6.46.55,33.78,33.78,0,0,1,8.89-1.09c8.33,0,15.09,2.55,15.09,5.69,0,1.58-1.71,3-4.45,4l.1.07a48.92,48.92,0,0,1-12.55,4.41c-2.24.54-4.48,1.08-6.71,1.7l-.58.16a44.18,44.18,0,0,0-6.46,1c-.74.08-1.48.16-2.23.22a36.53,36.53,0,0,1-4.05-.12,12,12,0,0,0-3.17.28,1.33,1.33,0,0,0-1.6.86,6.45,6.45,0,0,1-2.49,3.06c-1.18,1-2.43,1.86-3.66,2.76a29.91,29.91,0,0,1-6.2,3.22,43.23,43.23,0,0,0-5.77,2.28,27.64,27.64,0,0,1-6.37,1.38,36.23,36.23,0,0,1-4.76.31,10.41,10.41,0,0,0-2.78.22,1,1,0,0,0-.29,0l-1.8.52a31.25,31.25,0,0,0-5.77.56,38.4,38.4,0,0,1-3.87,0H1900a1.53,1.53,0,0,0-.73.19,55.08,55.08,0,0,1-8.87-1c-3-.54-6.08-1.16-9.1-1.76a36,36,0,0,1-4.35-1.1,28.91,28.91,0,0,0-4.05-1.2c-2.54-.43-5.12.37-7.64.63-3.27.35-6.57.11-9.81.83l-.05,0c-.71,0-1.42,0-2.15,0a60.7,60.7,0,0,1-15.61-1.89,1.67,1.67,0,0,0-.36-.4,83.34,83.34,0,0,0-7.76-4.65c-2.73-1.62-5.27-3.58-8.3-4.6a1.28,1.28,0,0,0-.57-.07,11.68,11.68,0,0,0-4.61.62h0c-1.25.05-2.48.2-3.73.29a.87.87,0,0,0-.24-.1,16.38,16.38,0,0,0-4.73-.49c-.76,0-1.51.09-2.27.11h-.62a1.2,1.2,0,0,0-.66-.19,46.13,46.13,0,0,1-6.19-.68c-2-.28-4-.49-6.06-.85s-4.06-.76-6.12-1c-.71-.07-1.42-.14-2.12-.23a9,9,0,0,0-1.38-.62.86.86,0,0,0-.23-.06c-.13-.07-.26-.14-.38-.22a31.67,31.67,0,0,0-3-1.75,4.48,4.48,0,0,0-.86-.58,12,12,0,0,0-2.35-1,8.93,8.93,0,0,0-.89-.23A.61.61,0,0,1,1774.12,61.51Z"/></g></g><g id="cloud-6" data-name="cloud"><g id="light-6" data-name="light"><path class="cls-1" d="M1413.16,241.72c.78-11.52,22.2-20,52.66-22.59,11.08-12.41,34.34-22.54,62-25.52a132.3,132.3,0,0,1,40.5,1.53c10.47-18.34,37-31.36,68.09-31.36,32.65,0,60.28,14.36,69.54,34.16,17.62,3.82,31.78,11.19,39.29,20.41,38.72.69,69.58,13.42,69.58,29,0,8-8.13,15.27-21.28,20.53-3.85,1.34-7.81,2.38-11.8,3.34-3.69.89-7.39,1.78-11,2.8l-.42.12-1.23.19a51.35,51.35,0,0,0-6.52.9c-3.7.43-7.52.75-11.43,1-.79-.06-1.57-.12-2.35-.14a20.57,20.57,0,0,0-4.65.35l-2.12,0h-.25c-.07.2-.16.39-.24.58a1.78,1.78,0,0,0-.6.93,5.25,5.25,0,0,1-.58,1.38l-.1.17a15.22,15.22,0,0,1-3.43,3.51c-1.94,1.58-4,3.06-6,4.54a48.27,48.27,0,0,1-10.21,5.3,44.58,44.58,0,0,0-7.3,2.82,125.94,125.94,0,0,1-15.16,3.49c-1.79.16-3.52.22-5.4.24a17.35,17.35,0,0,0-4.56.37,1.67,1.67,0,0,0-.5.05l-3,.87a32.3,32.3,0,0,0-7.25.61c-2.57.12-5.17.18-7.82.18-21.62,0-41-3.76-54.37-9.72a104.06,104.06,0,0,1-18.55,3.42c-1.59.06-3.18.15-4.76.32a103.36,103.36,0,0,1-12.81-.18,108.51,108.51,0,0,1-22.22-3.92c-3.65-2.53-7.67-4.44-11.47-6.71-4.49-2.68-8.69-5.91-13.68-7.59a2.15,2.15,0,0,0-.92-.11,19.38,19.38,0,0,0-7.62,1h0q-1,0-2.1.12c-1.85,0-3.72,0-5.61-.08a28,28,0,0,0-6.6-.54c-1,0-2.06.1-3.09.15l-2-.13a2.18,2.18,0,0,0-.75-.14,78,78,0,0,1-10.2-1.12c-3.34-.46-6.67-.81-10-1.41s-6.7-1.25-10.08-1.62c-1.17-.12-2.34-.24-3.5-.39a16.43,16.43,0,0,0-2.27-1,1.83,1.83,0,0,0-.39-.09l-.63-.37a54.2,54.2,0,0,0-5-2.89,9.1,9.1,0,0,0-1.43-.95,20.25,20.25,0,0,0-3.87-1.71,12.28,12.28,0,0,0-5.07-.54,35.28,35.28,0,0,0-4.48.21h0a29.05,29.05,0,0,1-3-.22c-2-.61-4-1.12-6-1.55C1421.75,257.37,1412.62,249.57,1413.16,241.72Z"/></g><g id="dark-6" data-name="dark"><path class="cls-2" d="M1454.13,265.14c.66-4.24,19.91-4.67,43.44-1.05,7.91-2.3,18.91-3.74,31.07-3.74,14.83,0,27.93,2.13,35.81,5.37a107.66,107.66,0,0,1,20-1.79,112.7,112.7,0,0,1,13.86.83c7-6.31,22-10.66,39.36-10.66,3.44,0,6.8.17,10,.49,4-2.94,10.83-5.07,18.81-5.68q0-.32,0-.63c0-6.66,12.3-12.07,27.48-12.07s27.48,5.41,27.48,12.07a4.58,4.58,0,0,1,0,.64c1.57-.13,3.19-.19,4.84-.19a53.7,53.7,0,0,1,16.5,2.41,53.45,53.45,0,0,1,16.65-2.41,61.37,61.37,0,0,1,10.66.9,56.13,56.13,0,0,1,14.64-1.79c13.74,0,24.87,4.2,24.87,9.39,0,2.6-2.8,4.95-7.33,6.65l.17.11c-6.47,3.61-13.55,5.54-20.69,7.27-3.69.89-7.39,1.78-11,2.8l-1,.27a72.5,72.5,0,0,0-10.64,1.6l-3.68.37a59.54,59.54,0,0,1-6.67-.22,19.5,19.5,0,0,0-5.24.48,2.17,2.17,0,0,0-2.62,1.4c-.52,2.07-2.42,3.69-4.11,5.06-1.94,1.58-4,3.06-6,4.54a48.69,48.69,0,0,1-10.23,5.31c-3.33.81-6.33,2.49-9.5,3.76s-7,1.77-10.5,2.27a58.87,58.87,0,0,1-7.84.51,17.19,17.19,0,0,0-4.59.37,1.51,1.51,0,0,0-.47.05l-3,.87c-3.16-.24-6.35.58-9.51.92a61.5,61.5,0,0,1-6.37.07h-7.22a2.47,2.47,0,0,0-1.21.31,92.23,92.23,0,0,1-14.62-1.6c-5-.89-10-1.9-15-2.89a61,61,0,0,1-7.16-1.82,46.05,46.05,0,0,0-6.68-2c-4.19-.72-8.43.59-12.58,1-5.39.57-10.84.17-16.17,1.36l-.09-.05c-1.17,0-2.34.05-3.53.05a100.7,100.7,0,0,1-25.74-3.1,2.27,2.27,0,0,0-.59-.66c-4-3-8.53-5.11-12.79-7.66-4.49-2.68-8.69-5.91-13.68-7.59a2,2,0,0,0-.93-.11,19.33,19.33,0,0,0-7.61,1h0c-2.05.08-4.08.33-6.14.47a1.66,1.66,0,0,0-.39-.15,26.62,26.62,0,0,0-7.8-.81c-1.25,0-2.49.14-3.74.18l-1,0a2,2,0,0,0-1.09-.32,78,78,0,0,1-10.2-1.12c-3.34-.46-6.67-.81-10-1.41s-6.7-1.25-10.08-1.62c-1.17-.12-2.34-.24-3.5-.39a16.43,16.43,0,0,0-2.27-1,1.83,1.83,0,0,0-.39-.09l-.63-.37a54.2,54.2,0,0,0-5-2.89,9.1,9.1,0,0,0-1.43-.95,20.25,20.25,0,0,0-3.87-1.71,12.16,12.16,0,0,0-1.47-.37A1.82,1.82,0,0,1,1454.13,265.14Z"/></g></g><g id="cloud-7" data-name="cloud"><g id="light-7" data-name="light"><path class="cls-1" d="M2359.8,47.3c.48-7,13.48-12.14,32-13.72,6.72-7.52,20.83-13.67,37.61-15.48a80.39,80.39,0,0,1,24.57.93c6.35-11.13,22.45-19,41.32-19,19.81,0,36.57,8.72,42.19,20.73,10.69,2.32,19.28,6.79,23.84,12.39,23.5.41,42.22,8.14,42.22,17.61,0,4.87-4.93,9.27-12.91,12.46-2.34.81-4.74,1.44-7.16,2-2.24.54-4.48,1.08-6.71,1.7l-.25.07-.74.12a29.22,29.22,0,0,0-4,.54q-3.37.41-6.94.58c-.48,0-1-.07-1.42-.08a12.15,12.15,0,0,0-2.83.21h-1.44c0,.12-.09.23-.14.35a1.08,1.08,0,0,0-.36.57,3.21,3.21,0,0,1-.36.83.93.93,0,0,1-.05.1,9,9,0,0,1-2.09,2.13c-1.18,1-2.42,1.86-3.65,2.76a29.91,29.91,0,0,1-6.2,3.22,26.16,26.16,0,0,0-4.43,1.71,76.59,76.59,0,0,1-9.2,2.11c-1.08.1-2.14.14-3.28.15a10.24,10.24,0,0,0-2.76.22,1.06,1.06,0,0,0-.31,0l-1.8.52a19.77,19.77,0,0,0-4.4.37c-1.56.07-3.14.11-4.75.11-13.12,0-24.9-2.28-33-5.9a62.76,62.76,0,0,1-11.25,2.08c-1,0-1.93.09-2.89.2a63.13,63.13,0,0,1-7.78-.12A66.1,66.1,0,0,1,2447,77.45c-2.21-1.54-4.65-2.7-7-4.08-2.72-1.62-5.27-3.58-8.3-4.6a1.24,1.24,0,0,0-.56-.07,11.73,11.73,0,0,0-4.62.62h0c-.43,0-.85,0-1.28.08-1.12,0-2.26,0-3.4-.05a17.34,17.34,0,0,0-4-.33l-1.87.09-1.22-.07a1.3,1.3,0,0,0-.46-.09,46,46,0,0,1-6.18-.68c-2-.28-4.05-.49-6.07-.85s-4.06-.76-6.12-1c-.7-.07-1.41-.14-2.12-.23a8.86,8.86,0,0,0-1.37-.62,1.05,1.05,0,0,0-.24-.06l-.38-.22a32.76,32.76,0,0,0-3-1.75,4.88,4.88,0,0,0-.87-.58,12,12,0,0,0-2.35-1,7.47,7.47,0,0,0-3.08-.33,22.35,22.35,0,0,0-2.71.13h0c-.6,0-1.2-.07-1.8-.13-1.2-.38-2.43-.68-3.66-.94C2365,56.79,2359.48,52.06,2359.8,47.3Z"/></g><g id="dark-7" data-name="dark"><path class="cls-2" d="M2384.67,61.51c.39-2.58,12.08-2.84,26.35-.64a70.52,70.52,0,0,1,18.86-2.27c9,0,16.94,1.29,21.73,3.26a65.14,65.14,0,0,1,12.15-1.09,69.54,69.54,0,0,1,8.41.51c4.27-3.83,13.36-6.48,23.88-6.48,2.09,0,4.13.11,6.08.3,2.44-1.78,6.57-3.07,11.41-3.44,0-.13,0-.26,0-.38,0-4.05,7.46-7.33,16.67-7.33s16.68,3.28,16.68,7.33c0,.12,0,.25,0,.38,1-.07,1.93-.11,2.93-.11a35.39,35.39,0,0,0,20.12,0,36,36,0,0,1,6.47.55,33.71,33.71,0,0,1,8.88-1.09c8.33,0,15.09,2.55,15.09,5.69,0,1.58-1.7,3-4.45,4l.11.07a49.12,49.12,0,0,1-12.56,4.41c-2.24.54-4.48,1.08-6.71,1.7l-.58.16a44,44,0,0,0-6.45,1c-.75.08-1.49.16-2.23.22a36.53,36.53,0,0,1-4-.12,12,12,0,0,0-3.18.28,1.32,1.32,0,0,0-1.59.86,6.53,6.53,0,0,1-2.5,3.06c-1.18,1-2.42,1.86-3.65,2.76a30.24,30.24,0,0,1-6.21,3.22,43.77,43.77,0,0,0-5.77,2.28,27.64,27.64,0,0,1-6.37,1.38,36.23,36.23,0,0,1-4.76.31,10.41,10.41,0,0,0-2.78.22,1,1,0,0,0-.29,0l-1.8.52a31.33,31.33,0,0,0-5.77.56,38.37,38.37,0,0,1-3.87,0h-4.38a1.53,1.53,0,0,0-.73.19,55.08,55.08,0,0,1-8.87-1c-3-.54-6.07-1.16-9.1-1.76a36,36,0,0,1-4.35-1.1,28.91,28.91,0,0,0-4-1.2c-2.54-.43-5.12.37-7.63.63-3.27.35-6.58.11-9.81.83l-.06,0c-.71,0-1.42,0-2.14,0a60.78,60.78,0,0,1-15.62-1.89,1.49,1.49,0,0,0-.36-.4,83.34,83.34,0,0,0-7.76-4.65c-2.72-1.62-5.27-3.58-8.3-4.6a1.25,1.25,0,0,0-.56-.07,11.7,11.7,0,0,0-4.62.62h0c-1.24.05-2.48.2-3.73.29a.94.94,0,0,0-.23-.1,16.45,16.45,0,0,0-4.74-.49c-.75,0-1.51.09-2.27.11H2415a1.26,1.26,0,0,0-.67-.19,46,46,0,0,1-6.18-.68c-2-.28-4.05-.49-6.07-.85s-4.06-.76-6.12-1c-.7-.07-1.41-.14-2.12-.23a8.86,8.86,0,0,0-1.37-.62,1.05,1.05,0,0,0-.24-.06l-.38-.22a32.76,32.76,0,0,0-3-1.75,4.88,4.88,0,0,0-.87-.58,12,12,0,0,0-2.35-1,8.93,8.93,0,0,0-.89-.23A.61.61,0,0,1,2384.67,61.51Z"/></g></g><g id="cloud-8" data-name="cloud"><g id="light-8" data-name="light"><path class="cls-1" d="M2023.7,241.72c.78-11.52,22.21-20,52.67-22.59,11.07-12.41,34.33-22.54,62-25.52a132.31,132.31,0,0,1,40.5,1.53c10.46-18.34,37-31.36,68.08-31.36,32.65,0,60.28,14.36,69.54,34.16,17.62,3.82,31.78,11.19,39.3,20.41,38.71.69,69.58,13.42,69.58,29,0,8-8.14,15.27-21.29,20.53-3.85,1.34-7.81,2.38-11.79,3.34-3.7.89-7.39,1.78-11.06,2.8l-.42.12-1.22.19a51.26,51.26,0,0,0-6.53.9q-5.55.64-11.43,1c-.79-.06-1.57-.12-2.35-.14a20.57,20.57,0,0,0-4.65.35l-2.11,0h-.26a5.89,5.89,0,0,1-.24.58,1.84,1.84,0,0,0-.6.93,4.93,4.93,0,0,1-.58,1.38l-.1.17a15.18,15.18,0,0,1-3.42,3.51c-2,1.58-4,3.06-6,4.54a48.35,48.35,0,0,1-10.22,5.3,44.58,44.58,0,0,0-7.3,2.82,125.94,125.94,0,0,1-15.16,3.49c-1.79.16-3.52.22-5.4.24a17.35,17.35,0,0,0-4.56.37,1.7,1.7,0,0,0-.5.05l-3,.87a32.35,32.35,0,0,0-7.25.61q-3.84.18-7.82.18c-21.62,0-41-3.76-54.37-9.72a103.89,103.89,0,0,1-18.55,3.42c-1.59.06-3.17.15-4.76.32a103.36,103.36,0,0,1-12.81-.18,108.29,108.29,0,0,1-22.21-3.92c-3.65-2.53-7.67-4.44-11.48-6.71-4.49-2.68-8.68-5.91-13.68-7.59a2.14,2.14,0,0,0-.92-.11,19.4,19.4,0,0,0-7.62,1h0q-1,0-2.1.12c-1.85,0-3.72,0-5.6-.08a28.17,28.17,0,0,0-6.61-.54c-1,0-2.06.1-3.09.15l-2-.13a2.13,2.13,0,0,0-.75-.14,77.64,77.64,0,0,1-10.19-1.12c-3.34-.46-6.67-.81-10-1.41s-6.69-1.25-10.08-1.62c-1.17-.12-2.34-.24-3.5-.39a15.91,15.91,0,0,0-2.27-1,1.83,1.83,0,0,0-.39-.09l-.63-.37a52.92,52.92,0,0,0-5-2.89,9.1,9.1,0,0,0-1.43-.95,20.44,20.44,0,0,0-3.86-1.71,12.35,12.35,0,0,0-5.08-.54,35.28,35.28,0,0,0-4.48.21h0a29.25,29.25,0,0,1-3-.22c-2-.61-4-1.12-6-1.55C2032.3,257.37,2023.16,249.57,2023.7,241.72Z"/></g><g id="dark-8" data-name="dark"><path class="cls-2" d="M2064.67,265.14c.66-4.24,19.91-4.67,43.44-1.05,7.91-2.3,18.91-3.74,31.07-3.74,14.83,0,27.93,2.13,35.82,5.37a107.56,107.56,0,0,1,20-1.79,113,113,0,0,1,13.87.83c7-6.31,22-10.66,39.35-10.66,3.45,0,6.8.17,10,.49,4-2.94,10.82-5.07,18.81-5.68a4.44,4.44,0,0,1,0-.63c0-6.66,12.3-12.07,27.48-12.07s27.48,5.41,27.48,12.07c0,.21,0,.43,0,.64,1.57-.13,3.18-.19,4.83-.19a53.7,53.7,0,0,1,16.5,2.41,53.51,53.51,0,0,1,16.66-2.41,61.45,61.45,0,0,1,10.66.9,56,56,0,0,1,14.64-1.79c13.73,0,24.86,4.2,24.86,9.39,0,2.6-2.8,4.95-7.33,6.65l.18.11c-6.48,3.61-13.56,5.54-20.69,7.27-3.7.89-7.39,1.78-11.06,2.8l-1,.27a72.5,72.5,0,0,0-10.64,1.6l-3.67.37a59.64,59.64,0,0,1-6.68-.22,19.43,19.43,0,0,0-5.23.48,2.18,2.18,0,0,0-2.63,1.4c-.52,2.07-2.42,3.69-4.1,5.06-2,1.58-4,3.06-6,4.54a49.18,49.18,0,0,1-10.23,5.31c-3.33.81-6.33,2.49-9.5,3.76s-7,1.77-10.5,2.27a59.13,59.13,0,0,1-7.85.51,17.08,17.08,0,0,0-4.58.37,1.57,1.57,0,0,0-.48.05l-3,.87c-3.17-.24-6.36.58-9.51.92a61.73,61.73,0,0,1-6.38.07h-7.22a2.5,2.5,0,0,0-1.21.31,92.23,92.23,0,0,1-14.62-1.6c-5-.89-10-1.9-15-2.89a61,61,0,0,1-7.16-1.82,45.69,45.69,0,0,0-6.68-2c-4.18-.72-8.43.59-12.58,1-5.39.57-10.84.17-16.16,1.36l-.1-.05c-1.17,0-2.34.05-3.53.05a100.76,100.76,0,0,1-25.74-3.1,2.27,2.27,0,0,0-.59-.66c-4-3-8.52-5.11-12.79-7.66-4.49-2.68-8.68-5.91-13.68-7.59a2,2,0,0,0-.93-.11,19.35,19.35,0,0,0-7.61,1h0c-2,.08-4.08.33-6.14.47a1.66,1.66,0,0,0-.39-.15,26.62,26.62,0,0,0-7.8-.81c-1.25,0-2.49.14-3.74.18l-1,0a1.93,1.93,0,0,0-1.09-.32,77.64,77.64,0,0,1-10.19-1.12c-3.34-.46-6.67-.81-10-1.41s-6.69-1.25-10.08-1.62c-1.17-.12-2.34-.24-3.5-.39a15.91,15.91,0,0,0-2.27-1,1.83,1.83,0,0,0-.39-.09l-.63-.37a52.92,52.92,0,0,0-5-2.89,9.1,9.1,0,0,0-1.43-.95,20.44,20.44,0,0,0-3.86-1.71,12.81,12.81,0,0,0-1.48-.37C2064.66,265.36,2064.66,265.25,2064.67,265.14Z"/></g></g><g id="cloud-9" data-name="cloud"><g id="light-9" data-name="light"><path class="cls-1" d="M3046,47.3c.48-7,13.48-12.14,32-13.72,6.72-7.52,20.83-13.67,37.61-15.48a80.38,80.38,0,0,1,24.57.93c6.35-11.13,22.46-19,41.32-19,19.81,0,36.57,8.72,42.19,20.73,10.7,2.32,19.29,6.79,23.85,12.39,23.49.41,42.22,8.14,42.22,17.61,0,4.87-4.94,9.27-12.92,12.46-2.34.81-4.74,1.44-7.16,2-2.24.54-4.48,1.08-6.7,1.7l-.26.07-.74.12a29.22,29.22,0,0,0-4,.54q-3.37.41-6.94.58c-.47,0-1-.07-1.42-.08a12,12,0,0,0-2.82.21h-1.44c0,.12-.1.23-.15.35a1.08,1.08,0,0,0-.36.57,3.57,3.57,0,0,1-.35.83l-.06.1a9.14,9.14,0,0,1-2.08,2.13c-1.19,1-2.43,1.86-3.66,2.76a29.91,29.91,0,0,1-6.2,3.22,26.16,26.16,0,0,0-4.43,1.71,76.59,76.59,0,0,1-9.2,2.11c-1.08.1-2.14.14-3.28.15a10.27,10.27,0,0,0-2.76.22,1,1,0,0,0-.3,0l-1.81.52a19.77,19.77,0,0,0-4.4.37c-1.56.07-3.14.11-4.75.11-13.12,0-24.9-2.28-33-5.9a62.76,62.76,0,0,1-11.25,2.08c-1,0-1.93.09-2.89.2a63.13,63.13,0,0,1-7.78-.12,65.88,65.88,0,0,1-13.47-2.37c-2.22-1.54-4.66-2.7-7-4.08-2.72-1.62-5.27-3.58-8.3-4.6a1.21,1.21,0,0,0-.55-.07,11.78,11.78,0,0,0-4.63.62h0c-.43,0-.85,0-1.28.08-1.12,0-2.25,0-3.4-.05a17.3,17.3,0,0,0-4-.33c-.63,0-1.26.06-1.88.09l-1.22-.07a1.24,1.24,0,0,0-.45-.09,46,46,0,0,1-6.19-.68c-2-.28-4.05-.49-6.06-.85s-4.07-.76-6.12-1c-.71-.07-1.42-.14-2.13-.23a8.86,8.86,0,0,0-1.37-.62,1.05,1.05,0,0,0-.24-.06l-.38-.22a32.76,32.76,0,0,0-3-1.75,4.88,4.88,0,0,0-.87-.58,12,12,0,0,0-2.35-1,7.44,7.44,0,0,0-3.07-.33,22.42,22.42,0,0,0-2.72.13h0c-.6,0-1.2-.07-1.79-.13-1.21-.38-2.44-.68-3.67-.94C3051.21,56.79,3045.67,52.06,3046,47.3Z"/></g><g id="dark-9" data-name="dark"><path class="cls-2" d="M3070.86,61.51c.4-2.58,12.08-2.84,26.35-.64a70.52,70.52,0,0,1,18.86-2.27c9,0,16.95,1.29,21.73,3.26A65.14,65.14,0,0,1,3150,60.77a69.54,69.54,0,0,1,8.41.51c4.27-3.83,13.36-6.48,23.88-6.48,2.09,0,4.13.11,6.08.3,2.44-1.78,6.57-3.07,11.41-3.44,0-.13,0-.26,0-.38,0-4.05,7.46-7.33,16.68-7.33s16.67,3.28,16.67,7.33c0,.12,0,.25,0,.38.95-.07,1.93-.11,2.93-.11a35.39,35.39,0,0,0,20.12,0,36,36,0,0,1,6.47.55,33.71,33.71,0,0,1,8.88-1.09c8.33,0,15.09,2.55,15.09,5.69,0,1.58-1.7,3-4.45,4l.11.07a49.12,49.12,0,0,1-12.56,4.41c-2.24.54-4.48,1.08-6.7,1.7l-.59.16a44,44,0,0,0-6.45,1c-.75.08-1.49.16-2.23.22a36.53,36.53,0,0,1-4-.12,12,12,0,0,0-3.18.28,1.32,1.32,0,0,0-1.59.86,6.57,6.57,0,0,1-2.49,3.06c-1.19,1-2.43,1.86-3.66,2.76a30,30,0,0,1-6.21,3.22,43.1,43.1,0,0,0-5.76,2.28,27.84,27.84,0,0,1-6.38,1.38,36.12,36.12,0,0,1-4.76.31,10.41,10.41,0,0,0-2.78.22.9.9,0,0,0-.28,0l-1.8.52a31.16,31.16,0,0,0-5.77.56,38.43,38.43,0,0,1-3.87,0h-4.39a1.53,1.53,0,0,0-.73.19,55.21,55.21,0,0,1-8.87-1c-3-.54-6.07-1.16-9.1-1.76a36.44,36.44,0,0,1-4.35-1.1,28.14,28.14,0,0,0-4-1.2c-2.54-.43-5.11.37-7.63.63-3.27.35-6.58.11-9.81.83l-.06,0c-.71,0-1.42,0-2.14,0a60.84,60.84,0,0,1-15.62-1.89,1.49,1.49,0,0,0-.36-.4,83.34,83.34,0,0,0-7.76-4.65c-2.72-1.62-5.27-3.58-8.3-4.6a1.25,1.25,0,0,0-.56-.07,11.7,11.7,0,0,0-4.62.62h0c-1.24.05-2.48.2-3.73.29a.94.94,0,0,0-.23-.1A16.41,16.41,0,0,0,3104,69c-.76,0-1.52.09-2.28.11h-.61a1.25,1.25,0,0,0-.66-.19,46,46,0,0,1-6.19-.68c-2-.28-4.05-.49-6.06-.85s-4.07-.76-6.12-1c-.71-.07-1.42-.14-2.13-.23a8.86,8.86,0,0,0-1.37-.62,1.05,1.05,0,0,0-.24-.06l-.38-.22a32.76,32.76,0,0,0-3-1.75,4.88,4.88,0,0,0-.87-.58,12,12,0,0,0-2.35-1,8.93,8.93,0,0,0-.89-.23A1.21,1.21,0,0,1,3070.86,61.51Z"/></g></g><g id="cloud-10" data-name="cloud"><g id="light-10" data-name="light"><path class="cls-1" d="M2709.89,241.72c.79-11.52,22.21-20,52.67-22.59,11.07-12.41,34.33-22.54,62-25.52a132.31,132.31,0,0,1,40.5,1.53c10.46-18.34,37-31.36,68.08-31.36,32.65,0,60.28,14.36,69.54,34.16,17.63,3.82,31.78,11.19,39.3,20.41,38.72.69,69.58,13.42,69.58,29,0,8-8.13,15.27-21.28,20.53-3.86,1.34-7.82,2.38-11.8,3.34-3.7.89-7.39,1.78-11.06,2.8l-.42.12-1.22.19a51.26,51.26,0,0,0-6.53.9c-3.69.43-7.51.75-11.43,1-.78-.06-1.57-.12-2.35-.14a20.44,20.44,0,0,0-4.64.35l-2.12,0h-.26c-.07.2-.15.39-.23.58a1.79,1.79,0,0,0-.61.93,5.22,5.22,0,0,1-.57,1.38l-.1.17a15.43,15.43,0,0,1-3.43,3.51c-1.95,1.58-4,3.06-6,4.54a48.35,48.35,0,0,1-10.22,5.3,44.58,44.58,0,0,0-7.3,2.82,125.94,125.94,0,0,1-15.16,3.49c-1.78.16-3.52.22-5.4.24a17.39,17.39,0,0,0-4.56.37,1.73,1.73,0,0,0-.5.05l-3,.87a32.25,32.25,0,0,0-7.25.61q-3.85.18-7.82.18c-21.62,0-41-3.76-54.38-9.72a104,104,0,0,1-18.54,3.42c-1.59.06-3.18.15-4.76.32a103.5,103.5,0,0,1-12.82-.18,108.29,108.29,0,0,1-22.21-3.92c-3.65-2.53-7.67-4.44-11.48-6.71-4.49-2.68-8.68-5.91-13.67-7.59a2.17,2.17,0,0,0-.92-.11,19.43,19.43,0,0,0-7.63,1h0q-1,0-2.1.12c-1.85,0-3.72,0-5.6-.08a28.17,28.17,0,0,0-6.61-.54c-1,0-2.06.1-3.09.15l-2-.13a2.13,2.13,0,0,0-.75-.14,77.64,77.64,0,0,1-10.19-1.12c-3.34-.46-6.67-.81-10-1.41s-6.7-1.25-10.09-1.62c-1.17-.12-2.34-.24-3.5-.39a15.8,15.8,0,0,0-2.26-1,1.92,1.92,0,0,0-.4-.09l-.62-.37a54.36,54.36,0,0,0-5-2.89,9.5,9.5,0,0,0-1.42-.95,20.82,20.82,0,0,0-3.87-1.71,12.35,12.35,0,0,0-5.08-.54,35.21,35.21,0,0,0-4.47.21h0a29.47,29.47,0,0,1-3-.22c-2-.61-4-1.12-6-1.55C2718.49,257.37,2709.35,249.57,2709.89,241.72Z"/></g><g id="dark-10" data-name="dark"><path class="cls-2" d="M2750.87,265.14c.65-4.24,19.9-4.67,43.43-1.05,7.91-2.3,18.91-3.74,31.07-3.74,14.84,0,27.94,2.13,35.82,5.37a107.63,107.63,0,0,1,20-1.79,112.74,112.74,0,0,1,13.87.83c7-6.31,22-10.66,39.35-10.66,3.45,0,6.8.17,10,.49,4-2.94,10.82-5.07,18.81-5.68a4.44,4.44,0,0,1,0-.63c0-6.66,12.3-12.07,27.48-12.07s27.49,5.41,27.49,12.07c0,.21,0,.43,0,.64,1.57-.13,3.18-.19,4.83-.19a53.65,53.65,0,0,1,16.5,2.41,53.51,53.51,0,0,1,16.66-2.41,61.45,61.45,0,0,1,10.66.9,56,56,0,0,1,14.64-1.79c13.73,0,24.86,4.2,24.86,9.39,0,2.6-2.8,4.95-7.32,6.65l.17.11c-6.48,3.61-13.56,5.54-20.69,7.27-3.7.89-7.39,1.78-11.06,2.8l-1,.27a72.5,72.5,0,0,0-10.64,1.6l-3.67.37a59.64,59.64,0,0,1-6.68-.22,19.43,19.43,0,0,0-5.23.48,2.18,2.18,0,0,0-2.63,1.4c-.51,2.07-2.42,3.69-4.1,5.06-1.95,1.58-4,3.06-6,4.54a49.18,49.18,0,0,1-10.23,5.31c-3.33.81-6.33,2.49-9.5,3.76s-7,1.77-10.5,2.27a59.13,59.13,0,0,1-7.85.51,17.08,17.08,0,0,0-4.58.37,1.57,1.57,0,0,0-.48.05l-3,.87c-3.17-.24-6.36.58-9.51.92a61.69,61.69,0,0,1-6.38.07h-7.22a2.5,2.5,0,0,0-1.21.31,92,92,0,0,1-14.61-1.6c-5-.89-10-1.9-15-2.89a61,61,0,0,1-7.16-1.82,45.93,45.93,0,0,0-6.67-2c-4.19-.72-8.44.59-12.58,1-5.39.57-10.84.17-16.17,1.36l-.1-.05c-1.16,0-2.34.05-3.53.05a100.76,100.76,0,0,1-25.74-3.1,2.27,2.27,0,0,0-.59-.66c-4-3-8.52-5.11-12.79-7.66-4.49-2.68-8.68-5.91-13.67-7.59a2.11,2.11,0,0,0-.94-.11,19.35,19.35,0,0,0-7.61,1h0c-2,.08-4.08.33-6.14.47a1.77,1.77,0,0,0-.38-.15,26.73,26.73,0,0,0-7.81-.81c-1.24,0-2.49.14-3.74.18l-1,0a1.93,1.93,0,0,0-1.09-.32,77.64,77.64,0,0,1-10.19-1.12c-3.34-.46-6.67-.81-10-1.41s-6.7-1.25-10.09-1.62c-1.17-.12-2.34-.24-3.5-.39a15.8,15.8,0,0,0-2.26-1,1.92,1.92,0,0,0-.4-.09l-.62-.37a54.36,54.36,0,0,0-5-2.89,9.5,9.5,0,0,0-1.42-.95,20.82,20.82,0,0,0-3.87-1.71,12.81,12.81,0,0,0-1.48-.37A1.83,1.83,0,0,1,2750.87,265.14Z"/></g></g><g id="cloud-11" data-name="cloud"><g id="light-11" data-name="light"><path class="cls-1" d="M3670.29,47.3c.48-7,13.48-12.14,32-13.72,6.72-7.52,20.83-13.67,37.61-15.48a80.39,80.39,0,0,1,24.57.93c6.35-11.13,22.45-19,41.31-19,19.81,0,36.58,8.72,42.2,20.73,10.69,2.32,19.28,6.79,23.84,12.39,23.5.41,42.22,8.14,42.22,17.61,0,4.87-4.93,9.27-12.91,12.46-2.34.81-4.74,1.44-7.16,2-2.24.54-4.48,1.08-6.71,1.7L3887,67l-.75.12a29.66,29.66,0,0,0-4,.54c-2.24.27-4.56.46-6.93.58-.48,0-.95-.07-1.43-.08a12,12,0,0,0-2.82.21h-1.44c0,.12-.09.23-.14.35a1.16,1.16,0,0,0-.37.57,2.88,2.88,0,0,1-.35.83l-.06.1a8.76,8.76,0,0,1-2.08,2.13c-1.18,1-2.43,1.86-3.65,2.76a30.24,30.24,0,0,1-6.21,3.22,26.39,26.39,0,0,0-4.42,1.71,77,77,0,0,1-9.2,2.11c-1.09.1-2.14.14-3.28.15a10.34,10.34,0,0,0-2.77.22,1,1,0,0,0-.3,0l-1.81.52a19.74,19.74,0,0,0-4.39.37c-1.56.07-3.14.11-4.75.11-13.12,0-24.9-2.28-33-5.9a62.7,62.7,0,0,1-11.26,2.08c-1,0-1.92.09-2.88.2a63.13,63.13,0,0,1-7.78-.12,66.1,66.1,0,0,1-13.48-2.37c-2.21-1.54-4.65-2.7-7-4.08-2.72-1.62-5.27-3.58-8.3-4.6a1.25,1.25,0,0,0-.56-.07,11.7,11.7,0,0,0-4.62.62h0c-.42,0-.85,0-1.27.08-1.12,0-2.26,0-3.4-.05a17.34,17.34,0,0,0-4-.33l-1.87.09-1.22-.07a1.3,1.3,0,0,0-.46-.09,45.81,45.81,0,0,1-6.18-.68c-2-.28-4-.49-6.07-.85s-4.06-.76-6.12-1c-.7-.07-1.41-.14-2.12-.23a9,9,0,0,0-1.38-.62.86.86,0,0,0-.23-.06l-.38-.22a31.67,31.67,0,0,0-3.05-1.75,4.48,4.48,0,0,0-.86-.58,12,12,0,0,0-2.35-1,7.49,7.49,0,0,0-3.08-.33,22.26,22.26,0,0,0-2.71.13h0c-.6,0-1.19-.07-1.79-.13-1.21-.38-2.43-.68-3.66-.94C3675.51,56.79,3670,52.06,3670.29,47.3Z"/></g><g id="dark-11" data-name="dark"><path class="cls-2" d="M3695.15,61.51c.4-2.58,12.08-2.84,26.36-.64a70.49,70.49,0,0,1,18.85-2.27c9,0,16.95,1.29,21.74,3.26a65.06,65.06,0,0,1,12.15-1.09,69.54,69.54,0,0,1,8.41.51c4.27-3.83,13.35-6.48,23.88-6.48,2.09,0,4.12.11,6.08.3,2.44-1.78,6.56-3.07,11.41-3.44a2.48,2.48,0,0,1,0-.38c0-4.05,7.46-7.33,16.67-7.33s16.68,3.28,16.68,7.33c0,.12,0,.25,0,.38.95-.07,1.93-.11,2.93-.11a35.39,35.39,0,0,0,20.12,0,36.08,36.08,0,0,1,6.47.55,33.66,33.66,0,0,1,8.88-1.09c8.33,0,15.09,2.55,15.09,5.69,0,1.58-1.7,3-4.45,4l.1.07a48.92,48.92,0,0,1-12.55,4.41c-2.24.54-4.48,1.08-6.71,1.7l-.58.16a44.38,44.38,0,0,0-6.46,1c-.74.08-1.48.16-2.23.22a36.53,36.53,0,0,1-4-.12,12,12,0,0,0-3.17.28,1.33,1.33,0,0,0-1.6.86,6.45,6.45,0,0,1-2.49,3.06c-1.18,1-2.43,1.86-3.65,2.76a30.24,30.24,0,0,1-6.21,3.22,43.77,43.77,0,0,0-5.77,2.28,27.64,27.64,0,0,1-6.37,1.38,36.23,36.23,0,0,1-4.76.31,10.41,10.41,0,0,0-2.78.22,1,1,0,0,0-.29,0l-1.8.52a31.33,31.33,0,0,0-5.77.56,38.4,38.4,0,0,1-3.87,0H3821a1.53,1.53,0,0,0-.73.19,55.08,55.08,0,0,1-8.87-1c-3-.54-6.07-1.16-9.1-1.76a36,36,0,0,1-4.35-1.1,28.91,28.91,0,0,0-4.05-1.2c-2.54-.43-5.12.37-7.63.63-3.27.35-6.58.11-9.81.83l-.06,0c-.71,0-1.42,0-2.14,0a60.78,60.78,0,0,1-15.62-1.89,1.49,1.49,0,0,0-.36-.4,83.34,83.34,0,0,0-7.76-4.65c-2.72-1.62-5.27-3.58-8.3-4.6a1.28,1.28,0,0,0-.57-.07,11.68,11.68,0,0,0-4.61.62h0c-1.25.05-2.48.2-3.73.29a.94.94,0,0,0-.23-.1,16.48,16.48,0,0,0-4.74-.49c-.76,0-1.51.09-2.27.11h-.62a1.2,1.2,0,0,0-.66-.19,45.81,45.81,0,0,1-6.18-.68c-2-.28-4-.49-6.07-.85s-4.06-.76-6.12-1c-.7-.07-1.41-.14-2.12-.23a9,9,0,0,0-1.38-.62.86.86,0,0,0-.23-.06l-.38-.22a31.67,31.67,0,0,0-3.05-1.75,4.48,4.48,0,0,0-.86-.58,12,12,0,0,0-2.35-1,8.93,8.93,0,0,0-.89-.23A.61.61,0,0,1,3695.15,61.51Z"/></g></g><g id="cloud-12" data-name="cloud"><g id="light-12" data-name="light"><path class="cls-1" d="M3334.19,241.72c.78-11.52,22.21-20,52.67-22.59,11.07-12.41,34.33-22.54,62-25.52a132.32,132.32,0,0,1,40.5,1.53c10.46-18.34,37-31.36,68.08-31.36,32.65,0,60.28,14.36,69.54,34.16,17.62,3.82,31.78,11.19,39.29,20.41,38.72.69,69.59,13.42,69.59,29,0,8-8.14,15.27-21.29,20.53-3.85,1.34-7.81,2.38-11.8,3.34-3.69.89-7.38,1.78-11.05,2.8l-.42.12-1.22.19a51.26,51.26,0,0,0-6.53.9c-3.7.43-7.52.75-11.43,1-.79-.06-1.57-.12-2.35-.14a20.57,20.57,0,0,0-4.65.35l-2.11,0h-.26c-.07.2-.16.39-.24.58a1.78,1.78,0,0,0-.6.93,4.93,4.93,0,0,1-.58,1.38l-.1.17a15.22,15.22,0,0,1-3.43,3.51c-1.94,1.58-4,3.06-6,4.54a48.59,48.59,0,0,1-10.22,5.3,44.58,44.58,0,0,0-7.3,2.82,125.94,125.94,0,0,1-15.16,3.49c-1.79.16-3.52.22-5.4.24a17.35,17.35,0,0,0-4.56.37,1.67,1.67,0,0,0-.5.05l-3,.87a32.35,32.35,0,0,0-7.25.61c-2.57.12-5.17.18-7.82.18-21.62,0-41-3.76-54.37-9.72a103.89,103.89,0,0,1-18.55,3.42c-1.59.06-3.18.15-4.76.32a103.36,103.36,0,0,1-12.81-.18,108.29,108.29,0,0,1-22.21-3.92c-3.66-2.53-7.68-4.44-11.48-6.71-4.49-2.68-8.68-5.91-13.68-7.59a2.15,2.15,0,0,0-.92-.11,19.4,19.4,0,0,0-7.62,1h0q-1.05,0-2.1.12c-1.85,0-3.72,0-5.6-.08a28.17,28.17,0,0,0-6.61-.54c-1,0-2.06.1-3.09.15l-2-.13a2.13,2.13,0,0,0-.75-.14,78,78,0,0,1-10.2-1.12c-3.33-.46-6.67-.81-10-1.41s-6.7-1.25-10.08-1.62c-1.17-.12-2.34-.24-3.5-.39a16.43,16.43,0,0,0-2.27-1,1.83,1.83,0,0,0-.39-.09l-.63-.37a52.92,52.92,0,0,0-5-2.89,9.1,9.1,0,0,0-1.43-.95,20.25,20.25,0,0,0-3.87-1.71,12.28,12.28,0,0,0-5.07-.54,35.28,35.28,0,0,0-4.48.21h0a29.05,29.05,0,0,1-3-.22c-2-.61-4-1.12-6-1.55C3342.79,257.37,3333.65,249.57,3334.19,241.72Z"/></g><g id="dark-12" data-name="dark"><path class="cls-2" d="M3375.16,265.14c.66-4.24,19.91-4.67,43.44-1.05,7.91-2.3,18.91-3.74,31.07-3.74,14.83,0,27.93,2.13,35.81,5.37a107.66,107.66,0,0,1,20-1.79,113,113,0,0,1,13.87.83c7-6.31,22-10.66,39.35-10.66,3.45,0,6.8.17,10,.49,4-2.94,10.83-5.07,18.82-5.68a4.44,4.44,0,0,1,0-.63c0-6.66,12.3-12.07,27.48-12.07s27.48,5.41,27.48,12.07c0,.21,0,.43,0,.64,1.57-.13,3.18-.19,4.83-.19a58.2,58.2,0,0,0,33.15,0,61.56,61.56,0,0,1,10.67.9,56,56,0,0,1,14.64-1.79c13.73,0,24.86,4.2,24.86,9.39,0,2.6-2.8,4.95-7.33,6.65a1.08,1.08,0,0,0,.18.11c-6.48,3.61-13.56,5.54-20.7,7.27-3.69.89-7.38,1.78-11.05,2.8l-1,.27a72.5,72.5,0,0,0-10.64,1.6l-3.67.37a59.64,59.64,0,0,1-6.68-.22,19.39,19.39,0,0,0-5.23.48,2.18,2.18,0,0,0-2.63,1.4c-.52,2.07-2.42,3.69-4.11,5.06-1.94,1.58-4,3.06-6,4.54a49,49,0,0,1-10.24,5.31c-3.32.81-6.33,2.49-9.5,3.76s-7,1.77-10.5,2.27a58.87,58.87,0,0,1-7.84.51,17.19,17.19,0,0,0-4.59.37,1.54,1.54,0,0,0-.47.05l-3,.87c-3.17-.24-6.36.58-9.51.92a61.73,61.73,0,0,1-6.38.07h-7.22a2.47,2.47,0,0,0-1.21.31,92.23,92.23,0,0,1-14.62-1.6c-5-.89-10-1.9-15-2.89a61,61,0,0,1-7.16-1.82,46.05,46.05,0,0,0-6.68-2c-4.19-.72-8.43.59-12.58,1-5.39.57-10.84.17-16.17,1.36l-.09-.05c-1.17,0-2.34.05-3.53.05a100.76,100.76,0,0,1-25.74-3.1,2.27,2.27,0,0,0-.59-.66c-4-3-8.53-5.11-12.79-7.66-4.49-2.68-8.68-5.91-13.68-7.59a2,2,0,0,0-.93-.11,19.33,19.33,0,0,0-7.61,1h0c-2.05.08-4.08.33-6.14.47a1.66,1.66,0,0,0-.39-.15,26.62,26.62,0,0,0-7.8-.81c-1.25,0-2.49.14-3.74.18l-1,0a2,2,0,0,0-1.09-.32,78,78,0,0,1-10.2-1.12c-3.33-.46-6.67-.81-10-1.41s-6.7-1.25-10.08-1.62c-1.17-.12-2.34-.24-3.5-.39a16.43,16.43,0,0,0-2.27-1,1.83,1.83,0,0,0-.39-.09l-.63-.37a52.92,52.92,0,0,0-5-2.89,9.1,9.1,0,0,0-1.43-.95,20.25,20.25,0,0,0-3.87-1.71,12.16,12.16,0,0,0-1.47-.37A1.82,1.82,0,0,1,3375.16,265.14Z"/></g></g></g></g></svg>