<svg xmlns="http://www.w3.org/2000/svg" viewBox="0 0 460.39 154.57"><defs><style>.cls-1{fill:#fff8f8;}.cls-2{fill:#ffe3f3;opacity:0.48;isolation:isolate;}</style></defs><g id="圖層_2" data-name="圖層 2"><g id="背景"><g id="cloud"><g id="light"><path class="cls-1" d="M460.37,87.17c-.9-12.89-25.46-22.38-60.37-25.28C387.31,48,360.65,36.69,329,33.36a155.45,155.45,0,0,0-46.42,1.71C270.55,14.57,240.13,0,204.5,0c-37.42,0-69.09,16.07-79.71,38.21-20.2,4.27-36.42,12.5-45,22.82C35.38,61.79,0,76,0,93.5c0,9,9.32,17.08,24.39,23,4.42,1.5,9,2.66,13.53,3.73,4.23,1,8.47,2,12.67,3.13l.48.14,1.4.21a58.71,58.71,0,0,1,7.48,1c4.24.48,8.62.84,13.1,1.06.9-.07,1.8-.13,2.7-.15a23.55,23.55,0,0,1,5.32.39l2.43,0h.29c.08.22.18.43.27.65a2,2,0,0,1,.7,1,6,6,0,0,0,.66,1.54l.11.19a17,17,0,0,0,3.93,3.92c2.23,1.77,4.59,3.43,6.91,5.08a56.09,56.09,0,0,0,11.72,5.93,50.21,50.21,0,0,1,8.36,3.16,150.87,150.87,0,0,0,17.37,3.9c2.05.17,4,.24,6.19.26a20.38,20.38,0,0,1,5.23.41,1.86,1.86,0,0,1,.57.07l3.42,1a38.29,38.29,0,0,1,8.31.69q4.41.19,9,.2c24.78,0,47-4.2,62.33-10.87A121.13,121.13,0,0,0,250.08,147c1.82.08,3.64.18,5.46.37a122.1,122.1,0,0,0,14.69-.21,127,127,0,0,0,25.45-4.38c4.19-2.83,8.8-5,13.16-7.51,5.14-3,10-6.61,15.67-8.49a2.48,2.48,0,0,1,1.06-.11,22.7,22.7,0,0,1,8.73,1.13h0c.8,0,1.61.07,2.41.14q3.18,0,6.42-.09a33,33,0,0,1,7.57-.6c1.18,0,2.36.11,3.54.16l2.31-.14a2.47,2.47,0,0,1,.85-.16,91.78,91.78,0,0,0,11.69-1.25c3.83-.51,7.65-.91,11.46-1.58s7.67-1.4,11.56-1.81c1.33-.14,2.67-.27,4-.43a20,20,0,0,1,2.6-1.15,2.42,2.42,0,0,1,.45-.1c.24-.13.48-.26.72-.41a60,60,0,0,1,5.75-3.23,10.9,10.9,0,0,1,1.63-1.07,23.88,23.88,0,0,1,4.44-1.91,14.47,14.47,0,0,1,5.81-.6,44.1,44.1,0,0,1,5.14.23h0c1.13,0,2.26-.12,3.38-.24,2.28-.69,4.59-1.25,6.92-1.73C450.51,104.67,461,95.94,460.37,87.17Z"/></g><g id="dark"><path class="cls-2" d="M413.4,113.35c-.75-4.75-22.82-5.22-49.79-1.18C354.55,109.6,341.94,108,328,108c-17,0-32,2.38-41.05,6A127,127,0,0,0,264,112a131.82,131.82,0,0,0-15.89.93C240.05,105.87,222.88,101,203,101c-3.95,0-7.8.19-11.48.55-4.62-3.29-12.41-5.66-21.56-6.35a5.48,5.48,0,0,0,0-.7C170,87,155.9,81,138.5,81S107,87,107,94.5a5.63,5.63,0,0,0,0,.71c-1.8-.14-3.65-.21-5.54-.21a62.78,62.78,0,0,0-18.91,2.7A62.69,62.69,0,0,0,63.5,95a72.58,72.58,0,0,0-12.22,1A65.88,65.88,0,0,0,34.5,94C18.76,94,6,98.7,6,104.5c0,2.91,3.21,5.54,8.4,7.45l-.2.12c7.42,4,15.54,6.19,23.72,8.12,4.23,1,8.47,2,12.67,3.13l1.1.31a83.92,83.92,0,0,1,12.19,1.79l4.22.41a69.9,69.9,0,0,0,7.65-.24,23.13,23.13,0,0,1,6,.53,2.5,2.5,0,0,1,3,1.57c.59,2.31,2.77,4.12,4.7,5.65,2.23,1.77,4.59,3.43,6.91,5.08a55.93,55.93,0,0,0,11.73,5.93c3.81.92,7.25,2.8,10.89,4.22s8,2,12,2.53a67.94,67.94,0,0,0,9,.57,20.61,20.61,0,0,1,5.26.41,2,2,0,0,1,.54.07l3.4,1c3.63-.27,7.29.66,10.9,1a71.28,71.28,0,0,0,7.31.08h8.28a2.94,2.94,0,0,1,1.38.35,108.57,108.57,0,0,0,16.76-1.79c5.74-1,11.47-2.13,17.19-3.24a69.79,69.79,0,0,0,8.21-2,55.19,55.19,0,0,1,7.65-2.2c4.8-.8,9.67.66,14.42,1.16,6.18.64,12.43.2,18.53,1.52l.11-.05q2,.06,4.05.06a118.18,118.18,0,0,0,29.5-3.47,2.62,2.62,0,0,1,.68-.74c4.57-3.38,9.77-5.72,14.66-8.57,5.14-3,10-6.61,15.67-8.49a2.54,2.54,0,0,1,1.07-.11,22.63,22.63,0,0,1,8.72,1.13h0c2.34.09,4.67.37,7,.53a1.92,1.92,0,0,1,.44-.17,31.25,31.25,0,0,1,8.94-.9c1.43,0,2.86.15,4.29.2h1.17a2.35,2.35,0,0,1,1.24-.35,91.78,91.78,0,0,0,11.69-1.25c3.83-.51,7.65-.91,11.46-1.58s7.67-1.4,11.56-1.81c1.33-.14,2.67-.27,4-.43a20,20,0,0,1,2.6-1.15,2.42,2.42,0,0,1,.45-.1c.24-.13.48-.26.72-.41a60,60,0,0,1,5.75-3.23,10.9,10.9,0,0,1,1.63-1.07,23.88,23.88,0,0,1,4.44-1.91,16,16,0,0,1,1.69-.41A2.23,2.23,0,0,0,413.4,113.35Z"/></g></g></g></g></svg>