<svg xmlns="http://www.w3.org/2000/svg" xmlns:xlink="http://www.w3.org/1999/xlink" viewBox="0 0 1200 400.37"><defs><style>.cls-1{fill:url(#未命名漸層_256);}.cls-2{opacity:0.44;}.cls-3,.cls-4{fill:none;stroke:#80c6d6;stroke-miterlimit:10;}.cls-4{stroke-width:3px;}.cls-5{opacity:0.41;}.cls-6{opacity:0.38;}</style><linearGradient id="未命名漸層_256" x1="600" x2="600" y2="394.09" gradientUnits="userSpaceOnUse"><stop offset="0" stop-color="#f2f2f2"/><stop offset="0" stop-color="#f2f2f2"/><stop offset="0.3" stop-color="#f9ebe1"/><stop offset="0.62" stop-color="#fee7d6"/><stop offset="1" stop-color="#ffe6d3"/></linearGradient></defs><g id="圖層_2" data-name="圖層 2"><g id="Logo"><rect class="cls-1" width="1200" height="394.09"/><g id="WAVE" class="cls-2"><g id="Ellipse_7" data-name="Ellipse 7"><ellipse class="cls-3" cx="590" cy="271.74" rx="168.99" ry="42.34"/><ellipse class="cls-4" cx="590" cy="271.74" rx="168.45" ry="41.86"/></g><g id="Ellipse_5" data-name="Ellipse 5"><ellipse class="cls-3" cx="592.73" cy="268.67" rx="141.5" ry="31.51"/><ellipse class="cls-3" cx="592.73" cy="268.67" rx="141.31" ry="31.35"/></g><g id="Ellipse_6" data-name="Ellipse 6"><ellipse class="cls-3" cx="590.91" cy="269.64" rx="154.61" ry="37.33"/><ellipse class="cls-3" cx="590.91" cy="269.64" rx="154.43" ry="37.17"/></g></g><g id="WAVE-2" data-name="WAVE" class="cls-5"><g id="Ellipse_7-2" data-name="Ellipse 7"><ellipse class="cls-3" cx="582" cy="276.98" rx="240.05" ry="69.93"/><ellipse class="cls-4" cx="582" cy="276.98" rx="239.27" ry="69.13"/></g><g id="Ellipse_5-2" data-name="Ellipse 5"><ellipse class="cls-3" cx="585.88" cy="271.91" rx="200.99" ry="52.05"/><ellipse class="cls-3" cx="585.88" cy="271.91" rx="200.73" ry="51.78"/></g><g id="Ellipse_6-2" data-name="Ellipse 6"><ellipse class="cls-3" cx="583.29" cy="273.51" rx="219.61" ry="61.66"/><ellipse class="cls-3" cx="583.29" cy="273.51" rx="219.36" ry="61.39"/></g></g><image class="cls-6" width="1024" height="640" transform="matrix(0.54, 0.06, -0.04, 0.26, 345.58, 173.11)" xlink:href="../../../../../Downloads/sakura_PNG37.png"/><image width="923" height="996" transform="translate(433.5 19.7) scale(0.32 0.29)" xlink:href="../Perfume.png"/></g></g></svg>