<svg xmlns="http://www.w3.org/2000/svg" xmlns:xlink="http://www.w3.org/1999/xlink" viewBox="0 0 1201.23 605"><defs><style>.cls-1{fill:url(#未命名漸層_39);}.cls-2{fill:url(#未命名漸層_18);}.cls-3{fill:#d83593;}</style><linearGradient id="未命名漸層_39" x1="201.23" y1="704.96" x2="1001.23" y2="-95.04" gradientUnits="userSpaceOnUse"><stop offset="0" stop-color="#ffd7ac"/><stop offset="0.47" stop-color="#fbcea3"/><stop offset="1" stop-color="#f4bd94"/></linearGradient><linearGradient id="未命名漸層_18" x1="-3452.99" y1="-605.7" x2="-3452.99" y2="-605.78" gradientTransform="matrix(863, 0, 0, -640, 2980501.8, -387369.48)" gradientUnits="userSpaceOnUse"><stop offset="0.25" stop-color="#f4bd94"/><stop offset="0.62" stop-color="#e67b94"/><stop offset="1" stop-color="#d83593"/></linearGradient><image id="image" width="6250" height="6250" xlink:href="../../../../../Downloads/%E2%80%94Pngtree%E2%80%94watercolor%20sakura%20%20background%20with_3708639.png"/></defs><g id="圖層_2" data-name="圖層 2"><g id="Logo"><rect class="cls-1" x="1.23" y="104.96" width="1200" height="400"/><use transform="translate(0 105) scale(0.08)" xlink:href="#image"/><use transform="translate(1201 500) rotate(180) scale(0.08)" xlink:href="#image"/><image width="1024" height="640" transform="translate(439.28 215) scale(0.33 0.29)" xlink:href="../../../../../Downloads/sakura_PNG37.png"/><path id="Sun_Landingpage_1" data-name="Sun Landingpage 1" class="cls-2" d="M595,331.17H532.94a31.45,31.45,0,0,1-4.22-19.45,33.33,33.33,0,0,1,.53-3.3,32.63,32.63,0,0,1,2.07-6.24,34.55,34.55,0,0,1,18.87-17.68c1.06-.42,2.15-.79,3.25-1.11s2.26-.6,3.4-.82,2.34-.39,3.52-.5a38.18,38.18,0,0,1,7.25,0c1.18.11,2.36.28,3.52.5s2.28.49,3.4.82,2.19.69,3.25,1.11a34.55,34.55,0,0,1,18.87,17.68,32.63,32.63,0,0,1,2.07,6.24,33.33,33.33,0,0,1,.53,3.3A31.45,31.45,0,0,1,595,331.17Z"/><path class="cls-3" d="M466.81,265.58a54.55,54.55,0,0,1,9.91,3.24h26.54a35.94,35.94,0,0,0,2.7-2.63c1.22-1.26,2.09-1.9,2.63-1.9q1.38,0,5,2.3c2.86,2,4.3,3.43,4.3,4.19,0,.59-.71,1.29-2.12,2.1-1.11.86-1.67,1.67-1.67,2.43v32.52l.58,14.6q0,1.43-4.3,2.1a17,17,0,0,1-2.7.33c-1.55,0-2.33-.81-2.33-2.43v-3.51H476.14v3.78c0,.86-1.31,1.51-3.94,2a21.52,21.52,0,0,1-2.48.2c-1.75,0-2.62-.72-2.62-2.16q.66-8.18.66-14.33V278.63A110.25,110.25,0,0,0,466.81,265.58Zm9.33,26h29.24V270.78H476.14Zm0,25.48h29.24V293.5H476.14Z"/><path class="cls-3" d="M531.85,271.8a73.58,73.58,0,0,0,10.28.54h11.73a51.57,51.57,0,0,0,4.6-9.94q3.49.94,6.93,2.17,4.08,1.21,4.08,2.09c0,.68-.63,1.17-1.9,1.49-1.6.18-2.4.49-2.4.94a31.21,31.21,0,0,1-2.12,3.25h21.29a20.89,20.89,0,0,0,2.85-3q3.06-3.45,3.57-3.45,1.61,0,4.88,3.31t3.36,4.06c0,.67-.51,1-1.53,1H572.53a48.6,48.6,0,0,0,12,7.3A84.3,84.3,0,0,0,599,285.39l-.29,1.28a6.76,6.76,0,0,0-4.38,4c-.49,1.53-1.07,2.3-1.75,2.3q-1.3,0-6.05-2.71a40.87,40.87,0,0,1-9.41-7,48.26,48.26,0,0,1-7.36-9h-8a32.2,32.2,0,0,1-5.4,5.82,47.47,47.47,0,0,1-7.94,6.28q-5.19,3.32-16.85,7.44l-.8-1.15a77.08,77.08,0,0,0,17.94-13.12,54,54,0,0,0,4.08-5.27H542.13q-6.42,0-9,.27Zm14.87,30.89c2.28,1.17,4.28,2.19,6,3,2.23,1.13,3.35,2,3.35,2.64s-.56.86-1.67.95c-1.37,0-2.14.2-2.34.6a45,45,0,0,1-6.85,5.82q-4.16,3.18-13.05,6.42l-.59-1.15a53.7,53.7,0,0,0,9-8.31A32.46,32.46,0,0,0,546.72,302.69Zm-11.37-4.93a73.58,73.58,0,0,0,10.28.54h34.12a22.58,22.58,0,0,0,2.92-3.11c2.13-2.44,3.4-3.65,3.79-3.65q1.53,0,4.95,3.45c2.34,2.25,3.5,3.65,3.5,4.19s-.51,1-1.53,1H569.76v17.1q0,5.88-3.79,7.64a14,14,0,0,1-5.54,1.76c-.78,0-1.41-.83-1.9-2.5q-1.24-3.66-9.4-6.15l.29-1.29a84.81,84.81,0,0,0,10.13.75c1.22,0,1.82-.73,1.82-2.17V300.19H545.63q-6.42,0-9,.27Zm13.48-10.82a63,63,0,0,0,10.14.61h7.58a15.91,15.91,0,0,0,2.48-2.77q2.63-3.18,3.06-3.18,1.45,0,4.52,3t3.14,3.72c0,.68-.51,1-1.53,1H559c-4.23,0-7.24.1-9,.27Zm26.47,17.91a63.43,63.43,0,0,1,13.56,4.26q7.21,3.18,7.22,6.76a5,5,0,0,1-1.31,3.65,5.38,5.38,0,0,1-3.72,1.76c-1.07,0-2.16-.79-3.28-2.36a43,43,0,0,0-13.27-13.05Z"/><path class="cls-3" d="M613.22,266.12a54.5,54.5,0,0,0,10.28.88h29.09c.87-.68,1.58-1.22,2.11-1.62,1.56-1.13,2.72-1.69,3.5-1.69s2.7,1,5.32,3.11,4,3.44,4,4.25c0,.64-1.06,1-3.2,1.15-1.85.09-3,.34-3.5.75q-8,4.4-13.64,7.1c.73.22,1.1.45,1.1.67,0,.86-.71,1.62-2.12,2.3a1.83,1.83,0,0,0-1.38,1.83v7.5H658.2a29.29,29.29,0,0,0,2.92-3.25q3.21-3.71,3.72-3.71,1.67,0,5.25,3.51c2.38,2.34,3.57,3.79,3.57,4.33,0,.72-.61,1.08-1.82,1.08H644.79v20.48q0,6.76-4.31,8.65c-3.2,1.49-5.66,2.24-7.36,2.24-.83,0-1.48-.86-2-2.57q-1.17-4.07-10.57-6.9l.29-1.69a65.64,65.64,0,0,0,10.72,1.08,7.5,7.5,0,0,0,3.5-.61c.63-.31.95-1,.95-2.09V294.31h-19a88.91,88.91,0,0,0-10,.47l-1.17-3.24a103.05,103.05,0,0,0,12.25.81H636v-2.43a65.61,65.61,0,0,0-.95-11.9q3.72.54,6.63,1c.68.09,1.27.18,1.75.27a92.07,92.07,0,0,0,9.41-10.48H623.5a71.62,71.62,0,0,0-9,.54Z"/><path class="cls-3" d="M525.65,347.25H515.27v-1.91h1c1.21,0,1.82-.44,1.82-1.32v-4.43H507.8V344c0,.88.61,1.32,1.82,1.32h1v1.91H500.22v-1.91h1q1.86,0,1.86-1.32V333.27q0-1.32-1.86-1.32h-1v-1.88h10.39V332h-1c-1.21,0-1.82.44-1.82,1.32v4.44h10.31v-4.44c0-.88-.61-1.32-1.82-1.32h-1v-1.88h10.38V332h-.95q-1.89,0-1.89,1.32V344q0,1.32,1.89,1.32h.95Z"/><path class="cls-3" d="M539.15,347.23h-8.84v-1.91c1.5,0,2.25-.43,2.25-1.3v-5.45a.88.88,0,0,0-.83-.92,13,13,0,0,0-1.85-.08v-1.83a18,18,0,0,0,7-1.24V344c0,.87.75,1.3,2.25,1.3Zm-1.77-15.55a1.57,1.57,0,0,1-.87,1.35,3.25,3.25,0,0,1-2,.59,3.52,3.52,0,0,1-2-.59,1.57,1.57,0,0,1-.87-1.35,1.55,1.55,0,0,1,.87-1.34,3.58,3.58,0,0,1,2-.57,3.31,3.31,0,0,1,2,.57A1.55,1.55,0,0,1,537.38,331.68Z"/><path class="cls-3" d="M564,347.25h-8.88v-1.91q2.25,0,2.25-1.32v-5.08a2.27,2.27,0,0,0-.75-1.77,2.84,2.84,0,0,0-1.94-.73,5.24,5.24,0,0,0-4.74,3V344q0,1.32,2.25,1.32v1.91h-8.84v-1.91q2.25,0,2.25-1.32v-5.4a.85.85,0,0,0-.79-.91,15.51,15.51,0,0,0-1.86-.06v-1.83a18.54,18.54,0,0,0,7-1.21v1.51A7.79,7.79,0,0,1,555,334.4a9.53,9.53,0,0,1,4.74,1,3.42,3.42,0,0,1,2,3.12V344c0,.88.76,1.32,2.29,1.32Z"/><path class="cls-3" d="M584.4,346.42a6.55,6.55,0,0,1-3.43,1.1c-1.58,0-2.6-.53-3-1.59a12.4,12.4,0,0,1-5.81,1.59,7.18,7.18,0,0,1-3.55-.78,2.55,2.55,0,0,1-1.5-2.31q0-2.21,3.4-3.61a25,25,0,0,1,7.3-1.53,3.85,3.85,0,0,0-.36-2.12,2.57,2.57,0,0,0-2.33-.92,3.19,3.19,0,0,0-1.77.35,1.74,1.74,0,0,0-.63,1.27,1.52,1.52,0,0,1-.87,1.1,3.78,3.78,0,0,1-1.82.46,2.63,2.63,0,0,1-1.7-.51,1.39,1.39,0,0,1-.67-1.08c0-1.17,1-2.06,2.85-2.69a14.86,14.86,0,0,1,4.89-.75q3.6,0,5.17,1.05a3.69,3.69,0,0,1,1.58,3.33v5.68c0,.5.17.75.52.75a2.27,2.27,0,0,0,1-.49Zm-6.67-2.5v-2.83q-6.16.84-6.16,3.15c0,.81.66,1.21,2,1.21A7.86,7.86,0,0,0,577.73,343.92Z"/><path class="cls-3" d="M608.65,347.25h-10v-1.91c1,0,1.46-.1,1.46-.35s-.29-.7-.87-1.31l-2.76-2.8-2,1.1v2q0,1.32,2.25,1.32v1.91h-8.84v-1.91q2.25,0,2.25-1.32V334a.89.89,0,0,0-.83-.92,12.2,12.2,0,0,0-1.82-.08v-1.83a18.12,18.12,0,0,0,7-1.26v9.44l3.87-2.07q1.11-.6,1.11-.81c0-.14-.35-.2-1-.16h-.75V334.4H607v1.88a6.83,6.83,0,0,0-2.29.38,24.92,24.92,0,0,0-3.2,1.53L600,339l4.5,4.46a5.81,5.81,0,0,0,4.19,1.88Z"/><path class="cls-3" d="M628.78,340.93a5.73,5.73,0,0,1-2.21,4.63,11.28,11.28,0,0,1-12.71,0,5.78,5.78,0,0,1-2.17-4.63,5.73,5.73,0,0,1,2.17-4.6,11.43,11.43,0,0,1,12.71,0A5.68,5.68,0,0,1,628.78,340.93Zm-4.34,0q0-4.46-4.23-4.46T616,340.93q0,4.51,4.18,4.52T624.44,340.93Z"/></g></g></svg>