<svg xmlns="http://www.w3.org/2000/svg" xmlns:xlink="http://www.w3.org/1999/xlink" viewBox="0 0 1222.28 699.61"><defs><style>.cls-1,.cls-10,.cls-11,.cls-12,.cls-13,.cls-14,.cls-15,.cls-16,.cls-18,.cls-19,.cls-20,.cls-21,.cls-22,.cls-23,.cls-24,.cls-25,.cls-26,.cls-27,.cls-28,.cls-29,.cls-31,.cls-34,.cls-35,.cls-36,.cls-37,.cls-38,.cls-39,.cls-40,.cls-41,.cls-42,.cls-43,.cls-44,.cls-45,.cls-46,.cls-47,.cls-48,.cls-49,.cls-5,.cls-50,.cls-51,.cls-52,.cls-53,.cls-54,.cls-55,.cls-56,.cls-57,.cls-6,.cls-7,.cls-8,.cls-9{fill:none;}.cls-2{fill:#ffe6d3;}.cls-3{clip-path:url(#clip-path);}.cls-4{fill:#cef2ff;}.cls-10,.cls-11,.cls-12,.cls-13,.cls-14,.cls-15,.cls-16,.cls-4,.cls-5,.cls-6,.cls-7,.cls-8,.cls-9{opacity:0.78;}.cls-10,.cls-11,.cls-12,.cls-13,.cls-14,.cls-15,.cls-16,.cls-18,.cls-19,.cls-20,.cls-21,.cls-22,.cls-23,.cls-24,.cls-25,.cls-26,.cls-27,.cls-28,.cls-29,.cls-31,.cls-34,.cls-35,.cls-36,.cls-37,.cls-38,.cls-39,.cls-40,.cls-41,.cls-42,.cls-43,.cls-44,.cls-45,.cls-46,.cls-47,.cls-48,.cls-49,.cls-5,.cls-50,.cls-51,.cls-52,.cls-53,.cls-54,.cls-55,.cls-56,.cls-57,.cls-6,.cls-7,.cls-8,.cls-9{stroke-miterlimit:10;}.cls-5{stroke:url(#未命名漸層_52);}.cls-6{stroke:url(#未命名漸層_52-2);}.cls-7{stroke:url(#未命名漸層_52-3);}.cls-8{stroke:url(#未命名漸層_52-4);}.cls-9{stroke:url(#未命名漸層_52-5);}.cls-10{stroke:url(#未命名漸層_52-6);}.cls-11{stroke:url(#未命名漸層_52-7);}.cls-12{stroke:url(#未命名漸層_52-8);}.cls-13{stroke:url(#未命名漸層_52-9);}.cls-14{stroke:url(#未命名漸層_52-10);}.cls-15{stroke:url(#未命名漸層_52-11);}.cls-16{stroke:url(#未命名漸層_52-12);}.cls-17{fill:#1d9dcc;}.cls-17,.cls-18,.cls-19,.cls-20,.cls-21,.cls-22,.cls-23,.cls-24,.cls-25,.cls-26,.cls-27,.cls-28,.cls-29{opacity:0.85;}.cls-18{stroke:url(#未命名漸層_54);}.cls-19{stroke:url(#未命名漸層_54-2);}.cls-20{stroke:url(#未命名漸層_54-3);}.cls-21{stroke:url(#未命名漸層_54-4);}.cls-22{stroke:url(#未命名漸層_54-5);}.cls-23{stroke:url(#未命名漸層_54-6);}.cls-24{stroke:url(#未命名漸層_54-7);}.cls-25{stroke:url(#未命名漸層_54-8);}.cls-26{stroke:url(#未命名漸層_54-9);}.cls-27{stroke:url(#未命名漸層_54-10);}.cls-28{stroke:url(#未命名漸層_54-11);}.cls-29{stroke:url(#未命名漸層_54-12);}.cls-30{fill:#f4bd94;}.cls-31{stroke:#fccaa7;}.cls-32{fill:url(#未命名漸層_5);}.cls-33{fill:url(#未命名漸層_5-2);}.cls-34{stroke:url(#未命名漸層_61);}.cls-35{stroke:url(#未命名漸層_61-2);}.cls-36{stroke:url(#未命名漸層_61-3);}.cls-37{stroke:url(#未命名漸層_61-4);}.cls-38{stroke:url(#未命名漸層_61-5);}.cls-39{stroke:url(#未命名漸層_61-6);}.cls-40{stroke:url(#未命名漸層_61-7);}.cls-41{stroke:url(#未命名漸層_61-8);}.cls-42{stroke:url(#未命名漸層_61-9);}.cls-43{stroke:url(#未命名漸層_61-10);}.cls-44{stroke:url(#未命名漸層_61-11);}.cls-45{stroke:url(#未命名漸層_61-12);}.cls-46{stroke:url(#未命名漸層_57);}.cls-47{stroke:url(#未命名漸層_57-2);}.cls-48{stroke:url(#未命名漸層_57-3);}.cls-49{stroke:url(#未命名漸層_57-4);}.cls-50{stroke:url(#未命名漸層_57-5);}.cls-51{stroke:url(#未命名漸層_57-6);}.cls-52{stroke:url(#未命名漸層_57-7);}.cls-53{stroke:url(#未命名漸層_57-8);}.cls-54{stroke:url(#未命名漸層_57-9);}.cls-55{stroke:url(#未命名漸層_57-10);}.cls-56{stroke:url(#未命名漸層_57-11);}.cls-57{stroke:url(#未命名漸層_57-12);}.cls-58{fill:#fff8f8;}.cls-59{fill:#ffe3f3;opacity:0.48;isolation:isolate;}.cls-60{fill:url(#未命名漸層_2);}</style><clipPath id="clip-path" transform="translate(2.23)"><rect id="Rectangle_56" data-name="Rectangle 56" class="cls-1" x="1.49" y="119" width="1197.51" height="281"/></clipPath><linearGradient id="未命名漸層_52" x1="597.39" y1="205.71" x2="597.39" y2="119.43" gradientUnits="userSpaceOnUse"><stop offset="0" stop-color="#f7fcfd"/><stop offset="1" stop-color="#fff"/></linearGradient><linearGradient id="未命名漸層_52-2" x1="597.39" y1="225.79" x2="597.39" y2="139.51" xlink:href="#未命名漸層_52"/><linearGradient id="未命名漸層_52-3" x1="597.39" y1="245.86" x2="597.39" y2="159.58" xlink:href="#未命名漸層_52"/><linearGradient id="未命名漸層_52-4" x1="597.39" y1="265.94" x2="597.39" y2="179.66" xlink:href="#未命名漸層_52"/><linearGradient id="未命名漸層_52-5" x1="597.39" y1="286.01" x2="597.39" y2="199.73" xlink:href="#未命名漸層_52"/><linearGradient id="未命名漸層_52-6" x1="597.39" y1="306.09" x2="597.39" y2="219.81" xlink:href="#未命名漸層_52"/><linearGradient id="未命名漸層_52-7" x1="597.39" y1="326.16" x2="597.39" y2="239.88" xlink:href="#未命名漸層_52"/><linearGradient id="未命名漸層_52-8" x1="597.39" y1="346.24" x2="597.39" y2="259.96" xlink:href="#未命名漸層_52"/><linearGradient id="未命名漸層_52-9" x1="597.39" y1="366.32" x2="597.39" y2="280.03" xlink:href="#未命名漸層_52"/><linearGradient id="未命名漸層_52-10" x1="597.39" y1="386.39" x2="597.39" y2="300.11" xlink:href="#未命名漸層_52"/><linearGradient id="未命名漸層_52-11" x1="597.39" y1="406.47" x2="597.39" y2="320.19" xlink:href="#未命名漸層_52"/><linearGradient id="未命名漸層_52-12" x1="597.39" y1="426.54" x2="597.39" y2="340.26" xlink:href="#未命名漸層_52"/><linearGradient id="未命名漸層_54" x1="600.31" y1="265.78" x2="600.31" y2="158.7" gradientUnits="userSpaceOnUse"><stop offset="0" stop-color="#fcee21"/><stop offset="0.51" stop-color="#fcd12d"/><stop offset="1" stop-color="#fbb03b"/></linearGradient><linearGradient id="未命名漸層_54-2" x1="600.31" y1="285.97" x2="600.31" y2="178.89" xlink:href="#未命名漸層_54"/><linearGradient id="未命名漸層_54-3" x1="600.31" y1="306.15" x2="600.31" y2="199.08" xlink:href="#未命名漸層_54"/><linearGradient id="未命名漸層_54-4" x1="600.31" y1="326.34" x2="600.31" y2="219.27" xlink:href="#未命名漸層_54"/><linearGradient id="未命名漸層_54-5" x1="600.31" y1="346.53" x2="600.31" y2="239.45" xlink:href="#未命名漸層_54"/><linearGradient id="未命名漸層_54-6" x1="600.31" y1="366.72" x2="600.31" y2="259.64" xlink:href="#未命名漸層_54"/><linearGradient id="未命名漸層_54-7" x1="600.31" y1="386.91" x2="600.31" y2="279.83" xlink:href="#未命名漸層_54"/><linearGradient id="未命名漸層_54-8" x1="600.31" y1="407.1" x2="600.31" y2="300.02" xlink:href="#未命名漸層_54"/><linearGradient id="未命名漸層_54-9" x1="600.31" y1="427.28" x2="600.31" y2="320.21" xlink:href="#未命名漸層_54"/><linearGradient id="未命名漸層_54-10" x1="600.31" y1="447.47" x2="600.31" y2="340.4" xlink:href="#未命名漸層_54"/><linearGradient id="未命名漸層_54-11" x1="600.31" y1="467.66" x2="600.31" y2="360.58" xlink:href="#未命名漸層_54"/><linearGradient id="未命名漸層_54-12" x1="600.31" y1="487.85" x2="600.31" y2="380.77" xlink:href="#未命名漸層_54"/><linearGradient id="未命名漸層_5" x1="246.49" y1="333.33" x2="242.02" y2="693.01" gradientUnits="userSpaceOnUse"><stop offset="0" stop-color="#1470aa"/><stop offset="0.2" stop-color="#136ea6"/><stop offset="0.39" stop-color="#11669a"/><stop offset="0.58" stop-color="#0e5a86"/><stop offset="0.77" stop-color="#09496b"/><stop offset="0.96" stop-color="#033447"/><stop offset="1" stop-color="#012e3e"/></linearGradient><linearGradient id="未命名漸層_5-2" x1="960.55" y1="318.26" x2="955.92" y2="690.1" xlink:href="#未命名漸層_5"/><linearGradient id="未命名漸層_61" x1="961.11" y1="294.32" x2="959.37" y2="434.31" gradientUnits="userSpaceOnUse"><stop offset="0" stop-color="#1d9dcc"/><stop offset="0.17" stop-color="#1c9ac8"/><stop offset="0.34" stop-color="#1a91bc"/><stop offset="0.51" stop-color="#1681a8"/><stop offset="0.67" stop-color="#116c8d"/><stop offset="0.84" stop-color="#0a5069"/><stop offset="1" stop-color="#012e3e"/></linearGradient><linearGradient id="未命名漸層_61-2" x1="961.11" y1="304.02" x2="959.37" y2="444.01" xlink:href="#未命名漸層_61"/><linearGradient id="未命名漸層_61-3" x1="961.11" y1="313.72" x2="959.37" y2="453.71" xlink:href="#未命名漸層_61"/><linearGradient id="未命名漸層_61-4" x1="961.11" y1="323.42" x2="959.37" y2="463.41" xlink:href="#未命名漸層_61"/><linearGradient id="未命名漸層_61-5" x1="961.11" y1="333.12" x2="959.37" y2="473.11" xlink:href="#未命名漸層_61"/><linearGradient id="未命名漸層_61-6" x1="961.11" y1="342.82" x2="959.37" y2="482.81" xlink:href="#未命名漸層_61"/><linearGradient id="未命名漸層_61-7" x1="961.11" y1="352.52" x2="959.37" y2="492.51" xlink:href="#未命名漸層_61"/><linearGradient id="未命名漸層_61-8" x1="961.11" y1="362.22" x2="959.37" y2="502.21" xlink:href="#未命名漸層_61"/><linearGradient id="未命名漸層_61-9" x1="961.11" y1="371.92" x2="959.37" y2="511.91" xlink:href="#未命名漸層_61"/><linearGradient id="未命名漸層_61-10" x1="961.11" y1="381.62" x2="959.37" y2="521.61" xlink:href="#未命名漸層_61"/><linearGradient id="未命名漸層_61-11" x1="961.11" y1="391.32" x2="959.37" y2="531.31" xlink:href="#未命名漸層_61"/><linearGradient id="未命名漸層_61-12" x1="961.11" y1="401.02" x2="959.37" y2="541.01" xlink:href="#未命名漸層_61"/><linearGradient id="未命名漸層_57" x1="243.09" y1="303.53" x2="241.63" y2="420.38" gradientUnits="userSpaceOnUse"><stop offset="0" stop-color="#1d9dcc"/><stop offset="0.17" stop-color="#1c9ac8"/><stop offset="0.34" stop-color="#1a91bc"/><stop offset="0.51" stop-color="#1681a8"/><stop offset="0.67" stop-color="#116c8d"/><stop offset="0.84" stop-color="#0a5069"/><stop offset="1" stop-color="#012e3e"/></linearGradient><linearGradient id="未命名漸層_57-2" x1="243.09" y1="312.61" x2="241.63" y2="429.46" xlink:href="#未命名漸層_57"/><linearGradient id="未命名漸層_57-3" x1="243.09" y1="321.69" x2="241.63" y2="438.54" xlink:href="#未命名漸層_57"/><linearGradient id="未命名漸層_57-4" x1="243.09" y1="330.77" x2="241.63" y2="447.62" xlink:href="#未命名漸層_57"/><linearGradient id="未命名漸層_57-5" x1="243.09" y1="339.85" x2="241.63" y2="456.7" xlink:href="#未命名漸層_57"/><linearGradient id="未命名漸層_57-6" x1="243.09" y1="348.93" x2="241.63" y2="465.78" xlink:href="#未命名漸層_57"/><linearGradient id="未命名漸層_57-7" x1="243.09" y1="358" x2="241.63" y2="474.86" xlink:href="#未命名漸層_57"/><linearGradient id="未命名漸層_57-8" x1="243.09" y1="367.08" x2="241.63" y2="483.93" xlink:href="#未命名漸層_57"/><linearGradient id="未命名漸層_57-9" x1="243.09" y1="376.16" x2="241.63" y2="493.01" xlink:href="#未命名漸層_57"/><linearGradient id="未命名漸層_57-10" x1="243.09" y1="385.24" x2="241.63" y2="502.09" xlink:href="#未命名漸層_57"/><linearGradient id="未命名漸層_57-11" x1="243.09" y1="394.32" x2="241.63" y2="511.17" xlink:href="#未命名漸層_57"/><linearGradient id="未命名漸層_57-12" x1="243.09" y1="403.4" x2="241.63" y2="520.25" xlink:href="#未命名漸層_57"/><linearGradient id="未命名漸層_2" x1="-4929.36" y1="-531.89" x2="-4929.36" y2="-532.26" gradientTransform="matrix(749, 0, 0, -749, 3692694.23, -398346)" gradientUnits="userSpaceOnUse"><stop offset="0" stop-color="#f4bd94"/><stop offset="1" stop-color="#d83593"/></linearGradient></defs><g id="圖層_2" data-name="圖層 2"><g id="Logo"><rect class="cls-2" x="2.23" width="1200" height="400"/><g id="moutain_bottom"><g class="cls-3"><g id="Waterfall"><path class="cls-4" d="M1.48,184.39a117,117,0,0,1,61.34-26.93c48.32,0,24.78,25.47,80.53,36.6,27.32,5.45,75.37-28.62,107.18-29.16,72.06-1.22,73,38.42,135.67,38.76,60.22.33,87.61-73.31,146.4-83.82,85.3-15.24,80,94.06,162.74,77.47,112.45-22.56,98.9-74.06,174.7-68.58s49.29,73.83,119,69.05,97.08-67.95,136.82-68.82S1199,165.9,1199,165.9V699.61H-2.23Z" transform="translate(2.23)"/><path class="cls-5" d="M-1.3,185.94A117,117,0,0,1,60,159c48.32,0,24.78,25.47,80.53,36.6,27.32,5.45,75.37-28.61,107.18-29.16,72.06-1.22,73,38.42,135.67,38.76,60.22.33,87.61-73.31,146.4-83.82,85.3-15.24,80.05,94.06,162.74,77.47,112.45-22.56,98.9-74.06,174.7-68.58s49.29,73.83,119,69.05,97.08-68,136.82-68.82,73.19,36.94,73.19,36.94" transform="translate(2.23)"/><path class="cls-6" d="M-1.3,206A116.89,116.89,0,0,1,60,179.09c48.32,0,24.78,25.47,80.53,36.59,27.32,5.45,75.37-28.61,107.18-29.15,72.06-1.23,73,38.42,135.67,38.76,60.22.32,87.61-73.31,146.4-83.82,85.3-15.25,80.05,94.06,162.74,77.47,112.45-22.57,98.9-74.07,174.7-68.59s49.29,73.84,119,69.06,97.08-67.95,136.82-68.82,73.19,36.93,73.19,36.93" transform="translate(2.23)"/><path class="cls-7" d="M-1.3,226.09A117,117,0,0,1,60,199.16c48.32,0,24.78,25.47,80.53,36.6,27.32,5.45,75.37-28.61,107.18-29.16,72.06-1.22,73,38.42,135.67,38.76,60.22.33,87.61-73.31,146.4-83.82,85.3-15.24,80.05,94.06,162.74,77.47C805,216.45,791.45,165,867.25,170.43s49.29,73.83,119,69,97.08-67.94,136.82-68.81,73.19,36.93,73.19,36.93" transform="translate(2.23)"/><path class="cls-8" d="M-1.3,246.17A116.89,116.89,0,0,1,60,219.24c48.32,0,24.78,25.47,80.53,36.59,27.32,5.46,75.37-28.61,107.18-29.15,72.06-1.23,73,38.42,135.67,38.76,60.22.32,87.61-73.31,146.4-83.82,85.3-15.25,80.05,94.06,162.74,77.47C805,236.52,791.45,185,867.25,190.51s49.29,73.83,119,69.05,97.08-67.95,136.82-68.82,73.19,36.94,73.19,36.94" transform="translate(2.23)"/><path class="cls-9" d="M-1.3,266.24A117,117,0,0,1,60,239.31c48.32,0,24.78,25.47,80.53,36.6,27.32,5.45,75.37-28.61,107.18-29.15,72.06-1.23,73,38.41,135.67,38.75,60.22.33,87.61-73.31,146.4-83.81,85.3-15.25,80.05,94.05,162.74,77.46,112.45-22.56,98.9-74.06,174.7-68.58s49.29,73.84,119,69,97.08-67.94,136.82-68.81,73.19,36.93,73.19,36.93" transform="translate(2.23)"/><path class="cls-10" d="M-1.3,286.32A116.89,116.89,0,0,1,60,259.39c48.32,0,24.78,25.47,80.53,36.6,27.32,5.45,75.37-28.62,107.18-29.16,72.06-1.23,73,38.42,135.67,38.76,60.22.32,87.61-73.31,146.4-83.82,85.3-15.24,80.05,94.06,162.74,77.47,112.45-22.57,98.9-74.06,174.7-68.58s49.29,73.83,119,69,97.08-67.95,136.82-68.82,73.19,36.94,73.19,36.94" transform="translate(2.23)"/><path class="cls-11" d="M-1.3,306.39A117,117,0,0,1,60,279.46c48.32,0,24.78,25.48,80.53,36.6,27.32,5.45,75.37-28.61,107.18-29.15,72.06-1.23,73,38.41,135.67,38.75,60.22.33,87.61-73.31,146.4-83.81,85.3-15.25,80.05,94.06,162.74,77.46,112.45-22.56,98.9-74.06,174.7-68.58s49.29,73.84,119,69S1083.28,251.84,1123,251s73.19,36.93,73.19,36.93" transform="translate(2.23)"/><path class="cls-12" d="M-1.3,326.47A116.89,116.89,0,0,1,60,299.54c48.32,0,24.78,25.47,80.53,36.6,27.32,5.45,75.37-28.62,107.18-29.16,72.06-1.23,73,38.42,135.67,38.76,60.22.32,87.61-73.31,146.4-83.82,85.3-15.24,80.05,94.06,162.74,77.47,112.45-22.57,98.9-74.06,174.7-68.58s49.29,73.83,119,69.05S1083.28,271.91,1123,271,1196.21,308,1196.21,308" transform="translate(2.23)"/><path class="cls-13" d="M-1.3,346.54A117,117,0,0,1,60,319.61c48.32,0,24.78,25.48,80.53,36.6,27.32,5.45,75.37-28.61,107.18-29.15,72.06-1.23,73,38.42,135.67,38.75,60.22.33,87.61-73.3,146.4-83.81,85.3-15.25,80.05,94.06,162.74,77.46,112.45-22.56,98.9-74.06,174.7-68.58s49.29,73.84,119,69.05S1083.28,292,1123,291.12s73.19,36.93,73.19,36.93" transform="translate(2.23)"/><path class="cls-14" d="M-1.3,366.62A116.89,116.89,0,0,1,60,339.69c48.32,0,24.78,25.47,80.53,36.6,27.32,5.45,75.37-28.62,107.18-29.16,72.06-1.22,73,38.42,135.67,38.76,60.22.33,87.61-73.31,146.4-83.82,85.3-15.24,80.05,94.06,162.74,77.47C805,357,791.45,305.48,867.25,311s49.29,73.83,119,69.05,97.08-67.95,136.82-68.82,73.19,36.94,73.19,36.94" transform="translate(2.23)"/><path class="cls-15" d="M-1.3,386.7A117,117,0,0,1,60,359.76c48.32,0,24.78,25.48,80.53,36.6,27.32,5.45,75.37-28.61,107.18-29.15,72.06-1.23,73,38.42,135.67,38.76,60.22.32,87.61-73.31,146.4-83.82,85.3-15.25,80.05,94.06,162.74,77.47C805,377.05,791.45,325.55,867.25,331s49.29,73.84,119,69.05,97.08-67.94,136.82-68.81,73.19,36.93,73.19,36.93" transform="translate(2.23)"/><path class="cls-16" d="M-1.3,406.77A117,117,0,0,1,60,379.84c48.32,0,24.78,25.47,80.53,36.6,27.32,5.45,75.37-28.61,107.18-29.16,72.06-1.22,73,38.42,135.67,38.76,60.22.33,87.61-73.31,146.4-83.82,85.3-15.24,80.05,94.06,162.74,77.47,112.45-22.56,98.9-74.06,174.7-68.58s49.29,73.83,119,69.05,97.08-68,136.82-68.82,73.19,36.94,73.19,36.94" transform="translate(2.23)"/><path class="cls-17" d="M1.48,254.78s42.75-43.86,95.74-29c14,3.93,26.82,12.64,38.9,20.49,9.15,5.94,23.33,24.71,35.62,17.35,3.18-1.9,5.56-4.84,8-7.61,25.92-29.15,68.52-44,106.7-34.63,60.71,14.89,101.11-45.57,146.2-33.5C470.94,198.1,495.8,225.07,533,237.48c58,19.34,90.37-12.23,134.74-47.58,34-27.06,97.2-47,140.94-12,36.6,29.29,69.34,90.27,125.57,79.76,8.24-1.54,15.66-5.82,22.91-10,43.87-25.52,139.62-101.92,193.8-69.39,48,28.82,48,45.39,48,45.39v476H-2.23Z" transform="translate(2.23)"/><path class="cls-18" d="M1.48,254.78s42.75-43.86,95.74-29c14,3.93,26.82,12.64,38.9,20.49,9.15,5.94,23.33,24.71,35.62,17.35,3.18-1.9,5.56-4.84,8-7.61,25.92-29.15,68.52-44,106.7-34.63,60.71,14.89,101.11-45.57,146.2-33.5C470.94,198.1,495.8,225.07,533,237.48c58,19.34,90.37-12.23,134.74-47.58,34-27.06,97.2-47,140.94-12,36.6,29.29,69.34,90.27,125.57,79.76,8.24-1.54,15.66-5.82,22.91-10,43.87-25.52,139.62-101.92,193.8-69.39,48,28.82,48,45.39,48,45.39" transform="translate(2.23)"/><path class="cls-19" d="M1.48,275s42.75-43.86,95.74-29c14,3.93,26.82,12.63,38.9,20.49,9.15,5.94,23.33,24.71,35.62,17.35,3.18-1.9,5.56-4.85,8-7.61,25.92-29.15,68.52-44,106.7-34.63C347.17,256.43,387.57,196,432.66,208c38.28,10.25,63.14,37.22,100.37,49.63,58,19.34,90.37-12.24,134.74-47.58,34-27.06,97.2-47,140.94-12,36.6,29.29,69.34,90.26,125.57,79.76,8.24-1.54,15.66-5.83,22.91-10,43.87-25.52,139.62-101.93,193.8-69.39,48,28.82,48,45.39,48,45.39" transform="translate(2.23)"/><path class="cls-20" d="M1.48,295.16s42.75-43.87,95.74-29c14,3.93,26.82,12.63,38.9,20.49,9.15,5.94,23.33,24.71,35.62,17.35,3.18-1.9,5.56-4.85,8-7.61,25.92-29.15,68.52-44,106.7-34.63,60.71,14.88,101.11-45.57,146.2-33.5,38.28,10.25,63.14,37.22,100.37,49.63,58,19.34,90.37-12.24,134.74-47.58,34-27.06,97.2-47,140.94-12,36.6,29.29,69.34,90.26,125.57,79.75,8.24-1.53,15.66-5.82,22.91-10,43.87-25.52,139.62-101.93,193.8-69.39,48,28.82,48,45.38,48,45.38" transform="translate(2.23)"/><path class="cls-21" d="M1.48,315.35s42.75-43.87,95.74-29c14,3.93,26.82,12.63,38.9,20.48,9.15,5.95,23.33,24.72,35.62,17.36,3.18-1.9,5.56-4.85,8-7.62,25.92-29.14,68.52-44,106.7-34.62,60.71,14.88,101.11-45.58,146.2-33.5C470.94,258.67,495.8,285.63,533,298c58,19.35,90.37-12.23,134.74-47.57,34-27.06,97.2-47,140.94-12,36.6,29.29,69.34,90.27,125.57,79.76,8.24-1.54,15.66-5.82,22.91-10,43.87-25.53,139.62-101.93,193.8-69.39,48,28.82,48,45.38,48,45.38" transform="translate(2.23)"/><path class="cls-22" d="M1.48,335.54s42.75-43.87,95.74-29c14,3.92,26.82,12.63,38.9,20.48,9.15,5.95,23.33,24.71,35.62,17.36,3.18-1.9,5.56-4.85,8-7.62,25.92-29.15,68.52-44,106.7-34.63,60.71,14.89,101.11-45.57,146.2-33.49,38.28,10.25,63.14,37.21,100.37,49.62,58,19.35,90.37-12.23,134.74-47.57,34-27.07,97.2-47,140.94-12C845.31,288,878.05,349,934.28,338.44c8.24-1.54,15.66-5.82,22.91-10,43.87-25.52,139.62-101.92,193.8-69.39,48,28.83,48,45.39,48,45.39" transform="translate(2.23)"/><path class="cls-23" d="M1.48,355.73s42.75-43.87,95.74-29c14,3.93,26.82,12.64,38.9,20.49,9.15,5.95,23.33,24.71,35.62,17.35,3.18-1.9,5.56-4.84,8-7.61,25.92-29.15,68.52-44,106.7-34.63,60.71,14.89,101.11-45.57,146.2-33.49C470.94,299.05,495.8,326,533,338.42c58,19.34,90.37-12.23,134.74-47.58,34-27.06,97.2-47,140.94-12,36.6,29.29,69.34,90.27,125.57,79.76,8.24-1.54,15.66-5.82,22.91-10,43.87-25.52,139.62-101.92,193.8-69.39,48,28.83,48,45.39,48,45.39" transform="translate(2.23)"/><path class="cls-24" d="M1.48,375.91s42.75-43.86,95.74-29c14,3.93,26.82,12.64,38.9,20.49,9.15,5.94,23.33,24.71,35.62,17.35,3.18-1.9,5.56-4.84,8-7.61,25.92-29.15,68.52-44,106.7-34.63,60.71,14.89,101.11-45.57,146.2-33.5C470.94,319.23,495.8,346.2,533,358.61c58,19.34,90.37-12.23,134.74-47.58,34-27.06,97.2-47,140.94-12,36.6,29.29,69.34,90.26,125.57,79.76,8.24-1.54,15.66-5.83,22.91-10,43.87-25.52,139.62-101.92,193.8-69.39,48,28.82,48,45.39,48,45.39" transform="translate(2.23)"/><path class="cls-25" d="M1.48,396.1s42.75-43.86,95.74-29c14,3.93,26.82,12.63,38.9,20.49,9.15,5.94,23.33,24.71,35.62,17.35,3.18-1.9,5.56-4.85,8-7.61,25.92-29.15,68.52-44,106.7-34.63,60.71,14.89,101.11-45.57,146.2-33.5C470.94,339.42,495.8,366.39,533,378.8c58,19.34,90.37-12.24,134.74-47.58,34-27.06,97.2-47,140.94-12,36.6,29.29,69.34,90.26,125.57,79.76,8.24-1.54,15.66-5.83,22.91-10,43.87-25.52,139.62-101.93,193.8-69.39,48,28.82,48,45.38,48,45.38" transform="translate(2.23)"/><path class="cls-26" d="M1.48,416.29s42.75-43.87,95.74-29c14,3.93,26.82,12.63,38.9,20.49,9.15,5.94,23.33,24.71,35.62,17.35,3.18-1.9,5.56-4.85,8-7.61,25.92-29.15,68.52-44,106.7-34.63,60.71,14.88,101.11-45.58,146.2-33.5C470.94,359.61,495.8,386.57,533,399c58,19.35,90.37-12.23,134.74-47.57,34-27.06,97.2-47,140.94-12,36.6,29.29,69.34,90.26,125.57,79.75,8.24-1.54,15.66-5.82,22.91-10,43.87-25.53,139.62-101.93,193.8-69.39,48,28.82,48,45.38,48,45.38" transform="translate(2.23)"/><path class="cls-27" d="M1.48,436.48s42.75-43.87,95.74-29c14,3.92,26.82,12.63,38.9,20.48,9.15,5.95,23.33,24.72,35.62,17.36,3.18-1.9,5.56-4.85,8-7.62,25.92-29.14,68.52-44,106.7-34.62,60.71,14.88,101.11-45.58,146.2-33.5C470.94,379.8,495.8,406.76,533,419.17c58,19.35,90.37-12.23,134.74-47.57,34-27.06,97.2-47,140.94-12,36.6,29.29,69.34,90.27,125.57,79.76,8.24-1.54,15.66-5.82,22.91-10,43.87-25.52,139.62-101.92,193.8-69.39,48,28.83,48,45.39,48,45.39" transform="translate(2.23)"/><path class="cls-28" d="M1.48,456.67s42.75-43.87,95.74-29c14,3.92,26.82,12.63,38.9,20.48,9.15,5.95,23.33,24.71,35.62,17.36,3.18-1.9,5.56-4.85,8-7.62,25.92-29.15,68.52-44,106.7-34.63,60.71,14.89,101.11-45.57,146.2-33.49C470.94,400,495.8,427,533,439.36c58,19.34,90.37-12.23,134.74-47.58,34-27.06,97.2-47,140.94-12,36.6,29.29,69.34,90.27,125.57,79.76,8.24-1.54,15.66-5.82,22.91-10,43.87-25.52,139.62-101.92,193.8-69.39,48,28.83,48,45.39,48,45.39" transform="translate(2.23)"/><path class="cls-29" d="M1.48,476.86s42.75-43.87,95.74-29c14,3.93,26.82,12.64,38.9,20.49,9.15,5.95,23.33,24.71,35.62,17.35,3.18-1.9,5.56-4.84,8-7.61,25.92-29.15,68.52-44,106.7-34.63,60.71,14.89,101.11-45.57,146.2-33.5,38.28,10.25,63.14,37.22,100.37,49.63,58,19.34,90.37-12.23,134.74-47.58,34-27.06,97.2-47,140.94-12,36.6,29.29,69.34,90.27,125.57,79.76,8.24-1.54,15.66-5.82,22.91-10,43.87-25.52,139.62-101.92,193.8-69.39,48,28.82,48,45.39,48,45.39" transform="translate(2.23)"/><ellipse class="cls-30" cx="609.29" cy="373.72" rx="173.15" ry="26.44"/><path class="cls-30" d="M443.2,378.83S487.38,395.48,486.35,485s-4.43,186.86-4,196.47a60.12,60.12,0,0,0,4,18l250.49.16s-41.5-328.3,34.08-320.78" transform="translate(2.23)"/><ellipse class="cls-31" cx="607.43" cy="374.26" rx="139.39" ry="21.09"/><ellipse class="cls-31" cx="602.78" cy="374.36" rx="105.63" ry="11.27"/><ellipse class="cls-31" cx="603.71" cy="374.31" rx="70.62" ry="4.29"/><ellipse class="cls-31" cx="607.43" cy="374.57" rx="160.85" ry="25.74"/><path class="cls-32" d="M1.48,383.37c0,.42,23.85,7.09,54.52-44.92,29.93-50.72,89.38-47.85,128.86-14.57,18.61,15.69,35,27.48,59.48,27.32,36.58-.25,77.32-40.5,112.51-15.87,12.6,8.81,19.91,20.16,36.06,22.86,17.66,2.95,38.84-1.24,55,9.41,17.36,11.45,24.27,33.82,29.34,52.56,10,36.84,10.37,76.48,10.09,114.34-.09,11.94-11.2,162.71-1,162.68L1.48,699.61Z" transform="translate(2.23)"/><path class="cls-33" d="M736.84,697.29s-48.32-281,0-306.2,22.93-38.85,81.78-47.54,48.32,19.85,89.83,16.75,54.48-33.88,94.14-39.27c27.29-3.71,31.7-28.66,57-34.55l13-.16c31-1.08,52.5,41.24,74.34,37.38,31.6-5.58,52,28.48,52,56.18V699.61Z" transform="translate(2.23)"/><path class="cls-34" d="M720.33,431.24C723.7,416,729,405.1,736.84,401c48.33-25.2,22.93-38.85,81.78-47.53s48.32,19.85,89.83,16.75,54.48-33.88,94.14-39.28c27.29-3.71,31.7-28.66,57-34.54l13-.16c31-1.08,52.5,41.24,74.34,37.38,31.6-5.59,52,28.47,52,56.17" transform="translate(2.23)"/><path class="cls-35" d="M720.33,440.94c3.37-15.29,8.67-26.14,16.51-30.23,48.33-25.2,22.93-38.85,81.78-47.53s48.32,19.85,89.83,16.74,54.48-33.87,94.14-39.27c27.29-3.71,31.7-28.66,57-34.54l13-.16c31-1.08,52.5,41.24,74.34,37.38,31.6-5.59,52,28.47,52,56.17" transform="translate(2.23)"/><path class="cls-36" d="M720.33,450.64c3.37-15.29,8.67-26.14,16.51-30.23,48.33-25.2,22.93-38.85,81.78-47.53s48.32,19.85,89.83,16.74,54.48-33.87,94.14-39.27c27.29-3.71,31.7-28.66,57-34.54l13-.16c31-1.08,52.5,41.24,74.34,37.38,31.6-5.59,52,28.47,52,56.17" transform="translate(2.23)"/><path class="cls-37" d="M720.33,460.34c3.37-15.29,8.67-26.14,16.51-30.23,48.33-25.2,22.93-38.85,81.78-47.54s48.32,19.85,89.83,16.75,54.48-33.87,94.14-39.27c27.29-3.71,31.7-28.66,57-34.54l13-.16c31-1.08,52.5,41.23,74.34,37.38,31.6-5.59,52,28.47,52,56.17" transform="translate(2.23)"/><path class="cls-38" d="M720.33,470c3.37-15.29,8.67-26.13,16.51-30.22,48.33-25.2,22.93-38.85,81.78-47.54s48.32,19.85,89.83,16.75,54.48-33.87,94.14-39.27c27.29-3.71,31.7-28.66,57-34.54l13-.16c31-1.08,52.5,41.23,74.34,37.37,31.6-5.58,52,28.48,52,56.18" transform="translate(2.23)"/><path class="cls-39" d="M720.33,479.73c3.37-15.29,8.67-26.13,16.51-30.22,48.33-25.21,22.93-38.85,81.78-47.54s48.32,19.85,89.83,16.75,54.48-33.87,94.14-39.27c27.29-3.71,31.7-28.66,57-34.54l13-.16c31-1.09,52.5,41.23,74.34,37.37,31.6-5.58,52,28.48,52,56.18" transform="translate(2.23)"/><path class="cls-40" d="M720.33,489.43c3.37-15.29,8.67-26.13,16.51-30.22,48.33-25.21,22.93-38.85,81.78-47.54s48.32,19.85,89.83,16.75,54.48-33.87,94.14-39.27c27.29-3.71,31.7-28.66,57-34.55l13-.15c31-1.09,52.5,41.23,74.34,37.37,31.6-5.58,52,28.48,52,56.18" transform="translate(2.23)"/><path class="cls-41" d="M720.33,499.13c3.37-15.29,8.67-26.13,16.51-30.22,48.33-25.21,22.93-38.85,81.78-47.54s48.32,19.85,89.83,16.75,54.48-33.88,94.14-39.27c27.29-3.71,31.7-28.66,57-34.55l13-.16c31-1.08,52.5,41.24,74.34,37.38,31.6-5.58,52,28.48,52,56.18" transform="translate(2.23)"/><path class="cls-42" d="M720.33,508.83c3.37-15.29,8.67-26.13,16.51-30.22,48.33-25.21,22.93-38.85,81.78-47.54s48.32,19.85,89.83,16.75,54.48-33.88,94.14-39.27c27.29-3.71,31.7-28.66,57-34.55l13-.16c31-1.08,52.5,41.24,74.34,37.38,31.6-5.58,52,28.48,52,56.18" transform="translate(2.23)"/><path class="cls-43" d="M720.33,518.53c3.37-15.29,8.67-26.13,16.51-30.22,48.33-25.21,22.93-38.85,81.78-47.54s48.32,19.85,89.83,16.75,54.48-33.88,94.14-39.27c27.29-3.71,31.7-28.67,57-34.55l13-.16c31-1.08,52.5,41.24,74.34,37.38,31.6-5.58,52,28.48,52,56.18" transform="translate(2.23)"/><path class="cls-44" d="M720.33,528.23C723.7,512.94,729,502.1,736.84,498c48.33-25.21,22.93-38.86,81.78-47.54s48.32,19.85,89.83,16.75,54.48-33.88,94.14-39.27c27.29-3.71,31.7-28.67,57-34.55l13-.16c31-1.08,52.5,41.24,74.34,37.38,31.6-5.58,52,28.48,52,56.18" transform="translate(2.23)"/><path class="cls-45" d="M720.33,537.93c3.37-15.29,8.67-26.13,16.51-30.23,48.33-25.2,22.93-38.85,81.78-47.53s48.32,19.85,89.83,16.75,54.48-33.88,94.14-39.27c27.29-3.72,31.7-28.67,57-34.55l13-.16c31-1.08,52.5,41.24,74.34,37.38,31.6-5.58,52,28.48,52,56.18" transform="translate(2.23)"/><path class="cls-46" d="M4,386.42c0,.42,23.85,7.08,54.52-44.92,29.93-50.73,89.38-47.85,128.86-14.57,18.61,15.69,35,27.48,59.47,27.32,36.59-.25,77.33-40.5,112.52-15.87,12.6,8.81,19.9,20.16,36.05,22.86,17.67,2.95,38.85-1.24,55,9.41,17.36,11.45,24.27,33.82,29.34,52.56" transform="translate(2.23)"/><path class="cls-47" d="M4,395.5c0,.42,23.85,7.08,54.52-44.92,29.93-50.73,89.38-47.85,128.86-14.57,18.61,15.69,35,27.48,59.47,27.31,36.59-.24,77.33-40.49,112.52-15.87,12.6,8.82,19.9,20.17,36.05,22.87,17.67,2.95,38.85-1.24,55,9.41,17.36,11.45,24.27,33.82,29.34,52.56" transform="translate(2.23)"/><path class="cls-48" d="M4,404.57c0,.43,23.85,7.09,54.52-44.91,29.93-50.73,89.38-47.85,128.86-14.57,18.61,15.69,35,27.48,59.47,27.31,36.59-.24,77.33-40.49,112.52-15.87,12.6,8.82,19.9,20.17,36.05,22.87,17.67,3,38.85-1.24,55,9.41,17.36,11.45,24.27,33.82,29.34,52.56" transform="translate(2.23)"/><path class="cls-49" d="M4,413.65c0,.43,23.85,7.09,54.52-44.91,29.93-50.73,89.38-47.85,128.86-14.57,18.61,15.69,35,27.48,59.47,27.31,36.59-.24,77.33-40.49,112.52-15.87,12.6,8.82,19.9,20.17,36.05,22.86,17.67,3,38.85-1.24,55,9.41,17.36,11.46,24.27,33.82,29.34,52.56" transform="translate(2.23)"/><path class="cls-50" d="M4,422.73c0,.43,23.85,7.09,54.52-44.91,29.93-50.73,89.38-47.86,128.86-14.57,18.61,15.69,35,27.47,59.47,27.31,36.59-.25,77.33-40.5,112.52-15.87,12.6,8.82,19.9,20.16,36.05,22.86,17.67,3,38.85-1.24,55,9.41,17.36,11.46,24.27,33.82,29.34,52.56" transform="translate(2.23)"/><path class="cls-51" d="M4,431.81c0,.43,23.85,7.09,54.52-44.92,29.93-50.72,89.38-47.85,128.86-14.56,18.61,15.69,35,27.47,59.47,27.31,36.59-.25,77.33-40.5,112.52-15.87,12.6,8.82,19.9,20.16,36.05,22.86,17.67,3,38.85-1.24,55,9.41,17.36,11.45,24.27,33.82,29.34,52.56" transform="translate(2.23)"/><path class="cls-52" d="M4,440.89C4,441.31,27.81,448,58.48,396c29.93-50.72,89.38-47.85,128.86-14.56,18.61,15.68,35,27.47,59.47,27.31,36.59-.25,77.33-40.5,112.52-15.87,12.6,8.82,19.9,20.16,36.05,22.86,17.67,3,38.85-1.24,55,9.41,17.36,11.45,24.27,33.82,29.34,52.56" transform="translate(2.23)"/><path class="cls-53" d="M4,450c0,.42,23.85,7.09,54.52-44.92,29.93-50.72,89.38-47.85,128.86-14.57,18.61,15.69,35,27.48,59.47,27.32,36.59-.25,77.33-40.5,112.52-15.87,12.6,8.81,19.9,20.16,36.05,22.86,17.67,2.95,38.85-1.24,55,9.41,17.36,11.45,24.27,33.82,29.34,52.56" transform="translate(2.23)"/><path class="cls-54" d="M4,459.05c0,.42,23.85,7.09,54.52-44.92,29.93-50.72,89.38-47.85,128.86-14.57,18.61,15.69,35,27.48,59.47,27.32,36.59-.25,77.33-40.5,112.52-15.87,12.6,8.81,19.9,20.16,36.05,22.86,17.67,2.95,38.85-1.24,55,9.41,17.36,11.45,24.27,33.82,29.34,52.56" transform="translate(2.23)"/><path class="cls-55" d="M4,468.13c0,.42,23.85,7.09,54.52-44.92,29.93-50.72,89.38-47.85,128.86-14.57,18.61,15.69,35,27.48,59.47,27.32,36.59-.25,77.33-40.5,112.52-15.87,12.6,8.81,19.9,20.16,36.05,22.86,17.67,2.95,38.85-1.24,55,9.41,17.36,11.45,24.27,33.82,29.34,52.56" transform="translate(2.23)"/><path class="cls-56" d="M4,477.21c0,.42,23.85,7.09,54.52-44.92,29.93-50.73,89.38-47.85,128.86-14.57,18.61,15.69,35,27.48,59.47,27.32,36.59-.25,77.33-40.5,112.52-15.87,12.6,8.81,19.9,20.16,36.05,22.86,17.67,3,38.85-1.24,55,9.41,17.36,11.45,24.27,33.82,29.34,52.56" transform="translate(2.23)"/><path class="cls-57" d="M4,486.29c0,.42,23.85,7.08,54.52-44.92,29.93-50.73,89.38-47.85,128.86-14.57,18.61,15.69,35,27.48,59.47,27.32,36.59-.25,77.33-40.5,112.52-15.87,12.6,8.81,19.9,20.16,36.05,22.86,17.67,2.95,38.85-1.24,55,9.41,17.36,11.45,24.27,33.82,29.34,52.56" transform="translate(2.23)"/></g></g></g><g id="cloud"><g id="light"><path class="cls-58" d="M548,298.78c-.39-5.58-11-9.69-26.17-10.95-5.5-6-17.06-10.93-30.8-12.37a67.57,67.57,0,0,0-20.12.74c-5.19-8.89-18.38-15.2-33.82-15.2-16.22,0-29.95,7-34.55,16.56-8.76,1.85-15.79,5.42-19.53,9.9-19.23.33-34.57,6.5-34.57,14.07,0,3.88,4,7.4,10.58,10,1.91.65,3.88,1.15,5.86,1.62,1.83.43,3.67.86,5.49,1.36l.21.05.61.1a25.21,25.21,0,0,1,3.24.43c1.84.21,3.73.37,5.68.46l1.17-.06a10.49,10.49,0,0,1,2.31.17h1.17l.12.28a.92.92,0,0,1,.3.45,2.47,2.47,0,0,0,.29.67l.05.08a7.22,7.22,0,0,0,1.7,1.7c1,.76,2,1.49,3,2.2a23.69,23.69,0,0,0,5.07,2.57,21.48,21.48,0,0,1,3.63,1.37,66.64,66.64,0,0,0,7.53,1.69c.89.08,1.75.1,2.68.11a9.05,9.05,0,0,1,2.27.18,1.07,1.07,0,0,1,.25,0l1.48.42a16.22,16.22,0,0,1,3.6.3c1.28.05,2.57.08,3.88.08,10.75,0,20.39-1.82,27-4.71a52.66,52.66,0,0,0,9.21,1.66c.79,0,1.58.07,2.37.16a54.2,54.2,0,0,0,6.37-.09,54.86,54.86,0,0,0,11-1.9c1.82-1.23,3.81-2.15,5.7-3.26,2.23-1.3,4.32-2.86,6.8-3.68a1.23,1.23,0,0,1,.46-.05,9.91,9.91,0,0,1,3.78.5h0l1.05.06c.91,0,1.84,0,2.78,0a14.39,14.39,0,0,1,3.28-.26c.51,0,1,.05,1.54.07l1-.06a1.06,1.06,0,0,1,.37-.07,39.12,39.12,0,0,0,5.06-.54c1.66-.22,3.32-.39,5-.69s3.33-.6,5-.78l1.74-.19a7.92,7.92,0,0,1,1.12-.49.73.73,0,0,1,.2-.05l.31-.18a26.44,26.44,0,0,1,2.49-1.4,4.79,4.79,0,0,1,.71-.46,10.51,10.51,0,0,1,1.92-.83,6.35,6.35,0,0,1,2.52-.26,20.68,20.68,0,0,1,2.23.1h0a14.13,14.13,0,0,0,1.46-.1c1-.3,2-.54,3-.75C543.76,306.37,548.3,302.59,548,298.78Z" transform="translate(2.23)"/></g><g id="dark"><path class="cls-59" d="M527.68,310.13c-.33-2.05-9.89-2.26-21.58-.51a59.47,59.47,0,0,0-15.44-1.81c-7.37,0-13.88,1-17.79,2.61a53.65,53.65,0,0,0-9.95-.87,56.62,56.62,0,0,0-6.89.4c-3.5-3.06-10.94-5.17-19.55-5.17q-2.58,0-5,.24c-2-1.43-5.38-2.46-9.35-2.75a1.62,1.62,0,0,0,0-.31c0-3.23-6.11-5.85-13.65-5.85s-13.66,2.62-13.66,5.85a3,3,0,0,0,0,.31q-1.17-.09-2.4-.09a27.11,27.11,0,0,0-8.2,1.17,26.94,26.94,0,0,0-8.27-1.17,30.33,30.33,0,0,0-5.3.44,28.31,28.31,0,0,0-7.27-.87c-6.83,0-12.36,2-12.36,4.55,0,1.26,1.4,2.4,3.64,3.22l-.08.06a40.85,40.85,0,0,0,10.28,3.52c1.83.43,3.67.86,5.49,1.36l.48.13a37.54,37.54,0,0,1,5.28.77l1.83.18a28.33,28.33,0,0,0,3.32-.1,9.84,9.84,0,0,1,2.6.23,1.08,1.08,0,0,1,1.3.68,5.23,5.23,0,0,0,2,2.45c1,.76,2,1.49,3,2.2a23.77,23.77,0,0,0,5.08,2.57,37.12,37.12,0,0,1,4.72,1.83,23.66,23.66,0,0,0,5.22,1.1,29.87,29.87,0,0,0,3.89.24,9.09,9.09,0,0,1,2.28.18l.24,0,1.47.42a27,27,0,0,1,4.73.44,30.29,30.29,0,0,0,3.16,0h3.59a1.21,1.21,0,0,1,.6.15,45.28,45.28,0,0,0,7.26-.78c2.49-.43,5-.92,7.46-1.4a31.35,31.35,0,0,0,3.56-.88,23.62,23.62,0,0,1,3.31-.95c2.08-.35,4.19.28,6.25.5,2.68.28,5.39.08,8,.66l0,0,1.76,0a51.56,51.56,0,0,0,12.79-1.5,1,1,0,0,1,.29-.32,67.11,67.11,0,0,1,6.35-3.72c2.23-1.3,4.32-2.86,6.8-3.68a1.25,1.25,0,0,1,.46-.05,9.91,9.91,0,0,1,3.78.5h0c1,0,2,.16,3.05.22l.2-.07a13.62,13.62,0,0,1,3.87-.39l1.86.09h.51a1,1,0,0,1,.54-.15,39.12,39.12,0,0,0,5.06-.54c1.66-.22,3.32-.39,5-.69s3.33-.6,5-.78l1.74-.19a7.92,7.92,0,0,1,1.12-.49.73.73,0,0,1,.2-.05l.31-.18a26.44,26.44,0,0,1,2.49-1.4,4.79,4.79,0,0,1,.71-.46,10.51,10.51,0,0,1,1.92-.83c.24-.07.49-.13.73-.18A.43.43,0,0,0,527.68,310.13Z" transform="translate(2.23)"/></g></g><g id="cloud-2" data-name="cloud"><g id="light-2" data-name="light"><path class="cls-58" d="M221.59,226.09c-.37-5.34-10.54-9.26-25-10.46-5.26-5.75-16.3-10.44-29.42-11.82a64.55,64.55,0,0,0-19.22.71C143,196,130.4,190,115.65,190c-15.49,0-28.61,6.65-33,15.82C74.28,207.59,67.56,211,64,215.27c-18.38.32-33,6.21-33,13.44,0,3.71,3.86,7.07,10.1,9.51,1.82.62,3.71,1.1,5.6,1.55s3.5.82,5.24,1.29l.2.06.58.09a24.81,24.81,0,0,1,3.1.41c1.75.21,3.57.35,5.42.44l1.12-.06a10.06,10.06,0,0,1,2.2.16h1.13c0,.09.08.18.11.27a.85.85,0,0,1,.29.43,2.42,2.42,0,0,0,.27.64l0,.08A7.37,7.37,0,0,0,68,245.21c.92.73,1.9,1.42,2.86,2.1a23,23,0,0,0,4.85,2.46,20.35,20.35,0,0,1,3.46,1.31,63.5,63.5,0,0,0,7.2,1.61c.84.07,1.67.1,2.56.11a8.16,8.16,0,0,1,2.16.17,1,1,0,0,1,.24,0l1.41.4a15.32,15.32,0,0,1,3.44.28c1.22,0,2.46.08,3.72.08,10.26,0,19.47-1.73,25.8-4.5a50.78,50.78,0,0,0,8.8,1.59c.76,0,1.51.07,2.26.15a49.32,49.32,0,0,0,6.08-.09,53.17,53.17,0,0,0,10.55-1.81c1.73-1.17,3.64-2.06,5.44-3.11,2.13-1.24,4.12-2.74,6.49-3.52a1,1,0,0,1,.44,0,9.3,9.3,0,0,1,3.62.47h0q.5,0,1,.06l2.66,0a13.78,13.78,0,0,1,3.14-.25c.49,0,1,.05,1.47.07l1-.06a1,1,0,0,1,.35-.06,39.34,39.34,0,0,0,4.84-.52c1.59-.22,3.17-.38,4.75-.66s3.17-.58,4.78-.75c.56-.05,1.11-.11,1.66-.18a8.6,8.6,0,0,1,1.08-.47l.18,0,.3-.17a24.17,24.17,0,0,1,2.38-1.34,3.76,3.76,0,0,1,.68-.44,9.54,9.54,0,0,1,1.83-.79,6,6,0,0,1,2.41-.25,19,19,0,0,1,2.13.09h0a13.18,13.18,0,0,0,1.4-.1c.94-.28,1.9-.51,2.86-.71C217.51,233.34,221.85,229.72,221.59,226.09Z" transform="translate(2.23)"/></g><g id="dark-2" data-name="dark"><path class="cls-59" d="M202.15,236.93c-.31-2-9.45-2.16-20.62-.48a56.29,56.29,0,0,0-14.74-1.73c-7,0-13.26,1-17,2.48a53.17,53.17,0,0,0-9.5-.83,55.6,55.6,0,0,0-6.58.39c-3.34-2.92-10.45-4.94-18.68-4.94-1.64,0-3.23.08-4.75.23-1.92-1.36-5.14-2.35-8.93-2.63a2.83,2.83,0,0,0,0-.29c0-3.09-5.84-5.59-13.05-5.59s-13,2.5-13,5.59a2.83,2.83,0,0,0,0,.29c-.75-.06-1.51-.08-2.3-.08a26,26,0,0,0-7.83,1.11,25.8,25.8,0,0,0-7.9-1.11,29.53,29.53,0,0,0-5.06.41,27.6,27.6,0,0,0-7-.83c-6.52,0-11.8,2-11.8,4.35,0,1.2,1.33,2.29,3.48,3.08l-.08.05a38.94,38.94,0,0,0,9.82,3.37c1.75.41,3.5.82,5.24,1.29l.46.13a34.54,34.54,0,0,1,5,.74l1.74.17a28,28,0,0,0,3.17-.1,9.32,9.32,0,0,1,2.48.22,1,1,0,0,1,1.25.65,4.94,4.94,0,0,0,2,2.34c.92.73,1.9,1.42,2.86,2.1a23,23,0,0,0,4.85,2.46,36.2,36.2,0,0,1,4.51,1.74,22.28,22.28,0,0,0,5,1.05,27.34,27.34,0,0,0,3.72.24,8.79,8.79,0,0,1,2.18.17.83.83,0,0,1,.22,0l1.41.4a26.47,26.47,0,0,1,4.51.42,27.85,27.85,0,0,0,3,0h3.42a1.24,1.24,0,0,1,.58.14,44.9,44.9,0,0,0,6.93-.74c2.38-.41,4.76-.88,7.12-1.34a30.13,30.13,0,0,0,3.4-.84,22,22,0,0,1,3.17-.91c2-.34,4,.27,6,.48,2.56.26,5.15.08,7.68.63l0,0,1.68,0a48.52,48.52,0,0,0,12.21-1.44,1.13,1.13,0,0,1,.28-.3,64.55,64.55,0,0,1,6.07-3.55c2.13-1.24,4.12-2.74,6.49-3.52a1,1,0,0,1,.45,0,9.25,9.25,0,0,1,3.61.47h0c1,0,1.93.15,2.91.21l.19-.07a13.11,13.11,0,0,1,3.7-.37l1.77.08h.49a.88.88,0,0,1,.51-.14,39.34,39.34,0,0,0,4.84-.52c1.59-.22,3.17-.38,4.75-.66s3.17-.58,4.78-.75c.56-.05,1.11-.11,1.66-.18a8.6,8.6,0,0,1,1.08-.47l.18,0,.3-.17a24.17,24.17,0,0,1,2.38-1.34,3.76,3.76,0,0,1,.68-.44,9.54,9.54,0,0,1,1.83-.79c.23-.07.47-.13.7-.18A.38.38,0,0,0,202.15,236.93Z" transform="translate(2.23)"/></g></g><g id="Sun_003" data-name="Sun 003"><circle id="SUN_3" data-name="SUN 3" class="cls-60" cx="602.56" cy="177.72" r="135.72"/></g><g id="cloud-3" data-name="cloud"><g id="light-3" data-name="light"><path class="cls-58" d="M960,99.86c-.5-7.22-14.27-12.54-33.84-14.17-7.11-7.77-22.05-14.12-39.82-16a87,87,0,0,0-26,1C853.63,59.16,836.58,51,816.61,51c-21,0-38.73,9-44.68,21.42-11.33,2.39-20.42,7-25.25,12.79-24.87.43-44.7,8.41-44.7,18.2,0,5,5.22,9.57,13.67,12.87,2.48.84,5,1.49,7.58,2.09,2.37.56,4.75,1.12,7.1,1.76l.27.07c.26,0,.53.08.79.12a33,33,0,0,1,4.19.57q3.57.4,7.35.59c.5,0,1-.07,1.5-.08a12.9,12.9,0,0,1,3,.22H749c0,.12.1.24.15.36a1.21,1.21,0,0,1,.39.59,2.84,2.84,0,0,0,.37.86l.06.11a9.73,9.73,0,0,0,2.2,2.19c1.25,1,2.58,1.93,3.88,2.85a31.61,31.61,0,0,0,6.56,3.33,28.76,28.76,0,0,1,4.69,1.76,83,83,0,0,0,9.74,2.19c1.15.1,2.26.14,3.47.15a11.12,11.12,0,0,1,2.93.23,1.12,1.12,0,0,1,.32,0l1.91.54a21,21,0,0,1,4.66.38c1.65.07,3.33.11,5,.11,13.89,0,26.36-2.35,34.93-6.09a68.2,68.2,0,0,0,11.92,2.14c1,0,2,.1,3.06.21a68.5,68.5,0,0,0,8.23-.12A71.33,71.33,0,0,0,867.72,131c2.35-1.59,4.93-2.79,7.37-4.21,2.89-1.68,5.58-3.71,8.79-4.76a1.38,1.38,0,0,1,.59-.07,12.94,12.94,0,0,1,4.9.64h0c.45,0,.9,0,1.35.07,1.19,0,2.39,0,3.6,0a18.86,18.86,0,0,1,4.25-.33c.66,0,1.32.06,2,.09l1.29-.08a1.46,1.46,0,0,1,.48-.09,51.57,51.57,0,0,0,6.56-.7c2.14-.29,4.28-.51,6.42-.89s4.3-.78,6.48-1c.74-.08,1.5-.15,2.24-.25a11.76,11.76,0,0,1,1.46-.64l.25,0,.4-.23a31.89,31.89,0,0,1,3.22-1.81,6,6,0,0,1,.92-.6,14.09,14.09,0,0,1,2.49-1.08,8.17,8.17,0,0,1,3.26-.33,22.89,22.89,0,0,1,2.87.13h0c.63,0,1.26-.07,1.89-.14,1.28-.38,2.58-.7,3.88-1C954.51,109.67,960.38,104.78,960,99.86Z" transform="translate(2.23)"/></g><g id="dark-3" data-name="dark"><path class="cls-59" d="M933.71,114.54c-.43-2.66-12.79-2.93-27.91-.66a76.68,76.68,0,0,0-20-2.34c-9.52,0-17.94,1.33-23,3.36A71.07,71.07,0,0,0,850,113.78a75.81,75.81,0,0,0-8.91.52c-4.52-4-14.14-6.68-25.28-6.68a63.89,63.89,0,0,0-6.44.31c-2.59-1.85-7-3.18-12.09-3.57a2.56,2.56,0,0,0,0-.39c0-4.18-7.91-7.57-17.66-7.57S762,99.79,762,104a2.69,2.69,0,0,0,0,.4c-1-.08-2.05-.12-3.11-.12a35,35,0,0,0-10.6,1.52,35,35,0,0,0-10.7-1.52,39.34,39.34,0,0,0-6.85.57,36.79,36.79,0,0,0-9.41-1.13c-8.82,0-16,2.64-16,5.89,0,1.63,1.8,3.1,4.71,4.17l-.11.07a52.75,52.75,0,0,0,13.29,4.55c2.37.56,4.75,1.12,7.1,1.76l.62.17a46.48,46.48,0,0,1,6.83,1l2.37.23a38.25,38.25,0,0,0,4.28-.13,12.64,12.64,0,0,1,3.37.3,1.4,1.4,0,0,1,1.69.88c.33,1.29,1.55,2.31,2.63,3.16,1.25,1,2.58,1.93,3.88,2.85a31.69,31.69,0,0,0,6.57,3.33,46,46,0,0,1,6.1,2.36,30.38,30.38,0,0,0,6.75,1.42,38.76,38.76,0,0,0,5,.32,11.3,11.3,0,0,1,2.95.23,1,1,0,0,1,.3,0l1.91.54a35.09,35.09,0,0,1,6.11.57,39.86,39.86,0,0,0,4.09,0h4.64a1.7,1.7,0,0,1,.78.19,60.44,60.44,0,0,0,9.39-1c3.22-.56,6.43-1.19,9.64-1.81a40.65,40.65,0,0,0,4.6-1.14,30.48,30.48,0,0,1,4.29-1.24c2.69-.45,5.42.37,8.08.65,3.47.36,7,.11,10.39.86l.06,0c.75,0,1.51,0,2.27,0A66.4,66.4,0,0,0,866.5,132a1.36,1.36,0,0,1,.38-.42,86.24,86.24,0,0,1,8.21-4.8c2.89-1.68,5.58-3.71,8.79-4.76a1.41,1.41,0,0,1,.6-.07,12.89,12.89,0,0,1,4.89.64h0c1.32,0,2.62.21,4,.3a.87.87,0,0,1,.24-.1,17.67,17.67,0,0,1,5-.5c.8,0,1.6.08,2.4.11h.65a1.28,1.28,0,0,1,.7-.2,51.57,51.57,0,0,0,6.56-.7c2.14-.29,4.28-.51,6.42-.89s4.3-.78,6.48-1c.74-.08,1.5-.15,2.24-.25a11.76,11.76,0,0,1,1.46-.64l.25,0,.4-.23a31.89,31.89,0,0,1,3.22-1.81,6,6,0,0,1,.92-.6,14.09,14.09,0,0,1,2.49-1.08c.31-.09.62-.17.94-.23A.67.67,0,0,0,933.71,114.54Z" transform="translate(2.23)"/></g></g><g id="cloud-4" data-name="cloud"><g id="light-4" data-name="light"><path class="cls-58" d="M1220,179.86c-.5-7.22-14.27-12.54-33.84-14.17-7.11-7.77-22-14.12-39.82-16a87,87,0,0,0-26,1c-6.72-11.5-23.77-19.66-43.74-19.66-21,0-38.73,9-44.68,21.42-11.33,2.39-20.42,7-25.25,12.79-24.87.43-44.7,8.41-44.7,18.2,0,5,5.22,9.57,13.67,12.87,2.48.84,5,1.49,7.58,2.09,2.37.56,4.75,1.12,7.1,1.76l.27.07c.26.05.53.08.79.12a33,33,0,0,1,4.19.57q3.57.41,7.35.59c.5,0,1-.07,1.5-.08a12.9,12.9,0,0,1,3,.22H1009c0,.12.1.24.15.36a1.21,1.21,0,0,1,.39.59,2.84,2.84,0,0,0,.37.86l.06.11a9.73,9.73,0,0,0,2.2,2.19c1.25,1,2.58,1.93,3.88,2.85a31.61,31.61,0,0,0,6.56,3.33,28.76,28.76,0,0,1,4.69,1.76,83,83,0,0,0,9.74,2.19c1.15.1,2.26.14,3.47.15a11.12,11.12,0,0,1,2.93.23,1.12,1.12,0,0,1,.32,0l1.91.54a21,21,0,0,1,4.66.38c1.65.07,3.33.11,5,.11,13.89,0,26.36-2.35,34.93-6.09a68.2,68.2,0,0,0,11.92,2.14c1,0,2,.1,3.06.21a68.5,68.5,0,0,0,8.23-.12,71.33,71.33,0,0,0,14.27-2.45c2.35-1.59,4.93-2.79,7.37-4.21,2.89-1.68,5.58-3.71,8.79-4.76a1.38,1.38,0,0,1,.59-.07,12.94,12.94,0,0,1,4.9.64h0c.45,0,.9,0,1.35.07,1.19,0,2.39,0,3.6-.05a18.86,18.86,0,0,1,4.25-.33c.66,0,1.32.06,2,.09l1.29-.08a1.46,1.46,0,0,1,.48-.09,51.57,51.57,0,0,0,6.56-.7c2.14-.29,4.28-.51,6.42-.89s4.3-.78,6.48-1c.74-.08,1.5-.15,2.24-.25a11.76,11.76,0,0,1,1.46-.64l.25-.05.4-.23a31.89,31.89,0,0,1,3.22-1.81,6,6,0,0,1,.92-.6,14.09,14.09,0,0,1,2.49-1.08,8.17,8.17,0,0,1,3.26-.33,22.89,22.89,0,0,1,2.87.13h0c.63,0,1.26-.07,1.89-.14,1.28-.38,2.58-.7,3.88-1C1214.51,189.67,1220.38,184.78,1220,179.86Z" transform="translate(2.23)"/></g><g id="dark-4" data-name="dark"><path class="cls-59" d="M1193.71,194.54c-.43-2.66-12.79-2.93-27.91-.66a76.68,76.68,0,0,0-20-2.34c-9.52,0-17.94,1.33-23,3.36a71.07,71.07,0,0,0-12.86-1.12,75.81,75.81,0,0,0-8.91.52c-4.52-4-14.14-6.68-25.28-6.68a63.89,63.89,0,0,0-6.44.31c-2.59-1.85-6.95-3.18-12.09-3.57a2.56,2.56,0,0,0,0-.39c0-4.18-7.91-7.57-17.66-7.57S1022,179.79,1022,184a2.69,2.69,0,0,0,0,.4c-1-.08-2.05-.12-3.11-.12a35,35,0,0,0-10.6,1.52,35,35,0,0,0-10.7-1.52,39.34,39.34,0,0,0-6.85.57,36.79,36.79,0,0,0-9.41-1.13c-8.82,0-16,2.64-16,5.89,0,1.63,1.8,3.1,4.71,4.17l-.11.07a52.75,52.75,0,0,0,13.29,4.55c2.37.56,4.75,1.12,7.1,1.76l.62.17a46.48,46.48,0,0,1,6.83,1l2.37.23a38.25,38.25,0,0,0,4.28-.13,12.64,12.64,0,0,1,3.37.3,1.4,1.4,0,0,1,1.69.88c.33,1.29,1.55,2.31,2.63,3.16,1.25,1,2.58,1.93,3.88,2.85a31.69,31.69,0,0,0,6.57,3.33,46,46,0,0,1,6.1,2.36,30.38,30.38,0,0,0,6.75,1.42,38.76,38.76,0,0,0,5,.32,11.3,11.3,0,0,1,3,.23,1,1,0,0,1,.3,0l1.91.54a35.09,35.09,0,0,1,6.11.57,39.86,39.86,0,0,0,4.09,0h4.64a1.7,1.7,0,0,1,.78.19,60.44,60.44,0,0,0,9.39-1c3.22-.56,6.43-1.19,9.64-1.81a40.65,40.65,0,0,0,4.6-1.14,30.48,30.48,0,0,1,4.29-1.24c2.69-.45,5.42.37,8.08.65,3.47.36,7,.11,10.39.86l.06,0c.75,0,1.51,0,2.27,0A66.4,66.4,0,0,0,1126.5,212a1.36,1.36,0,0,1,.38-.42,86.24,86.24,0,0,1,8.21-4.8c2.89-1.68,5.58-3.71,8.79-4.76a1.41,1.41,0,0,1,.6-.07,12.89,12.89,0,0,1,4.89.64h0c1.32,0,2.62.21,4,.3a.87.87,0,0,1,.24-.1,17.67,17.67,0,0,1,5-.5c.8,0,1.6.08,2.4.11h.65a1.28,1.28,0,0,1,.7-.2,51.57,51.57,0,0,0,6.56-.7c2.14-.29,4.28-.51,6.42-.89s4.3-.78,6.48-1c.74-.08,1.5-.15,2.24-.25a11.76,11.76,0,0,1,1.46-.64l.25-.05.4-.23a31.89,31.89,0,0,1,3.22-1.81,6,6,0,0,1,.92-.6,14.09,14.09,0,0,1,2.49-1.08c.31-.09.62-.17.94-.23A.67.67,0,0,0,1193.71,194.54Z" transform="translate(2.23)"/></g></g><g id="cloud-5" data-name="cloud"><g id="light-5" data-name="light"><path class="cls-58" d="M411.53,129.89c-.37-5.31-10.48-9.21-24.86-10.41-5.22-5.71-16.2-10.37-29.25-11.74a63.8,63.8,0,0,0-19.11.7C333.37,100,320.85,94,306.18,94c-15.41,0-28.45,6.62-32.82,15.73-8.32,1.76-15,5.15-18.55,9.4-18.27.31-32.83,6.18-32.83,13.37,0,3.69,3.83,7,10,9.45,1.82.62,3.69,1.1,5.57,1.54s3.48.82,5.21,1.29l.2.05.58.09a24.52,24.52,0,0,1,3.08.42c1.75.2,3.55.34,5.4.43l1.1-.06a10.06,10.06,0,0,1,2.2.16h1.12c0,.09.07.18.11.27a.79.79,0,0,1,.28.43,2.53,2.53,0,0,0,.28.63s0,0,0,.08a7.28,7.28,0,0,0,1.62,1.61c.92.73,1.89,1.42,2.85,2.09a23,23,0,0,0,4.82,2.45,20.06,20.06,0,0,1,3.44,1.29,59.18,59.18,0,0,0,7.16,1.61c.84.07,1.66.1,2.55.11a8.12,8.12,0,0,1,2.15.17.58.58,0,0,1,.23,0l1.41.39a15.81,15.81,0,0,1,3.42.29c1.21,0,2.44.08,3.69.08,10.2,0,19.37-1.73,25.66-4.48a50.2,50.2,0,0,0,8.75,1.58c.76,0,1.5.07,2.25.15a50.93,50.93,0,0,0,6.05-.09,52.59,52.59,0,0,0,10.48-1.8c1.73-1.17,3.62-2.05,5.42-3.09,2.12-1.24,4.1-2.73,6.45-3.5a1.15,1.15,0,0,1,.44-.05,9.34,9.34,0,0,1,3.59.47h0c.33,0,.67,0,1,0l2.65,0a13.56,13.56,0,0,1,3.12-.25c.48,0,1,0,1.46.07l.94-.06a1,1,0,0,1,.36-.07,38.84,38.84,0,0,0,4.81-.51c1.58-.22,3.15-.38,4.72-.65s3.16-.58,4.76-.75c.55-.06,1.1-.11,1.65-.18a7.88,7.88,0,0,1,1.07-.47l.18,0,.3-.17a23.78,23.78,0,0,1,2.36-1.33,4.39,4.39,0,0,1,.68-.44,9.82,9.82,0,0,1,1.82-.79,6.08,6.08,0,0,1,2.4-.25,18.63,18.63,0,0,1,2.11.1h0a12.81,12.81,0,0,0,1.39-.1c.94-.28,1.89-.51,2.85-.71C407.47,137.1,411.78,133.5,411.53,129.89Z" transform="translate(2.23)"/></g><g id="dark-5" data-name="dark"><path class="cls-59" d="M392.19,140.67c-.31-1.95-9.39-2.15-20.5-.48A56.16,56.16,0,0,0,357,138.47c-7,0-13.18,1-16.9,2.47a51.7,51.7,0,0,0-9.45-.82,53.06,53.06,0,0,0-6.55.38c-3.32-2.91-10.39-4.91-18.57-4.91-1.63,0-3.21.08-4.73.22-1.9-1.35-5.11-2.33-8.88-2.61a1.42,1.42,0,0,0,0-.29c0-3.07-5.8-5.56-13-5.56s-13,2.49-13,5.56a2.83,2.83,0,0,0,0,.29c-.74-.06-1.5-.08-2.28-.08a25.67,25.67,0,0,0-7.79,1.11,25.54,25.54,0,0,0-7.86-1.11,29.26,29.26,0,0,0-5,.41,27.29,27.29,0,0,0-6.91-.83c-6.48,0-11.73,1.94-11.73,4.33,0,1.2,1.32,2.28,3.45,3.06l-.08,0a39.07,39.07,0,0,0,9.77,3.35c1.74.41,3.48.82,5.21,1.29l.46.12a35.54,35.54,0,0,1,5,.74l1.73.17a27.55,27.55,0,0,0,3.15-.1,9.21,9.21,0,0,1,2.47.22,1,1,0,0,1,1.24.65,5,5,0,0,0,1.94,2.32c.92.73,1.89,1.42,2.85,2.09a23.26,23.26,0,0,0,4.82,2.45,34.39,34.39,0,0,1,4.49,1.73,21.92,21.92,0,0,0,4.95,1,27.19,27.19,0,0,0,3.71.24,8.16,8.16,0,0,1,2.16.17.56.56,0,0,1,.22,0l1.4.39a25.19,25.19,0,0,1,4.49.43c1,.1,2,0,3,0h3.41a1.23,1.23,0,0,1,.57.14,43.33,43.33,0,0,0,6.9-.74c2.36-.4,4.72-.87,7.08-1.33a30.29,30.29,0,0,0,3.38-.83,21.77,21.77,0,0,1,3.15-.91c2-.33,4,.27,5.93.48,2.55.26,5.12.08,7.64.62l0,0c.55,0,1.11,0,1.67,0a48.49,48.49,0,0,0,12.14-1.43,1.33,1.33,0,0,1,.28-.31,62.57,62.57,0,0,1,6-3.52c2.12-1.24,4.1-2.73,6.45-3.5a1.17,1.17,0,0,1,.44-.05,9.29,9.29,0,0,1,3.59.47h0c1,0,1.93.15,2.9.22a.67.67,0,0,1,.18-.07,13.08,13.08,0,0,1,3.69-.37c.59,0,1.17.06,1.76.08h.48a.94.94,0,0,1,.52-.15,38.84,38.84,0,0,0,4.81-.51c1.58-.22,3.15-.38,4.72-.65s3.16-.58,4.76-.75c.55-.06,1.1-.11,1.65-.18a7.88,7.88,0,0,1,1.07-.47l.18,0,.3-.17a23.78,23.78,0,0,1,2.36-1.33,4.39,4.39,0,0,1,.68-.44,9.82,9.82,0,0,1,1.82-.79c.23-.07.46-.12.7-.17A.76.76,0,0,0,392.19,140.67Z" transform="translate(2.23)"/></g></g><g id="cloud-6" data-name="cloud"><g id="light-6" data-name="light"><path class="cls-58" d="M1059.53,300.89c-.37-5.31-10.48-9.21-24.86-10.41-5.22-5.71-16.2-10.37-29.25-11.74a63.8,63.8,0,0,0-19.11.7C981.37,271,968.85,265,954.18,265c-15.41,0-28.45,6.62-32.82,15.73-8.32,1.76-15,5.15-18.55,9.4-18.27.31-32.83,6.18-32.83,13.37,0,3.69,3.83,7,10,9.45,1.82.62,3.69,1.1,5.57,1.54s3.48.82,5.21,1.29l.2.05.58.09a24.52,24.52,0,0,1,3.08.42c1.75.2,3.55.34,5.4.43l1.1-.06a10.06,10.06,0,0,1,2.2.16h1.12c0,.09.07.18.11.27a.79.79,0,0,1,.28.43,2.53,2.53,0,0,0,.28.63s0,.05,0,.08a7.28,7.28,0,0,0,1.62,1.61c.92.73,1.89,1.42,2.85,2.09a23,23,0,0,0,4.82,2.45,20.06,20.06,0,0,1,3.44,1.29,59.18,59.18,0,0,0,7.16,1.61c.84.07,1.66.1,2.55.11a8.12,8.12,0,0,1,2.15.17.58.58,0,0,1,.23,0l1.41.39a15.81,15.81,0,0,1,3.42.29c1.21.05,2.44.08,3.69.08,10.2,0,19.37-1.73,25.66-4.48a50.2,50.2,0,0,0,8.75,1.58c.76,0,1.5.07,2.25.15a50.93,50.93,0,0,0,6-.09,52.59,52.59,0,0,0,10.48-1.8c1.73-1.17,3.62-2,5.42-3.09,2.12-1.24,4.1-2.73,6.45-3.5a1.15,1.15,0,0,1,.44-.05,9.34,9.34,0,0,1,3.59.47h0c.33,0,.67,0,1,.05l2.65,0a13.56,13.56,0,0,1,3.12-.25c.48,0,1,0,1.46.07l.94-.06a1,1,0,0,1,.36-.07,38.84,38.84,0,0,0,4.81-.51c1.58-.22,3.15-.38,4.72-.65s3.16-.58,4.76-.75l1.65-.18a7.88,7.88,0,0,1,1.07-.47l.18,0,.3-.17a23.78,23.78,0,0,1,2.36-1.33,4.39,4.39,0,0,1,.68-.44,9.82,9.82,0,0,1,1.82-.79,6.08,6.08,0,0,1,2.4-.25,18.63,18.63,0,0,1,2.11.1h0a12.81,12.81,0,0,0,1.39-.1c.94-.28,1.89-.51,2.85-.71C1055.47,308.1,1059.78,304.5,1059.53,300.89Z" transform="translate(2.23)"/></g><g id="dark-6" data-name="dark"><path class="cls-59" d="M1040.19,311.67c-.31-1.95-9.39-2.15-20.5-.48a56.16,56.16,0,0,0-14.66-1.72c-7,0-13.18,1-16.9,2.47a51.7,51.7,0,0,0-9.45-.82,53.06,53.06,0,0,0-6.55.38c-3.32-2.91-10.39-4.91-18.57-4.91-1.63,0-3.21.08-4.73.22-1.9-1.35-5.11-2.33-8.88-2.61a1.42,1.42,0,0,0,0-.29c0-3.07-5.8-5.56-13-5.56s-13,2.49-13,5.56a2.83,2.83,0,0,0,0,.29c-.74-.06-1.5-.08-2.28-.08a25.67,25.67,0,0,0-7.79,1.11,25.54,25.54,0,0,0-7.86-1.11,29.26,29.26,0,0,0-5,.41,27.29,27.29,0,0,0-6.91-.83c-6.48,0-11.73,1.94-11.73,4.33,0,1.2,1.32,2.28,3.45,3.06l-.08.05a39.07,39.07,0,0,0,9.77,3.35c1.74.41,3.48.82,5.21,1.29l.46.12a35.54,35.54,0,0,1,5,.74l1.73.17a27.55,27.55,0,0,0,3.15-.1,9.21,9.21,0,0,1,2.47.22,1,1,0,0,1,1.24.65,5,5,0,0,0,1.94,2.32c.92.73,1.89,1.42,2.85,2.09a23.26,23.26,0,0,0,4.82,2.45,34.39,34.39,0,0,1,4.49,1.73,21.92,21.92,0,0,0,4.95,1,27.19,27.19,0,0,0,3.71.24,8.16,8.16,0,0,1,2.16.17.56.56,0,0,1,.22,0l1.4.39a25.19,25.19,0,0,1,4.49.43c1,.1,2,0,3,0h3.41a1.23,1.23,0,0,1,.57.14,43.33,43.33,0,0,0,6.9-.74c2.36-.4,4.72-.87,7.08-1.33a30.29,30.29,0,0,0,3.38-.83,21.77,21.77,0,0,1,3.15-.91c2-.33,4,.27,5.93.48,2.55.26,5.12.08,7.64.62l0,0c.55,0,1.11,0,1.67,0a48.49,48.49,0,0,0,12.14-1.43,1.33,1.33,0,0,1,.28-.31,62.57,62.57,0,0,1,6-3.52c2.12-1.24,4.1-2.73,6.45-3.5a1.17,1.17,0,0,1,.44-.05,9.29,9.29,0,0,1,3.59.47h0c1,0,1.93.15,2.9.22a.67.67,0,0,1,.18-.07,13.08,13.08,0,0,1,3.69-.37c.59,0,1.17.06,1.76.08h.48a.94.94,0,0,1,.52-.15,38.84,38.84,0,0,0,4.81-.51c1.58-.22,3.15-.38,4.72-.65s3.16-.58,4.76-.75l1.65-.18a7.88,7.88,0,0,1,1.07-.47l.18,0,.3-.17a23.78,23.78,0,0,1,2.36-1.33,4.39,4.39,0,0,1,.68-.44,9.82,9.82,0,0,1,1.82-.79c.23-.07.46-.12.7-.17A.76.76,0,0,0,1040.19,311.67Z" transform="translate(2.23)"/></g></g></g></g></svg>