<svg xmlns="http://www.w3.org/2000/svg" viewBox="0 0 100 100"><defs><style>.cls-1{fill:#f4f4f4;}</style></defs><g id="圖層_2" data-name="圖層 2"><g id="背景"><path class="cls-1" d="M58.06,45.25A25,25,0,0,0,44.33,58.72s0,0,0,.06,0,0,0,.07A24.81,24.81,0,0,0,58,91.41l.07,0s0,0,.08,0A25.56,25.56,0,0,0,91.25,78s0-.06.06-.09,0-.05,0-.08A24.82,24.82,0,0,0,77.6,45.29l-.06,0h-.08A25.65,25.65,0,0,0,58.06,45.25Zm16.58,2.52L67.8,64,61,47.76A21.91,21.91,0,0,1,74.64,47.77ZM88.75,61.63a21.31,21.31,0,0,1,0,13.44L72.23,68.35ZM46.85,75.07a21.17,21.17,0,0,1,0-13.44l16.51,6.72Zm11-26,6.84,16.23L48.15,58.55A21.8,21.8,0,0,1,57.82,49Zm-9.67,29,16.52-6.72L57.83,87.58a21.55,21.55,0,0,1-9.68-9.5ZM61,88.83,67.8,72.61l6.84,16.23a22.2,22.2,0,0,1-13.68,0Zm16.81-1.2L70.94,71.41l16.51,6.72a21.7,21.7,0,0,1-9.68,9.5Zm9.67-29.08L70.93,65.27l6.84-16.22A21.6,21.6,0,0,1,87.45,58.55Z"/><path class="cls-1" d="M0,16.83A1.37,1.37,0,0,0,0,17a1.72,1.72,0,0,0,.16.43s0,.09.05.13v0A37.11,37.11,0,0,0,18.11,30.53,55.17,55.17,0,0,0,12,40.21C6.42,51.55,7.51,66.6,14.49,76.51c-3,5.4-1.91,8.23-.46,9.66a4.88,4.88,0,0,0,3.49,1.42,11.57,11.57,0,0,0,6.58-2.77,38,38,0,0,0,17.41,3.61h1.38A32.58,32.58,0,0,0,80.1,97.59a31.4,31.4,0,0,0-1.69-59,33.94,33.94,0,0,0-7.15-12.37,8.51,8.51,0,0,0-.74-4.36C76.91,17,79.24,11.15,78.7,9.08a1.84,1.84,0,0,0-1.62-1.43C75.65,7.49,75,8.87,74.73,9.31c-.72,1.42-4.43,2.18-7.36,2.37-.86-2.19-3.63-6.09-12.49-9.82a22.86,22.86,0,0,0-4-1.21l-.11,0C43.6-.87,34.79.46,27,3.06h0a50.74,50.74,0,0,0-14.53,7.35c-6.05,4.75-9.09,4.88-9.92,4.8l-.48-.12H2a1.55,1.55,0,0,0-.43,0H1.36a1.74,1.74,0,0,0-.54.19l-.09.07a1.48,1.48,0,0,0-.31.25s0,0,0,.06l-.12.19a1.55,1.55,0,0,0-.19.36s0,.06,0,.1a.4.4,0,0,0,0,.11A1.44,1.44,0,0,0,0,16.83Zm37.37-13a62.42,62.42,0,0,1,2.52,7,67.64,67.64,0,0,0-8,1.08c-.36-1.32-1.08-3.78-2-6.33A57.17,57.17,0,0,1,37.37,3.85ZM66.89,22.17v0l0,0a4.57,4.57,0,0,1,1,3.37c-.49.21-1.28.24-2.78-.5a10.12,10.12,0,0,1-3.73-2.59,24.42,24.42,0,0,0,2.43-2.23,6.45,6.45,0,0,1,3,1.89ZM53.27,23.74c1.28-4,2.23-8.23,2.53-9.6,3.37.18,6.19.43,8,.62-1.07,2.06-3.79,5.71-10.52,9ZM52.35,14a97.73,97.73,0,0,1-3.27,11.53,67.34,67.34,0,0,1-9.26,2.61A95.59,95.59,0,0,0,44,14c2.88-.11,5.74-.09,8.4,0Zm-11.91.2c-.86,3.82-2.77,11.2-4.69,14.64a40.44,40.44,0,0,1-8.23.26,80.41,80.41,0,0,0,4.24-13.7,61.73,61.73,0,0,1,8.67-1.21ZM24,28.65c-.85-.15-1.67-.33-2.46-.52l-.27-.07A33.29,33.29,0,0,1,6.17,19.44c5.14,1,10.87,1,21.51-2.87l.34-.12A61.1,61.1,0,0,1,24,28.65ZM16.4,83.84c-.72-.71-.56-2.3.39-4.42A25.75,25.75,0,0,0,20.89,83C19.3,84,17.39,84.81,16.4,83.84ZM94.45,57.5a28,28,0,0,1-8.34,32.75,29.26,29.26,0,0,1-34.32,1.67,28.09,28.09,0,0,1-11.6-31.77A29,29,0,0,1,94.45,57.5Zm-39-18.42A32,32,0,0,0,38,56.23a31.17,31.17,0,0,0,0,24.24,31.93,31.93,0,0,0,2.44,4.63,33.07,33.07,0,0,1-15.66-3.62l-.45-.26a22.5,22.5,0,0,1-6.53-5.79C11.07,66.64,9.86,52.12,15,41.65a51.86,51.86,0,0,1,6.59-10.14c.85.19,1.72.37,2.62.51a1.85,1.85,0,0,0,.61.13l.17,0a39.75,39.75,0,0,0,5.45.41,46.65,46.65,0,0,0,8.83-.9A55.92,55.92,0,0,0,58.7,24.56a13.54,13.54,0,0,0,4.95,3.61,8.16,8.16,0,0,0,3.62,1,5,5,0,0,0,1.87-.36,29.2,29.2,0,0,1,5.27,8.58A32.59,32.59,0,0,0,55.46,39.08Zm13-19.94A9.69,9.69,0,0,0,66,17.63,13.43,13.43,0,0,0,67.38,15a23.17,23.17,0,0,0,6.19-1.08A21.85,21.85,0,0,1,68.45,19.14Zm-5.09-7.72c-2-.2-4.8-.44-8.1-.6-.53-1.84-1.21-4-2-6l.28.09c5.89,2.47,8.59,4.88,9.82,6.49ZM49.13,3.63a57.87,57.87,0,0,1,2.56,7c-2.65-.07-5.47-.07-8.33.05a72.51,72.51,0,0,0-2.5-7.27A33.17,33.17,0,0,1,49.13,3.63ZM14.56,13A45.63,45.63,0,0,1,26.63,6.69c.89,2.41,1.58,4.79,1.93,6.07-.71.21-1.41.44-2.08.68-8.17,3-13.06,3.52-17.23,3.08A37.21,37.21,0,0,0,14.56,13Z"/><path class="cls-1" d="M22.6,38.73c-.45.37-11,9.24-5.63,26.76a1.69,1.69,0,0,0,1.62,1.19,1.61,1.61,0,0,0,.49-.07,1.72,1.72,0,0,0,1-.8,1.66,1.66,0,0,0,.13-1.27C15.54,49.2,24.4,41.6,24.78,41.29A1.65,1.65,0,0,0,25,38.94,1.71,1.71,0,0,0,22.6,38.73Z"/></g></g></svg>