<svg xmlns="http://www.w3.org/2000/svg" viewBox="0 0 100 100"><defs><style>.cls-1{fill:#f4f4f4;}</style></defs><g id="圖層_2" data-name="圖層 2"><g id="背景"><path class="cls-1" d="M99,36.44A20.52,20.52,0,0,0,73.15,23.27a24.22,24.22,0,0,0-4.28,1.89,24.45,24.45,0,0,0,.47-4.65C69.34,9.09,61.45,0,50.21,0S30.66,9.11,30.66,20.51a24.45,24.45,0,0,0,.47,4.65,24.22,24.22,0,0,0-4.28-1.89A20.52,20.52,0,0,0,1,36.44C-2.53,47.35,3.5,59.49,14.18,63a24,24,0,0,0,4.58,1,24.06,24.06,0,0,0-3.13,3.49,20.53,20.53,0,0,0,4.54,28.64c9.14,6.65,21,4.64,27.68-4.53a24.45,24.45,0,0,0,2.36-4,23.74,23.74,0,0,0,2.35,4c6.67,9.19,18.15,11.16,27.27,4.53a20.53,20.53,0,0,0,4.54-28.64A24.06,24.06,0,0,0,81.24,64a24,24,0,0,0,4.58-1C96.5,59.49,102.53,47.35,99,36.44ZM50.23,5.74c7.74,0,13.37,6.2,13.37,14.75a25.76,25.76,0,0,1-4,12.69,3,3,0,0,0-.44,1.59l-3.07,5.32a14.56,14.56,0,0,0-2.92-.91V27.1a3.08,3.08,0,0,0-2.41-2.93,3,3,0,0,0-3.45,2.91v12.1a14.8,14.8,0,0,0-3,.94L40.9,34.5a3,3,0,0,0-.43-1.32,25.76,25.76,0,0,1-4-12.69C36.44,12.08,42.37,5.74,50.23,5.74ZM16,57.39C8.47,55,4.07,46,6.59,38.25A14.66,14.66,0,0,1,25,28.84a24.57,24.57,0,0,1,9.48,6.31l5,8.24a14.71,14.71,0,0,0-2.08,2.81L26,42.49a2.93,2.93,0,0,0-1.81,5.57l11.42,3.71a14.42,14.42,0,0,0,0,3.35l-7.31,2.56A25.13,25.13,0,0,1,16,57.39ZM47.28,75.65A25.53,25.53,0,0,1,43.12,88.1c-4.77,6.56-13,8-19.51,3.24a14.67,14.67,0,0,1-3.24-20.46c3.88-5.34,10.62-7.76,11.13-8.1l6-2.09a14.46,14.46,0,0,0,1.91,2.61L32.34,73a2.93,2.93,0,1,0,4.74,3.44l7.06-9.72a14.42,14.42,0,0,0,3.14,1v7.88Zm2.93-13.44A8.79,8.79,0,1,1,59,53.42,8.8,8.8,0,0,1,50.21,62.21ZM76.43,91.34C69.69,96.24,62,94.45,57.34,88.1a25.45,25.45,0,0,1-4.2-12.45V67.77a14.86,14.86,0,0,0,3.17-1l7.06,9.72A2.93,2.93,0,1,0,68.11,73L61,63.3a14.26,14.26,0,0,0,1.9-2.59l5.46,2c.67.5,7.33,2.78,11.27,8.2A14.67,14.67,0,0,1,76.43,91.34ZM71.88,57.76l-7.13-2.57a14.69,14.69,0,0,0,0-3.38L76.18,48.1a2.93,2.93,0,1,0-1.81-5.57L62.94,46.24a14.52,14.52,0,0,0-2.12-2.86L65.66,35A24.47,24.47,0,0,1,75,28.88a14.67,14.67,0,0,1,18.45,9.41C95.93,46,91.53,55,84,57.43h0A25,25,0,0,1,71.88,57.76Z"/></g></g></svg>