<svg xmlns="http://www.w3.org/2000/svg" viewBox="0 0 100 100"><defs><style>.cls-1{fill:#f4f4f4;}</style></defs><g id="圖層_2" data-name="圖層 2"><g id="背景"><path class="cls-1" d="M98.33,63.33H90v-10a28.25,28.25,0,0,0-9-20.72c2.25-6,8.38-11.28,8.45-11.33a1.67,1.67,0,0,0-1.08-2.94,26.32,26.32,0,0,0-12.52,2.82A30.25,30.25,0,0,1,78,18a38.68,38.68,0,0,1,4.73-5A1.67,1.67,0,0,0,81.67,10,26.87,26.87,0,0,0,69.8,12.5c-.47-3.5-2-9.68-7.44-12.34A1.61,1.61,0,0,0,61,.16C55.59,2.82,54,9,53.53,12.49A26.75,26.75,0,0,0,41.66,10,1.67,1.67,0,0,0,40.59,13a38.68,38.68,0,0,1,4.73,5,29,29,0,0,1,2.19,3.19A26.25,26.25,0,0,0,35,18.34a1.67,1.67,0,0,0-1.08,2.94c.07,0,6.2,5.31,8.45,11.33a28.25,28.25,0,0,0-9,20.72v.2a15.29,15.29,0,0,0-5.57,2.12,5.15,5.15,0,0,1-.58.37c.44-4,1.21-8.11,2.54-10.09h0A1.67,1.67,0,1,0,27,44.05l0,0h0c-1.51,2.27-2.57,6.42-3.15,12.34a4.69,4.69,0,0,1-1.55-.77A16,16,0,0,0,15,53.33a14.4,14.4,0,0,0-11.08,5A17.79,17.79,0,0,0,.23,72.67l1,7A37.26,37.26,0,0,0,5.54,92.3,14.35,14.35,0,0,0,18,100a13.55,13.55,0,0,0,3.64-.5l.11,0,2.79-1a1.44,1.44,0,0,1,1,0l2.79,1,.11,0A13.47,13.47,0,0,0,32,100a13.83,13.83,0,0,0,9.85-4.23,41.39,41.39,0,0,0,46.37-6.84C95.71,82.12,100,73.38,100,65A1.66,1.66,0,0,0,98.33,63.33ZM54.65,55l7.06-6.85L68.78,55l-7.05,6.84Zm3.84,8.36H49a17.41,17.41,0,0,0-.86-2l4.16-4.05Zm12.69-6,6.2,6H65ZM64.1,45.79,71.16,39l7.07,6.87-7,6.84Zm1.17-17.2a25,25,0,0,1,8.71,3L71.16,34.3Zm3.49,8-7.05,6.85-7.05-6.84,7.06-6.85ZM52.27,34.31l-2.84-2.76a24.69,24.69,0,0,1,8.74-3Zm0,4.64,7,6.84-7.06,6.86L45.2,45.82ZM49.86,55l-3.63,3.54-.16-.18a14.26,14.26,0,0,0-8.78-4.84l5.52-5.35Zm-1,24.61,1-7a19.85,19.85,0,0,0,0-6H89.58a27.2,27.2,0,0,1-9.06,15.26,30.9,30.9,0,0,1-20.44,7.91,30.3,30.3,0,0,1-13-3,37.67,37.67,0,0,0,1.83-7.26Zm35-16.25,2.83-2.73v2.73ZM86.67,56,80.6,61.83l-7-6.85,7-6.84L86.67,54ZM86.32,49,83,45.82,84.89,44A25.11,25.11,0,0,1,86.32,49Zm-3-8.16L80.61,43.5l-7.08-6.88,3.27-3.18a25.08,25.08,0,0,1,6.53,7.42ZM84,22a32.74,32.74,0,0,0-5.69,8.4,29,29,0,0,0-4.75-2.79,6.76,6.76,0,0,1,.1-.77A18.69,18.69,0,0,1,84,22Zm-6.67-8.33c-2.71,3-6.2,7.68-7,12.69a28.28,28.28,0,0,0-6-1.23,21.49,21.49,0,0,0-.76-2c2-3.91,6-8.23,13.77-9.43ZM61.69,3.58c4.13,2.69,4.85,8.86,5,10.82a20,20,0,0,0-5,5.25,21.13,21.13,0,0,0-2.63-3.25,20.34,20.34,0,0,0-2.34-2C56.84,12.43,57.56,6.27,61.69,3.58ZM46.08,13.65C55.31,15.09,59.16,21,60.73,25a28.2,28.2,0,0,0-7.68,1.34c-.06-.34-.12-.68-.2-1l.06-.06-.09-.1C51.74,20.61,48.57,16.41,46.08,13.65ZM39.4,22a18.72,18.72,0,0,1,10.35,4.84q.06.39.09.78a28.23,28.23,0,0,0-4.75,2.78A32.49,32.49,0,0,0,39.4,22Zm7.18,11.45,3.3,3.2L42.8,43.5l-2.75-2.67a24.88,24.88,0,0,1,6.53-7.4ZM38.51,44l1.9,1.85-3.36,3.26A24.64,24.64,0,0,1,38.51,44Zm3.05,46.7a11.06,11.06,0,0,1-9.55,6,10,10,0,0,1-2.66-.36l-2.72-1a4.78,4.78,0,0,0-3.21,0l-2.73,1c-4.71,1.29-9.61-1-12.21-5.62a33.83,33.83,0,0,1-3.89-11.5l-1-7A14.52,14.52,0,0,1,6.49,60.5,11.07,11.07,0,0,1,15,56.66a13.25,13.25,0,0,1,5.22,1.64,8,8,0,0,0,3.28,1.46c-.08,1.33-.13,2.5-.15,3.39a5.07,5.07,0,0,1-2.21-1h0a1.67,1.67,0,1,0-2.37,2.35h0A8.83,8.83,0,0,0,25,66.66,8.85,8.85,0,0,0,31.2,64.5a1.67,1.67,0,0,0-2.36-2.36,5,5,0,0,1-2.12,1c0-1,.08-2.18.16-3.45a8,8,0,0,0,2.9-1.38A13.25,13.25,0,0,1,35,56.66a11.07,11.07,0,0,1,8.55,3.84,14.48,14.48,0,0,1,2.94,11.67l-1,7A33.62,33.62,0,0,1,41.56,90.67ZM86,86.47a38,38,0,0,1-42,6.62c.16-.26.32-.52.46-.79.42-.73.8-1.48,1.16-2.24A34,34,0,0,0,60,93.33a34.42,34.42,0,0,0,22.79-8.81c5.64-5,9.33-11.42,10.29-17.85h3.53C96.1,73.61,92.29,80.75,86,86.47Z"/><circle class="cls-1" cx="81.69" cy="71.65" r="1.67"/><circle class="cls-1" cx="73.36" cy="79.99" r="1.67"/><circle class="cls-1" cx="65.02" cy="74.99" r="1.67"/><circle class="cls-1" cx="55.02" cy="74.99" r="1.67"/><circle class="cls-1" cx="60.02" cy="84.99" r="1.67"/></g></g></svg>