<svg xmlns="http://www.w3.org/2000/svg" viewBox="0 0 352.97 144.37"><defs><style>.cls-1{fill:none;stroke:#012e3e;stroke-linecap:round;stroke-miterlimit:10;stroke-width:5px;}</style></defs><g id="圖層_2" data-name="圖層 2"><g id="太陽"><path class="cls-1" d="M306.08,141.6c-8.05-7.9-19.25-11.22-30.15-11.63s-21.71,1.8-32.47,3.66c-30.48,5.27-61,13.54-91.41,3.56-30.61-10-61.09-22.65-89.24-39.06C46.14,88.42,26.88,84.74,8.68,79.67c-7.63-2.12-8-9.06-2.22-14.23,11.38-10.21,28.25-9.33,42.41-4.63S76.34,73.47,91,75.91"/><path class="cls-1" d="M90.34,75.86c-22-18.59-37.59-34-60.45-47.86-5-3-12.13-6.68-10.27-12.53.85-2.68,3.35-4.32,5.81-5.35C41,3.59,58.06,13.31,72.34,22.71c23,15.1,34,22.47,56.91,37.57"/><path class="cls-1" d="M51.61,10.18C54,.91,65.26,1.63,71.75,4.14c8.45,3.26,16.47,8.18,24.2,13,15.58,9.8,30.39,21,46.55,29.74,8.71,4.69,13.51,4.78,21.7,10.53"/><path class="cls-1" d="M90.84,14.21c9.57-4.69,20.67,0,30.12,5A582.37,582.37,0,0,1,183.9,57.55"/><path class="cls-1" d="M210.63,102c-10.39-3.72-21.13-6.71-32.09-7.07-11.4-.38-22.7,2.09-34.07,3.21s-23.31.77-33.47-4.81c-3-1.62-5.75-3.67-9-4.47-2.37-.59-4.94-.49-7.12-1.66a8.93,8.93,0,0,1-4.28-7.53C90.41,73.46,95.7,68.35,101.3,67s11.42.2,17,1.71c1.36.37,2.83.83,3.62,2.06s.62,3.17.34,4.79l-2.43,13.79c-5.13-.19-11.15.11-16.28-.08"/><path class="cls-1" d="M113.42,67.36c10.89-7.06,25.19-10.1,38-10.63,13-.53,26,2.3,38.92,1.35C218.4,56,243.9,40.68,271.72,37.17c34-4.28,52.72,16.7,78.75,36.41"/></g></g></svg>