<svg xmlns="http://www.w3.org/2000/svg" viewBox="0 0 153.71 72.54"><defs><style>.cls-1{fill:#d83593;}</style></defs><g id="圖層_2" data-name="圖層 2"><g id="Logo"><g id="圖層_2-2" data-name="圖層 2"><g id="Logo-2" data-name="Logo"><path id="Path_61" data-name="Path 61" class="cls-1" d="M0,2.69A37.16,37.16,0,0,1,7.37,5.45H27.09a28.42,28.42,0,0,0,2-2.24C30,2.13,30.65,1.6,31.05,1.6c.68,0,1.93.65,3.74,2C36.93,5.28,38,6.47,38,7.13c0,.5-.53,1.09-1.58,1.78A3,3,0,0,0,35.19,11V38.7l.43,12.44c0,.81-1.06,1.4-3.2,1.79a11.33,11.33,0,0,1-2,.29c-1.16,0-1.73-.69-1.73-2.08v-3H7v3.22C7,52.09,6,52.65,4,53a14.15,14.15,0,0,1-1.84.18c-1.3,0-1.95-.62-1.95-1.85q.5-7,.49-12.21V13.8A108.66,108.66,0,0,0,0,2.69ZM6.94,24.82H28.67V7.11H6.94Zm0,21.73H28.67V26.48H6.94Z"/><path id="Path_62" data-name="Path 62" class="cls-1" d="M48.34,8A47.65,47.65,0,0,0,56,8.45h8.73A46.83,46.83,0,0,0,68.12,0c1.74.53,3.45,1.15,5.15,1.84,2,.68,3,1.27,3,1.76s-.47,1-1.41,1.27c-1.19.15-1.79.42-1.79.8a29,29,0,0,1-1.57,2.77H87.35a16,16,0,0,0,2.11-2.6C91,3.89,91.87,2.91,92.12,2.91c.8,0,2,.93,3.62,2.81s2.49,3,2.49,3.46-.38.86-1.13.86H78.57a36,36,0,0,0,8.94,6.23,56,56,0,0,0,10.74,3.28L98,20.65a5.37,5.37,0,0,0-3.26,3.4c-.36,1.3-.79,2-1.3,2s-2.15-.77-4.5-2.3a31.46,31.46,0,0,1-7-6,40.52,40.52,0,0,1-5.47-7.65h-6a25.92,25.92,0,0,1-4,5,36.14,36.14,0,0,1-5.91,5.35q-3.84,2.82-12.51,6.34l-.58-1A58.26,58.26,0,0,0,60.85,14.56a45.48,45.48,0,0,0,3-4.5H56c-2.24,0-4.48,0-6.72.23Zm11,26.33,4.43,2.59q2.49,1.44,2.49,2.25c0,.46-.4.73-1.24.8-1,0-1.61.17-1.74.52a35.55,35.55,0,0,1-5.07,5,36.75,36.75,0,0,1-9.7,5.48l-.44-1a42.66,42.66,0,0,0,6.67-7.09A28.58,28.58,0,0,0,59.39,34.32Zm-8.45-4.21a47.71,47.71,0,0,0,7.65.47H83.94a17.21,17.21,0,0,0,2.16-2.66c1.59-2.07,2.53-3.1,2.82-3.11.76,0,2,1,3.68,2.94s2.57,3.15,2.6,3.57c0,.58-.38.86-1.14.86H76.51V46.76c0,3.34-.93,5.51-2.81,6.52a9.55,9.55,0,0,1-4.12,1.5c-.58,0-1-.72-1.41-2.14q-.93-3.11-7-5.23l.22-1.09a55.69,55.69,0,0,0,7.53.63c.9,0,1.35-.61,1.35-1.84V32.17H58.58a65.41,65.41,0,0,0-6.72.24Zm10-9.2a42.19,42.19,0,0,0,7.53.52h5.63A12.82,12.82,0,0,0,76,19.06q1.95-2.7,2.28-2.7c.72,0,1.84.86,3.36,2.59s2.29,2.78,2.33,3.16c0,.58-.4.87-1.14.87H68.5q-4.73,0-6.72.23ZM80.63,36.17A42.47,42.47,0,0,1,90.69,39.8q5.37,2.7,5.36,5.76a4.66,4.66,0,0,1-1,3.11,3.83,3.83,0,0,1-2.76,1.5c-.81,0-1.62-.67-2.44-2A43.13,43.13,0,0,0,85.49,42,39,39,0,0,0,80,37Z"/><path id="Path_63" data-name="Path 63" class="cls-1" d="M108.81,3.15a35.7,35.7,0,0,0,7.65.75h21.62c.64-.58,1.15-1,1.55-1.38a5,5,0,0,1,2.6-1.45q1,0,4,2.66t3,3.62c0,.53-.79.86-2.38,1a4.47,4.47,0,0,0-2.6.63q-5.91,3.75-10.14,6c.54.19.8.4.8.57,0,.73-.52,1.39-1.57,2a1.56,1.56,0,0,0-1,1.56v6.4h10a25.2,25.2,0,0,0,2.17-2.77c1.59-2.11,2.51-3.17,2.76-3.17q1.26,0,3.9,3c1.77,2,2.65,3.23,2.66,3.69,0,.62-.46.93-1.36.93H132.23V44.65c0,3.84-1.06,6.29-3.2,7.37a13.11,13.11,0,0,1-5.47,1.9q-.93,0-1.47-2.19-.82-3.46-7.82-5.88l.22-1.44a42.61,42.61,0,0,0,8,.93,5.07,5.07,0,0,0,2.6-.52c.47-.27.7-.87.7-1.79V27.17H111.69a57.53,57.53,0,0,0-7.43.4l-.86-2.76a65.89,65.89,0,0,0,9.1.69h13.28V23.43a64.81,64.81,0,0,0-.7-10.14c1.84.31,3.48.6,4.93.86.5.08.94.15,1.3.23a76.27,76.27,0,0,0,7-8.93H116.45a45.82,45.82,0,0,0-6.72.47Z"/><path id="Path_64" data-name="Path 64" class="cls-1" d="M43.73,72.3H36V70.67h.76c.9,0,1.35-.38,1.35-1.13V65.76H30.48v3.78c0,.75.45,1.13,1.35,1.13h.74V72.3H24.83V70.67h.74c.92,0,1.38-.38,1.37-1.13V60.38c0-.75-.45-1.13-1.37-1.13h-.74v-1.6h7.72v1.61h-.73c-.9,0-1.35.37-1.35,1.12v3.78h7.64V60.38c0-.75-.45-1.12-1.35-1.12H36V57.65h7.72v1.61H43c-.95,0-1.41.37-1.41,1.12v9.16c0,.75.46,1.13,1.41,1.13h.7Z"/><path id="Path_65" data-name="Path 65" class="cls-1" d="M53.77,72.27H47.19V70.66c1.12,0,1.68-.36,1.68-1.1V64.89a.73.73,0,0,0-.62-.78,8,8,0,0,0-1.38-.06V62.49a11.79,11.79,0,0,0,5.23-1.06v8.12c0,.73.56,1.1,1.67,1.1ZM52.45,59a1.37,1.37,0,0,1-.65,1.14,2.17,2.17,0,0,1-1.47.5,2.34,2.34,0,0,1-1.5-.5,1.33,1.33,0,0,1-.44-1.84,1.27,1.27,0,0,1,.44-.45,2.32,2.32,0,0,1,1.5-.48,2.22,2.22,0,0,1,1.47.48A1.38,1.38,0,0,1,52.45,59Z"/><path id="Path_66" data-name="Path 66" class="cls-1" d="M72.26,72.3h-6.6V70.67c1.11,0,1.67-.37,1.67-1.12V65.22a2.09,2.09,0,0,0-.56-1.51,1.91,1.91,0,0,0-1.43-.62q-2.27,0-3.53,2.56v3.9c0,.75.56,1.13,1.67,1.13v1.63H56.91V70.67c1.12,0,1.68-.37,1.67-1.12V65a.7.7,0,0,0-.58-.78,10.61,10.61,0,0,0-1.38,0V62.56a12.24,12.24,0,0,0,5.2-1v1.29a5.3,5.3,0,0,1,3.75-1.47,6.33,6.33,0,0,1,3.53.87,3,3,0,0,1,1.46,2.65v4.68c0,.75.56,1.12,1.7,1.12Z"/><path id="Path_67" data-name="Path 67" class="cls-1" d="M87.4,71.58a4.45,4.45,0,0,1-2.56,1,2.15,2.15,0,0,1-2.26-1.36,8.28,8.28,0,0,1-4.31,1.36,4.71,4.71,0,0,1-2.64-.67,2.22,2.22,0,0,1-1.12-2c0-1.25.84-2.28,2.53-3.07a16.12,16.12,0,0,1,5.43-1.31,4,4,0,0,0-.27-1.81,1.83,1.83,0,0,0-1.73-.78,2.17,2.17,0,0,0-1.32.3,1.56,1.56,0,0,0-.47,1.08,1.23,1.23,0,0,1-.65.94,2.47,2.47,0,0,1-1.34.4,1.82,1.82,0,0,1-1.27-.43,1.19,1.19,0,0,1-.5-.92c0-1,.71-1.75,2.12-2.29a9.91,9.91,0,0,1,3.62-.65,6.46,6.46,0,0,1,3.84.9,3.35,3.35,0,0,1,1.18,2.84v4.83c0,.43.12.64.4.64a1.55,1.55,0,0,0,.73-.4Zm-5-2.12V67q-4.57.7-4.58,2.68c0,.68.49,1,1.47,1a5.41,5.41,0,0,0,3.11-1.29Z"/><path id="Path_68" data-name="Path 68" class="cls-1" d="M105.43,72.3H98V70.67c.72,0,1.08-.08,1.08-.3a2.37,2.37,0,0,0-.64-1.13l-2.06-2.38-1.49.94v1.74c0,.75.56,1.12,1.67,1.12v1.63H90V70.66c1.12,0,1.67-.37,1.67-1.12V61a.71.71,0,0,0-.62-.78,7.48,7.48,0,0,0-1.34-.07V58.56a12,12,0,0,0,5.2-1.07v8l2.87-1.76c.55-.34.8-.57.8-.69s-.25-.17-.76-.14h-.56V61.33h7v1.61a4.71,4.71,0,0,0-1.7.32,18.38,18.38,0,0,0-2.38,1.31L99,65.25l3.35,3.81a4.12,4.12,0,0,0,3.11,1.61Z"/><path id="Path_69" data-name="Path 69" class="cls-1" d="M120.38,66.91a5.23,5.23,0,0,1-1.64,3.94,7.48,7.48,0,0,1-9.45,0,5.23,5.23,0,0,1-1.61-3.94A5.17,5.17,0,0,1,109.29,63a7.59,7.59,0,0,1,9.45,0A5.1,5.1,0,0,1,120.38,66.91Zm-3.22,0c0-2.54-1-3.8-3.14-3.8s-3.13,1.26-3.11,3.8,1,3.85,3.11,3.85,3.12-1.28,3.13-3.85Z"/></g></g></g></g></svg>