<svg xmlns="http://www.w3.org/2000/svg" xmlns:xlink="http://www.w3.org/1999/xlink" viewBox="0 0 382.03 157.21"><defs><style>.cls-1{fill:url(#未命名漸層_18);}.cls-2{fill:#d83593;}</style><linearGradient id="未命名漸層_18" x1="457.02" y1="606.57" x2="457.02" y2="606.43" gradientTransform="matrix(863, 0, 0, -640, -394232.5, 388241.48)" gradientUnits="userSpaceOnUse"><stop offset="0.25" stop-color="#f4bd94"/><stop offset="0.62" stop-color="#e67b94"/><stop offset="1" stop-color="#d83593"/></linearGradient></defs><g id="圖層_2" data-name="圖層 2"><g id="Logo"><path id="Sun_Landingpage_1" data-name="Sun Landingpage 1" class="cls-1" d="M236.81,127H122.14a58,58,0,0,1-7.8-35.92,57.83,57.83,0,0,1,2.6-12c.64-1.9,1.38-3.8,2.21-5.64A63.72,63.72,0,0,1,154,40.82c2-.78,4-1.47,6-2.06s4.17-1.11,6.28-1.51,4.32-.73,6.5-.93a69.65,69.65,0,0,1,13.39,0c2.18.2,4.35.52,6.5.93s4.22.91,6.27,1.51S203,40,205,40.82A63.72,63.72,0,0,1,239.8,73.47a58.74,58.74,0,0,1,2.2,5.64,57,57,0,0,1,2.61,12,58,58,0,0,1-7.8,35.92Z"/><path class="cls-2" d="M0,5.87a100.74,100.74,0,0,1,18.31,6h49a62.77,62.77,0,0,0,5-4.87c2.25-2.33,3.86-3.49,4.85-3.49q2.55,0,9.29,4.24,8,5.63,8,7.74c0,1.08-1.31,2.37-3.91,3.87-2.06,1.58-3.1,3.08-3.1,4.5V83.9l1.08,27q0,2.61-7.94,3.87a31.1,31.1,0,0,1-5,.62q-4.31,0-4.31-4.49v-6.5h-54v7c0,1.58-2.43,2.78-7.28,3.62a41.89,41.89,0,0,1-4.57.37c-3.24,0-4.85-1.33-4.85-4Q1.76,96.25,1.75,84.9V30A202,202,0,0,0,0,5.87ZM17.24,53.81h54V15.48h-54Zm0,47.07h54V57.43h-54Z"/><path class="cls-2" d="M120.12,17.35a135,135,0,0,0,19,1h21.68A94.94,94.94,0,0,0,169.27,0q6.47,1.76,12.79,4c5,1.49,7.54,2.79,7.54,3.87,0,1.24-1.17,2.16-3.5,2.74q-4.44.51-4.44,1.75a58.45,58.45,0,0,1-3.91,6h39.32c.45-.16,2.2-2,5.25-5.62q5.66-6.36,6.6-6.36,3,0,9,6.12t6.2,7.49c0,1.24-.95,1.87-2.83,1.87H195.26a89.83,89.83,0,0,0,22.21,13.48,154.73,154.73,0,0,0,26.67,7.12l-.54,2.37a12.51,12.51,0,0,0-8.08,7.37q-1.35,4.25-3.23,4.24-2.43,0-11.18-5a75.73,75.73,0,0,1-17.37-13,89.07,89.07,0,0,1-13.6-16.6H175.33a59.08,59.08,0,0,1-10,10.74A86.77,86.77,0,0,1,150.68,44.2q-9.56,6.12-31.1,13.73l-1.48-2.12Q139,44.2,151.22,31.59a102.35,102.35,0,0,0,7.54-9.74H139.1q-11.85,0-16.69.5Zm27.47,57.06q6.33,3.25,11,5.62,6.19,3.12,6.19,4.87c0,1-1,1.58-3.09,1.75-2.52,0-4,.37-4.31,1.12a82.83,82.83,0,0,1-12.66,10.74q-7.68,5.86-24.11,11.86l-1.07-2.13a100.22,100.22,0,0,0,16.56-15.35Q144.5,83.16,147.59,74.41Zm-21-9.11a136.82,136.82,0,0,0,19,1h63c.45-.17,2.24-2.08,5.38-5.75q5.92-6.73,7-6.74,2.82,0,9.15,6.37t6.47,7.74c0,1.25-.95,1.87-2.83,1.87H190.14v31.59q0,10.86-7,14.11-6.6,3.24-10.24,3.24-2.15,0-3.5-4.62-2.29-6.73-17.37-11.36l.54-2.37a159.23,159.23,0,0,0,18.72,1.37q3.36,0,3.36-4v-28H145.57q-11.85,0-16.7.5Zm24.91-20a117.14,117.14,0,0,0,18.72,1.12h14q.67-.24,4.58-5.12,4.85-5.87,5.66-5.86,2.69,0,8.35,5.62t5.79,6.86c0,1.25-1,1.87-2.83,1.87H170.21q-11.72,0-16.7.5Zm48.88,33.09q15.63,3.36,25,7.86,13.34,5.87,13.33,12.49a9.31,9.31,0,0,1-2.42,6.74q-3.37,3.24-6.87,3.24c-2,0-4-1.45-6.06-4.37A92.88,92.88,0,0,0,212.49,91q-3.5-3.75-13.6-10.74Z"/><path class="cls-2" d="M270.4,6.87a101.54,101.54,0,0,0,19,1.62h53.73l3.91-3q4.31-3.12,6.46-3.12,2.56,0,9.83,5.75T370.72,16c0,1.17-2,1.87-5.93,2.12-3.41.17-5.57.63-6.46,1.38q-14.68,8.11-25.18,13.11c1.34.41,2,.83,2,1.24,0,1.59-1.31,3-3.91,4.25a3.4,3.4,0,0,0-2.56,3.37V55.31h24.78q.54-.26,5.39-6,5.92-6.87,6.86-6.87,3.11,0,9.7,6.49t6.6,8c0,1.33-1.13,2-3.37,2h-50V96.76q0,12.48-7.94,16-8.89,4.13-13.6,4.12-2.3,0-3.64-4.75-2.16-7.48-19.52-12.73l.54-3.12a121.2,121.2,0,0,0,19.79,2c3,0,5.12-.38,6.46-1.13,1.17-.58,1.75-1.87,1.75-3.87V58.93h-35a162.6,162.6,0,0,0-18.45.87l-2.15-6a189.51,189.51,0,0,0,22.62,1.5h33v-4.5a120.69,120.69,0,0,0-1.75-22q6.87,1,12.26,1.87c1.25.17,2.33.34,3.23.5a171.26,171.26,0,0,0,17.37-19.35H289.38a130.92,130.92,0,0,0-16.69,1Z"/><path class="cls-2" d="M108.68,156.71H89.5v-3.53h1.89q3.36,0,3.36-2.43v-8.2h-19v8.2q0,2.43,3.36,2.43h1.82v3.53H61.71v-3.53h1.83q3.42,0,3.42-2.43V130.88q0-2.43-3.42-2.43H61.71V125H80.89v3.48H79.07q-3.36,0-3.36,2.43v8.2h19v-8.2q0-2.43-3.36-2.43H89.5V125h19.18v3.48h-1.75c-2.34,0-3.5.81-3.5,2.43v19.87c0,1.62,1.16,2.43,3.5,2.43h1.75Z"/><path class="cls-2" d="M133.61,156.66H117.28v-3.53q4.16,0,4.16-2.38V140.66a1.61,1.61,0,0,0-1.53-1.68,23,23,0,0,0-3.43-.15v-3.38a33.66,33.66,0,0,0,13-2.28v17.58q0,2.38,4.15,2.38ZM130.33,128a2.88,2.88,0,0,1-1.6,2.48,5.91,5.91,0,0,1-3.65,1.1,6.44,6.44,0,0,1-3.72-1.1,2.72,2.72,0,0,1,0-5,6.64,6.64,0,0,1,3.72-1,6.08,6.08,0,0,1,3.65,1A2.88,2.88,0,0,1,130.33,128Z"/><path class="cls-2" d="M179.56,156.71H163.15v-3.53q4.15,0,4.15-2.43v-9.39a4.2,4.2,0,0,0-1.38-3.28,5.27,5.27,0,0,0-3.57-1.34q-5.62,0-8.75,5.56v8.45q0,2.43,4.15,2.43v3.53H141.42v-3.53q4.16,0,4.15-2.43v-10a1.58,1.58,0,0,0-1.45-1.68,30.85,30.85,0,0,0-3.43-.1V135.6a34.39,34.39,0,0,0,12.91-2.24v2.78a14.42,14.42,0,0,1,9.33-3.17,17.59,17.59,0,0,1,8.75,1.88,6.34,6.34,0,0,1,3.65,5.77v10.13q0,2.43,4.23,2.43Z"/><path class="cls-2" d="M217.18,155.17a12,12,0,0,1-6.34,2q-4.38,0-5.62-2.94a22.8,22.8,0,0,1-10.72,2.94,13.25,13.25,0,0,1-6.56-1.45,4.71,4.71,0,0,1-2.77-4.27q0-4.06,6.27-6.65A45.27,45.27,0,0,1,204.93,142a7.41,7.41,0,0,0-.65-3.93c-.73-1.12-2.17-1.69-4.31-1.69a5.91,5.91,0,0,0-3.28.65,3.13,3.13,0,0,0-1.16,2.33,2.74,2.74,0,0,1-1.61,2,6.86,6.86,0,0,1-3.35.84,4.84,4.84,0,0,1-3.14-.94,2.49,2.49,0,0,1-1.24-2q0-3.23,5.25-5a27.41,27.41,0,0,1,9-1.39c4.43,0,7.61.64,9.56,1.93s2.91,3.35,2.91,6.16v10.48c0,.93.32,1.39,1,1.39a4.2,4.2,0,0,0,1.82-.89Zm-12.32-4.62v-5.22q-11.37,1.54-11.38,5.82c0,1.49,1.22,2.23,3.65,2.23Q200.55,153.38,204.86,150.55Z"/><path class="cls-2" d="M262,156.71H243.44v-3.53c1.79,0,2.69-.18,2.69-.64s-.53-1.31-1.6-2.44l-5.11-5.16-3.71,2v3.78q0,2.43,4.15,2.43v3.53H223.53v-3.53q4.16,0,4.15-2.43V132.17a1.62,1.62,0,0,0-1.53-1.69,21.13,21.13,0,0,0-3.35-.15V127a33.37,33.37,0,0,0,12.91-2.34v17.44l7.14-3.83c1.36-.73,2-1.22,2-1.49s-.63-.36-1.89-.3h-1.39V133H258.9v3.47a12.68,12.68,0,0,0-4.23.7,45.53,45.53,0,0,0-5.91,2.83l-2.85,1.49,8.32,8.25a10.78,10.78,0,0,0,7.73,3.47Z"/><path class="cls-2" d="M299.15,145a10.6,10.6,0,0,1-4.09,8.54q-4.37,3.63-11.74,3.63t-11.74-3.63a10.7,10.7,0,0,1-4-8.54,10.57,10.57,0,0,1,4-8.5Q276,133,283.32,133t11.74,3.57A10.47,10.47,0,0,1,299.15,145Zm-8,0q0-8.25-7.81-8.25T275.59,145q0,8.34,7.73,8.34T291.13,145Z"/></g></g></svg>