<svg xmlns="http://www.w3.org/2000/svg" xmlns:xlink="http://www.w3.org/1999/xlink" viewBox="0 0 1935.5 937"><defs><style>.cls-1,.cls-10,.cls-11,.cls-12,.cls-13,.cls-14,.cls-15,.cls-17,.cls-18,.cls-19,.cls-20,.cls-21,.cls-22,.cls-23,.cls-24,.cls-25,.cls-26,.cls-27,.cls-28,.cls-30,.cls-33,.cls-34,.cls-35,.cls-36,.cls-37,.cls-38,.cls-39,.cls-4,.cls-40,.cls-41,.cls-42,.cls-43,.cls-44,.cls-45,.cls-46,.cls-47,.cls-48,.cls-49,.cls-5,.cls-50,.cls-51,.cls-52,.cls-53,.cls-54,.cls-55,.cls-56,.cls-6,.cls-7,.cls-8,.cls-9{fill:none;}.cls-2{clip-path:url(#clip-path);}.cls-3{fill:#cef2ff;}.cls-10,.cls-11,.cls-12,.cls-13,.cls-14,.cls-15,.cls-3,.cls-4,.cls-5,.cls-6,.cls-7,.cls-8,.cls-9{opacity:0.78;}.cls-10,.cls-11,.cls-12,.cls-13,.cls-14,.cls-15,.cls-17,.cls-18,.cls-19,.cls-20,.cls-21,.cls-22,.cls-23,.cls-24,.cls-25,.cls-26,.cls-27,.cls-28,.cls-30,.cls-33,.cls-34,.cls-35,.cls-36,.cls-37,.cls-38,.cls-39,.cls-4,.cls-40,.cls-41,.cls-42,.cls-43,.cls-44,.cls-45,.cls-46,.cls-47,.cls-48,.cls-49,.cls-5,.cls-50,.cls-51,.cls-52,.cls-53,.cls-54,.cls-55,.cls-56,.cls-6,.cls-7,.cls-8,.cls-9{stroke-miterlimit:10;}.cls-4{stroke:url(#未命名漸層_52);}.cls-5{stroke:url(#未命名漸層_52-2);}.cls-6{stroke:url(#未命名漸層_52-3);}.cls-7{stroke:url(#未命名漸層_52-4);}.cls-8{stroke:url(#未命名漸層_52-5);}.cls-9{stroke:url(#未命名漸層_52-6);}.cls-10{stroke:url(#未命名漸層_52-7);}.cls-11{stroke:url(#未命名漸層_52-8);}.cls-12{stroke:url(#未命名漸層_52-9);}.cls-13{stroke:url(#未命名漸層_52-10);}.cls-14{stroke:url(#未命名漸層_52-11);}.cls-15{stroke:url(#未命名漸層_52-12);}.cls-16{fill:#1d9dcc;}.cls-16,.cls-17,.cls-18,.cls-19,.cls-20,.cls-21,.cls-22,.cls-23,.cls-24,.cls-25,.cls-26,.cls-27,.cls-28{opacity:0.85;}.cls-17{stroke:url(#未命名漸層_54);}.cls-18{stroke:url(#未命名漸層_54-2);}.cls-19{stroke:url(#未命名漸層_54-3);}.cls-20{stroke:url(#未命名漸層_54-4);}.cls-21{stroke:url(#未命名漸層_54-5);}.cls-22{stroke:url(#未命名漸層_54-6);}.cls-23{stroke:url(#未命名漸層_54-7);}.cls-24{stroke:url(#未命名漸層_54-8);}.cls-25{stroke:url(#未命名漸層_54-9);}.cls-26{stroke:url(#未命名漸層_54-10);}.cls-27{stroke:url(#未命名漸層_54-11);}.cls-28{stroke:url(#未命名漸層_54-12);}.cls-29{fill:#f4bd94;}.cls-30{stroke:#fccaa7;}.cls-31{fill:url(#未命名漸層_5);}.cls-32{fill:url(#未命名漸層_5-2);}.cls-33{stroke:url(#未命名漸層_61);}.cls-34{stroke:url(#未命名漸層_61-2);}.cls-35{stroke:url(#未命名漸層_61-3);}.cls-36{stroke:url(#未命名漸層_61-4);}.cls-37{stroke:url(#未命名漸層_61-5);}.cls-38{stroke:url(#未命名漸層_61-6);}.cls-39{stroke:url(#未命名漸層_61-7);}.cls-40{stroke:url(#未命名漸層_61-8);}.cls-41{stroke:url(#未命名漸層_61-9);}.cls-42{stroke:url(#未命名漸層_61-10);}.cls-43{stroke:url(#未命名漸層_61-11);}.cls-44{stroke:url(#未命名漸層_61-12);}.cls-45{stroke:url(#未命名漸層_57);}.cls-46{stroke:url(#未命名漸層_57-2);}.cls-47{stroke:url(#未命名漸層_57-3);}.cls-48{stroke:url(#未命名漸層_57-4);}.cls-49{stroke:url(#未命名漸層_57-5);}.cls-50{stroke:url(#未命名漸層_57-6);}.cls-51{stroke:url(#未命名漸層_57-7);}.cls-52{stroke:url(#未命名漸層_57-8);}.cls-53{stroke:url(#未命名漸層_57-9);}.cls-54{stroke:url(#未命名漸層_57-10);}.cls-55{stroke:url(#未命名漸層_57-11);}.cls-56{stroke:url(#未命名漸層_57-12);}</style><clipPath id="clip-path" transform="translate(6 1)"><rect id="Rectangle_56" data-name="Rectangle 56" class="cls-1" width="1929" height="453"/></clipPath><linearGradient id="未命名漸層_52" x1="959.94" y1="139.48" x2="959.94" y2="1" gradientUnits="userSpaceOnUse"><stop offset="0" stop-color="#f7fcfd"/><stop offset="1" stop-color="#fff"/></linearGradient><linearGradient id="未命名漸層_52-2" x1="959.94" y1="171.85" x2="959.94" y2="33.36" xlink:href="#未命名漸層_52"/><linearGradient id="未命名漸層_52-3" x1="959.94" y1="204.21" x2="959.94" y2="65.73" xlink:href="#未命名漸層_52"/><linearGradient id="未命名漸層_52-4" x1="959.94" y1="236.57" x2="959.94" y2="98.09" xlink:href="#未命名漸層_52"/><linearGradient id="未命名漸層_52-5" x1="959.94" y1="268.94" x2="959.94" y2="130.45" xlink:href="#未命名漸層_52"/><linearGradient id="未命名漸層_52-6" x1="959.94" y1="301.3" x2="959.94" y2="162.82" xlink:href="#未命名漸層_52"/><linearGradient id="未命名漸層_52-7" x1="959.94" y1="333.66" x2="959.94" y2="195.18" xlink:href="#未命名漸層_52"/><linearGradient id="未命名漸層_52-8" x1="959.94" y1="366.03" x2="959.94" y2="227.55" xlink:href="#未命名漸層_52"/><linearGradient id="未命名漸層_52-9" x1="959.94" y1="398.39" x2="959.94" y2="259.91" xlink:href="#未命名漸層_52"/><linearGradient id="未命名漸層_52-10" x1="959.94" y1="430.76" x2="959.94" y2="292.27" xlink:href="#未命名漸層_52"/><linearGradient id="未命名漸層_52-11" x1="959.94" y1="463.12" x2="959.94" y2="324.64" xlink:href="#未命名漸層_52"/><linearGradient id="未命名漸層_52-12" x1="959.94" y1="495.48" x2="959.94" y2="357" xlink:href="#未命名漸層_52"/><linearGradient id="未命名漸層_54" x1="964.56" y1="236.32" x2="964.56" y2="64.31" gradientUnits="userSpaceOnUse"><stop offset="0" stop-color="#fcee21"/><stop offset="0.51" stop-color="#fcd12d"/><stop offset="1" stop-color="#fbb03b"/></linearGradient><linearGradient id="未命名漸層_54-2" x1="964.56" y1="268.86" x2="964.56" y2="96.85" xlink:href="#未命名漸層_54"/><linearGradient id="未命名漸層_54-3" x1="964.56" y1="301.41" x2="964.56" y2="129.4" xlink:href="#未命名漸層_54"/><linearGradient id="未命名漸層_54-4" x1="964.56" y1="333.95" x2="964.56" y2="161.95" xlink:href="#未命名漸層_54"/><linearGradient id="未命名漸層_54-5" x1="964.56" y1="366.5" x2="964.56" y2="194.49" xlink:href="#未命名漸層_54"/><linearGradient id="未命名漸層_54-6" x1="964.56" y1="399.04" x2="964.56" y2="227.04" xlink:href="#未命名漸層_54"/><linearGradient id="未命名漸層_54-7" x1="964.56" y1="431.59" x2="964.56" y2="259.58" xlink:href="#未命名漸層_54"/><linearGradient id="未命名漸層_54-8" x1="964.56" y1="464.13" x2="964.56" y2="292.13" xlink:href="#未命名漸層_54"/><linearGradient id="未命名漸層_54-9" x1="964.56" y1="496.68" x2="964.56" y2="324.67" xlink:href="#未命名漸層_54"/><linearGradient id="未命名漸層_54-10" x1="964.56" y1="529.22" x2="964.56" y2="357.22" xlink:href="#未命名漸層_54"/><linearGradient id="未命名漸層_54-11" x1="964.56" y1="561.77" x2="964.56" y2="389.76" xlink:href="#未命名漸層_54"/><linearGradient id="未命名漸層_54-12" x1="964.56" y1="594.32" x2="964.56" y2="422.31" xlink:href="#未命名漸層_54"/><linearGradient id="未命名漸層_5" x1="394.66" y1="345.52" x2="387.44" y2="925.36" gradientUnits="userSpaceOnUse"><stop offset="0" stop-color="#1470aa"/><stop offset="0.2" stop-color="#136ea6"/><stop offset="0.39" stop-color="#11669a"/><stop offset="0.58" stop-color="#0e5a86"/><stop offset="0.77" stop-color="#09496b"/><stop offset="0.96" stop-color="#033447"/><stop offset="1" stop-color="#012e3e"/></linearGradient><linearGradient id="未命名漸層_5-2" x1="1544.9" y1="321.23" x2="1537.44" y2="920.67" xlink:href="#未命名漸層_5"/><linearGradient id="未命名漸層_61" x1="1545.8" y1="282.95" x2="1542.99" y2="508.25" gradientUnits="userSpaceOnUse"><stop offset="0" stop-color="#1d9dcc"/><stop offset="0.17" stop-color="#1c9ac8"/><stop offset="0.34" stop-color="#1a91bc"/><stop offset="0.51" stop-color="#1681a8"/><stop offset="0.67" stop-color="#116c8d"/><stop offset="0.84" stop-color="#0a5069"/><stop offset="1" stop-color="#012e3e"/></linearGradient><linearGradient id="未命名漸層_61-2" x1="1545.8" y1="298.58" x2="1542.99" y2="523.89" xlink:href="#未命名漸層_61"/><linearGradient id="未命名漸層_61-3" x1="1545.8" y1="314.22" x2="1542.99" y2="539.52" xlink:href="#未命名漸層_61"/><linearGradient id="未命名漸層_61-4" x1="1545.8" y1="329.86" x2="1542.99" y2="555.16" xlink:href="#未命名漸層_61"/><linearGradient id="未命名漸層_61-5" x1="1545.8" y1="345.49" x2="1542.99" y2="570.8" xlink:href="#未命名漸層_61"/><linearGradient id="未命名漸層_61-6" x1="1545.8" y1="361.13" x2="1542.99" y2="586.43" xlink:href="#未命名漸層_61"/><linearGradient id="未命名漸層_61-7" x1="1545.8" y1="376.77" x2="1542.99" y2="602.07" xlink:href="#未命名漸層_61"/><linearGradient id="未命名漸層_61-8" x1="1545.8" y1="392.4" x2="1542.99" y2="617.71" xlink:href="#未命名漸層_61"/><linearGradient id="未命名漸層_61-9" x1="1545.8" y1="408.04" x2="1542.99" y2="633.34" xlink:href="#未命名漸層_61"/><linearGradient id="未命名漸層_61-10" x1="1545.8" y1="423.67" x2="1542.99" y2="648.98" xlink:href="#未命名漸層_61"/><linearGradient id="未命名漸層_61-11" x1="1545.8" y1="439.31" x2="1542.99" y2="664.61" xlink:href="#未命名漸層_61"/><linearGradient id="未命名漸層_61-12" x1="1545.8" y1="454.95" x2="1542.99" y2="680.25" xlink:href="#未命名漸層_61"/><linearGradient id="未命名漸層_57" x1="389.17" y1="297.79" x2="386.83" y2="485.78" gradientUnits="userSpaceOnUse"><stop offset="0" stop-color="#1d9dcc"/><stop offset="0.17" stop-color="#1c9ac8"/><stop offset="0.34" stop-color="#1a91bc"/><stop offset="0.51" stop-color="#1681a8"/><stop offset="0.67" stop-color="#116c8d"/><stop offset="0.84" stop-color="#0a5069"/><stop offset="1" stop-color="#012e3e"/></linearGradient><linearGradient id="未命名漸層_57-2" x1="389.17" y1="312.42" x2="386.83" y2="500.41" xlink:href="#未命名漸層_57"/><linearGradient id="未命名漸層_57-3" x1="389.17" y1="327.06" x2="386.83" y2="515.05" xlink:href="#未命名漸層_57"/><linearGradient id="未命名漸層_57-4" x1="389.17" y1="341.69" x2="386.83" y2="529.69" xlink:href="#未命名漸層_57"/><linearGradient id="未命名漸層_57-5" x1="389.17" y1="356.33" x2="386.83" y2="544.32" xlink:href="#未命名漸層_57"/><linearGradient id="未命名漸層_57-6" x1="389.17" y1="370.97" x2="386.83" y2="558.96" xlink:href="#未命名漸層_57"/><linearGradient id="未命名漸層_57-7" x1="389.17" y1="385.6" x2="386.83" y2="573.59" xlink:href="#未命名漸層_57"/><linearGradient id="未命名漸層_57-8" x1="389.17" y1="400.24" x2="386.83" y2="588.23" xlink:href="#未命名漸層_57"/><linearGradient id="未命名漸層_57-9" x1="389.17" y1="414.88" x2="386.83" y2="602.87" xlink:href="#未命名漸層_57"/><linearGradient id="未命名漸層_57-10" x1="389.17" y1="429.51" x2="386.83" y2="617.5" xlink:href="#未命名漸層_57"/><linearGradient id="未命名漸層_57-11" x1="389.17" y1="444.15" x2="386.83" y2="632.14" xlink:href="#未命名漸層_57"/><linearGradient id="未命名漸層_57-12" x1="389.17" y1="458.79" x2="386.83" y2="646.78" xlink:href="#未命名漸層_57"/></defs><g id="圖層_2" data-name="圖層 2"><g id="山"><g id="moutain_bottom"><g class="cls-2"><g id="Waterfall"><path class="cls-3" d="M0,105.42c0,.35,37.93-36.25,98.8-43.42,77.84,0,39.92,41.06,129.73,59,44,8.79,121.4-46.13,172.65-47,116.08-2,117.54,61.93,218.54,62.48C716.71,137,760.82,18.3,855.53,1.36c137.4-24.58,129,151.63,262.15,124.88C1298.81,89.87,1277,6.85,1399.09,15.68s79.4,119,191.61,111.32S1747.08,17.47,1811.1,16.06,1929,75.6,1929,75.6V936H-6Z" transform="translate(6 1)"/><path class="cls-4" d="M-4.51,107.92c0,.35,37.92-36.25,98.8-43.42,77.84,0,39.92,41.06,129.73,59,44,8.79,121.4-46.13,172.64-47,116.09-2,117.55,61.93,218.55,62.48C712.22,139.51,756.33,20.8,851,3.86c137.4-24.58,129,151.63,262.14,124.88C1294.32,92.37,1272.5,9.35,1394.6,18.18s79.4,119,191.61,111.32S1742.59,20,1806.6,18.56,1924.51,78.1,1924.51,78.1" transform="translate(6 1)"/><path class="cls-5" d="M-4.51,140.28c0,.35,37.92-36.25,98.8-43.42,77.84,0,39.92,41.07,129.73,59,44,8.79,121.4-46.12,172.64-47,116.09-2,117.55,61.94,218.55,62.48,97,.53,141.12-118.18,235.83-135.12,137.4-24.57,129,151.64,262.14,124.89,181.14-36.38,159.32-119.4,281.42-110.56s79.4,119,191.61,111.31S1742.59,52.33,1806.6,50.93s117.91,59.54,117.91,59.54" transform="translate(6 1)"/><path class="cls-6" d="M-4.51,172.64c0,.36,37.92-36.25,98.8-43.41,77.84,0,39.92,41.06,129.73,59,44,8.79,121.4-46.13,172.64-47,116.09-2,117.55,61.93,218.55,62.48,97,.52,141.12-118.18,235.83-135.12C988.44,44,980,220.22,1113.18,193.47,1294.32,157.09,1272.5,74.08,1394.6,82.91s79.4,119,191.61,111.32S1742.59,84.69,1806.6,83.29s117.91,59.54,117.91,59.54" transform="translate(6 1)"/><path class="cls-7" d="M-4.51,205c0,.35,37.92-36.25,98.8-43.42,77.84,0,39.92,41.07,129.73,59,44,8.79,121.4-46.13,172.64-47,116.09-2,117.55,61.94,218.55,62.48C712.22,236.6,756.33,117.89,851,101c137.4-24.58,129,151.63,262.14,124.88,181.14-36.37,159.32-119.39,281.42-110.56s79.4,119,191.61,111.32,156.38-109.53,220.39-110.94,117.91,59.55,117.91,59.55" transform="translate(6 1)"/><path class="cls-8" d="M-4.51,237.37c0,.35,37.92-36.25,98.8-43.42C172.13,194,134.21,235,224,253c44,8.79,121.4-46.12,172.64-47,116.09-2,117.55,61.94,218.55,62.49,97,.52,141.12-118.19,235.83-135.13C988.44,108.74,980,285,1113.18,258.2c181.14-36.38,159.32-119.4,281.42-110.56s79.4,119,191.61,111.31S1742.59,149.42,1806.6,148s117.91,59.54,117.91,59.54" transform="translate(6 1)"/><path class="cls-9" d="M-4.51,269.73c0,.36,37.92-36.25,98.8-43.41,77.84,0,39.92,41.06,129.73,59,44,8.79,121.4-46.13,172.64-47,116.09-2,117.55,61.93,218.55,62.48,97,.52,141.12-118.18,235.83-135.12,137.4-24.58,129,151.63,262.14,124.88C1294.32,254.19,1272.5,171.17,1394.6,180s79.4,119,191.61,111.32,156.38-109.54,220.39-110.94,117.91,59.54,117.91,59.54" transform="translate(6 1)"/><path class="cls-10" d="M-4.51,302.1c0,.35,37.92-36.25,98.8-43.42,77.84,0,39.92,41.07,129.73,59,44,8.79,121.4-46.13,172.64-47,116.09-2,117.55,61.94,218.55,62.48C712.22,333.69,756.33,215,851,198c137.4-24.58,129,151.63,262.14,124.89,181.14-36.38,159.32-119.4,281.42-110.57s79.4,119,191.61,111.32,156.38-109.53,220.39-110.94,117.91,59.55,117.91,59.55" transform="translate(6 1)"/><path class="cls-11" d="M-4.51,334.46c0,.35,37.92-36.25,98.8-43.41,77.84,0,39.92,41.06,129.73,59,44,8.78,121.4-46.13,172.64-47,116.09-2,117.55,61.93,218.55,62.48,97,.52,141.12-118.19,235.83-135.13C988.44,205.83,980,382,1113.18,355.29c181.14-36.38,159.32-119.4,281.42-110.56s79.4,119,191.61,111.32,156.38-109.54,220.39-110.94,117.91,59.54,117.91,59.54" transform="translate(6 1)"/><path class="cls-12" d="M-4.51,366.82c0,.36,37.92-36.24,98.8-43.41,77.84,0,39.92,41.06,129.73,59,44,8.79,121.4-46.13,172.64-47,116.09-2,117.55,61.93,218.55,62.48,97,.52,141.12-118.18,235.83-135.12,137.4-24.58,129,151.63,262.14,124.88,181.14-36.37,159.32-119.39,281.42-110.56s79.4,119,191.61,111.32,156.38-109.54,220.39-110.94S1924.51,337,1924.51,337" transform="translate(6 1)"/><path class="cls-13" d="M-4.51,399.19c0,.35,37.92-36.25,98.8-43.42,77.84,0,39.92,41.07,129.73,59,44,8.79,121.4-46.12,172.64-47,116.09-2,117.55,61.94,218.55,62.48,97,.53,141.12-118.18,235.83-135.12C988.44,270.55,980,446.76,1113.18,420c181.14-36.38,159.32-119.4,281.42-110.56s79.4,119,191.61,111.31,156.38-109.53,220.39-110.94,117.91,59.55,117.91,59.55" transform="translate(6 1)"/><path class="cls-14" d="M-4.51,431.55c0,.36,37.92-36.25,98.8-43.41,77.84,0,39.92,41.06,129.73,59,44,8.78,121.4-46.13,172.64-47,116.09-2,117.55,61.93,218.55,62.48,97,.52,141.12-118.18,235.83-135.13,137.4-24.57,129,151.64,262.14,124.89C1294.32,416,1272.5,333,1394.6,341.82s79.4,119,191.61,111.32S1742.59,343.6,1806.6,342.2s117.91,59.54,117.91,59.54" transform="translate(6 1)"/><path class="cls-15" d="M-4.51,463.92c0,.35,37.92-36.25,98.8-43.42,77.84,0,39.92,41.06,129.73,59,44,8.79,121.4-46.13,172.64-47,116.09-2,117.55,61.93,218.55,62.48,97,.53,141.12-118.18,235.83-135.12,137.4-24.58,129,151.63,262.14,124.88,181.14-36.37,159.32-119.39,281.42-110.56s79.4,119,191.61,111.32S1742.59,376,1806.6,374.56s117.91,59.54,117.91,59.54" transform="translate(6 1)"/><path class="cls-16" d="M0,218.9s68.86-70.72,154.21-46.8c22.59,6.33,43.2,20.36,62.67,33,14.73,9.59,37.58,39.84,57.39,28,5.11-3.06,8.95-7.82,12.91-12.27,41.75-47,110.38-70.92,171.88-55.83,97.79,24,162.86-73.47,235.51-54,61.65,16.52,101.7,60,161.67,80,93.46,31.18,145.58-19.72,217-76.7,54.73-43.62,156.58-75.7,227-19.3,59,47.22,111.7,145.52,202.28,128.58,13.27-2.48,25.23-9.39,36.9-16.18,70.67-41.15,224.91-164.32,312.19-111.87C1929,142,1929,168.7,1929,168.7V936H-6Z" transform="translate(6 1)"/><path class="cls-17" d="M0,218.9s68.86-70.72,154.21-46.8c22.59,6.33,43.2,20.36,62.67,33,14.73,9.59,37.58,39.84,57.39,28,5.11-3.06,8.95-7.82,12.91-12.27,41.75-47,110.38-70.92,171.88-55.83,97.79,24,162.86-73.47,235.51-54,61.65,16.52,101.7,60,161.67,80,93.46,31.18,145.58-19.72,217-76.7,54.73-43.62,156.58-75.7,227-19.3,59,47.22,111.7,145.52,202.28,128.58,13.27-2.48,25.23-9.39,36.9-16.18,70.67-41.15,224.91-164.32,312.19-111.87C1929,142,1929,168.7,1929,168.7" transform="translate(6 1)"/><path class="cls-18" d="M0,251.44s68.86-70.71,154.21-46.8c22.59,6.33,43.2,20.37,62.67,33,14.73,9.58,37.58,39.84,57.39,28,5.11-3.06,8.95-7.81,12.91-12.27,41.75-47,110.38-70.91,171.88-55.82,97.79,24,162.86-73.47,235.51-54,61.65,16.52,101.7,60,161.67,80,93.46,31.18,145.58-19.72,217-76.7,54.73-43.63,156.58-75.71,227-19.3,59,47.21,111.7,145.51,202.28,128.57,13.27-2.48,25.23-9.38,36.9-16.18,70.67-41.14,224.91-164.31,312.19-111.86C1929,174.55,1929,201.25,1929,201.25" transform="translate(6 1)"/><path class="cls-19" d="M0,284s68.86-70.72,154.21-46.8c22.59,6.33,43.2,20.36,62.67,33,14.73,9.59,37.58,39.84,57.39,28,5.11-3.06,8.95-7.81,12.91-12.27,41.75-47,110.38-70.92,171.88-55.83,97.79,24,162.86-73.47,235.51-54,61.65,16.52,101.7,60,161.67,80,93.46,31.18,145.58-19.72,217-76.7,54.73-43.62,156.58-75.7,227-19.3,59,47.22,111.7,145.52,202.28,128.58,13.27-2.48,25.23-9.39,36.9-16.18,70.67-41.14,224.91-164.31,312.19-111.87C1929,207.09,1929,233.79,1929,233.79" transform="translate(6 1)"/><path class="cls-20" d="M0,316.54s68.86-70.72,154.21-46.81c22.59,6.33,43.2,20.37,62.67,33,14.73,9.58,37.58,39.84,57.39,28,5.11-3.07,8.95-7.82,12.91-12.28,41.75-47,110.38-70.91,171.88-55.82,97.79,24,162.86-73.47,235.51-54,61.65,16.52,101.7,60,161.67,80,93.46,31.18,145.58-19.72,217-76.7,54.73-43.63,156.58-75.71,227-19.3,59,47.21,111.7,145.51,202.28,128.57,13.27-2.48,25.23-9.38,36.9-16.18,70.67-41.14,224.91-164.31,312.19-111.86C1929,239.64,1929,266.34,1929,266.34" transform="translate(6 1)"/><path class="cls-21" d="M0,349.08s68.86-70.72,154.21-46.8c22.59,6.33,43.2,20.36,62.67,33,14.73,9.59,37.58,39.84,57.39,28,5.11-3.06,8.95-7.81,12.91-12.27,41.75-47,110.38-70.92,171.88-55.83,97.79,24,162.86-73.47,235.51-54,61.65,16.53,101.7,60,161.67,80,93.46,31.18,145.58-19.72,217-76.7,54.73-43.62,156.58-75.7,227-19.3,59,47.22,111.7,145.52,202.28,128.58,13.27-2.48,25.23-9.39,36.9-16.18,70.67-41.14,224.91-164.31,312.19-111.86C1929,272.18,1929,298.88,1929,298.88" transform="translate(6 1)"/><path class="cls-22" d="M0,381.63s68.86-70.72,154.21-46.81c22.59,6.34,43.2,20.37,62.67,33,14.73,9.58,37.58,39.84,57.39,28,5.11-3.07,8.95-7.82,12.91-12.28,41.75-47,110.38-70.91,171.88-55.82,97.79,24,162.86-73.47,235.51-54,61.65,16.52,101.7,60,161.67,80,93.46,31.18,145.58-19.72,217-76.7,54.73-43.63,156.58-75.71,227-19.3,59,47.22,111.7,145.51,202.28,128.58,13.27-2.49,25.23-9.39,36.9-16.18,70.67-41.15,224.91-164.32,312.19-111.87C1929,304.73,1929,331.43,1929,331.43" transform="translate(6 1)"/><path class="cls-23" d="M0,414.17s68.86-70.72,154.21-46.8c22.59,6.33,43.2,20.36,62.67,33,14.73,9.58,37.58,39.83,57.39,28,5.11-3.06,8.95-7.81,12.91-12.27,41.75-47,110.38-70.92,171.88-55.83,97.79,24,162.86-73.46,235.51-54,61.65,16.53,101.7,60,161.67,80,93.46,31.19,145.58-19.72,217-76.7,54.73-43.62,156.58-75.7,227-19.3,59,47.22,111.7,145.52,202.28,128.58,13.27-2.48,25.23-9.39,36.9-16.18,70.67-41.14,224.91-164.31,312.19-111.86C1929,337.27,1929,364,1929,364" transform="translate(6 1)"/><path class="cls-24" d="M0,446.72S68.84,376,154.19,399.91c22.59,6.34,43.2,20.37,62.67,33,14.73,9.58,37.58,39.84,57.39,28,5.11-3.07,8.95-7.82,12.91-12.28,41.75-47,110.38-70.91,171.88-55.82,97.79,24,162.86-73.47,235.51-54,61.65,16.52,101.7,60,161.67,80,93.46,31.18,145.58-19.72,217-76.7,54.73-43.63,156.58-75.7,227-19.3,59,47.22,111.7,145.52,202.28,128.58,13.27-2.48,25.23-9.39,36.9-16.18,70.67-41.15,224.91-164.32,312.19-111.87C1929,369.82,1929,396.52,1929,396.52" transform="translate(6 1)"/><path class="cls-25" d="M0,479.26s68.86-70.72,154.21-46.8c22.59,6.33,43.2,20.37,62.67,33,14.73,9.58,37.58,39.83,57.39,28,5.11-3.06,8.95-7.81,12.91-12.27,41.75-47,110.38-70.92,171.88-55.83,97.79,24,162.86-73.46,235.51-54,61.65,16.53,101.7,60,161.67,80,93.46,31.19,145.58-19.72,217-76.69C1128,331,1229.85,299,1300.3,355.36c59,47.22,111.7,145.52,202.28,128.58,13.27-2.48,25.23-9.38,36.9-16.18,70.67-41.14,224.91-164.31,312.19-111.86C1929,402.36,1929,429.06,1929,429.06" transform="translate(6 1)"/><path class="cls-26" d="M0,511.81S68.84,441.09,154.19,465c22.59,6.33,43.2,20.36,62.67,33,14.73,9.59,37.58,39.84,57.39,28,5.11-3.07,8.95-7.82,12.91-12.28,41.75-47,110.38-70.91,171.88-55.82,97.79,24,162.86-73.47,235.51-54,61.65,16.52,101.7,60,161.67,80,93.46,31.18,145.58-19.72,217-76.7,54.73-43.62,156.58-75.7,227-19.3,59,47.22,111.7,145.52,202.28,128.58,13.27-2.48,25.23-9.39,36.9-16.18,70.67-41.15,224.91-164.32,312.19-111.87C1929,434.91,1929,461.61,1929,461.61" transform="translate(6 1)"/><path class="cls-27" d="M0,544.35s68.86-70.72,154.21-46.8c22.59,6.33,43.2,20.37,62.67,33,14.73,9.58,37.58,39.84,57.39,28,5.11-3.06,8.95-7.81,12.91-12.27,41.75-47,110.38-70.92,171.88-55.83,97.79,24,162.86-73.46,235.51-54,61.65,16.53,101.7,60,161.67,80,93.46,31.19,145.58-19.72,217-76.69,54.73-43.63,156.58-75.71,227-19.31C1359.27,467.67,1412,566,1502.58,549c13.27-2.48,25.23-9.38,36.9-16.18,70.67-41.14,224.91-164.31,312.19-111.86C1929,467.45,1929,494.16,1929,494.16" transform="translate(6 1)"/><path class="cls-28" d="M0,576.9s68.86-70.72,154.21-46.8c22.59,6.33,43.2,20.36,62.67,33,14.73,9.59,37.58,39.84,57.39,28,5.11-3.06,8.95-7.82,12.91-12.27,41.75-47,110.38-70.92,171.88-55.83,97.79,24,162.86-73.47,235.51-54,61.65,16.52,101.7,60,161.67,80,93.46,31.18,145.58-19.72,217-76.7,54.73-43.62,156.58-75.7,227-19.3,59,47.22,111.7,145.52,202.28,128.58,13.27-2.48,25.23-9.39,36.9-16.18,70.67-41.15,224.91-164.32,312.19-111.87C1929,500,1929,526.7,1929,526.7" transform="translate(6 1)"/><ellipse class="cls-29" cx="981.47" cy="411.63" rx="278.92" ry="42.63"/><path class="cls-29" d="M711.51,418.86S782.69,445.71,781,590s-7.13,301.23-6.39,316.72A97.06,97.06,0,0,0,781,935.75l403.51.25s-66.86-529.25,54.88-517.14" transform="translate(6 1)"/><ellipse class="cls-30" cx="978.48" cy="412.5" rx="224.54" ry="34"/><ellipse class="cls-30" cx="970.99" cy="412.67" rx="170.15" ry="18.17"/><ellipse class="cls-30" cx="972.49" cy="412.59" rx="113.77" ry="6.91"/><ellipse class="cls-30" cx="978.48" cy="413" rx="259.11" ry="41.5"/><path class="cls-31" d="M0,426.19c0,.68,38.41,11.42,87.82-72.41,48.21-81.78,144-77.14,207.57-23.49,30,25.29,56.39,44.3,95.81,44,58.93-.4,124.56-65.29,181.25-25.59,20.29,14.21,32.06,32.5,58.07,36.86,28.46,4.76,62.58-2,88.58,15.17,27.95,18.46,39.09,54.52,47.26,84.73,16.07,59.39,16.7,123.29,16.25,184.33-.15,19.25-18,262.3-1.56,262.26L0,936Z" transform="translate(6 1)"/><path class="cls-32" d="M1184.54,932.26s-77.84-453,0-493.63S1221.46,376,1316.27,362s77.83,32,144.7,27,87.76-54.61,151.64-63.31c44-6,51.06-46.21,91.85-55.69l21-.26c49.9-1.74,84.57,66.48,119.75,60.26,50.9-9,83.83,45.91,83.83,90.56V936Z" transform="translate(6 1)"/><path class="cls-33" d="M1157.93,503.36c5.43-24.65,14-42.13,26.61-48.73C1262.38,414,1221.46,392,1316.27,378s77.83,32,144.7,27,87.76-54.61,151.64-63.31c44-6,51.06-46.21,91.85-55.69l21-.26c49.9-1.74,84.57,66.48,119.75,60.26,50.9-9,83.83,45.91,83.83,90.56" transform="translate(6 1)"/><path class="cls-34" d="M1157.93,519c5.43-24.65,14-42.12,26.61-48.72,77.84-40.63,36.92-62.63,131.73-76.63s77.83,32,144.7,27,87.76-54.61,151.64-63.31c44-6,51.06-46.21,91.85-55.69l21-.26c49.9-1.74,84.57,66.48,119.75,60.26,50.9-9,83.83,45.9,83.83,90.56" transform="translate(6 1)"/><path class="cls-35" d="M1157.93,534.63c5.43-24.65,14-42.13,26.61-48.73,77.84-40.63,36.92-62.63,131.73-76.63s77.83,32,144.7,27,87.76-54.61,151.64-63.31c44-6,51.06-46.21,91.85-55.69l21-.25c49.9-1.75,84.57,66.47,119.75,60.25,50.9-9,83.83,45.91,83.83,90.56" transform="translate(6 1)"/><path class="cls-36" d="M1157.93,550.27c5.43-24.65,14-42.13,26.61-48.73,77.84-40.63,36.92-62.63,131.73-76.63s77.83,32,144.7,27,87.76-54.61,151.64-63.31c44-6,51.06-46.21,91.85-55.69l21-.26c49.9-1.74,84.57,66.48,119.75,60.26,50.9-9,83.83,45.9,83.83,90.56" transform="translate(6 1)"/><path class="cls-37" d="M1157.93,565.9c5.43-24.65,14-42.12,26.61-48.72,77.84-40.63,36.92-62.63,131.73-76.63s77.83,32,144.7,27,87.76-54.62,151.64-63.31c44-6,51.06-46.21,91.85-55.69l21-.26c49.9-1.74,84.57,66.48,119.75,60.26,50.9-9,83.83,45.9,83.83,90.56" transform="translate(6 1)"/><path class="cls-38" d="M1157.93,581.54c5.43-24.65,14-42.13,26.61-48.73,77.84-40.63,36.92-62.63,131.73-76.63s77.83,32,144.7,27,87.76-54.61,151.64-63.31c44-6,51.06-46.21,91.85-55.69l21-.25c49.9-1.75,84.57,66.47,119.75,60.25,50.9-9,83.83,45.91,83.83,90.56" transform="translate(6 1)"/><path class="cls-39" d="M1157.93,597.18c5.43-24.65,14-42.13,26.61-48.73,77.84-40.63,36.92-62.63,131.73-76.63s77.83,32,144.7,27,87.76-54.61,151.64-63.31c44-6,51.06-46.21,91.85-55.69l21-.26c49.9-1.74,84.57,66.48,119.75,60.26,50.9-9,83.83,45.9,83.83,90.56" transform="translate(6 1)"/><path class="cls-40" d="M1157.93,612.81c5.43-24.65,14-42.13,26.61-48.73,77.84-40.63,36.92-62.63,131.73-76.63s77.83,32,144.7,27,87.76-54.61,151.64-63.3c44-6,51.06-46.21,91.85-55.7l21-.25c49.9-1.75,84.57,66.48,119.75,60.25,50.9-9,83.83,45.91,83.83,90.56" transform="translate(6 1)"/><path class="cls-41" d="M1157.93,628.45c5.43-24.65,14-42.13,26.61-48.73,77.84-40.63,36.92-62.63,131.73-76.63s77.83,32,144.7,27,87.76-54.61,151.64-63.31c44-6,51.06-46.21,91.85-55.69l21-.26c49.9-1.74,84.57,66.48,119.75,60.26,50.9-9,83.83,45.91,83.83,90.56" transform="translate(6 1)"/><path class="cls-42" d="M1157.93,644.08c5.43-24.64,14-42.12,26.61-48.72,77.84-40.63,36.92-62.63,131.73-76.63s77.83,32,144.7,27,87.76-54.61,151.64-63.31c44-6,51.06-46.21,91.85-55.69l21-.26c49.9-1.74,84.57,66.48,119.75,60.26,50.9-9,83.83,45.9,83.83,90.56" transform="translate(6 1)"/><path class="cls-43" d="M1157.93,659.72c5.43-24.65,14-42.13,26.61-48.73,77.84-40.63,36.92-62.63,131.73-76.63s77.83,32,144.7,27,87.76-54.61,151.64-63.3c44-6,51.06-46.21,91.85-55.7l21-.25c49.9-1.75,84.57,66.48,119.75,60.25,50.9-9,83.83,45.91,83.83,90.56" transform="translate(6 1)"/><path class="cls-44" d="M1157.93,675.36c5.43-24.65,14-42.13,26.61-48.73C1262.38,586,1221.46,564,1316.27,550s77.83,32,144.7,27,87.76-54.61,151.64-63.31c44-6,51.06-46.21,91.85-55.69l21-.26c49.9-1.74,84.57,66.48,119.75,60.26,50.9-9,83.83,45.91,83.83,90.56" transform="translate(6 1)"/><path class="cls-45" d="M4,431.1c0,.68,38.4,11.43,87.81-72.41,48.21-81.77,144-77.14,207.58-23.48,30,25.29,56.39,44.29,95.8,44,58.93-.4,124.56-65.29,181.25-25.59,20.29,14.22,32.06,32.51,58.08,36.86,28.45,4.76,62.57-2,88.57,15.17,28,18.46,39.09,54.52,47.26,84.73" transform="translate(6 1)"/><path class="cls-46" d="M4,445.74c0,.68,38.4,11.43,87.81-72.41,48.21-81.78,144-77.14,207.58-23.49,30,25.29,56.39,44.3,95.8,44,58.93-.4,124.56-65.29,181.25-25.59,20.29,14.21,32.06,32.51,58.08,36.86,28.45,4.76,62.57-2,88.57,15.17,28,18.46,39.09,54.52,47.26,84.73" transform="translate(6 1)"/><path class="cls-47" d="M4,460.37c0,.69,38.4,11.43,87.81-72.41,48.21-81.77,144-77.14,207.58-23.48,30,25.29,56.39,44.29,95.8,44,58.93-.4,124.56-65.28,181.25-25.58,20.29,14.21,32.06,32.5,58.08,36.85,28.45,4.76,62.57-2,88.57,15.17,28,18.47,39.09,54.52,47.26,84.74" transform="translate(6 1)"/><path class="cls-48" d="M4,475c0,.68,38.4,11.43,87.81-72.41,48.21-81.77,144-77.14,207.58-23.49,30,25.3,56.39,44.3,95.8,44,58.93-.4,124.56-65.29,181.25-25.59,20.29,14.22,32.06,32.51,58.08,36.86,28.45,4.76,62.57-2,88.57,15.17,28,18.46,39.09,54.52,47.26,84.73" transform="translate(6 1)"/><path class="cls-49" d="M4,489.65c0,.68,38.4,11.42,87.81-72.41,48.21-81.78,144-77.14,207.58-23.49,30,25.29,56.39,44.3,95.8,44,58.93-.39,124.56-65.28,181.25-25.58,20.29,14.21,32.06,32.5,58.08,36.86,28.45,4.76,62.57-2,88.57,15.17,28,18.46,39.09,54.52,47.26,84.73" transform="translate(6 1)"/><path class="cls-50" d="M4,504.28c0,.69,38.4,11.43,87.81-72.41,48.21-81.77,144-77.14,207.58-23.48,30,25.29,56.39,44.29,95.8,44,58.93-.4,124.56-65.28,181.25-25.58,20.29,14.21,32.06,32.5,58.08,36.85,28.45,4.76,62.57-2,88.57,15.17,28,18.46,39.09,54.52,47.26,84.73" transform="translate(6 1)"/><path class="cls-51" d="M4,518.92c0,.68,38.4,11.43,87.81-72.41,48.21-81.78,144-77.14,207.58-23.49,30,25.3,56.39,44.3,95.8,44,58.93-.4,124.56-65.29,181.25-25.59,20.29,14.21,32.06,32.51,58.08,36.86,28.45,4.76,62.57-2,88.57,15.17C751,512,762.16,548,770.33,578.23" transform="translate(6 1)"/><path class="cls-52" d="M4,533.56c0,.68,38.4,11.42,87.81-72.42,48.21-81.77,144-77.14,207.58-23.48,30,25.29,56.39,44.3,95.8,44,58.93-.4,124.56-65.28,181.25-25.58,20.29,14.21,32.06,32.5,58.08,36.86,28.45,4.76,62.57-2,88.57,15.16,28,18.47,39.09,54.53,47.26,84.74" transform="translate(6 1)"/><path class="cls-53" d="M4,548.19c0,.69,38.4,11.43,87.81-72.41C140,394,235.77,398.64,299.37,452.3c30,25.29,56.39,44.29,95.8,44,58.93-.4,124.56-65.29,181.25-25.58,20.29,14.21,32.06,32.5,58.08,36.85,28.45,4.76,62.57-2,88.57,15.17,28,18.46,39.09,54.52,47.26,84.73" transform="translate(6 1)"/><path class="cls-54" d="M4,562.83c0,.68,38.4,11.43,87.81-72.41,48.21-81.78,144-77.14,207.58-23.49,30,25.3,56.39,44.3,95.8,44,58.93-.4,124.56-65.29,181.25-25.59,20.29,14.21,32.06,32.51,58.08,36.86,28.45,4.76,62.57-2,88.57,15.17,28,18.46,39.09,54.52,47.26,84.73" transform="translate(6 1)"/><path class="cls-55" d="M4,577.46c0,.69,38.4,11.43,87.81-72.41,48.21-81.77,144-77.14,207.58-23.48,30,25.29,56.39,44.3,95.8,44,58.93-.4,124.56-65.28,181.25-25.58,20.29,14.21,32.06,32.5,58.08,36.85,28.45,4.77,62.57-2,88.57,15.17,28,18.47,39.09,54.53,47.26,84.74" transform="translate(6 1)"/><path class="cls-56" d="M4,592.1c0,.68,38.4,11.43,87.81-72.41,48.21-81.77,144-77.14,207.58-23.48,30,25.29,56.39,44.29,95.8,44,58.93-.4,124.56-65.29,181.25-25.59,20.29,14.22,32.06,32.51,58.08,36.86,28.45,4.76,62.57-2,88.57,15.17,28,18.46,39.09,54.52,47.26,84.73" transform="translate(6 1)"/></g></g></g></g></g></svg>