<svg xmlns="http://www.w3.org/2000/svg" viewBox="0 0 78.75 100"><defs><style>.cls-1{fill:#f4f4f4;}</style></defs><g id="圖層_2" data-name="圖層 2"><g id="背景"><path class="cls-1" d="M64.38,51.53c-4.49-2.72-7.06-6.72-7.06-11V26.76H62c.5,0,.9-.3.9-.66V14.53c0-.37-.4-.66-.9-.66H55.78l.66-1.55a.94.94,0,0,0,.08-.36V1.54C56.52.69,55.58,0,54.43,0H39.74a.64.64,0,0,0-.36.11c-1.78,1.27-.58,2.82,1.11,2.82h9c1.66,0,3,1,3,2.21v6.13a1.91,1.91,0,0,1-.16.78l-.77,1.82H27.15l-.77-1.82a1.91,1.91,0,0,1-.16-.78V3.72c0-.44.48-.79,1.07-.79h5a.64.64,0,0,0,.36-.11C34.44,1.55,33.24,0,31.55,0H24.32c-1.15,0-2.09.69-2.09,1.54v9.59a4.93,4.93,0,0,0,.42,2l.32.76H20.78c-2.72,0-4.93,1.62-4.93,3.62v5.65c0,2,2.21,3.62,4.93,3.62h.66v13.8c0,4.25-2.58,8.25-7.07,11C5.24,57.07,0,65.24,0,73.94A24,24,0,0,0,5.77,89.2,36.6,36.6,0,0,0,20.86,99.83a2.56,2.56,0,0,0,.93.17H56.23a2.68,2.68,0,0,0,.89-.15A37.7,37.7,0,0,0,72.75,89.34a23.64,23.64,0,0,0,6-15.4C78.75,65.24,73.51,57.07,64.38,51.53ZM54.58,16.8H58c.52,0,.94.31.94.69v5.64c0,.39-.42.7-.94.7H51.58Zm-4.34,0-3,7H31.53l-3-7ZM32.07,29.36v-2.6H47v2.71C47,32.55,43.5,35,39.29,35,35.24,34.87,32.07,32.34,32.07,29.36ZM41.64,38V64.86a2,2,0,0,1-2.12,1.72c-1.31.06-2.4-.7-2.4-1.65V38a15.11,15.11,0,0,0,4.52,0ZM19.84,23.13V17.49c0-.38.42-.69.95-.69h3.38l3,7H20.79C20.26,23.83,19.84,23.52,19.84,23.13ZM55.73,97.07H22.3C11.17,92.53,4,83.49,4,73.94c0-7.83,4.7-15.17,12.91-20.15,5.4-3.28,8.5-8.1,8.5-13.23V26.76h2.66v2.71c0,2.94,2,5.52,5.05,7V52.24a33.76,33.76,0,0,0-15,6.08,1.22,1.22,0,0,0,0,2.07,2.51,2.51,0,0,0,2.8,0,29,29,0,0,1,12.15-5.13V65c0,2.71,3,4.9,6.7,4.7,3.23-.17,5.79-2.17,5.79-4.61V55.26c11.26,2.08,19.63,9.62,19.63,18.59,0,7-5.11,13.39-13.36,16.77H26.15c-7.7-3.41-12.65-10-12.65-16.77A15.07,15.07,0,0,1,16,65.57a1.24,1.24,0,0,0-.52-1.8,2.38,2.38,0,0,0-3,.5,17.38,17.38,0,0,0-2.94,9.58A18.55,18.55,0,0,0,13.7,85.26a27.4,27.4,0,0,0,11,8.11,2.63,2.63,0,0,0,1,.18H52.29a2.3,2.3,0,0,0,.91-.17c9.67-3.83,15.68-11.31,15.68-19.5,0-10.58-10-19.44-23.26-21.57V36.49c3-1.5,5.05-4.09,5.05-7V26.76h2.66v13.8c0,5.13,3.1,9.95,8.51,13.23,8.2,5,12.91,12.32,12.91,20.15,0,9.78-7.28,18.61-19,23.13Z"/></g></g></svg>