<svg xmlns="http://www.w3.org/2000/svg" viewBox="0 0 100 100"><defs><style>.cls-1{fill:#f4f4f4;}</style></defs><g id="圖層_2" data-name="圖層 2"><g id="背景"><path class="cls-1" d="M98.87,91.33h0a21.44,21.44,0,0,1-4-5.33c-2.68-4.17-6.09-9.33-12.43-9.33s-9.63,5-12.44,9.5-4.63,7.16-8.77,7.16S55,90.17,52.43,86.17s-6-9.5-12.43-9.5-9.63,5-12.44,9.5-4.63,7.16-8.77,7.16S12.57,90.17,10,86.17A24.26,24.26,0,0,0,3.55,78.5C2.34,77.67.87,78.34.26,80a4,4,0,0,0,1.1,4.5,22.27,22.27,0,0,1,5,6c2.81,4.5,6.1,9.5,12.44,9.5s9.63-5,12.43-9.5,4.63-7.17,8.78-7.17,6.21,3.17,8.77,7.17,6,9.5,12.44,9.5,9.63-5,12.43-9.5,4.63-7.17,8.78-7.17,6.21,3.17,8.77,7.17a28.83,28.83,0,0,0,5,6.5c1.14,1,2.67.56,3.41-1A4.18,4.18,0,0,0,98.87,91.33Z"/><path class="cls-1" d="M98.87,66.33h0a21.44,21.44,0,0,1-4-5.33c-2.68-4.17-6.09-9.33-12.43-9.33s-9.63,5-12.44,9.5-4.63,7.16-8.77,7.16S55,65.17,52.43,61.17s-6-9.5-12.43-9.5-9.63,5-12.44,9.5-4.63,7.16-8.77,7.16S12.57,65.17,10,61.17A24.26,24.26,0,0,0,3.55,53.5C2.34,52.67.87,53.34.26,55a4,4,0,0,0,1.1,4.5,22.27,22.27,0,0,1,5,6C9.16,70,12.45,75,18.79,75s9.63-5,12.43-9.5,4.63-7.17,8.78-7.17,6.21,3.17,8.77,7.17,6,9.5,12.44,9.5,9.63-5,12.43-9.5,4.63-7.17,8.78-7.17,6.21,3.17,8.77,7.17a28.83,28.83,0,0,0,5,6.5c1.14,1,2.67.56,3.41-1A4.18,4.18,0,0,0,98.87,66.33Z"/><path class="cls-1" d="M98.87,39.67h0a21.5,21.5,0,0,1-4-5.34C92.17,30.17,88.76,25,82.42,25S72.79,30,70,34.5s-4.63,7.17-8.77,7.17S55,38.5,52.43,34.5,46.46,25,40,25s-9.63,5-12.44,9.5-4.63,7.17-8.77,7.17S12.57,38.5,10,34.5a24.48,24.48,0,0,0-6.46-7.67C2.34,26,.87,26.68.26,28.33a4,4,0,0,0,1.1,4.5,22.27,22.27,0,0,1,5,6c2.81,4.5,6.1,9.5,12.44,9.5s9.63-5,12.43-9.5,4.63-7.16,8.78-7.16,6.21,3.16,8.77,7.16,6,9.5,12.44,9.5,9.63-5,12.43-9.5,4.63-7.16,8.78-7.16,6.21,3.16,8.77,7.16a28.39,28.39,0,0,0,5,6.5c1.14,1,2.67.57,3.41-1A4.16,4.16,0,0,0,98.87,39.67Z"/><path class="cls-1" d="M1.36,7.83a22.27,22.27,0,0,1,5,6c2.81,4.5,6.1,9.5,12.44,9.5s9.63-5,12.43-9.5S35.85,6.67,40,6.67s6.21,3.16,8.77,7.16,6,9.5,12.44,9.5,9.63-5,12.43-9.5,4.63-7.16,8.78-7.16,6.21,3.16,8.77,7.16a28.39,28.39,0,0,0,5,6.5c1.14,1,2.67.57,3.41-1a4.16,4.16,0,0,0-.73-4.66h0a21.5,21.5,0,0,1-4-5.34C92.17,5.17,88.75,0,82.42,0S72.79,5,70,9.5s-4.63,7.17-8.77,7.17S55,13.5,52.43,9.5,46.46,0,40,0,30.37,5,27.56,9.5s-4.63,7.17-8.77,7.17S12.57,13.5,10,9.5A24.48,24.48,0,0,0,3.55,1.83C2.34,1,.87,1.68.26,3.33A4,4,0,0,0,1.36,7.83Z"/></g></g></svg>