<svg xmlns="http://www.w3.org/2000/svg" viewBox="0 0 185.52 257.2"><defs><style>.cls-1{fill:none;}.cls-1,.cls-2{stroke:#012e3e;stroke-miterlimit:10;}.cls-2,.cls-3{fill:#012e3e;}</style></defs><g id="圖層_2" data-name="圖層 2"><g id="太陽"><polygon class="cls-1" points="43.09 15.43 35.6 15.43 35.6 25.71 43.16 25.71 43.09 15.43"/><polygon class="cls-1" points="43.08 12.06 43.08 8.27 38.95 12.06 43.07 12.06 43.08 12.06"/><polygon class="cls-1" points="43.16 33.18 43.16 29.08 38.7 29.08 43.16 33.18"/><polygon class="cls-1" points="92.76 25.71 138.68 25.71 138.69 25.71 138.75 15.43 92.76 15.43 46.76 15.43 46.82 25.71 46.83 25.71 92.76 25.71"/><polygon class="cls-1" points="138.76 12.06 138.76 7.24 92.76 7.24 46.75 7.24 46.75 12.06 92.76 12.06 138.76 12.06"/><polygon class="cls-1" points="142.35 29.08 142.35 33.18 146.81 29.08 142.35 29.08"/><polygon class="cls-1" points="149.91 15.43 142.42 15.43 142.36 25.71 149.91 25.71 149.91 15.43"/><path class="cls-1" d="M104.93,55.05h14.14V52.77H104.22A10.41,10.41,0,0,1,104.93,55.05Z"/><polygon class="cls-1" points="138.68 34.14 138.68 29.08 92.76 29.08 46.83 29.08 46.83 34.14 92.76 34.14 138.68 34.14"/><path class="cls-1" d="M72.42,58.42v15h40.67v-15H105c-.74,5.64-5.92,10-12.25,10s-11.51-4.4-12.25-10Z"/><path class="cls-1" d="M107.11,49.4V40.88H78.4V49.4h5.27a13,13,0,0,1,18.18,0Z"/><polygon class="cls-1" points="146.56 12.06 142.43 8.27 142.43 12.06 142.44 12.06 146.56 12.06"/><polygon class="cls-1" points="48.68 114.24 48.68 182.18 92.76 182.18 136.83 182.18 136.83 114.24 92.76 114.24 48.68 114.24"/><polygon class="cls-1" points="170.97 79.92 167.7 85.03 171.12 87.48 176.79 84.23 170.97 79.92"/><path class="cls-1" d="M92.76,86.92l-71.91.2-4.16,3V249.85a266.52,266.52,0,0,1,46-10.6,226.33,226.33,0,0,1,30.07-2.53,226.18,226.18,0,0,1,30.06,2.53,266.61,266.61,0,0,1,46,10.6V90.11l-4.17-3Zm47.74,98.63H45V110.87H140.5Z"/><polygon class="cls-1" points="172.49 247.87 177.67 244.03 177.67 166.35 177.67 162.58 177.67 87.69 172.49 90.65 172.49 247.87"/><polygon class="cls-1" points="7.84 162.58 7.84 166.35 7.84 244.03 13.02 247.87 13.02 90.65 7.84 87.69 7.84 162.58"/><polygon class="cls-1" points="14.54 79.92 8.72 84.23 14.4 87.48 17.81 85.03 14.54 79.92"/><path class="cls-1" d="M81.29,52.77H66.44v2.28H80.58A11,11,0,0,1,81.29,52.77Z"/><path class="cls-1" d="M45.92,83.68a1.9,1.9,0,0,1,.93-.26h91.81a2,2,0,0,1,.94.26l24.66.07,3.18-5-46.32-2.19v.12H64.4v-.12L18.07,78.8l3.18,5Z"/><path class="cls-1" d="M92.76,240.34a241.14,241.14,0,0,0-29,2.15A231.34,231.34,0,0,0,30.46,250H155.05a231,231,0,0,0-33.33-7.47A241.13,241.13,0,0,0,92.76,240.34Z"/><path class="cls-2" d="M172.36,72.29l-51.92-2.46v-7.7h6V45.64h-12V40.88h29.88L157.26,29V12.35L144.34.5H41.17L28.26,12.35V29L41.17,40.87H71.06v4.77h-12V62.12h6v7.71L13.16,72.28.5,81.67V247.25l12.74,9.45h159L185,247.25V81.67ZM119.07,52.77v2.28H104.93a11,11,0,0,0-.71-2.28ZM92.76,45.69a12.82,12.82,0,0,0-9.09,3.71H78.4V40.87h28.71V49.4h-5.26A12.86,12.86,0,0,0,92.76,45.69Zm8.73,11.39c0,4.41-3.92,8-8.73,8S84,61.5,84,57.08s3.91-8,8.73-8S101.49,52.66,101.49,57.08ZM92.76,68.46c6.33,0,11.51-4.4,12.25-10h8.08v15H72.42v-15h8.09C81.25,64.06,86.42,68.46,92.76,68.46ZM142.43,8.27l4.13,3.8h-4.13Zm0,7.16h7.49V25.71h-7.55Zm-.07,13.65h4.46l-4.46,4.1ZM43.08,8.27v3.79H39ZM35.6,15.43h7.49l.06,10.28H35.6Zm7.56,17.75-4.46-4.1h4.46ZM46.75,7.23h92v4.83h-92Zm0,8.2h92l-.06,10.28H46.82Zm.07,18.71V29.08h91.85v5.06H46.83ZM66.44,52.77H81.29a11,11,0,0,0-.71,2.28H66.44V52.77Zm-2,23.84v.13h56.72v-.13l46.32,2.19-3.18,5-24.66-.06a1.87,1.87,0,0,0-.94-.27H46.85a1.81,1.81,0,0,0-.93.27l-24.67.06-3.18-5ZM13,247.87,7.84,244V87.69l5.18,3ZM8.72,84.23l5.82-4.31L17.82,85,14.4,87.47ZM96.54,250H30.46a231.34,231.34,0,0,1,33.33-7.47,241.14,241.14,0,0,1,29-2.15,241.13,241.13,0,0,1,29,2.15A231,231,0,0,1,155.05,250Zm72.29-.11a266.61,266.61,0,0,0-46-10.6,227.87,227.87,0,0,0-30.06-2.53,228,228,0,0,0-30.07,2.53,267.45,267.45,0,0,0-46,10.6V90.11l4.16-3,71.91-.2,71.9.2,4.17,3Zm2.29-162.37L167.7,85,171,79.92l5.81,4.31Zm6.55,75.1V244l-5.17,3.84V90.65l5.17-3Z"/><path class="cls-3" d="M45,110.87v74.67H140.5V110.87H45Zm91.81,71.31H48.68V114.24h88.15Z"/></g></g></svg>