<svg xmlns="http://www.w3.org/2000/svg" viewBox="0 0 195.37 261.84"><defs><style>.cls-1{fill:#012e3e;}</style></defs><g id="圖層_2" data-name="圖層 2"><g id="太陽"><path class="cls-1" d="M120.15,71.16V64.29h10V0H65.54V64h10v6.86A98.33,98.33,0,0,0,0,166.34c0,43.07,27.78,81.46,67.41,93,3.12.94,20,2.5,30.27,2.5,10,0,25.59-1.25,30.28-2.5,39.63-10.61,67.41-49,67.41-93C195.68,120.15,163.22,81.14,120.15,71.16ZM54.62,85.51a90.38,90.38,0,0,1,86.13,0C165.41,100.8,182,128.89,182,161c0,40.88-22.16,74.27-54.93,83.64-3.75.93-20.29,2.18-29.34,2.18-9.36,0-27.46-1.56-29.33-2.18-32.77-10-54.93-43.38-54.93-83.64A89,89,0,0,1,54.62,85.51ZM119.53,8.74H77.4l-2.5-2.5H122ZM74.28,10V53.68l-2.5,2.5V7.49ZM77.4,52.43V11.86h41.19V52.43Zm44-41.19,2.5-2.5V55.55l-2.5-2.5ZM74.28,58.05l2.49-2.5h42.45l2.49,2.5H74.28Zm7.49,10.61V64.29h32.14v4.37Zm44.62,184.75c-3.74.94-18.72,2.5-28.71,2.5-10.3,0-26.52-1.87-28.71-2.5C32.14,242.49,6.24,206.6,6.24,166.34A91.29,91.29,0,0,1,24,112,92.49,92.49,0,0,0,10.3,161c0,41.5,23.09,76.15,57.11,86.44,2.81.94,21.53,2.5,30.27,2.5,9,0,26.22-1.25,30.28-2.5,34.32-9.67,57.11-44.31,57.11-86.44a92.58,92.58,0,0,0-13.73-49,91.28,91.28,0,0,1,17.78,54.3C189.44,207.54,163.53,243.43,126.39,253.41Z"/></g></g></svg>