<svg xmlns="http://www.w3.org/2000/svg" viewBox="0 0 100 100"><defs><style>.cls-1{fill:#f4f4f4;}</style></defs><g id="圖層_2" data-name="圖層 2"><g id="背景"><path class="cls-1" d="M82.75,96.43A57.48,57.48,0,0,1,34.22,39.89c0-.79,0-1.59.05-2.38A10.24,10.24,0,0,0,25.44,27v-1.1a14.56,14.56,0,0,1,9.34-13.55l-1-2.75a17.44,17.44,0,0,0-11.23,16.3V27a10.25,10.25,0,0,0-8.69,9.6c-.07,1.28-.1,2.58-.09,3.87A60.3,60.3,0,0,0,51.11,95.54,59.3,59.3,0,0,0,73.75,100h.82a60.15,60.15,0,0,0,8.18-.66l9.6-1.46ZM33.94,80.79A56.89,56.89,0,0,1,16.69,40.42c0-1.23,0-2.48.08-3.7A7.33,7.33,0,0,1,29.39,32a7.25,7.25,0,0,1,2,5.33c0,.82-.05,1.67-.05,2.5A60.23,60.23,0,0,0,72.88,97.14,56.78,56.78,0,0,1,33.94,80.79Z"/><path class="cls-1" d="M2.93,34.17c0-1.22,0-2.46.08-3.69a7.34,7.34,0,0,1,2.27-4.93,7.31,7.31,0,0,1,10.7.68l2.26-1.86a10.17,10.17,0,0,0-6.46-3.65V19.6A14.57,14.57,0,0,1,21.11,6.05l-1-2.74A17.42,17.42,0,0,0,8.85,19.6v1.11A10.25,10.25,0,0,0,.09,30.32C0,31.61,0,32.92,0,34.19A59.41,59.41,0,0,0,6.44,60.66,61,61,0,0,0,23.2,81L25,78.71A57,57,0,0,1,2.93,34.17Z"/><path class="cls-1" d="M98.64,60.67a4.37,4.37,0,0,0-4.43-1.52,14.13,14.13,0,0,1-3.31.39,14,14,0,0,1-8.81-3.08l-.86-.69-5.3,3.78,0,.78a12.22,12.22,0,0,0,23.24,5A4.39,4.39,0,0,0,98.64,60.67Zm-2.1,3.39a9.11,9.11,0,0,1-1.81,2.55A9.29,9.29,0,0,1,78.93,61l2.23-1.59a16.86,16.86,0,0,0,9.74,3,17.21,17.21,0,0,0,4-.47,1.47,1.47,0,0,1,1.65,2.05Z"/><path class="cls-1" d="M82,74.26l-.86.68A14,14,0,0,1,72.34,78a14.6,14.6,0,0,1-3.3-.39,4.4,4.4,0,0,0-5,6.18,12.31,12.31,0,0,0,2.38,3.35A12.22,12.22,0,0,0,87.3,78.81l0-.78Zm-.37,10.83a9.28,9.28,0,0,1-14.94-2.55A1.45,1.45,0,0,1,66.89,81,1.48,1.48,0,0,1,68,80.45a1.45,1.45,0,0,1,.35,0,17.13,17.13,0,0,0,13.74-2.58l2.23,1.59A9.2,9.2,0,0,1,81.65,85.09Z"/><path class="cls-1" d="M75.07,0A25,25,0,0,0,63,3.12l1.43,2.57A22,22,0,0,1,88.73,42.24l1.83,2.3A25,25,0,0,0,75.07,0Z"/><path class="cls-1" d="M76,5.9l-.14,2.93A16.17,16.17,0,0,1,90.25,30.44l2.76,1A19.12,19.12,0,0,0,76,5.9Z"/><path class="cls-1" d="M63.33,7.83a25,25,0,1,0,24.94,25A25,25,0,0,0,63.33,7.83Zm0,47a22,22,0,1,1,22-22A22,22,0,0,1,63.33,54.84Z"/><path class="cls-1" d="M63.33,13.71A19.1,19.1,0,1,0,82.4,32.81,19.11,19.11,0,0,0,63.33,13.71ZM50.94,22.42l8.85,8.87H47.27A16.07,16.07,0,0,1,50.94,22.42Zm-3.67,11.8H59.79l-8.85,8.86A16.07,16.07,0,0,1,47.27,34.22ZM61.94,48.9a16.09,16.09,0,0,1-8.85-3.68l8.85-8.87Zm0-19.64L53.09,20.4a16,16,0,0,1,8.85-3.68Zm2.93-12.59a16,16,0,0,1,8.85,3.67L71.08,23l2.07,2.08,2.64-2.65a16.07,16.07,0,0,1,3.67,8.87H66.94l4.14-4.14L69,25.07l-4.13,4.14V16.67Zm0,32.23V36.35l8.85,8.87A16.12,16.12,0,0,1,64.87,48.9Zm10.85-5.82-8.85-8.86H79.4A16.15,16.15,0,0,1,75.72,43.08Z"/><rect class="cls-1" x="58.04" y="65.5" width="2.93" height="2.93"/><rect class="cls-1" x="63.89" y="65.5" width="2.93" height="2.93"/><rect class="cls-1" x="52.18" y="65.5" width="2.93" height="2.93"/><path class="cls-1" d="M29,48.31l-2.91.4c.14,1,.3,2,.48,3l2.88-.53C29.28,50.21,29.13,49.26,29,48.31Z"/><path class="cls-1" d="M28.42,39.86c0-.87,0-1.76.06-2.62l-2.93-.12c0,.9-.06,1.83-.06,2.74,0,2,.09,3.93.26,5.87l2.93-.27C28.51,43.61,28.42,41.72,28.42,39.86Z"/><path class="cls-1" d="M27.3,61.37l-2.67,1.24a55,55,0,0,0,9.29,13.92l2.16-2A51.6,51.6,0,0,1,27.3,61.37Z"/><path class="cls-1" d="M38.07,76.59l-2,2.1c.71.7,1.46,1.39,2.21,2l1.93-2.21C39.45,77.91,38.75,77.25,38.07,76.59Z"/><path class="cls-1" d="M42.36,80.35l-1.81,2.32c.79.61,1.6,1.22,2.43,1.79l1.67-2.41C43.88,81.51,43.1,80.94,42.36,80.35Z"/><path class="cls-1" d="M8.87,34.1v-.48c0-.94,0-1.9.07-2.85L6,30.61c0,1-.08,2-.08,3,0,.17,0,.34,0,.5a53.3,53.3,0,0,0,.39,6.06l2.91-.35A52.16,52.16,0,0,1,8.87,34.1Z"/><path class="cls-1" d="M11,48.21,8.16,49c.29,1,.6,1.93.94,2.87l2.76-1C11.54,50,11.24,49.11,11,48.21Z"/><path class="cls-1" d="M9.66,42.65l-2.89.52c.18,1,.39,2,.62,2.95l2.85-.67C10,44.52,9.83,43.58,9.66,42.65Z"/><rect class="cls-1" x="66.43" y="43.02" width="2.93" height="2.93"/><rect class="cls-1" x="50.23" y="35.78" width="2.93" height="2.93"/></g></g></svg>