<svg xmlns="http://www.w3.org/2000/svg" xmlns:xlink="http://www.w3.org/1999/xlink" viewBox="0 0 863 682.62"><defs><style>.cls-1{fill:url(#未命名漸層_2);}.cls-2{opacity:0.3;fill:url(#未命名漸層_2-2);}</style><linearGradient id="未命名漸層_2" x1="5875.08" y1="6672.09" x2="5875.08" y2="6671.09" gradientTransform="matrix(863, 0, 0, -640, -5069768.29, 4270142.8)" gradientUnits="userSpaceOnUse"><stop offset="0" stop-color="#f4bd94"/><stop offset="1" stop-color="#d83593"/></linearGradient><linearGradient id="未命名漸層_2-2" x1="431.5" y1="682.62" x2="431.5" y2="640" gradientTransform="matrix(1, 0, 0, 1, 0, 0)" xlink:href="#未命名漸層_2"/></defs><g id="圖層_2" data-name="圖層 2"><g id="太陽"><path id="Sun_Landingpage_1" data-name="Sun Landingpage 1" class="cls-1" d="M809.37,640H53.63A428.56,428.56,0,0,1,3.57,487.29a437.55,437.55,0,0,1-1.34-99.91,430,430,0,0,1,6.54-42.84c2.84-13.9,6.42-27.82,10.63-41.36,4.16-13.38,9.05-26.72,14.51-39.64A432.74,432.74,0,0,1,263.54,33.91c12.92-5.47,26.26-10.35,39.65-14.51s27.45-7.79,41.35-10.63a430,430,0,0,1,42.84-6.54,438.06,438.06,0,0,1,88.24,0,430,430,0,0,1,42.84,6.54c13.9,2.84,27.82,6.42,41.36,10.63,13.38,4.16,26.72,9.05,39.64,14.51A432.74,432.74,0,0,1,829.09,263.54c5.47,12.92,10.35,26.26,14.51,39.65s7.79,27.45,10.63,41.35a430,430,0,0,1,6.54,42.84,437.55,437.55,0,0,1-1.34,99.91A428.56,428.56,0,0,1,809.37,640Z"/><path class="cls-2" d="M53.63,640H809.37S711,682.24,431.5,682.62,53.2,640,53.63,640Z"/></g></g></svg>