<svg xmlns="http://www.w3.org/2000/svg" xmlns:xlink="http://www.w3.org/1999/xlink" viewBox="0 0 1261.61 1700"><defs><style>.cls-1{fill:url(#未命名漸層_4);}</style><linearGradient id="未命名漸層_4" x1="3059.95" y1="5459.43" x2="3059.95" y2="5457.43" gradientTransform="translate(1836601.28 4629600.5) rotate(180) scale(600 848)" gradientUnits="userSpaceOnUse"><stop offset="0" stop-color="#f4bd94"/><stop offset="1" stop-color="#d83593"/></linearGradient></defs><g id="圖層_2" data-name="圖層 2"><g id="太陽"><g id="Group_15" data-name="Group 15"><path id="Subtraction_2" data-name="Subtraction 2" class="cls-1" d="M369,1700c-28.23-27-55.43-55.51-80.87-84.89-25.66-29.64-50.09-60.79-72.63-92.6s-43.91-65.32-63.2-99.17c-19.42-34.08-37.29-69.46-53.12-105.14a1153.65,1153.65,0,0,1-.15-936c15.8-35.66,33.65-71,53-105.08,19.26-33.83,40.49-67.18,63.1-99.13C237.64,146.18,262,115,287.66,85.4S340.58,27.11,369,0h892.64V1700H369Z"/></g></g></g></svg>