<svg xmlns="http://www.w3.org/2000/svg" xmlns:xlink="http://www.w3.org/1999/xlink" viewBox="0 0 749 749"><defs><style>.cls-1{fill:url(#未命名漸層_63);}.cls-2{fill:#505151;}</style><linearGradient id="未命名漸層_63" x1="4904.17" y1="5953.68" x2="4904.17" y2="5952.68" gradientTransform="matrix(749, 0, 0, -749, -3672848.44, 4459308.15)" gradientUnits="userSpaceOnUse"><stop offset="0" stop-color="#f4bd94"/><stop offset="1" stop-color="#d83593"/></linearGradient></defs><g id="圖層_2" data-name="圖層 2"><g id="太陽"><g id="Sun_003" data-name="Sun 003"><circle id="SUN_3" data-name="SUN 3" class="cls-1" cx="374.5" cy="374.5" r="374.5"/><path id="Intersection_2" data-name="Intersection 2" class="cls-2" d="M580.72,654.25c-73.66,0-76.63-1-145-4.7-29.1-1.56-35.14-2.75-51.8-8.36-88.65-30-183.83-109.79-185.58-119.4-4-22.23,20.29-31.81,38.65-30.67,34.82,2.15,80.6,36.93,124.75,56.93C378.44,555.6,398,559,417.1,560c17.65.94,23.2-23.47,6.91-30.35l-.33-.14c-56.54-24.87-51.72-76.73-24.8-76.29,35.56.6,56.47,9.33,127.45,19,53.8,7.31,117.44,4.64,148,16.29,13.07,5,28.55,18.66,43.78,35.27A375.63,375.63,0,0,1,610.8,665.06C599.65,658.6,589.05,654.25,580.72,654.25Z"/></g></g></g></svg>