<svg xmlns="http://www.w3.org/2000/svg" xmlns:xlink="http://www.w3.org/1999/xlink" viewBox="0 0 1920 750"><defs><style>.cls-1{fill:url(#未命名漸層_3);}</style><linearGradient id="未命名漸層_3" x1="5845.16" y1="4791.54" x2="5845.16" y2="4791.06" gradientTransform="matrix(1920, 0, 0, -1551, -11221776.56, 7431682)" gradientUnits="userSpaceOnUse"><stop offset="0" stop-color="#f4bd94"/><stop offset="0.7" stop-color="#e57293"/><stop offset="1" stop-color="#d83593"/></linearGradient></defs><g id="圖層_2" data-name="圖層 2"><g id="太陽"><path id="Sun_5" data-name="Sun 5" class="cls-1" d="M960.5,750c-45.61,0-91.63-.67-136.78-2-44.54-1.3-89.35-3.27-133.17-5.84-43.29-2.55-86.68-5.75-129-9.52-41.83-3.73-83.62-8.11-124.19-13-40.2-4.86-80.18-10.36-118.83-16.34-38.37-5.93-76.35-12.48-112.9-19.47-36.35-7-72.14-14.5-106.38-22.43S31.75,645,0,636.18V0H1920V636.46c-31.74,8.8-65.12,17.26-99.22,25.15s-70,15.44-106.3,22.38c-36.51,7-74.46,13.5-112.8,19.42-38.61,6-78.55,11.45-118.71,16.3-40.52,4.89-82.26,9.26-124,13-42.24,3.77-85.58,7-128.81,9.5-43.77,2.57-88.52,4.53-133,5.83C1052,749.33,1006.05,750,960.5,750Z"/></g></g></svg>