<svg xmlns="http://www.w3.org/2000/svg" xmlns:xlink="http://www.w3.org/1999/xlink" viewBox="0 0 1261.61 1700"><defs><style>.cls-1{fill:url(#未命名漸層_4);}</style><linearGradient id="未命名漸層_4" x1="3859.28" y1="5403.12" x2="3859.28" y2="5401.12" gradientTransform="matrix(600, 0, 0, -848, -2314937.67, 4581847.24)" gradientUnits="userSpaceOnUse"><stop offset="0" stop-color="#f4bd94"/><stop offset="1" stop-color="#d83593"/></linearGradient></defs><g id="圖層_2" data-name="圖層 2"><g id="太陽"><g id="Group_15" data-name="Group 15"><path id="Subtraction_2" data-name="Subtraction 2" class="cls-1" d="M892.65,1700H0V0H892.65C921,27.11,948.4,55.84,974,85.4s50,60.78,72.52,92.56c22.61,31.95,43.84,65.3,63.1,99.13,19.39,34.07,37.24,69.42,53,105.08A1164.26,1164.26,0,0,1,1205,492.6a1157,1157,0,0,1,31,115.19,1153.48,1153.48,0,0,1,19.09,119.34,1163.82,1163.82,0,0,1,0,245.85A1152.55,1152.55,0,0,1,1236,1092.41a1156.21,1156.21,0,0,1-31.09,115.28,1163.52,1163.52,0,0,1-42.43,110.51c-15.83,35.68-33.7,71.06-53.12,105.14-19.29,33.85-40.55,67.22-63.2,99.17s-47,63-72.62,92.6c-25.45,29.38-52.65,57.94-80.88,84.89Z"/></g></g></g></svg>