<svg xmlns="http://www.w3.org/2000/svg" viewBox="0 0 100 100"><defs><style>.cls-1{fill:#f4f4f4;}</style></defs><g id="圖層_2" data-name="圖層 2"><g id="背景"><g id="surface1"><path class="cls-1" d="M1.15,68.31l1.78.59A76,76,0,0,1,26.48,81.7L40.6,93a1.78,1.78,0,0,0,.3.17v0L46.64,96v4h3.18V75.86L56,71.36l0,0a1.37,1.37,0,0,0,.2-.13A67.42,67.42,0,0,1,95.26,52.13l3.28-.41a1.66,1.66,0,0,0,.34-3.22L85,43.66A21.68,21.68,0,0,0,57.4,56.93l-.21.63L53.56,69,50,71.7V47.91a9.59,9.59,0,0,1,4.29-8l0,0a1.67,1.67,0,0,0,.28-.18,33.17,33.17,0,0,0,9.67-25.53L63.42,1.57a1.67,1.67,0,0,0-3.25-.46L54.74,16.27a52.36,52.36,0,0,0-3.07,17.65v3.71a12.76,12.76,0,0,0-5,10.14v3.3l-1.71-1.69A29.35,29.35,0,0,0,24.7,22.24L13.6,18.58a1.66,1.66,0,0,0-2.17,1.94l1.84,8.25a29.41,29.41,0,0,0,28.93,23h.38l4.06,4V92.32l-3.36-1.66V87.19A26.07,26.07,0,0,0,9,62.53L1.15,65.14a1.66,1.66,0,0,0,0,3.16Zm59.22-9.76a18.38,18.38,0,0,1,17.47-12.8,18.81,18.81,0,0,1,6.08,1l7.36,2.57A71,71,0,0,0,58.45,64.63ZM55,33.85a48.6,48.6,0,0,1,2.85-16.41L60.54,10l.28,4.46A29.65,29.65,0,0,1,55,34ZM16.78,28l-1.2-5.39,8.24,2.74a26,26,0,0,1,17.44,20.3L27.83,32.26l-2.36,2.35L39.1,48.22A25.9,25.9,0,0,1,16.78,28ZM10,65.67A22.76,22.76,0,0,1,38.75,80a22.46,22.46,0,0,1,1.17,7.18v1L28.5,79.08A79.6,79.6,0,0,0,6.76,66.74Z"/></g></g></g></svg>