<svg xmlns="http://www.w3.org/2000/svg" xmlns:xlink="http://www.w3.org/1999/xlink" viewBox="0 0 7696.34 1598.39"><defs><style>.cls-1,.cls-10,.cls-11,.cls-12,.cls-13,.cls-14,.cls-15,.cls-16,.cls-17,.cls-18,.cls-19,.cls-20,.cls-21,.cls-22,.cls-23,.cls-24,.cls-25,.cls-26,.cls-27,.cls-28,.cls-29,.cls-30,.cls-31,.cls-32,.cls-33,.cls-34,.cls-35,.cls-36,.cls-37,.cls-38,.cls-39,.cls-40,.cls-41,.cls-42,.cls-43,.cls-44,.cls-45,.cls-46,.cls-47,.cls-48,.cls-49,.cls-50,.cls-51,.cls-52,.cls-53,.cls-54,.cls-55,.cls-56,.cls-57,.cls-58,.cls-59,.cls-60,.cls-61,.cls-62,.cls-63,.cls-64,.cls-65,.cls-66,.cls-67,.cls-68,.cls-9{fill:none;}.cls-2{clip-path:url(#clip-path);}.cls-3{clip-path:url(#clip-path-2);}.cls-4{fill:url(#未命名漸層_165);}.cls-5{fill:url(#未命名漸層_165-2);}.cls-6{fill:url(#未命名漸層_165-3);}.cls-7{fill:url(#未命名漸層_165-4);}.cls-8{fill:url(#未命名漸層_165-5);}.cls-10,.cls-11,.cls-12,.cls-13,.cls-14,.cls-15,.cls-16,.cls-17,.cls-18,.cls-19,.cls-20,.cls-21,.cls-22,.cls-23,.cls-24,.cls-25,.cls-26,.cls-27,.cls-28,.cls-29,.cls-30,.cls-31,.cls-32,.cls-33,.cls-34,.cls-35,.cls-36,.cls-37,.cls-38,.cls-39,.cls-40,.cls-41,.cls-42,.cls-43,.cls-44,.cls-45,.cls-46,.cls-47,.cls-48,.cls-49,.cls-50,.cls-51,.cls-52,.cls-53,.cls-54,.cls-55,.cls-56,.cls-57,.cls-58,.cls-59,.cls-60,.cls-61,.cls-62,.cls-63,.cls-64,.cls-65,.cls-66,.cls-67,.cls-68,.cls-9{stroke-miterlimit:10;stroke-width:3px;}.cls-9{stroke:url(#未命名漸層_21);}.cls-10{stroke:url(#未命名漸層_21-2);}.cls-11{stroke:url(#未命名漸層_21-3);}.cls-12{stroke:url(#未命名漸層_21-4);}.cls-13{stroke:url(#未命名漸層_21-5);}.cls-14{stroke:url(#未命名漸層_21-6);}.cls-15{stroke:url(#未命名漸層_21-7);}.cls-16{stroke:url(#未命名漸層_21-8);}.cls-17{stroke:url(#未命名漸層_21-9);}.cls-18{stroke:url(#未命名漸層_21-10);}.cls-19{stroke:url(#未命名漸層_21-11);}.cls-20{stroke:url(#未命名漸層_21-12);}.cls-21{stroke:url(#未命名漸層_21-13);}.cls-22{stroke:url(#未命名漸層_21-14);}.cls-23{stroke:url(#未命名漸層_21-15);}.cls-24{stroke:url(#未命名漸層_21-16);}.cls-25{stroke:url(#未命名漸層_21-17);}.cls-26{stroke:url(#未命名漸層_21-18);}.cls-27{stroke:url(#未命名漸層_21-19);}.cls-28{stroke:url(#未命名漸層_21-20);}.cls-29{stroke:url(#未命名漸層_21-21);}.cls-30{stroke:url(#未命名漸層_21-22);}.cls-31{stroke:url(#未命名漸層_21-23);}.cls-32{stroke:url(#未命名漸層_21-24);}.cls-33{stroke:url(#未命名漸層_21-25);}.cls-34{stroke:url(#未命名漸層_21-26);}.cls-35{stroke:url(#未命名漸層_21-27);}.cls-36{stroke:url(#未命名漸層_21-28);}.cls-37{stroke:url(#未命名漸層_21-29);}.cls-38{stroke:url(#未命名漸層_21-30);}.cls-39{stroke:url(#未命名漸層_21-31);}.cls-40{stroke:url(#未命名漸層_21-32);}.cls-41{stroke:url(#未命名漸層_21-33);}.cls-42{stroke:url(#未命名漸層_21-34);}.cls-43{stroke:url(#未命名漸層_21-35);}.cls-44{stroke:url(#未命名漸層_21-36);}.cls-45{stroke:url(#未命名漸層_21-37);}.cls-46{stroke:url(#未命名漸層_21-38);}.cls-47{stroke:url(#未命名漸層_21-39);}.cls-48{stroke:url(#未命名漸層_21-40);}.cls-49{stroke:url(#未命名漸層_21-41);}.cls-50{stroke:url(#未命名漸層_21-42);}.cls-51{stroke:url(#未命名漸層_21-43);}.cls-52{stroke:url(#未命名漸層_21-44);}.cls-53{stroke:url(#未命名漸層_21-45);}.cls-54{stroke:url(#未命名漸層_21-46);}.cls-55{stroke:url(#未命名漸層_21-47);}.cls-56{stroke:url(#未命名漸層_21-48);}.cls-57{stroke:url(#未命名漸層_21-49);}.cls-58{stroke:url(#未命名漸層_21-50);}.cls-59{stroke:url(#未命名漸層_21-51);}.cls-60{stroke:url(#未命名漸層_21-52);}.cls-61{stroke:url(#未命名漸層_21-53);}.cls-62{stroke:url(#未命名漸層_21-54);}.cls-63{stroke:url(#未命名漸層_21-55);}.cls-64{stroke:url(#未命名漸層_21-56);}.cls-65{stroke:url(#未命名漸層_21-57);}.cls-66{stroke:url(#未命名漸層_21-58);}.cls-67{stroke:url(#未命名漸層_21-59);}.cls-68{stroke:url(#未命名漸層_21-60);}</style><clipPath id="clip-path" transform="translate(380.35 534.93)"><rect class="cls-1" width="6139" height="738"/></clipPath><clipPath id="clip-path-2" transform="translate(380.35 534.93)"><path class="cls-1" d="M6138.65,738.07h-6515V.07h6515Z"/></clipPath><linearGradient id="未命名漸層_165" x1="5713.08" y1="-3008.2" x2="5713.08" y2="-3009.2" gradientTransform="matrix(1920, 0, 0, -739.73, -10966656, -2225258.13)" gradientUnits="userSpaceOnUse"><stop offset="0" stop-color="#fff"/><stop offset="0" stop-color="#8e9da1"/><stop offset="0" stop-color="#335561"/><stop offset="1" stop-color="#012e3e"/></linearGradient><linearGradient id="未命名漸層_165-2" x1="5714.97" y1="-3008.2" x2="5714.97" y2="-3009.2" gradientTransform="translate(10976382 -2225258.13) rotate(180) scale(1920 739.73)" xlink:href="#未命名漸層_165"/><linearGradient id="未命名漸層_165-3" x1="5716.2" y1="-3008.2" x2="5716.2" y2="-3009.2" gradientTransform="translate(10975664 -2225258.13) rotate(180) scale(1920 739.73)" xlink:href="#未命名漸層_165"/><linearGradient id="未命名漸層_165-4" x1="5717.85" y1="-3008.42" x2="5717.85" y2="-3009.2" gradientTransform="translate(10984816 -2225258.13) rotate(180) scale(1920 739.73)" xlink:href="#未命名漸層_165"/><linearGradient id="未命名漸層_165-5" x1="5716.33" y1="-3008.2" x2="5716.33" y2="-3009.2" gradientTransform="matrix(1920, 0, 0, -739.73, -10969778, -2225258.13)" xlink:href="#未命名漸層_165"/><linearGradient id="未命名漸層_21" x1="486.86" y1="406.82" x2="486.86" y2="16.49" gradientTransform="translate(1784)" gradientUnits="userSpaceOnUse"><stop offset="0" stop-color="#1470aa"/><stop offset="1" stop-color="#012e3e"/></linearGradient><linearGradient id="未命名漸層_21-2" x1="2036.99" y1="406.82" x2="2036.99" y2="19.07" xlink:href="#未命名漸層_21"/><linearGradient id="未命名漸層_21-3" x1="-1223.03" y1="460.96" x2="-1223.03" y2="18.84" xlink:href="#未命名漸層_21"/><linearGradient id="未命名漸層_21-4" x1="4940.83" y1="444.67" x2="4940.83" y2="176.21" xlink:href="#未命名漸層_21"/><linearGradient id="未命名漸層_21-5" x1="3584.2" y1="406.82" x2="3584.2" y2="19.07" xlink:href="#未命名漸層_21"/><linearGradient id="未命名漸層_21-6" x1="487.22" y1="461.59" x2="487.22" y2="71.26" xlink:href="#未命名漸層_21"/><linearGradient id="未命名漸層_21-7" x1="2037.36" y1="461.59" x2="2037.36" y2="73.85" xlink:href="#未命名漸層_21"/><linearGradient id="未命名漸層_21-8" x1="-1222.66" y1="515.73" x2="-1222.66" y2="73.62" xlink:href="#未命名漸層_21"/><linearGradient id="未命名漸層_21-9" x1="4941.19" y1="499.45" x2="4941.19" y2="230.98" xlink:href="#未命名漸層_21"/><linearGradient id="未命名漸層_21-10" x1="3584.56" y1="461.59" x2="3584.56" y2="73.85" xlink:href="#未命名漸層_21"/><linearGradient id="未命名漸層_21-11" x1="487.58" y1="516.37" x2="487.58" y2="126.04" xlink:href="#未命名漸層_21"/><linearGradient id="未命名漸層_21-12" x1="2037.72" y1="516.37" x2="2037.72" y2="128.62" xlink:href="#未命名漸層_21"/><linearGradient id="未命名漸層_21-13" x1="-1222.3" y1="570.5" x2="-1222.3" y2="128.39" xlink:href="#未命名漸層_21"/><linearGradient id="未命名漸層_21-14" x1="4941.55" y1="554.22" x2="4941.55" y2="285.76" xlink:href="#未命名漸層_21"/><linearGradient id="未命名漸層_21-15" x1="3584.92" y1="516.37" x2="3584.92" y2="128.62" xlink:href="#未命名漸層_21"/><linearGradient id="未命名漸層_21-16" x1="487.95" y1="571.14" x2="487.95" y2="180.81" xlink:href="#未命名漸層_21"/><linearGradient id="未命名漸層_21-17" x1="2038.08" y1="571.14" x2="2038.08" y2="183.39" xlink:href="#未命名漸層_21"/><linearGradient id="未命名漸層_21-18" x1="-1221.94" y1="625.28" x2="-1221.94" y2="183.16" xlink:href="#未命名漸層_21"/><linearGradient id="未命名漸層_21-19" x1="4941.92" y1="608.99" x2="4941.92" y2="340.53" xlink:href="#未命名漸層_21"/><linearGradient id="未命名漸層_21-20" x1="3585.29" y1="571.14" x2="3585.29" y2="183.39" xlink:href="#未命名漸層_21"/><linearGradient id="未命名漸層_21-21" x1="488.31" y1="625.91" x2="488.31" y2="235.58" xlink:href="#未命名漸層_21"/><linearGradient id="未命名漸層_21-22" x1="2038.45" y1="625.91" x2="2038.45" y2="238.16" xlink:href="#未命名漸層_21"/><linearGradient id="未命名漸層_21-23" x1="-1221.57" y1="680.05" x2="-1221.57" y2="237.94" xlink:href="#未命名漸層_21"/><linearGradient id="未命名漸層_21-24" x1="4942.28" y1="663.76" x2="4942.28" y2="395.3" xlink:href="#未命名漸層_21"/><linearGradient id="未命名漸層_21-25" x1="3585.65" y1="625.91" x2="3585.65" y2="238.16" xlink:href="#未命名漸層_21"/><linearGradient id="未命名漸層_21-26" x1="488.67" y1="680.69" x2="488.67" y2="290.35" xlink:href="#未命名漸層_21"/><linearGradient id="未命名漸層_21-27" x1="2038.81" y1="680.69" x2="2038.81" y2="292.94" xlink:href="#未命名漸層_21"/><linearGradient id="未命名漸層_21-28" x1="-1221.21" y1="734.82" x2="-1221.21" y2="292.71" xlink:href="#未命名漸層_21"/><linearGradient id="未命名漸層_21-29" x1="4942.64" y1="718.54" x2="4942.64" y2="450.08" xlink:href="#未命名漸層_21"/><linearGradient id="未命名漸層_21-30" x1="3586.01" y1="680.69" x2="3586.01" y2="292.94" xlink:href="#未命名漸層_21"/><linearGradient id="未命名漸層_21-31" x1="489.04" y1="735.46" x2="489.04" y2="345.13" xlink:href="#未命名漸層_21"/><linearGradient id="未命名漸層_21-32" x1="2039.17" y1="735.46" x2="2039.17" y2="347.71" xlink:href="#未命名漸層_21"/><linearGradient id="未命名漸層_21-33" x1="-1220.85" y1="789.6" x2="-1220.85" y2="347.48" xlink:href="#未命名漸層_21"/><linearGradient id="未命名漸層_21-34" x1="4943.01" y1="773.31" x2="4943.01" y2="504.85" xlink:href="#未命名漸層_21"/><linearGradient id="未命名漸層_21-35" x1="3586.38" y1="735.46" x2="3586.38" y2="347.71" xlink:href="#未命名漸層_21"/><linearGradient id="未命名漸層_21-36" x1="489.4" y1="790.23" x2="489.4" y2="399.9" xlink:href="#未命名漸層_21"/><linearGradient id="未命名漸層_21-37" x1="2039.54" y1="790.23" x2="2039.54" y2="402.48" xlink:href="#未命名漸層_21"/><linearGradient id="未命名漸層_21-38" x1="-1220.48" y1="844.37" x2="-1220.48" y2="402.25" xlink:href="#未命名漸層_21"/><linearGradient id="未命名漸層_21-39" x1="4943.37" y1="828.08" x2="4943.37" y2="559.62" xlink:href="#未命名漸層_21"/><linearGradient id="未命名漸層_21-40" x1="3586.74" y1="790.23" x2="3586.74" y2="402.48" xlink:href="#未命名漸層_21"/><linearGradient id="未命名漸層_21-41" x1="489.76" y1="845" x2="489.76" y2="454.67" xlink:href="#未命名漸層_21"/><linearGradient id="未命名漸層_21-42" x1="2039.9" y1="845" x2="2039.9" y2="457.26" xlink:href="#未命名漸層_21"/><linearGradient id="未命名漸層_21-43" x1="-1220.12" y1="899.14" x2="-1220.12" y2="457.03" xlink:href="#未命名漸層_21"/><linearGradient id="未命名漸層_21-44" x1="4943.74" y1="882.86" x2="4943.74" y2="614.39" xlink:href="#未命名漸層_21"/><linearGradient id="未命名漸層_21-45" x1="3587.1" y1="845" x2="3587.1" y2="457.26" xlink:href="#未命名漸層_21"/><linearGradient id="未命名漸層_21-46" x1="490.13" y1="899.78" x2="490.13" y2="509.44" xlink:href="#未命名漸層_21"/><linearGradient id="未命名漸層_21-47" x1="2040.26" y1="899.78" x2="2040.26" y2="512.03" xlink:href="#未命名漸層_21"/><linearGradient id="未命名漸層_21-48" x1="-1219.75" y1="953.91" x2="-1219.75" y2="511.8" xlink:href="#未命名漸層_21"/><linearGradient id="未命名漸層_21-49" x1="4944.1" y1="937.63" x2="4944.1" y2="669.17" xlink:href="#未命名漸層_21"/><linearGradient id="未命名漸層_21-50" x1="3587.47" y1="899.78" x2="3587.47" y2="512.03" xlink:href="#未命名漸層_21"/><linearGradient id="未命名漸層_21-51" x1="490.49" y1="954.55" x2="490.49" y2="564.22" xlink:href="#未命名漸層_21"/><linearGradient id="未命名漸層_21-52" x1="2040.63" y1="954.55" x2="2040.63" y2="566.8" xlink:href="#未命名漸層_21"/><linearGradient id="未命名漸層_21-53" x1="-1219.39" y1="1008.69" x2="-1219.39" y2="566.57" xlink:href="#未命名漸層_21"/><linearGradient id="未命名漸層_21-54" x1="4944.46" y1="992.4" x2="4944.46" y2="723.94" xlink:href="#未命名漸層_21"/><linearGradient id="未命名漸層_21-55" x1="3587.83" y1="954.55" x2="3587.83" y2="566.8" xlink:href="#未命名漸層_21"/><linearGradient id="未命名漸層_21-56" x1="490.85" y1="1009.32" x2="490.85" y2="618.99" xlink:href="#未命名漸層_21"/><linearGradient id="未命名漸層_21-57" x1="2040.99" y1="1009.32" x2="2040.99" y2="621.57" xlink:href="#未命名漸層_21"/><linearGradient id="未命名漸層_21-58" x1="-1219.03" y1="1063.46" x2="-1219.03" y2="621.34" xlink:href="#未命名漸層_21"/><linearGradient id="未命名漸層_21-59" x1="4944.83" y1="1047.17" x2="4944.83" y2="778.71" xlink:href="#未命名漸層_21"/><linearGradient id="未命名漸層_21-60" x1="3588.19" y1="1009.32" x2="3588.19" y2="621.57" xlink:href="#未命名漸層_21"/></defs><g id="圖層_2" data-name="圖層 2"><g id="背景"><g class="cls-2"><g class="cls-3"><path class="cls-4" d="M3133.22,169.19c-195.77-46.83-484.33,83.8-484.33,83.8-107.68,48.78-199.85,119.45-322,131-151.27,14.33-285.4-92.6-396.21-179.77C1824.31,120.62,1704.81,40.1,1570.78,10.84c-2.53-.41-5-1-7.54-1.47-1.7-.13-3.39-.28-5.09-.44-1,0-2.07-.09-3.11-.1a2.92,2.92,0,0,1-1.43-.36c-18.63-2.06-37.18-5.3-55.93-5.92,0,44.15,0,737.52,0,737.52H3432V440.35S3329,216,3133.22,169.19Z" transform="translate(380.35 534.93)"/><path class="cls-5" d="M4600.59,2.83c-1.78,0-3.55-.07-5.33-.16-5.07-.24-10.13-.6-15.2-.65-9.46-.1-18.82,1.47-28.25,1.69-5.46.63-10.92,1.35-16.38,2-137.54,22.6-259.34,113.26-367.79,198.57-110.81,87.17-245,194.1-396.21,179.77-122.2-11.58-214.37-82.25-322-131,0,0-288.57-130.63-484.33-83.8s-298.74,271.16-298.74,271.16V740.07H4600.59Z" transform="translate(380.35 534.93)"/><path class="cls-6" d="M1497.64,2.55c-1.09,0-2.19-.07-3.29-.09-19.56-.32-39,2.51-58.42,4.17-2.39.32-4.8.53-7.19.8a2.71,2.71,0,0,1-1,.28c-1.38.13-2.76.29-4.14.47-.79.15-1.58.32-2.35.52a3,3,0,0,1-1.45,0c-5,.75-9.9,1.72-14.81,2.81C1282.25,41.16,1175.1,125,1077.29,204.25,969.71,291.42,839.48,398.35,692.61,384,574,372.44,484.48,301.77,379.94,253c0,0-280.17-130.63-470.24-83.8s-290,271.16-290,271.16V740.07h1878S1497.65,46.68,1497.64,2.55Z" transform="translate(380.35 534.93)"/><path id="Path_8" data-name="Path 8" class="cls-7" d="M7315.65,740.07H5754.11V440.35s103-224.32,298.74-271.16S6537.19,253,6537.19,253c107.67,48.76,199.83,119.44,322,131,101.45,9.62,194.7-48.9,296.25-34.95,160.19,22,139.67,105.92,160.19,91" transform="translate(380.35 534.93)"/><path class="cls-8" d="M6236.14,169.19c-195.77-46.83-484.33,83.8-484.33,83.8C5644.13,301.77,5552,372.44,5429.76,384c-151.27,14.33-285.4-92.6-396.21-179.77-92.42-72.69-194.79-143-308-179.4l-4.63-1.27c-4.87-1.38-9.77-2.66-14.67-3.91-8.15-2.08-16.32-4.09-24.43-6.33-4.3-.59-8.56-1.3-12.81-2.21C4649.71,7,4630.1,3.67,4610.36,3c-3.25-.11-6.51-.13-9.76-.19,0,46.75,0,737.24,0,737.24H6534.88V440.35S6431.91,216,6236.14,169.19Z" transform="translate(380.35 534.93)"/><line class="cls-1" x1="7679.88" y1="1275" x2="7679.88" y2="1436"/><line class="cls-1" x1="7679.88" y1="693.52" x2="7679.88" y2="1275"/><line class="cls-1" x1="7680" x2="7680" y2="693.52"/><path id="Path_8-2" data-name="Path 8" class="cls-9" d="M1499.61,20.34c162.92-21.2,307.33,105.37,432.46,203.91,110.69,87.17,244.68,194.1,395.78,179.77,122.07-11.58,214.13-82.25,321.69-131,0,0,209.72-95.05,392.75-93.93" transform="translate(380.35 534.93)"/><path id="Path_8-3" data-name="Path 8" class="cls-10" d="M3042.29,179.35C3228.46,173,3449.15,273,3449.15,273c107.56,48.77,199.63,119.44,321.69,131,151.1,14.33,285.09-92.6,395.78-179.77,125.14-98.54,269.11-192.55,433-203.68" transform="translate(380.35 534.93)"/><path id="Path_8-4" data-name="Path 8" class="cls-11" d="M-376.35,460.35S-276.49,236-86.62,189.19,383.1,273,383.1,273c104.43,48.77,193.81,119.44,312.32,131,146.71,14.33,276.8-92.6,384.27-179.77,121.49-98.54,260.73-192.78,419.88-203.91" transform="translate(380.35 534.93)"/><path id="Path_8-5" data-name="Path 8" class="cls-12" d="M6137.76,178.57C6326.35,167.18,6533.55,273,6533.55,273c107.56,48.76,199.61,119.44,321.67,131,101.34,9.62,194.48-48.9,295.92-34.95,129.67,17.83,154.58,50.19,159.37,75.32" transform="translate(380.35 534.93)"/><path id="Path_8-6" data-name="Path 8" class="cls-13" d="M4598.65,20.57c163.91,11.13,307.78,105.14,432.92,203.68,110.69,87.17,244.68,194.1,395.78,179.77,122.06-11.58,214.13-82.25,321.69-131,0,0,205.44-83.92,388.72-94.43" transform="translate(380.35 534.93)"/><path class="cls-14" d="M1500,75.11C1662.89,53.91,1807.3,180.48,1932.44,279c110.69,87.17,244.68,194.09,395.78,179.76,122.06-11.57,214.13-82.25,321.69-131,0,0,209.72-95,392.74-93.93" transform="translate(380.35 534.93)"/><path class="cls-15" d="M3042.65,234.12c186.18-6.37,406.87,93.65,406.87,93.65,107.56,48.77,199.62,119.45,321.68,131C3922.31,473.12,4056.29,366.2,4167,279c125.14-98.55,269.12-192.55,433-203.69" transform="translate(380.35 534.93)"/><path class="cls-16" d="M-376,515.12S-276.12,290.81-86.26,244s469.72,83.8,469.72,83.8c104.43,48.77,193.82,119.45,312.33,131C842.49,473.12,972.58,366.2,1080.05,279c121.5-98.55,260.74-192.78,419.88-203.92" transform="translate(380.35 534.93)"/><path class="cls-17" d="M6138.12,233.34c188.6-11.39,395.79,94.43,395.79,94.43,107.56,48.77,199.62,119.44,321.67,131,101.34,9.62,194.48-48.9,295.93-35,129.66,17.83,154.58,50.19,159.37,75.33" transform="translate(380.35 534.93)"/><path class="cls-18" d="M4599,75.34C4762.93,86.48,4906.79,180.48,5031.93,279c110.69,87.17,244.68,194.09,395.78,179.76,122.06-11.57,214.13-82.25,321.69-131,0,0,205.44-83.91,388.72-94.43" transform="translate(380.35 534.93)"/><path class="cls-19" d="M1500.34,129.89c162.92-21.2,307.32,105.36,432.46,203.91,110.69,87.17,244.68,194.1,395.78,179.77,122.06-11.58,214.13-82.26,321.69-131,0,0,209.72-95.05,392.74-93.93" transform="translate(380.35 534.93)"/><path class="cls-20" d="M3043,288.89c186.18-6.37,406.87,93.65,406.87,93.65,107.56,48.77,199.62,119.45,321.69,131,151.1,14.33,285.09-92.6,395.78-179.77,125.14-98.55,269.11-192.55,433-203.68" transform="translate(380.35 534.93)"/><path class="cls-21" d="M-375.63,569.89S-275.76,345.58-85.9,298.74s469.72,83.8,469.72,83.8c104.43,48.77,193.82,119.45,312.33,131C842.86,527.9,972.94,421,1080.41,333.8c121.5-98.55,260.74-192.78,419.88-203.91" transform="translate(380.35 534.93)"/><path class="cls-22" d="M6138.49,288.12c188.59-11.4,395.79,94.42,395.79,94.42,107.55,48.77,199.61,119.44,321.67,131,101.33,9.62,194.47-48.89,295.92-34.94,129.66,17.82,154.58,50.19,159.37,75.32" transform="translate(380.35 534.93)"/><path class="cls-23" d="M4599.38,130.12c163.91,11.13,307.78,105.13,432.91,203.68C5143,421,5277,527.9,5428.07,513.57c122.07-11.58,214.13-82.26,321.69-131,0,0,205.45-83.91,388.73-94.42" transform="translate(380.35 534.93)"/><path class="cls-24" d="M1500.7,184.66C1663.62,163.46,1808,290,1933.17,388.57c110.69,87.17,244.67,194.1,395.77,179.77,122.07-11.58,214.13-82.25,321.69-131,0,0,209.72-95.05,392.75-93.93" transform="translate(380.35 534.93)"/><path class="cls-25" d="M3043.38,343.67c186.17-6.38,406.86,93.64,406.86,93.64,107.56,48.78,199.63,119.45,321.69,131,151.1,14.33,285.09-92.6,395.78-179.77,125.14-98.54,269.11-192.55,433-203.68" transform="translate(380.35 534.93)"/><path class="cls-26" d="M-375.26,624.67S-275.4,400.35-85.53,353.51s469.72,83.8,469.72,83.8c104.43,48.78,193.81,119.45,312.32,131,146.71,14.33,276.8-92.6,384.27-179.77,121.49-98.54,260.73-192.78,419.88-203.91" transform="translate(380.35 534.93)"/><path class="cls-27" d="M6138.85,342.89c188.59-11.4,395.79,94.42,395.79,94.42,107.56,48.77,199.62,119.44,321.67,131,101.34,9.62,194.48-48.9,295.92-35,129.67,17.83,154.58,50.19,159.37,75.32" transform="translate(380.35 534.93)"/><path class="cls-28" d="M4599.74,184.89C4763.65,196,4907.52,290,5032.66,388.57c110.69,87.17,244.68,194.1,395.78,179.77,122.06-11.58,214.13-82.25,321.69-131,0,0,205.44-83.91,388.72-94.42" transform="translate(380.35 534.93)"/><path class="cls-29" d="M1501.06,239.43c162.92-21.2,307.33,105.37,432.47,203.92,110.69,87.17,244.68,194.09,395.78,179.76,122.06-11.58,214.13-82.25,321.69-131,0,0,209.72-95,392.74-93.93" transform="translate(380.35 534.93)"/><path class="cls-30" d="M3043.74,398.44c186.18-6.37,406.87,93.65,406.87,93.65,107.56,48.77,199.62,119.44,321.69,131,151.1,14.33,285.08-92.59,395.77-179.76,125.14-98.55,269.12-192.56,433-203.69" transform="translate(380.35 534.93)"/><path class="cls-31" d="M-374.9,679.44S-275,455.12-85.17,408.29s469.72,83.8,469.72,83.8c104.43,48.77,193.82,119.44,312.33,131,146.7,14.33,276.79-92.59,384.26-179.76,121.5-98.55,260.74-192.79,419.88-203.92" transform="translate(380.35 534.93)"/><path class="cls-32" d="M6139.21,397.66c188.6-11.39,395.79,94.43,395.79,94.43,107.56,48.77,199.62,119.44,321.67,131,101.34,9.62,194.48-48.9,295.93-35C7282.26,606,7307.18,638.35,7312,663.48" transform="translate(380.35 534.93)"/><path class="cls-33" d="M4600.1,239.66C4764,250.79,4907.88,344.8,5033,443.35c110.69,87.17,244.68,194.09,395.78,179.76,122.06-11.58,214.13-82.25,321.69-131,0,0,205.44-83.92,388.72-94.43" transform="translate(380.35 534.93)"/><path class="cls-34" d="M1501.43,294.2c162.92-21.19,307.32,105.37,432.46,203.92,110.69,87.17,244.68,194.09,395.78,179.76,122.06-11.57,214.13-82.25,321.69-131,0,0,209.72-95.05,392.75-93.93" transform="translate(380.35 534.93)"/><path class="cls-35" d="M3044.1,453.21c186.18-6.37,406.87,93.65,406.87,93.65,107.56,48.77,199.62,119.45,321.69,131,151.1,14.33,285.09-92.59,395.78-179.76,125.14-98.55,269.11-192.55,433-203.69" transform="translate(380.35 534.93)"/><path class="cls-36" d="M-374.53,734.21S-274.67,509.9-84.81,463.06s469.72,83.8,469.72,83.8c104.43,48.77,193.82,119.45,312.33,131C844,692.21,974,585.29,1081.5,498.12c121.5-98.55,260.74-192.78,419.88-203.92" transform="translate(380.35 534.93)"/><path class="cls-37" d="M6139.58,452.43c188.59-11.39,395.79,94.43,395.79,94.43C6642.92,595.63,6735,666.3,6857,677.88c101.33,9.62,194.47-48.89,295.92-35,129.67,17.83,154.58,50.19,159.37,75.33" transform="translate(380.35 534.93)"/><path class="cls-38" d="M4600.47,294.43c163.91,11.14,307.78,105.14,432.92,203.69,110.69,87.17,244.67,194.09,395.77,179.76,122.07-11.57,214.13-82.25,321.69-131,0,0,205.45-83.91,388.73-94.43" transform="translate(380.35 534.93)"/><path class="cls-39" d="M1501.79,349c162.92-21.2,307.33,105.36,432.47,203.91C2045,640.06,2178.93,747,2330,732.66c122.07-11.58,214.13-82.26,321.69-131,0,0,209.72-95.05,392.75-93.93" transform="translate(380.35 534.93)"/><path class="cls-40" d="M3044.47,508c186.17-6.37,406.86,93.65,406.86,93.65C3558.89,650.4,3651,721.08,3773,732.66c151.1,14.33,285.09-92.6,395.78-179.77,125.14-98.55,269.11-192.55,433-203.68" transform="translate(380.35 534.93)"/><path class="cls-41" d="M-374.17,789s99.86-224.32,289.73-271.16,469.72,83.8,469.72,83.8c104.43,48.77,193.81,119.45,312.32,131,146.71,14.33,276.8-92.6,384.27-179.77C1203.36,454.34,1342.6,360.11,1501.75,349" transform="translate(380.35 534.93)"/><path class="cls-42" d="M6139.94,507.21c188.59-11.4,395.79,94.42,395.79,94.42,107.56,48.77,199.62,119.44,321.67,131,101.34,9.61,194.48-48.9,295.92-34.95C7283,715.53,7307.91,747.9,7312.69,773" transform="translate(380.35 534.93)"/><path class="cls-43" d="M4600.83,349.21c163.91,11.13,307.78,105.13,432.92,203.68,110.69,87.17,244.68,194.1,395.78,179.77,122.06-11.58,214.13-82.26,321.69-131,0,0,205.44-83.91,388.72-94.42" transform="translate(380.35 534.93)"/><path class="cls-44" d="M1502.15,403.75c162.92-21.2,307.33,105.37,432.47,203.91,110.69,87.17,244.68,194.1,395.78,179.77,122.06-11.58,214.13-82.25,321.69-131,0,0,209.72-95,392.74-93.93" transform="translate(380.35 534.93)"/><path class="cls-45" d="M3044.83,562.76C3231,556.38,3451.7,656.4,3451.7,656.4c107.56,48.78,199.62,119.45,321.69,131,151.1,14.33,285.08-92.6,395.77-179.77,125.14-98.54,269.12-192.55,433-203.68" transform="translate(380.35 534.93)"/><path class="cls-46" d="M-373.81,843.76S-273.94,619.44-84.08,572.6s469.72,83.8,469.72,83.8c104.43,48.78,193.82,119.45,312.33,131,146.7,14.33,276.79-92.6,384.26-179.77,121.5-98.54,260.74-192.78,419.88-203.91" transform="translate(380.35 534.93)"/><path class="cls-47" d="M6140.3,562c188.6-11.39,395.79,94.42,395.8,94.42,107.55,48.77,199.61,119.44,321.66,131,101.34,9.62,194.48-48.9,295.93-34.95,129.66,17.83,154.58,50.19,159.37,75.32" transform="translate(380.35 534.93)"/><path class="cls-48" d="M4601.19,404c163.92,11.13,307.78,105.14,432.92,203.68,110.69,87.17,244.68,194.1,395.78,179.77,122.06-11.58,214.13-82.25,321.69-131,0,0,205.44-83.91,388.72-94.42" transform="translate(380.35 534.93)"/><path class="cls-49" d="M1502.52,458.52c162.92-21.2,307.32,105.37,432.46,203.92,110.69,87.17,244.68,194.09,395.78,179.76,122.07-11.57,214.13-82.25,321.69-131,0,0,209.72-95,392.75-93.93" transform="translate(380.35 534.93)"/><path class="cls-50" d="M3045.19,617.53c186.18-6.37,406.87,93.65,406.87,93.65,107.56,48.77,199.63,119.45,321.69,131,151.1,14.33,285.09-92.59,395.78-179.76,125.14-98.55,269.11-192.56,433-203.69" transform="translate(380.35 534.93)"/><path class="cls-51" d="M-373.44,898.53s99.86-224.31,289.72-271.15S386,711.18,386,711.18C490.43,760,579.82,830.63,698.33,842.2,845,856.53,975.12,749.61,1082.59,662.44c121.5-98.55,260.74-192.78,419.88-203.92" transform="translate(380.35 534.93)"/><path class="cls-52" d="M6140.67,616.75c188.59-11.39,395.79,94.43,395.79,94.43C6644,760,6736.07,830.62,6858.13,842.2c101.33,9.62,194.47-48.9,295.92-35,129.67,17.83,154.58,50.19,159.37,75.32" transform="translate(380.35 534.93)"/><path class="cls-53" d="M4601.56,458.75c163.91,11.13,307.78,105.14,432.92,203.69,110.69,87.17,244.67,194.09,395.77,179.76,122.07-11.57,214.13-82.25,321.69-131,0,0,205.45-83.91,388.73-94.43" transform="translate(380.35 534.93)"/><path class="cls-54" d="M1502.88,513.3c162.92-21.2,307.33,105.36,432.47,203.91C2046,804.38,2180,911.31,2331.12,897c122.07-11.58,214.13-82.26,321.69-131,0,0,209.72-95.05,392.75-93.93" transform="translate(380.35 534.93)"/><path class="cls-55" d="M3045.56,672.3c186.17-6.37,406.86,93.65,406.86,93.65C3560,814.72,3652.05,885.4,3774.11,897c151.1,14.33,285.09-92.6,395.78-179.77,125.14-98.55,269.12-192.55,433-203.69" transform="translate(380.35 534.93)"/><path class="cls-56" d="M-373.08,953.3S-273.22,729-83.35,682.15,386.37,766,386.37,766C490.8,814.72,580.18,885.4,698.69,897c146.71,14.33,276.8-92.6,384.27-179.77,121.49-98.55,260.73-192.78,419.88-203.91" transform="translate(380.35 534.93)"/><path class="cls-57" d="M6141,671.52C6329.62,660.13,6536.82,766,6536.82,766c107.56,48.77,199.62,119.44,321.67,131,101.34,9.62,194.48-48.89,295.93-35,129.66,17.83,154.58,50.19,159.36,75.33" transform="translate(380.35 534.93)"/><path class="cls-58" d="M4601.92,513.52c163.91,11.14,307.78,105.14,432.92,203.69,110.69,87.17,244.68,194.1,395.78,179.77,122.06-11.58,214.13-82.26,321.69-131,0,0,205.44-83.91,388.72-94.43" transform="translate(380.35 534.93)"/><path class="cls-59" d="M1503.24,568.07c162.92-21.2,307.33,105.36,432.47,203.91,110.69,87.17,244.68,194.1,395.78,179.77,122.06-11.58,214.13-82.26,321.69-131,0,0,209.72-95.05,392.74-93.93" transform="translate(380.35 534.93)"/><path class="cls-60" d="M3045.92,727.08c186.18-6.38,406.87,93.64,406.87,93.64,107.56,48.77,199.62,119.45,321.69,131,151.1,14.33,285.08-92.6,395.77-179.77,125.14-98.55,269.12-192.55,433-203.68" transform="translate(380.35 534.93)"/><path class="cls-61" d="M-372.72,1008.08S-272.85,783.76-83,736.92s469.72,83.8,469.72,83.8c104.43,48.77,193.82,119.45,312.33,131,146.7,14.33,276.79-92.6,384.26-179.77,121.5-98.55,260.74-192.78,419.88-203.91" transform="translate(380.35 534.93)"/><path class="cls-62" d="M6141.39,726.3c188.6-11.4,395.8,94.42,395.8,94.42,107.55,48.77,199.61,119.44,321.66,131,101.34,9.61,194.48-48.9,295.93-35,129.66,17.83,154.58,50.19,159.37,75.32" transform="translate(380.35 534.93)"/><path class="cls-63" d="M4602.28,568.3C4766.2,579.43,4910.06,673.43,5035.2,772c110.69,87.17,244.68,194.1,395.78,179.77,122.07-11.58,214.13-82.26,321.69-131,0,0,205.44-83.91,388.72-94.42" transform="translate(380.35 534.93)"/><path id="Path_8-7" data-name="Path 8" class="cls-64" d="M1503.61,622.84c162.92-21.2,307.32,105.37,432.46,203.91,110.69,87.17,244.68,194.1,395.78,179.77,122.07-11.58,214.13-82.25,321.69-131,0,0,209.72-95,392.75-93.93" transform="translate(380.35 534.93)"/><path id="Path_8-8" data-name="Path 8" class="cls-65" d="M3046.28,781.85c186.18-6.38,406.87,93.64,406.87,93.65,107.56,48.77,199.63,119.44,321.69,131,151.1,14.33,285.09-92.6,395.78-179.77,125.14-98.54,269.11-192.55,433-203.68" transform="translate(380.35 534.93)"/><path id="Path_8-9" data-name="Path 8" class="cls-66" d="M-372.35,1062.85s99.86-224.32,289.72-271.16,469.72,83.8,469.72,83.81c104.43,48.77,193.82,119.44,312.33,131,146.71,14.33,276.79-92.6,384.26-179.77,121.5-98.54,260.74-192.78,419.88-203.91" transform="translate(380.35 534.93)"/><path id="Path_8-10" data-name="Path 8" class="cls-67" d="M6141.76,781.07c188.59-11.39,395.79,94.42,395.79,94.43,107.55,48.76,199.61,119.44,321.67,131,101.33,9.62,194.48-48.9,295.92-34.95,129.67,17.83,154.58,50.19,159.37,75.32" transform="translate(380.35 534.93)"/><path id="Path_8-11" data-name="Path 8" class="cls-68" d="M4602.65,623.07c163.91,11.13,307.78,105.14,432.92,203.68,110.69,87.17,244.67,194.1,395.77,179.77,122.07-11.58,214.13-82.25,321.69-131,0,0,205.45-83.92,388.73-94.43" transform="translate(380.35 534.93)"/></g></g></g></g></svg>