<svg xmlns="http://www.w3.org/2000/svg" viewBox="0 0 100 100"><defs><style>.cls-1{fill:#f4f4f4;}</style></defs><g id="圖層_2" data-name="圖層 2"><g id="背景"><path class="cls-1" d="M15.46,65.07c-.08-1.34-1-2.29-1.91-1.88a2.34,2.34,0,0,0-1,2.29c.34,5.87,1.75,12.12,4.73,12.12.81,0,1.48-.95,1.49-2.14s-.62-2.13-1.42-2.14h0c-.37-.2-1.53-2.62-1.84-8.25Z"/><path class="cls-1" d="M12.75,56.72A2.2,2.2,0,0,0,14,59.19c.8.2,1.56-.59,1.7-1.76.44-3.78,1.24-5.52,1.59-5.82.57.48,1.86,4.12,1.86,10.81,0,1.19.66,2.15,1.47,2.15s1.47-1,1.47-2.15c0-7.29-1.5-15.13-4.8-15.13C15.09,47.29,13.45,50.72,12.75,56.72Z"/><path class="cls-1" d="M23.08,50.17c.28,1.11,1.12,1.69,1.89,1.29a2.51,2.51,0,0,0,.88-2.75A29,29,0,0,0,22.92,41a1.18,1.18,0,0,0-2.08-.24,2.87,2.87,0,0,0-.16,3A24.59,24.59,0,0,1,23.08,50.17Z"/><path class="cls-1" d="M10.24,72.1a54.69,54.69,0,0,1-.85-9.77c0-11.68,3.45-21.54,7.53-21.54.81,0,1.47-1,1.47-2.15s-.66-2.15-1.47-2.15c-5.87,0-10.47,11.35-10.47,25.84a59.84,59.84,0,0,0,1,10.89c.2,1.14,1,1.83,1.79,1.54a2.36,2.36,0,0,0,1.06-2.62Z"/><path class="cls-1" d="M27.39,62.33c0-1.19-.66-2.15-1.47-2.15s-1.48,1-1.48,2.15C24.44,74,21,83.87,16.92,83.87c-1.88,0-3.77-2.25-5.2-6.16-.38-1-1.27-1.44-2-.89a2.7,2.7,0,0,0-.61,2.9c2,5.45,4.75,8.44,7.8,8.44C22.79,88.16,27.39,76.81,27.39,62.33Z"/><path class="cls-1" d="M50,37.74H37.41c-.75,0-1.42.78-1.52,1.87-.1,1.31.59,2.42,1.47,2.42H49.94c.76,0,1.43-.79,1.52-1.88C51.57,38.85,50.87,37.74,50,37.74Z"/><path class="cls-1" d="M64.86,37.74H59.8c-.76,0-1.43.78-1.52,1.87-.11,1.31.59,2.42,1.46,2.42H64.8c.75,0,1.43-.79,1.52-1.88C66.43,38.85,65.73,37.74,64.86,37.74Z"/><path class="cls-1" d="M91.85,70.25c0-1.19-.66-2.15-1.48-2.15H56.09c-.76,0-1.43.79-1.52,1.88-.11,1.3.59,2.42,1.46,2.42H90.37C91.19,72.39,91.85,71.43,91.85,70.25Z"/><path class="cls-1" d="M96,86.54a70.5,70.5,0,0,0,4-24.26c0-2.27-.1-4.53-.28-6.77a2.31,2.31,0,0,0,0-.37A66.41,66.41,0,0,0,96.51,39.4a2.46,2.46,0,0,0-.29-.84c-3.11-8.54-7.86-14-13.17-14H66.93L56.93,4l-.07-.11C55.51,1.32,52.22,0,49,0,44.7,0,40.4,2.21,40.4,6.45A6,6,0,0,0,40.6,8l3.8,16.57H17C7.61,24.55,0,41.47,0,62.27S7.6,100,17,100h66.1c5,0,9.52-4.87,12.63-12.6a2.61,2.61,0,0,0,.33-.86ZM47.81,26.08,44.64,12.23a11.51,11.51,0,0,0,4.3.81h.19L54.8,30c-3.7-.3-6.26-1.73-7-4Zm10.25,3.68L52.25,12.34a8,8,0,0,0,4-2.45L64.55,27c-.6.93-2.88,2.4-6.48,2.77ZM48.88,4.29c3.34,0,5.24,1.44,5.58,2.13a0,0,0,0,0,0,0h0c-.28.61-1.8,1.82-4.46,2.1a.66.66,0,0,0-.2,0c-.3,0-.6,0-.93,0-3.37,0-5.28-1.47-5.59-2.16.31-.69,2.22-2.16,5.59-2.16Zm-46,58c0-18.46,6.29-33.47,14-33.47s14,15,14,33.47a65.32,65.32,0,0,1-3.6,22.35,2.67,2.67,0,0,0-.23.6C24.55,91.75,20.93,95.8,16.92,95.8c-7.73,0-14-15-14-33.47ZM83.06,95.71H24.75A29.62,29.62,0,0,0,29.29,88H49.94c.76,0,1.43-.79,1.52-1.88.11-1.31-.59-2.42-1.46-2.42H30.85a64.47,64.47,0,0,0,2.4-11.34H41.9c.76,0,1.43-.79,1.52-1.88.11-1.31-.59-2.42-1.46-2.42H33.68q.21-2.92.21-5.86c0-1.55,0-3.07-.13-4.57H74.39c.76,0,1.43-.79,1.52-1.88.11-1.3-.59-2.41-1.46-2.41h-41c-1.15-10.66-4.35-19.57-8.61-24.54H45.75c1.61,3.39,5.25,5.24,10.43,5.24.27,0,.55,0,.82,0h.32c4.26-.19,8.55-1.85,9.81-5.21h16c3.66,0,7,3.38,9.47,8.9H73.83c-.75,0-1.42.78-1.51,1.87-.11,1.31.58,2.42,1.46,2.42H94.25A60.77,60.77,0,0,1,96.6,53.38H88.37c-.76,0-1.43.79-1.52,1.88-.11,1.3.58,2.41,1.46,2.41H97c.08,1.49.13,3,.13,4.53a66.43,66.43,0,0,1-3.3,21.54h-11c-.75,0-1.42.79-1.51,1.88-.11,1.31.58,2.42,1.46,2.42H92c-2.44,4.78-5.56,7.67-9,7.67Z"/><path class="cls-1" d="M74.45,83.74H69c-.75,0-1.42.79-1.51,1.88C67.4,86.93,68.09,88,69,88h5.42c.76,0,1.43-.79,1.52-1.88.11-1.31-.59-2.42-1.46-2.42Z"/></g></g></svg>