<svg xmlns="http://www.w3.org/2000/svg" xmlns:xlink="http://www.w3.org/1999/xlink" viewBox="0 0 898.3 756.55"><defs><style>.cls-1{fill:none;}.cls-2{fill:#1d9dcc;}.cls-3{clip-path:url(#clip-path);}.cls-4{fill:#1682aa;}.cls-5{fill:#ffcc17;}</style><clipPath id="clip-path"><polygon class="cls-1" points="0.3 698.26 898.3 698.26 898.3 89.26 0.3 89.26 0.3 698.26"/></clipPath><symbol id="新增符號_1" data-name="新增符號 1" viewBox="0 0 898.3 756.55"><path id="Path_10" data-name="Path 10" class="cls-2" d="M.3,6.14S65.6-16.71,93.19,25.76s107.46,76.47,107.46,76.47l60.68,60.26s24.72,48.71,99,64.91,107.65,24,188,92.87,146,172.94,146,172.94L807.77,594.56l83.58,102.7H.3Z"/><g class="cls-3"><path id="Path_2" data-name="Path 2" class="cls-4" d="M.3,702.26h891c-1.56-1.84-22.55-28.83-26.29-33.33-14.87-17.9-31.71-33.42-47.86-50.08-17.14-17.68-34.49-35.3-53.95-50.46-22-17.13-47.94-26.59-68.1-46.38-18.68-18.35-33.26-40.32-50.66-59.8-29.28-32.81-60.88-64-96.09-90.43-80.35-60.35-113.71-67.22-188-81.42C305.79,279.94,278,254.14,267,241.17a182.41,182.41,0,0,0-19.65-19.86l-31.12-27.08a126.39,126.39,0,0,0-32.39-20.5c-25-10.91-71.06-33.64-90.68-60.13C65.59,76.36.3,96.4.3,96.4Z"/><path id="mountian_bottom_1" data-name="mountian bottom 1" class="cls-4" d="M.3,735.74V701.26H889c.89,0,2.64,1.76,3.34,2,2,2,3.55,3.51,1.72,7.2-1.62,3.28-4.75,5.74-7.69,7.78-6,4.13-12.72,7.16-19.43,9.88a335.69,335.69,0,0,1-35.64,11.81c-83.69,23.54-293.36,1.06-302.75,0a4.92,4.92,0,0,0-.67,0H288.77a263.53,263.53,0,0,0-49.27,4.63C194.75,753.06,89.71,768,4.71,741.67A6.23,6.23,0,0,1,.3,735.74Z"/><g id="Path_2-2" data-name="Path 2"><path class="cls-5" d="M890.76,702.21l1.54,1c-.65-.77-5.57-7.75-10.36-13.88-6.48-8.26-14.54-18.54-16.7-21.15C854.75,655.61,843.08,644,831.8,632.7c-4.76-4.74-9.67-9.65-14.45-14.58-18.29-18.86-35-35.68-54-50.5-9.29-7.24-19.43-13.19-29.23-19-13.38-7.86-27.21-16-38.83-27.39-11.06-10.86-20.86-23.22-30.33-35.16-6.5-8.2-13.22-16.68-20.31-24.62-33.28-37.29-64.74-66.89-96.17-90.49-81.32-61.08-114.82-67.49-188.2-81.51-53.63-10.25-81.3-35.12-93-49a183.81,183.81,0,0,0-19.71-19.91l-31.11-27.08a126.75,126.75,0,0,0-32.52-20.58c-25.44-11.12-71-33.69-90.49-60-14.38-19.41-39.05-23.1-57.2-22.77A148.09,148.09,0,0,0,0,95.54l.29,1c.65-.2,65.28-19.5,92.34,17C112.24,140,158,162.66,183.52,173.81a125.9,125.9,0,0,1,32.26,20.42l31.12,27.09a181.78,181.78,0,0,1,19.6,19.8c11.81,14,39.67,39.05,93.6,49.36,73.23,14,106.65,20.38,187.79,81.33,31.38,23.56,62.79,53.12,96,90.35,7.06,7.92,13.78,16.39,20.27,24.58,9.49,12,19.3,24.35,30.41,35.25,11.7,11.5,25.59,19.66,39,27.54,9.78,5.75,19.88,11.68,29.12,18.88,19,14.78,35.63,31.57,53.89,50.41,4.79,4.93,9.7,9.84,14.46,14.59,11.27,11.25,22.92,22.88,33.38,35.46,2.16,2.6,10.21,12.87,16.68,21.13,4.8,6.13,9,11.42,9.61,12.21"/></g><path class="cls-5" d="M811.36,699.09a46.72,46.72,0,0,1-4.2-4.26c-6-7.68-12.89-16.4-14.85-18.74-9.62-11.53-20.31-22.18-30.66-32.49-4.35-4.33-8.85-8.81-13.22-13.31-16.76-17.24-32-32.61-49.46-46.17-8.51-6.62-17.79-12.08-26.76-17.35-12.23-7.2-24.89-14.63-35.53-25.06-10.13-9.92-19.11-21.2-27.79-32.11-6-7.49-12.14-15.24-18.64-22.5C559.74,453,530.92,426,502.14,404.39,427.7,348.52,397.07,342.59,330,329.6c-48.86-9.43-74.31-32.21-85.13-45-5-5.9-11-12.67-18.08-18.22l-15.26-13.27-13.23-11.5c-11-8.75-20.41-14.74-29.75-18.84-23.26-10.23-64.95-31-82.77-54.93C63.55,138,15.25,147.8,1,151.51l-.6.15.09.47-.36.4c.21.19.24.18,1.13-.05,14.12-3.67,61.9-13.35,83.71,16,18,24.14,59.82,45,83.17,55.24,9.26,4.07,18.64,10,29.53,18.71l13.19,11.48,15.3,13.3c7,5.49,13,12.22,17.94,18.07,10.9,12.84,36.54,35.8,85.7,45.29,67,13,97.52,18.88,171.77,74.61,28.73,21.55,57.5,48.56,88,82.58,6.48,7.23,12.64,15,18.6,22.46,8.7,10.93,17.7,22.23,27.87,32.2,10.73,10.5,23.44,18,35.73,25.2,8.94,5.26,18.19,10.7,26.64,17.28C715.72,598.43,731,613.78,747.71,631c4.38,4.5,8.88,9,13.24,13.32,10.33,10.29,21,20.92,30.59,32.42,2,2.33,8.8,11,14.83,18.72,4.63,5.89,10.28,9,10.93,9.81l34,28c-.54-.63-28.63-23.63-39.94-34.17"/><path class="cls-5" d="M740.55,712.18l32.75,36.08c-.64-.73-36.73-42.66-41.07-48.15C727,693.5,721.12,686,719.38,684c-8.79-10.45-18.53-20.13-27.94-29.5-3.93-3.9-8-7.94-11.94-12-15.22-15.61-29.1-29.54-44.92-41.84-7.73-6-16.14-11-24.28-15.75-11.1-6.53-22.57-13.29-32.24-22.73-9.19-9-17.36-19.18-25.26-29-5.43-6.79-11-13.81-17-20.38-27.73-30.84-53.92-55.35-80.05-74.94-67.55-50.66-95.31-56.12-156.15-68.08-44.23-8.63-67.38-29.31-77.24-40.86-4.83-5.66-10.16-11.58-16.43-16.51l-13.9-12.06-12-10.4c-9.95-7.95-18.53-13.39-27-17.12-21.1-9.34-58.9-28.24-75.06-49.88-8.9-11.94-23.36-18.34-43-19a126.73,126.73,0,0,0-33.22,3.69c-.56.13-1,.24-1.15.25l.05.45-.37.42c.22.2.22.2,1.7-.15,49.16-11.57,68.93,6.6,75.16,15,16.3,21.82,54.27,40.81,75.45,50.19,8.39,3.7,16.9,9.1,26.78,17L191.42,301c10.22,8.88,13.86,12,13.93,12.09a116.63,116.63,0,0,1,16.29,16.38c10,11.65,33.28,32.5,77.8,41.19,60.69,11.93,88.39,17.38,155.75,67.9,26.08,19.55,52.22,44,79.91,74.81,5.89,6.55,11.5,13.56,16.92,20.33,7.92,9.9,16.11,20.12,25.35,29.15,9.74,9.52,21.27,16.31,32.42,22.87,8.11,4.78,16.5,9.71,24.17,15.68,15.77,12.26,29.63,26.16,44.83,41.75,4,4.05,8,8.09,11.94,12,9.4,9.35,19.12,19,27.89,29.44,1.72,2,7.62,9.52,12.83,16.12C736,706.47,739.9,711.43,740.55,712.18Z"/><path class="cls-5" d="M652.85,699.76c-2.91-3.67-5.38-6.75-6.39-8-8-9.37-16.73-18.08-25.21-26.49-3.51-3.49-7.14-7.08-10.67-10.69-13.68-14-26.17-26.47-40.39-37.51-6.94-5.39-14.5-9.85-21.8-14.15-10-5.87-20.26-11.94-28.94-20.39-8.27-8.05-15.62-17.18-22.73-26-4.9-6.08-10-12.37-15.29-18.26-25-27.61-48.51-49.58-72-67.16-58.33-43.7-83.6-50-140.13-61.36C229.78,402,208.9,383.38,200,373a108.76,108.76,0,0,0-14.78-14.8L172.8,347.47l-10.86-9.41c-8.94-7.14-16.64-12-24.24-15.4C95.82,304,78,288,70.36,277.83c-12.09-16.16-35.49-21.08-67.67-14.22-.8.17-1.49.32-1.64.32l0,.43-.39.44c.24.21.24.21,2.22-.21,31.77-6.77,54.82-2,66.66,13.84,7.67,10.22,25.66,26.35,67.74,45.14,7.51,3.34,15.14,8.19,24,15.27l10.82,9.38L184.57,359a106.79,106.79,0,0,1,14.64,14.67c9,10.47,30.08,29.23,69.9,37.11,56.38,11.29,81.57,17.61,139.73,61.18,23.43,17.54,46.93,39.46,71.85,67,5.31,5.87,10.36,12.15,15.25,18.22,7.13,8.85,14.5,18,22.81,26.09,8.77,8.54,19.12,14.64,29.13,20.54,7.28,4.29,14.81,8.73,21.69,14.08,14.18,11,26.64,23.46,40.3,37.42,3.53,3.61,7.16,7.21,10.67,10.7,8.47,8.4,17.23,17.09,25.15,26.43,1.53,1.8,6.62,8.22,11.11,13.89,4.3,5.42,8,10.1,8.65,10.82l21.85,33.09c-.63-.69-25.61-39.35-29.71-44.53-1.61-2-3.23-4.08-4.74-6"/><path class="cls-5" d="M590.35,722.15l19.95,22.11c-.61-.66-23.43-28-27.25-32.76-4-5-8.17-10.25-9.52-11.83-7.11-8.29-14.91-16-22.46-23.48-3.09-3.06-6.29-6.22-9.41-9.4-12.15-12.36-23.24-23.39-35.86-33.17a180.94,180.94,0,0,0-19.33-12.55c-8.82-5.21-17.94-10.6-25.64-18.06-7.33-7.11-13.87-15.16-20.2-23-4.36-5.38-8.87-10.94-13.61-16.15-22.18-24.39-43.09-43.81-63.93-59.37-51.71-38.7-74.07-44.4-124.1-54.65-34.83-7-53.45-23.5-61.45-32.71a96.48,96.48,0,0,0-13.14-13.1c-.2-.16-5.94-5.13-11-9.51-5.89-5.11-9.49-8.22-9.61-8.31-7.93-6.33-14.76-10.67-21.48-13.68C101.84,363.34,74.87,349,62.66,332.8c-10.6-14.12-30.52-18.52-59.2-13.08a15.8,15.8,0,0,1-2.07.35v.4l-.42.46c.27.23.45.2,2.69-.23,28.27-5.36,47.85-1.09,58.22,12.7,12.33,16.32,39.45,30.81,60,40.09,6.65,3,13.4,7.28,21.27,13.55l9.58,8.28c6.78,5.87,10.9,9.44,11,9.55a95.7,95.7,0,0,1,13,13c8.08,9.3,26.88,26,62,33,49.87,10.22,72.16,15.9,123.7,54.47,20.79,15.52,41.65,34.9,63.79,59.25,4.72,5.19,9.22,10.73,13.58,16.1,6.34,7.81,12.9,15.89,20.27,23,7.79,7.54,17,13,25.84,18.2a181.42,181.42,0,0,1,19.21,12.48c12.58,9.75,23.64,20.75,35.77,33.09,3.12,3.17,6.32,6.34,9.42,9.4,7.53,7.46,15.32,15.17,22.4,23.42,1.34,1.56,5.49,6.77,9.5,11.8C586.1,716.93,589.71,721.46,590.35,722.15Z"/><path class="cls-5" d="M493.78,700.05c-4.25-4.47-8.63-8.78-12.91-13-2.67-2.64-5.44-5.36-8.13-8.09-10.63-10.74-20.31-20.32-31.33-28.85a163,163,0,0,0-16.85-11c-7.68-4.54-15.62-9.24-22.35-15.72-6.4-6.16-12.12-13.15-17.66-19.9-3.83-4.67-7.79-9.5-11.94-14-19.41-21.17-37.68-38-55.87-51.6C271.39,504,252,499,208.66,490c-30.21-6.3-46.52-20.64-53.55-28.63A87.19,87.19,0,0,0,143.62,450c-.21-.17-5.23-4.5-9.65-8.32-5.09-4.4-8.2-7.08-8.35-7.2A90.17,90.17,0,0,0,106.9,422.5C89.1,414.41,65.64,401.81,55,387.76c-13.63-17.95-41.6-13.38-50.79-11.88a23.71,23.71,0,0,1-2.45.34l0,.36-.44.48c.29.25.57.22,3.09-.19,9-1.48,36.56-6,49.84,11.5,10.79,14.22,34.4,26.9,52.3,35A88.73,88.73,0,0,1,125,435.24c.18.14,4.31,3.71,8.31,7.17l9.69,8.35A85.82,85.82,0,0,1,154.36,462c7.11,8.08,23.6,22.59,54.1,29,43.18,9,62.5,14,107.68,47.75,18.14,13.52,36.37,30.35,55.73,51.47,4.14,4.51,8.09,9.33,11.91,14,5.55,6.78,11.3,13.79,17.74,20,6.81,6.56,14.8,11.29,22.53,15.87a159.41,159.41,0,0,1,16.74,10.88c11,8.48,20.64,18,31.23,28.76,2.71,2.73,5.47,5.45,8.15,8.09,6.61,6.51,13.44,13.24,19.67,20.43,1.17,1.34,4.66,5.68,8,9.89s19.81,19.53,20.43,20.18L516,726.45c-.59-.62-4-4.88-7.32-9s-6.87-8.56-8-9.92c-2.21-2.55-4.5-5-6.82-7.48"/><path class="cls-5" d="M445.3,738.26l-4.45-6.83c-.56-.58-3.59-4.32-6.52-7.93-2.78-3.42-5.64-7-6.66-8.11-5.42-6.14-11.3-11.9-17-17.48-2.29-2.25-4.59-4.5-6.87-6.78-9.09-9.11-17.37-17.25-26.79-24.52a142.12,142.12,0,0,0-14.37-9.35c-6.54-3.88-13.31-7.9-19.06-13.39A198.4,198.4,0,0,1,328.46,627c-3.29-4-6.7-8.06-10.27-11.9-16.62-17.94-32.26-32.27-47.81-43.82-38.69-28.85-56.17-33.48-92-41.22-25.54-5.5-39.57-17.74-45.66-24.55a78.21,78.21,0,0,0-9.84-9.68c-.22-.17-4.48-3.84-8.25-7.08-4.31-3.71-7-6-7.13-6.12a79.39,79.39,0,0,0-16-10.23c-21.72-10-37-20.29-44.22-29.69C36,428,13.34,431,4.83,432.09a20.86,20.86,0,0,1-2.76.28.55.55,0,0,1,.14.08l-.67.75c.32.28.82.23,3.42-.12C13.32,432,35.51,429,46.49,443.34c7.3,9.53,22.72,19.9,44.59,30a78.1,78.1,0,0,1,15.76,10.1l7.1,6.1c4.87,4.19,8.07,7,8.28,7.11a76.93,76.93,0,0,1,9.72,9.56c6.16,6.89,20.37,19.29,46.19,24.86,35.72,7.7,53.13,12.32,91.66,41,15.49,11.51,31.09,25.81,47.67,43.7,3.55,3.83,7,7.91,10.23,11.86a200,200,0,0,0,15.21,16.93c5.83,5.57,12.65,9.62,19.24,13.53a143,143,0,0,1,14.27,9.28c9.37,7.24,17.63,15.35,26.69,24.44q3.43,3.42,6.88,6.78c5.68,5.57,11.55,11.32,16.94,17.43,1,1.13,3.86,4.66,6.63,8.08C436.63,727.93,444.7,737.66,445.3,738.26Z"/><path class="cls-5" d="M330.53,699a201.47,201.47,0,0,0-17.9-15.89,121.51,121.51,0,0,0-11.9-7.75c-5.4-3.22-11-6.55-15.75-11.06a168.38,168.38,0,0,1-12.6-13.79c-2.76-3.26-5.61-6.62-8.6-9.79-13.85-14.71-26.85-26.5-39.75-36-32.06-23.83-47.29-28-76-34.5-19.83-4.48-31.48-13.61-37.76-20.47a67.2,67.2,0,0,0-8.2-8l-6.82-5.83c-3.06-2.62-5.7-4.88-5.93-5.06a67.91,67.91,0,0,0-13.21-8.51c-18.16-8.57-30.45-16.86-36.5-24.64-9.1-11.7-26.68-10.05-34.18-9.34a17.57,17.57,0,0,1-3,.17.26.26,0,0,1,.09.05l-.67.75c.36.32,1.06.27,3.67,0,7.34-.69,24.53-2.3,33.3,9,6.15,7.91,18.56,16.3,36.87,24.94a67.08,67.08,0,0,1,13,8.38l5.9,5c4,3.42,6.62,5.67,6.86,5.86a67.29,67.29,0,0,1,8.07,7.85c6.38,7,18.2,16.24,38.28,20.78,29.35,6.63,43.68,10.56,75.65,34.33,12.85,9.5,25.81,21.25,39.61,35.92,3,3.14,5.82,6.5,8.57,9.74A170.27,170.27,0,0,0,284.29,665c4.85,4.58,10.48,7.94,15.93,11.19A122.58,122.58,0,0,1,312,683.9c7.77,6,14.64,12.64,22.16,20.11q2.79,2.75,5.58,5.45c4.76,4.63,9.68,9.41,14.24,14.46.84.93,3.13,3.71,5.34,6.4a51.84,51.84,0,0,0,6,5.94l.44.14c-.54-.52-3.13-3.67-5.63-6.71-2.32-2.82-4.51-5.49-5.37-6.44-4.58-5.07-9.51-9.87-14.28-14.5-1.86-1.81-3.72-3.62-5.57-5.45q-2.22-2.2-4.36-4.3"/><path class="cls-5" d="M285.3,737.26l3,1c-.5-.47-.38,0-2.32-2.28-1.78-2.11-3.45-4.11-4.17-4.88-3.74-4-7.73-7.83-11.59-11.53L266,715.46a198.59,198.59,0,0,0-17.73-15.85,99.73,99.73,0,0,0-9.41-6.15,72.87,72.87,0,0,1-12.46-8.73A139.47,139.47,0,0,1,216.29,674c-2.22-2.54-4.52-5.18-6.92-7.66a249.7,249.7,0,0,0-31.69-28.26c-24.24-17.93-36.3-22-60-27.78-15.41-3.73-24.76-11-29.88-16.4l-.12-.12a57.57,57.57,0,0,0-6.43-6.14c-.28-.21-3-2.55-5.46-4.62s-4.41-3.75-4.67-4a56.49,56.49,0,0,0-10.45-6.78c-14.5-7.07-23.92-13.48-28.8-19.61-6.94-8.73-19.82-8.2-26-7.95a14.68,14.68,0,0,1-3.13,0l-.63.77c.41.37,1.29.35,3.8.25,6-.25,18.56-.76,25.19,7.57,5,6.25,14.5,12.76,29.15,19.89a56.51,56.51,0,0,1,10.26,6.66c.24.19,2.48,2.09,4.65,3.93,2.55,2.18,5.19,4.42,5.49,4.65a57.26,57.26,0,0,1,6.32,6l.11.12c5.22,5.52,14.72,12.9,30.37,16.68,24,5.83,35.42,9.71,59.63,27.62A249.06,249.06,0,0,1,208.65,667c2.38,2.47,4.67,5.09,6.89,7.63a141.1,141.1,0,0,0,10.14,10.82c3.86,3.6,8.32,6.27,12.62,8.86a97.92,97.92,0,0,1,9.33,6.08,195.76,195.76,0,0,1,17.63,15.78c1.42,1.38,2.85,2.74,4.27,4.11,3.85,3.69,7.83,7.51,11.55,11.49.7.75,2.45,2.83,4.13,4.84C287.36,739.18,284.75,736.75,285.3,737.26Z"/><path class="cls-5" d="M162.32,699.75c-.72-.76-1.42-1.53-2.12-2.29-1.69-1.84-3.44-3.74-5.25-5.54a203.66,203.66,0,0,0-23.62-20.47c-18.09-13.2-27.28-16.55-44-21.07a48.26,48.26,0,0,1-22-12.33l-.45-.45a45.58,45.58,0,0,0-4.44-4.1c-.32-.24-2.31-1.91-4.07-3.38s-3.16-2.65-3.44-2.88a47.82,47.82,0,0,0-7.68-5c-6.76-3.46-16.3-8.75-21.1-14.57s-13.08-6.23-18-6.44a11.54,11.54,0,0,1-3.15-.33l-.67.75c.49.43,1.51.49,3.78.58,4.74.2,12.67.53,17.25,6.08,4.92,6,14.58,11.31,21.41,14.82A46.33,46.33,0,0,1,52.36,628c.27.21,1.87,1.56,3.42,2.85,1.85,1.56,3.76,3.16,4.1,3.42a44.42,44.42,0,0,1,4.34,4l.45.46a49.32,49.32,0,0,0,22.45,12.59c16.54,4.48,25.66,7.81,43.62,20.9a202.76,202.76,0,0,1,23.5,20.38c1.8,1.78,3.54,3.68,5.23,5.51,2.4,2.62,4.89,5.32,7.59,7.76a60.63,60.63,0,0,0,9.32,6.51c2.3,1.4,4.67,2.84,6.86,4.49a159.36,159.36,0,0,1,13.11,11.45l2.82,2.65c3,2.8,6.07,5.68,9,8.65.56.58,1.75,1.94,3,3.38,1.62,1.86,3.15,3.61,3.67,4.07l.66-.76c-.47-.41-2.12-2.3-3.57-4-1.27-1.46-2.47-2.83-3.06-3.43-2.93-3-6-5.88-9-8.68L197,727.63a156.22,156.22,0,0,0-13.19-11.52,78.7,78.7,0,0,0-6.94-4.55,60,60,0,0,1-9.17-6.4c-1.89-1.7-3.68-3.55-5.41-5.41"/><path class="cls-5" d="M77.56,699.85a89.09,89.09,0,0,0-20.48-9.36,39.18,39.18,0,0,1-14.15-8.28l-.62-.57a33.48,33.48,0,0,0-2.61-2.25c-.37-.28-1.58-1.27-2.71-2.19-1-.79-1.87-1.53-2.17-1.76a42.17,42.17,0,0,0-4.91-3.32c-3.46-2-9.91-5.62-13.42-9.54-2.87-3.21-7.07-4.08-10.15-4.71a9,9,0,0,1-3-.88l-.67.74c.61.54,1.8.79,3.45,1.12,2.94.61,7,1.43,9.61,4.39,3.62,4,10.16,7.76,13.67,9.75a40.5,40.5,0,0,1,4.78,3.24c.31.23,1.2,1,2.16,1.74,1.14.94,2.36,1.93,2.74,2.21.88.67,1.72,1.45,2.53,2.2l.63.57a40.06,40.06,0,0,0,14.5,8.49c9.89,3.32,16.54,6.29,27.63,14.2a166.69,166.69,0,0,1,15.46,12.6c1.22,1.11,2.41,2.28,3.57,3.41,1.61,1.57,3.28,3.2,5,4.7a50.58,50.58,0,0,0,6,4.15c1.47.91,3,1.86,4.4,2.91,3,2.22,5.78,4.64,8.59,7.12l.85.75c2.3,2,4.68,4.14,7,6.25.44.41,1.18,1.19,2,2,1.05,1.1,6.59,6.32,7.08,6.71l-3.92-5c-.44-.35-1.5-1.47-2.44-2.45s-1.55-1.64-2-2.06c-2.29-2.12-4.67-4.23-7-6.27l-.85-.75c-2.82-2.5-5.61-4.93-8.65-7.18-1.45-1.07-3-2-4.47-3a48.52,48.52,0,0,1-5.87-4.07c-1.74-1.47-3.39-3.08-5-4.65-1.16-1.13-2.36-2.3-3.6-3.42A166,166,0,0,0,85,704.82c-2.69-1.92-5.13-3.55-7.41-5"/><g id="Path_2-3" data-name="Path 2"><path class="cls-5" d="M56.3,749.26h0C45.85,741.81,34,734.43,21.57,726.61A169,169,0,0,1,.3,711.26v1a160.73,160.73,0,0,0,20.78,15.09C33.53,735.17,45.87,741.82,56.3,749.26Z"/></g></g></symbol></defs><g id="圖層_2" data-name="圖層 2"><g id="山"><use width="898.3" height="756.55" transform="translate(0 0)" xlink:href="#新增符號_1"/></g></g></svg>