<svg xmlns="http://www.w3.org/2000/svg" xmlns:xlink="http://www.w3.org/1999/xlink" viewBox="0 0 911 667.21"><defs><style>.cls-1{fill:none;}.cls-2{clip-path:url(#clip-path);}.cls-3{fill:#1682aa;}.cls-4{fill:#ffcc17;}</style><clipPath id="clip-path"><polygon class="cls-1" points="0 667.21 911 667.21 911 607.21 0 607.21 0 667.21"/></clipPath><symbol id="新增符號_3" data-name="新增符號 3" viewBox="0 0 911 667.21"><g class="cls-2"><path id="Path_2" data-name="Path 2" class="cls-3" d="M.34,612.12h891c-1.56-1.84-22.56-28.84-26.29-33.33-14.88-17.9-31.71-33.42-47.87-50.08C800,511,782.7,493.41,763.24,478.25c-22-17.13-48-26.59-68.1-46.38-18.68-18.35-33.26-40.32-50.66-59.8-29.28-32.81-60.88-64-96.09-90.43-80.35-60.35-113.71-67.22-188-81.42C305.83,189.79,278,164,267.07,151a182.41,182.41,0,0,0-19.65-19.86L216.3,104.09a126.56,126.56,0,0,0-32.39-20.5c-25-10.91-71.06-33.64-90.69-60.13C65.63-13.78.34,6.26.34,6.26Z"/><path id="mountian_bottom_1" data-name="mountian bottom 1" class="cls-3" d="M.34,645.6V611.12H889c.89,0,2.64,1.76,3.34,2,2,2,3.54,3.51,1.72,7.2-1.62,3.28-4.75,5.74-7.69,7.78-6,4.13-12.72,7.16-19.43,9.88a335.11,335.11,0,0,1-35.65,11.81c-83.69,23.54-293.35,1.06-302.75,0a4.87,4.87,0,0,0-.66,0H288.81a263.71,263.71,0,0,0-49.28,4.63c-44.74,8.5-149.78,23.46-234.79-2.89A6.22,6.22,0,0,1,.34,645.6Z"/><g id="Path_2-2" data-name="Path 2"><path class="cls-4" d="M890.8,612.07l1.54,1c-.65-.77-5.57-7.76-10.37-13.88-6.47-8.26-14.53-18.54-16.69-21.15-10.49-12.62-22.16-24.27-33.45-35.53-4.75-4.74-9.67-9.65-14.44-14.58-18.29-18.86-35-35.68-54-50.5-9.29-7.24-19.42-13.19-29.23-19-13.37-7.86-27.21-16-38.83-27.39C684.27,420.28,674.48,407.92,665,396c-6.5-8.2-13.23-16.68-20.31-24.62-33.28-37.29-64.74-66.89-96.17-90.49-81.33-61.08-114.82-67.49-188.21-81.51-53.62-10.25-81.3-35.12-93-49a182.91,182.91,0,0,0-19.71-19.91l-31.12-27.08A126.58,126.58,0,0,0,184,82.76c-25.43-11.12-71-33.7-90.48-60C79.09,3.38,54.42-.31,36.27,0A148,148,0,0,0,0,5.4l.29,1c.65-.2,65.27-19.5,92.33,17C112.28,49.85,158,72.52,183.55,83.67a125.79,125.79,0,0,1,32.27,20.42l31.11,27.09A181.7,181.7,0,0,1,266.53,151c11.81,14,39.68,39.06,93.61,49.37,73.23,14,106.65,20.38,187.79,81.33,31.37,23.56,62.78,53.12,96,90.35,7.07,7.92,13.78,16.39,20.28,24.58,9.49,12,19.3,24.34,30.4,35.25,11.71,11.5,25.6,19.65,39,27.54,9.77,5.74,19.88,11.68,29.12,18.88,19,14.78,35.63,31.57,53.89,50.41,4.78,4.93,9.7,9.84,14.46,14.59,11.27,11.25,22.92,22.88,33.38,35.46,2.15,2.59,10.2,12.87,16.67,21.13,4.81,6.13,9,11.42,9.62,12.21"/></g><path class="cls-4" d="M811.4,609a46.72,46.72,0,0,1-4.2-4.26c-6-7.69-12.89-16.4-14.85-18.74-9.62-11.53-20.32-22.19-30.66-32.49-4.35-4.33-8.85-8.81-13.23-13.31-16.75-17.24-32-32.61-49.46-46.17-8.5-6.62-17.78-12.08-26.75-17.35-12.24-7.2-24.89-14.64-35.53-25.06-10.13-9.92-19.11-21.2-27.79-32.11-6-7.49-12.14-15.24-18.64-22.5-30.51-34.06-59.33-61.12-88.11-82.71-74.44-55.87-105.07-61.8-172.18-74.8-48.87-9.42-74.31-32.2-85.13-44.94-5-5.9-11-12.67-18.08-18.22-.14-.11-8.17-7.1-15.27-13.27l-13.22-11.5c-11-8.76-20.41-14.74-29.75-18.84-23.26-10.23-65-31-82.77-54.93C63.59,47.89,15.29,57.66,1,61.37l-.6.15L.49,62l-.35.4c.21.19.24.18,1.12,0C15.39,58.67,63.16,49,85,78.35c18,24.14,59.82,45,83.18,55.24,9.25,4.07,18.64,10,29.52,18.71l13.2,11.48,15.3,13.3c7,5.49,13,12.22,17.94,18.07C255,208,280.64,231,329.81,240.44c67,13,97.52,18.88,171.77,74.61,28.73,21.55,57.5,48.56,88,82.58,6.48,7.23,12.64,15,18.6,22.46,8.71,10.93,17.71,22.23,27.88,32.19,10.73,10.51,23.43,18,35.72,25.21,9,5.26,18.19,10.7,26.65,17.28,17.37,13.52,32.63,28.87,49.36,46.08,4.38,4.5,8.88,9,13.23,13.32,10.33,10.29,21,20.92,30.6,32.42,1.95,2.33,8.79,11,14.83,18.72,4.63,5.89,10.27,9.05,10.93,9.81l34,28c-.55-.63-28.63-23.63-39.94-34.17"/><path class="cls-4" d="M740.59,622l32.75,36.08c-.64-.73-36.73-42.66-41.07-48.16-5.21-6.6-11.12-14.09-12.85-16.15-8.8-10.45-18.53-20.14-27.95-29.5-3.92-3.9-8-7.94-11.93-12-15.22-15.61-29.11-29.54-44.93-41.84-7.72-6-16.13-11-24.27-15.75-11.1-6.53-22.58-13.29-32.24-22.73-9.2-9-17.36-19.18-25.26-29.05-5.43-6.79-11.05-13.81-17-20.38-27.73-30.84-53.92-55.35-80.05-74.94-67.55-50.66-95.32-56.12-156.16-68.08-44.22-8.63-67.37-29.31-77.23-40.86-4.83-5.66-10.16-11.58-16.44-16.52l-13.89-12.06-12-10.39c-9.95-7.95-18.53-13.39-27-17.12-21.1-9.34-58.9-28.24-75.06-49.88-8.9-11.94-23.36-18.34-43-19A126.73,126.73,0,0,0,1.9,117.4c-.56.13-1,.24-1.15.25l.05.45-.37.42c.22.2.22.2,1.7-.15,49.15-11.57,68.93,6.6,75.15,14.95,16.3,21.82,54.28,40.81,75.46,50.19,8.39,3.7,16.89,9.1,26.77,17l12,10.37c10.22,8.88,13.86,12,13.93,12.09,6.2,4.88,11.49,10.75,16.29,16.37,9.94,11.66,33.28,32.51,77.8,41.2,60.69,11.93,88.38,17.38,155.75,67.9,26.08,19.55,52.22,44,79.9,74.8,5.9,6.56,11.51,13.57,16.93,20.34,7.92,9.89,16.1,20.12,25.34,29.15,9.75,9.52,21.28,16.31,32.43,22.87,8.11,4.77,16.5,9.71,24.17,15.68,15.77,12.26,29.63,26.16,44.83,41.75,3.95,4.05,8,8.09,11.94,12,9.4,9.35,19.12,19,27.89,29.44,1.72,2,7.62,9.52,12.83,16.12C736,616.33,739.93,621.29,740.59,622Z"/><path class="cls-4" d="M652.89,609.62c-2.92-3.67-5.38-6.76-6.4-8-8-9.37-16.72-18.08-25.21-26.5-3.5-3.48-7.13-7.07-10.66-10.68-13.69-14-26.17-26.47-40.4-37.51-6.93-5.39-14.49-9.85-21.8-14.15-10-5.87-20.25-11.94-28.94-20.4-8.26-8-15.61-17.17-22.72-26-4.9-6.08-10-12.37-15.29-18.26-25-27.62-48.51-49.58-72-67.16-58.34-43.7-83.6-50-140.13-61.36-39.53-7.82-60.41-26.41-69.34-36.79a108.85,108.85,0,0,0-14.79-14.8l-12.38-10.73L162,247.92c-8.94-7.14-16.64-12-24.24-15.4-41.88-18.7-59.74-34.7-67.35-44.83-12.08-16.16-35.48-21.08-67.66-14.22-.81.17-1.5.32-1.64.32l0,.43-.4.44c.24.21.24.21,2.22-.21,31.78-6.78,54.83-2,66.66,13.84,7.68,10.22,25.67,26.35,67.74,45.14,7.52,3.34,15.15,8.19,24,15.27.17.13,5.59,4.84,10.83,9.38l12.42,10.77a106.8,106.8,0,0,1,14.65,14.66c9,10.48,30.08,29.24,69.9,37.12,56.37,11.29,81.57,17.61,139.73,61.18,23.43,17.54,46.93,39.46,71.84,67C486,454.71,491.09,461,496,467.06c7.13,8.85,14.5,18,22.81,26.09,8.77,8.54,19.12,14.64,29.13,20.54,7.27,4.29,14.8,8.73,21.69,14.08,14.17,11,26.63,23.46,40.29,37.42,3.54,3.61,7.17,7.21,10.68,10.69,8.47,8.41,17.23,17.1,25.15,26.44,1.53,1.79,6.62,8.22,11.11,13.89,4.29,5.42,8,10.09,8.65,10.82l21.85,33.09c-.63-.7-25.61-39.35-29.72-44.53-1.6-2-3.23-4.08-4.73-6"/><path class="cls-4" d="M590.38,632l20,22.11c-.61-.66-23.44-28-27.25-32.76-4-5-8.17-10.25-9.52-11.83-7.11-8.29-14.92-16-22.46-23.48-3.1-3.06-6.3-6.23-9.41-9.4-12.16-12.36-23.24-23.39-35.87-33.18a182.27,182.27,0,0,0-19.32-12.54c-8.82-5.21-17.94-10.6-25.64-18.06-7.33-7.11-13.88-15.16-20.2-22.95-4.36-5.38-8.87-10.94-13.62-16.15C404.87,449.38,384,430,363.12,414.4c-51.7-38.7-74.07-44.4-124.1-54.65-34.83-7-53.44-23.51-61.44-32.71a96.48,96.48,0,0,0-13.14-13.1c-.2-.16-5.94-5.13-11-9.51l-9.61-8.32c-7.93-6.32-14.76-10.66-21.48-13.67-20.47-9.24-47.43-23.64-59.64-39.79-10.61-14.11-30.53-18.51-59.2-13.07a15.8,15.8,0,0,1-2.07.35l0,.4-.41.46c.26.23.45.2,2.69-.23,28.26-5.36,47.85-1.09,58.21,12.7,12.34,16.32,39.45,30.81,60,40.09,6.64,3,13.4,7.28,21.26,13.55.18.14,5,4.28,9.59,8.28,6.78,5.87,10.9,9.44,11,9.55a95.1,95.1,0,0,1,13,13c8.09,9.3,26.89,25.95,62,33,49.88,10.21,72.17,15.9,123.71,54.47,20.78,15.52,41.65,34.9,63.78,59.25,4.73,5.18,9.23,10.73,13.58,16.1,6.35,7.81,12.91,15.89,20.28,23,7.79,7.55,17,13,25.83,18.21a179,179,0,0,1,19.22,12.48C517.79,554,528.86,565,541,577.36c3.13,3.17,6.33,6.34,9.42,9.4,7.54,7.46,15.33,15.16,22.41,23.42,1.33,1.56,5.48,6.77,9.49,11.8C586.13,626.79,589.75,631.32,590.38,632Z"/><path class="cls-4" d="M493.82,609.91c-4.25-4.47-8.63-8.78-12.91-13-2.67-2.64-5.44-5.36-8.14-8.09-10.62-10.74-20.31-20.32-31.33-28.85a162.92,162.92,0,0,0-16.84-11c-7.68-4.54-15.62-9.24-22.35-15.72-6.4-6.16-12.13-13.15-17.66-19.9-3.83-4.67-7.79-9.5-11.95-14-19.4-21.17-37.68-38.05-55.87-51.6-45.34-33.89-64.74-38.9-108.07-47.93-30.22-6.3-46.52-20.64-53.55-28.63a87.81,87.81,0,0,0-11.49-11.39c-.21-.17-5.23-4.5-9.66-8.32l-8.34-7.2a90.17,90.17,0,0,0-18.72-11.95c-17.8-8.09-41.26-20.69-51.93-34.74-13.64-17.95-41.6-13.38-50.79-11.88a23.71,23.71,0,0,1-2.45.34l-.05.35-.43.49c.28.25.57.22,3.09-.19,9-1.48,36.56-6,49.83,11.5,10.8,14.21,34.41,26.9,52.31,35A89,89,0,0,1,125,345.09l8.32,7.18c5.74,5,9.52,8.21,9.69,8.34a87.12,87.12,0,0,1,11.36,11.27c7.11,8.08,23.59,22.59,54.09,28.94,43.18,9,62.51,14,107.68,47.76,18.14,13.52,36.37,30.35,55.74,51.47,4.13,4.51,8.08,9.33,11.9,14,5.56,6.78,11.3,13.78,17.75,20,6.81,6.56,14.8,11.29,22.53,15.86a163.77,163.77,0,0,1,16.74,10.88c11,8.49,20.64,18,31.23,28.77,2.7,2.73,5.47,5.45,8.15,8.09,6.6,6.51,13.43,13.24,19.67,20.43,1.17,1.34,4.66,5.68,8,9.89s19.81,19.53,20.43,20.18L516,636.31c-.58-.62-4-4.88-7.31-9s-6.87-8.56-8.05-9.92q-3.33-3.82-6.82-7.48"/><path class="cls-4" d="M445.34,648.12l-4.45-6.84c-.56-.57-3.59-4.31-6.52-7.92-2.78-3.42-5.65-7-6.66-8.11-5.42-6.14-11.3-11.9-17-17.48-2.29-2.25-4.58-4.5-6.86-6.78-9.09-9.11-17.38-17.25-26.8-24.52a141,141,0,0,0-14.37-9.35c-6.54-3.88-13.3-7.9-19.05-13.39a196.7,196.7,0,0,1-15.13-16.85c-3.29-4-6.7-8.06-10.27-11.9C301.6,507,286,492.71,270.42,481.16c-38.69-28.85-56.18-33.48-92.05-41.22-25.54-5.5-39.56-17.74-45.65-24.55a77.62,77.62,0,0,0-9.85-9.68c-.21-.17-4.48-3.84-8.24-7.08-4.32-3.71-6.95-6-7.13-6.12a79.16,79.16,0,0,0-16-10.23c-21.71-10-37-20.29-44.21-29.69C36,337.82,13.38,340.82,4.87,342a21,21,0,0,1-2.77.28.34.34,0,0,1,.14.08l-.66.75c.32.28.82.23,3.42-.12,8.35-1.11,30.54-4.06,41.52,10.26,7.31,9.53,22.73,19.9,44.59,30a78.14,78.14,0,0,1,15.77,10.1l7.1,6.1c4.86,4.19,8.07,6.95,8.28,7.11a76.86,76.86,0,0,1,9.71,9.56c6.17,6.89,20.37,19.29,46.19,24.86,35.72,7.7,53.14,12.32,91.66,41,15.5,11.51,31.09,25.81,47.68,43.7,3.55,3.82,6.95,7.91,10.23,11.86a198.33,198.33,0,0,0,15.21,16.93c5.83,5.57,12.64,9.62,19.23,13.53a139.09,139.09,0,0,1,14.27,9.28c9.37,7.24,17.64,15.35,26.7,24.44,2.28,2.28,4.58,4.54,6.87,6.78,5.68,5.57,11.55,11.32,16.95,17.43,1,1.13,3.86,4.66,6.63,8.08C436.67,637.79,444.74,647.51,445.34,648.12Z"/><path class="cls-4" d="M330.56,608.86A198.69,198.69,0,0,0,312.66,593a120.2,120.2,0,0,0-11.89-7.75c-5.4-3.22-11-6.55-15.76-11.06a168.54,168.54,0,0,1-12.59-13.8c-2.76-3.25-5.62-6.62-8.6-9.78-13.85-14.71-26.85-26.5-39.75-36-32.06-23.83-47.29-28-76-34.5-19.83-4.48-31.48-13.61-37.76-20.47a67.92,67.92,0,0,0-8.2-8c-.24-.19-3.73-3.18-6.82-5.83l-5.93-5.06a67.91,67.91,0,0,0-13.21-8.51C58,423.63,45.68,415.34,39.62,407.56c-9.1-11.7-26.67-10.05-34.18-9.34a18.7,18.7,0,0,1-3,.17.2.2,0,0,1,.09.05l-.66.75c.35.32,1,.27,3.67,0,7.34-.69,24.53-2.3,33.29,9,6.16,7.91,18.56,16.3,36.87,24.94a66.65,66.65,0,0,1,13,8.38l5.9,5c4,3.42,6.62,5.67,6.86,5.85a68.18,68.18,0,0,1,8.07,7.86c6.38,7,18.2,16.24,38.28,20.78,29.35,6.63,43.67,10.56,75.64,34.33,12.85,9.5,25.81,21.25,39.62,35.92,3,3.14,5.81,6.5,8.56,9.74a168.6,168.6,0,0,0,12.68,13.88c4.85,4.58,10.48,7.94,15.92,11.19a120.15,120.15,0,0,1,11.8,7.68c7.78,6,14.64,12.64,22.17,20.11,1.85,1.83,3.72,3.65,5.58,5.45,4.76,4.63,9.68,9.41,14.24,14.46.84.93,3.13,3.71,5.34,6.4a50.19,50.19,0,0,0,6,5.94l.43.14c-.53-.52-3.12-3.67-5.62-6.71-2.32-2.82-4.51-5.49-5.37-6.44-4.58-5.07-9.51-9.87-14.28-14.5-1.86-1.81-3.72-3.62-5.58-5.46q-2.21-2.19-4.36-4.29"/><path class="cls-4" d="M285.34,647.12l3,1c-.51-.47-.39,0-2.32-2.28-1.78-2.11-3.46-4.11-4.17-4.88-3.74-4-7.73-7.83-11.59-11.53L266,625.32a200,200,0,0,0-17.73-15.85,99.86,99.86,0,0,0-9.42-6.15,73.66,73.66,0,0,1-12.46-8.73,139.33,139.33,0,0,1-10.06-10.75c-2.23-2.54-4.53-5.18-6.93-7.66a249.67,249.67,0,0,0-31.68-28.26c-24.24-17.93-36.3-22-60-27.78-15.41-3.73-24.75-11-29.88-16.4l-.11-.12a58.45,58.45,0,0,0-6.43-6.14c-.28-.22-3-2.56-5.46-4.62l-4.67-4a57.59,57.59,0,0,0-10.45-6.77c-14.51-7.07-23.93-13.48-28.8-19.61-6.94-8.73-19.82-8.2-26-7.95a14.8,14.8,0,0,1-3.14,0l-.63.77c.41.37,1.3.35,3.81.25,6-.25,18.56-.76,25.19,7.57,5,6.25,14.5,12.75,29.14,19.89a56.21,56.21,0,0,1,10.27,6.66c.24.19,2.48,2.09,4.64,3.93,2.56,2.18,5.2,4.42,5.49,4.65a56.39,56.39,0,0,1,6.32,6l.12.12c5.22,5.52,14.72,12.89,30.37,16.68,24.05,5.82,35.42,9.71,59.62,27.62a247.69,247.69,0,0,1,31.56,28.14c2.39,2.47,4.68,5.09,6.89,7.63a143.11,143.11,0,0,0,10.14,10.82,73.69,73.69,0,0,0,12.63,8.86,99.06,99.06,0,0,1,9.32,6.08A194.49,194.49,0,0,1,265.3,626c1.42,1.38,2.84,2.74,4.27,4.11,3.84,3.69,7.83,7.51,11.54,11.49.7.75,2.45,2.83,4.14,4.84C287.4,649,284.79,646.61,285.34,647.12Z"/><path class="cls-4" d="M162.36,609.61c-.72-.76-1.42-1.53-2.12-2.29-1.69-1.84-3.44-3.74-5.25-5.54a204.82,204.82,0,0,0-23.63-20.48c-18.08-13.19-27.28-16.55-43.94-21.06a48.21,48.21,0,0,1-22-12.33l-.45-.45a45.7,45.7,0,0,0-4.45-4.1c-.31-.24-2.3-1.91-4.06-3.38S53.3,537.33,53,537.1a47.54,47.54,0,0,0-7.67-5.05c-6.76-3.47-16.3-8.75-21.11-14.57s-13.07-6.23-18-6.44a11.48,11.48,0,0,1-3.15-.33l-.67.75c.48.43,1.51.49,3.78.58,4.73.2,12.66.53,17.24,6.08,4.92,6,14.58,11.31,21.42,14.82a46.33,46.33,0,0,1,7.52,4.95c.27.21,1.87,1.55,3.42,2.85,1.85,1.55,3.76,3.16,4.09,3.42a43.41,43.41,0,0,1,4.35,4l.45.45a49.24,49.24,0,0,0,22.45,12.6c16.54,4.48,25.66,7.81,43.61,20.9a202.8,202.8,0,0,1,23.51,20.38c1.8,1.78,3.54,3.67,5.22,5.51,2.41,2.61,4.9,5.32,7.6,7.76a60.63,60.63,0,0,0,9.32,6.51c2.29,1.39,4.67,2.84,6.86,4.49a160.9,160.9,0,0,1,13.1,11.45l2.83,2.65c3,2.79,6.07,5.68,9,8.65.56.58,1.75,1.94,3,3.38,1.62,1.86,3.15,3.61,3.67,4.07l.66-.76c-.48-.41-2.12-2.3-3.58-4-1.27-1.46-2.47-2.83-3.05-3.43-2.93-3-6-5.88-9-8.68l-2.82-2.64A156.22,156.22,0,0,0,183.88,626a80.2,80.2,0,0,0-6.94-4.55,60,60,0,0,1-9.17-6.4c-1.89-1.71-3.68-3.55-5.41-5.41"/><path class="cls-4" d="M77.59,609.71a89,89,0,0,0-20.47-9.36A39,39,0,0,1,43,592.07l-.62-.57c-.83-.76-1.69-1.56-2.61-2.25-.37-.28-1.58-1.27-2.71-2.19-1-.79-1.87-1.53-2.18-1.76A41.29,41.29,0,0,0,30,582c-3.46-2-9.91-5.62-13.42-9.54-2.87-3.21-7.08-4.08-10.15-4.71a8.59,8.59,0,0,1-3-.89l-.67.75c.6.54,1.8.78,3.45,1.12,2.93.61,7,1.43,9.6,4.39,3.62,4,10.16,7.76,13.68,9.75a41.34,41.34,0,0,1,4.78,3.24c.3.23,1.2,1,2.15,1.74,1.15.93,2.37,1.93,2.74,2.21a33.37,33.37,0,0,1,2.54,2.2l.63.57a40,40,0,0,0,14.5,8.48c9.89,3.33,16.54,6.3,27.63,14.21a166.69,166.69,0,0,1,15.46,12.6c1.22,1.11,2.41,2.28,3.56,3.41,1.62,1.57,3.28,3.2,5,4.69a48.75,48.75,0,0,0,6,4.16c1.47.91,3,1.86,4.4,2.91,3,2.22,5.78,4.63,8.58,7.12l.86.75c2.3,2,4.68,4.14,7,6.25.43.4,1.18,1.19,2,2,1.05,1.1,6.6,6.32,7.09,6.71l-3.93-5c-.43-.35-1.49-1.47-2.43-2.45s-1.55-1.64-2-2.06c-2.29-2.13-4.68-4.23-7-6.27l-.85-.75c-2.83-2.5-5.61-4.93-8.65-7.18-1.45-1.07-3-2-4.47-3a48.63,48.63,0,0,1-5.88-4.07c-1.73-1.47-3.39-3.08-5-4.65-1.16-1.13-2.36-2.3-3.59-3.43A168.77,168.77,0,0,0,85,614.68c-2.7-1.92-5.13-3.55-7.42-5"/><g id="Path_2-3" data-name="Path 2"><path class="cls-4" d="M56.34,659.12h0c-10.46-7.45-22.27-14.83-34.74-22.65A169.58,169.58,0,0,1,.34,621.12v1a160,160,0,0,0,20.78,15.09C33.57,645,45.9,651.68,56.34,659.12Z"/></g></g></symbol></defs><g id="圖層_2" data-name="圖層 2"><g id="背景"><use width="911" height="667.21" transform="matrix(-1, 0, 0, 1, 911, 0)" xlink:href="#新增符號_3"/></g></g></svg>