<svg xmlns="http://www.w3.org/2000/svg" xmlns:xlink="http://www.w3.org/1999/xlink" viewBox="0 0 894.84 666.41"><defs><style>.cls-1{fill:none;}.cls-2{clip-path:url(#clip-path);}.cls-3{fill:#1682aa;}.cls-4{fill:#ffcc17;}</style><clipPath id="clip-path" transform="translate(-0.04 607.21)"><rect class="cls-1" width="911" height="60" transform="translate(911 60) rotate(-180)"/></clipPath></defs><g id="圖層_2" data-name="圖層 2"><g id="山"><g class="cls-2"><path id="Path_2" data-name="Path 2" class="cls-3" d="M.34,4.91h891c-1.56-1.84-22.56-28.83-26.29-33.33-14.88-17.9-31.71-33.42-47.87-50.08C800-96.18,782.7-113.8,763.24-129c-22-17.13-48-26.59-68.1-46.38-18.68-18.34-33.26-40.31-50.66-59.8-29.28-32.81-60.88-64-96.09-90.43C468-385.91,434.68-392.78,360.38-407c-54.55-10.43-82.38-36.23-93.31-49.2A181.43,181.43,0,0,0,247.42-476L216.3-503.12a126.56,126.56,0,0,0-32.39-20.5c-25-10.91-71.06-33.64-90.69-60.13C65.63-621,.34-600.95.34-600.95Z" transform="translate(-0.04 607.21)"/><path id="mountian_bottom_1" data-name="mountian bottom 1" class="cls-3" d="M.34,38.39V3.91H889c.89,0,2.64,1.76,3.34,2,2,2,3.54,3.51,1.72,7.2-1.62,3.28-4.75,5.75-7.69,7.78-6,4.13-12.72,7.16-19.43,9.88a335.11,335.11,0,0,1-35.65,11.81c-83.69,23.54-293.35,1.06-302.75,0-.22,0-.44,0-.66,0H288.81a263.71,263.71,0,0,0-49.28,4.63C194.79,55.72,89.75,70.68,4.74,44.32A6.22,6.22,0,0,1,.34,38.39Z" transform="translate(-0.04 607.21)"/><g id="Path_2-2" data-name="Path 2"><path class="cls-4" d="M890.8,4.86l1.54,1C891.69,5.14,886.77-1.84,882-8c-6.47-8.26-14.53-18.54-16.69-21.15-10.49-12.62-22.16-24.26-33.45-35.53-4.75-4.74-9.67-9.65-14.44-14.58-18.29-18.86-35-35.68-54-50.5-9.29-7.24-19.42-13.19-29.23-19-13.37-7.85-27.21-16-38.83-27.39-11.06-10.86-20.85-23.21-30.32-35.16-6.5-8.2-13.23-16.68-20.31-24.62-33.28-37.29-64.74-66.89-96.17-90.49-81.33-61.08-114.82-67.48-188.21-81.51-53.62-10.25-81.3-35.12-93-49a183.81,183.81,0,0,0-19.71-19.91l-31.12-27.08A126.58,126.58,0,0,0,184-524.45c-25.43-11.12-71-33.69-90.48-60-14.38-19.41-39-23.1-57.2-22.77A147.7,147.7,0,0,0,0-601.8l.29.95c.65-.2,65.27-19.5,92.33,17,19.62,26.47,65.37,49.14,90.89,60.3a126,126,0,0,1,32.27,20.41L246.93-476a180.88,180.88,0,0,1,19.6,19.8c11.81,14,39.68,39.05,93.61,49.36,73.23,14,106.65,20.39,187.79,81.33,31.37,23.56,62.78,53.12,96,90.36,7.07,7.91,13.78,16.38,20.28,24.57,9.49,12,19.3,24.35,30.4,35.25,11.71,11.5,25.6,19.66,39,27.54,9.77,5.75,19.88,11.68,29.12,18.88,19,14.78,35.63,31.58,53.89,50.41,4.78,4.93,9.7,9.84,14.46,14.59,11.27,11.25,22.92,22.88,33.38,35.46,2.15,2.6,10.2,12.87,16.67,21.13,4.81,6.13,9,11.43,9.62,12.21" transform="translate(-0.04 607.21)"/></g><path class="cls-4" d="M811.4,1.74a47,47,0,0,1-4.2-4.25c-6-7.69-12.89-16.41-14.85-18.75C782.73-32.79,772-43.44,761.69-53.74c-4.35-4.34-8.85-8.82-13.23-13.32-16.75-17.24-32-32.61-49.46-46.17-8.5-6.62-17.78-12.07-26.75-17.35-12.24-7.19-24.89-14.63-35.53-25.06-10.13-9.92-19.11-21.2-27.79-32.1-6-7.5-12.14-15.25-18.64-22.51C559.78-244.31,531-271.37,502.18-293c-74.44-55.87-105.07-61.8-172.18-74.79-48.87-9.43-74.31-32.21-85.13-44.95-5-5.89-11-12.67-18.08-18.22-.14-.11-8.17-7.1-15.27-13.27l-13.22-11.5c-11-8.75-20.41-14.74-29.75-18.84-23.26-10.23-65-31-82.77-54.93C63.59-559.32,15.29-549.54,1-545.84l-.6.15.08.47-.35.4c.21.19.24.18,1.12,0,14.13-3.67,61.9-13.35,83.71,16,18,24.15,59.82,45,83.18,55.25,9.25,4.06,18.64,10,29.52,18.71.12.09,6.77,5.88,13.2,11.47l15.3,13.3c7,5.49,13,12.22,17.94,18.08,10.9,12.84,36.53,35.79,85.7,45.28,67,13,97.52,18.88,171.77,74.61,28.73,21.55,57.5,48.57,88,82.58,6.48,7.24,12.64,15,18.6,22.46,8.71,10.93,17.71,22.23,27.88,32.2,10.73,10.51,23.43,18,35.72,25.2,9,5.26,18.19,10.7,26.65,17.28C715.76-98.92,731-83.57,747.75-66.36c4.38,4.51,8.88,9,13.23,13.32,10.33,10.29,21,20.92,30.6,32.42,1.95,2.33,8.79,11,14.83,18.72C811,4,816.68,7.15,817.34,7.91l34,28c-.55-.63-28.63-23.63-39.94-34.17" transform="translate(-0.04 607.21)"/><path class="cls-4" d="M740.59,14.83l32.75,36.08c-.64-.72-36.73-42.66-41.07-48.15-5.21-6.61-11.12-14.1-12.85-16.16-8.8-10.45-18.53-20.13-27.95-29.5-3.92-3.9-8-7.94-11.93-12-15.22-15.61-29.11-29.54-44.93-41.84-7.72-6-16.13-11-24.27-15.75-11.1-6.53-22.58-13.29-32.24-22.73-9.2-9-17.36-19.18-25.26-29-5.43-6.79-11.05-13.81-17-20.38C508.15-215.48,482-240,455.83-259.58c-67.55-50.66-95.32-56.12-156.16-68.08-44.22-8.63-67.37-29.3-77.23-40.86C217.61-374.18,212.28-380.1,206-385l-13.89-12.06-12-10.4c-9.95-7.94-18.53-13.39-27-17.12-21.1-9.34-58.9-28.24-75.06-49.88-8.9-11.94-23.36-18.34-43-19A127.59,127.59,0,0,0,1.9-489.81l-1.15.26.05.45-.37.41c.22.2.22.2,1.7-.15,49.15-11.57,68.93,6.6,75.15,14.95,16.3,21.82,54.28,40.82,75.46,50.19,8.39,3.7,16.89,9.1,26.77,17l12,10.37c10.22,8.88,13.86,12,13.93,12.09,6.2,4.88,11.49,10.76,16.29,16.38,9.94,11.65,33.28,32.51,77.8,41.2,60.69,11.92,88.38,17.37,155.75,67.89,26.08,19.55,52.22,44,79.9,74.81,5.9,6.55,11.51,13.56,16.93,20.34,7.92,9.89,16.1,20.11,25.34,29.14,9.75,9.52,21.28,16.31,32.43,22.87,8.11,4.78,16.5,9.71,24.17,15.68,15.77,12.26,29.63,26.16,44.83,41.75,3.95,4.06,8,8.09,11.94,12,9.4,9.35,19.12,19,27.89,29.44,1.72,2,7.62,9.53,12.83,16.13C736,9.12,739.93,14.08,740.59,14.83Z" transform="translate(-0.04 607.21)"/><path class="cls-4" d="M652.89,2.41c-2.92-3.67-5.38-6.75-6.4-7.95-8-9.37-16.72-18.07-25.21-26.49-3.5-3.48-7.13-7.08-10.66-10.69-13.69-14-26.17-26.47-40.4-37.51-6.93-5.39-14.49-9.84-21.8-14.15-10-5.87-20.25-11.94-28.94-20.39-8.26-8-15.61-17.18-22.72-26-4.9-6.08-10-12.37-15.29-18.26-25-27.61-48.51-49.58-72-67.15-58.34-43.71-83.6-50.05-140.13-61.37-39.53-7.82-60.41-26.4-69.34-36.79a108.85,108.85,0,0,0-14.79-14.8c-.19-.15-6.67-5.77-12.38-10.73L162-359.29c-8.94-7.14-16.64-12-24.24-15.4-41.88-18.7-59.74-34.7-67.35-44.83C58.31-435.68,34.91-440.6,2.73-433.74c-.81.17-1.5.32-1.64.32l0,.43-.4.44c.24.21.24.21,2.22-.21,31.78-6.77,54.83-2,66.66,13.84,7.68,10.22,25.67,26.35,67.74,45.14,7.52,3.34,15.15,8.19,24,15.27l10.83,9.38,12.42,10.77a106.31,106.31,0,0,1,14.65,14.67c9,10.48,30.08,29.23,69.9,37.11,56.37,11.29,81.57,17.61,139.73,61.19,23.43,17.53,46.93,39.46,71.84,67,5.31,5.87,10.37,12.15,15.26,18.22,7.13,8.85,14.5,18,22.81,26.09,8.77,8.54,19.12,14.64,29.13,20.54,7.27,4.29,14.8,8.73,21.69,14.08C583.78-68.43,596.24-56,609.9-42c3.54,3.61,7.17,7.21,10.68,10.7,8.47,8.4,17.23,17.09,25.15,26.43,1.53,1.8,6.62,8.22,11.11,13.89,4.29,5.42,8,10.1,8.65,10.82l21.85,33.09c-.63-.69-25.61-39.35-29.72-44.53-1.6-2-3.23-4.08-4.73-6" transform="translate(-0.04 607.21)"/><path class="cls-4" d="M590.38,24.8l20,22.11c-.61-.66-23.44-28-27.25-32.76-4-5-8.17-10.25-9.52-11.83-7.11-8.29-14.92-16-22.46-23.48-3.1-3.06-6.3-6.22-9.41-9.39-12.16-12.37-23.24-23.4-35.87-33.18a182.38,182.38,0,0,0-19.32-12.55c-8.82-5.21-17.94-10.6-25.64-18.06-7.33-7.1-13.88-15.16-20.2-23-4.36-5.38-8.87-10.94-13.62-16.15-22.18-24.38-43.09-43.81-63.93-59.37-51.7-38.7-74.07-44.4-124.1-54.65-34.83-7-53.44-23.5-61.44-32.71a95.81,95.81,0,0,0-13.14-13.09l-11-9.52-9.61-8.31c-7.93-6.33-14.76-10.67-21.48-13.68C101.87-334,74.91-348.4,62.7-364.55c-10.61-14.12-30.53-18.52-59.2-13.08a16.56,16.56,0,0,1-2.07.36l0,.39-.41.46c.26.24.45.2,2.69-.22C32-382,51.54-377.74,61.9-363.95c12.34,16.32,39.45,30.81,60,40.09,6.64,3,13.4,7.28,21.26,13.55.18.14,5,4.28,9.59,8.29,6.78,5.86,10.9,9.43,11,9.54a95.1,95.1,0,0,1,13,13c8.09,9.3,26.89,26,62,33C288.7-236.26,311-230.58,362.53-192c20.78,15.53,41.65,34.91,63.78,59.25,4.73,5.19,9.23,10.73,13.58,16.1,6.35,7.81,12.91,15.89,20.28,23,7.79,7.54,17,13,25.83,18.2a180.53,180.53,0,0,1,19.22,12.48c12.57,9.75,23.64,20.75,35.76,33.09,3.13,3.17,6.33,6.34,9.42,9.4C557.94-13,565.73-5.28,572.81,3c1.33,1.57,5.48,6.77,9.49,11.81C586.13,19.58,589.75,24.12,590.38,24.8Z" transform="translate(-0.04 607.21)"/><path class="cls-4" d="M493.82,2.7c-4.25-4.47-8.63-8.78-12.91-13-2.67-2.63-5.44-5.36-8.14-8.09-10.62-10.73-20.31-20.32-31.33-28.84a161.29,161.29,0,0,0-16.84-11c-7.68-4.55-15.62-9.25-22.35-15.73-6.4-6.16-12.13-13.15-17.66-19.9-3.83-4.67-7.79-9.49-11.95-14-19.4-21.17-37.68-38-55.87-51.6-45.34-33.88-64.74-38.9-108.07-47.93-30.22-6.3-46.52-20.64-53.55-28.63a88.44,88.44,0,0,0-11.49-11.39c-.21-.17-5.23-4.5-9.66-8.32l-8.34-7.2a90.17,90.17,0,0,0-18.72-12c-17.8-8.09-41.26-20.68-51.93-34.73-13.64-18-41.6-13.39-50.79-11.89a23.71,23.71,0,0,1-2.45.34l-.05.36-.43.48c.28.26.57.22,3.09-.19,9-1.48,36.56-6,49.83,11.5,10.8,14.22,34.41,26.9,52.31,35A89.1,89.1,0,0,1,125-262.11c.18.14,4.32,3.71,8.32,7.17l9.69,8.35a86.43,86.43,0,0,1,11.36,11.26c7.11,8.08,23.59,22.59,54.09,29,43.18,9,62.51,14,107.68,47.75,18.14,13.52,36.37,30.36,55.74,51.47,4.13,4.51,8.08,9.33,11.9,14,5.56,6.77,11.3,13.78,17.75,20,6.81,6.56,14.8,11.29,22.53,15.87a160.46,160.46,0,0,1,16.74,10.88c11,8.49,20.64,18,31.23,28.76,2.7,2.73,5.47,5.46,8.15,8.09,6.6,6.51,13.43,13.25,19.67,20.43,1.17,1.34,4.66,5.69,8,9.89s19.81,19.53,20.43,20.18L516,29.1c-.58-.62-4-4.88-7.31-9s-6.87-8.56-8.05-9.92c-2.22-2.55-4.5-5-6.82-7.48" transform="translate(-0.04 607.21)"/><path class="cls-4" d="M445.34,40.91l-4.45-6.83c-.56-.58-3.59-4.31-6.52-7.93-2.78-3.42-5.65-7-6.66-8.11-5.42-6.13-11.3-11.9-17-17.48-2.29-2.24-4.58-4.49-6.86-6.78-9.09-9.11-17.38-17.25-26.8-24.52a140.9,140.9,0,0,0-14.37-9.34c-6.54-3.89-13.3-7.9-19.05-13.4A196.7,196.7,0,0,1,328.5-70.33c-3.29-4-6.7-8-10.27-11.9C301.6-100.17,286-114.5,270.42-126c-38.69-28.85-56.18-33.48-92.05-41.21-25.54-5.51-39.56-17.75-45.65-24.56a77.62,77.62,0,0,0-9.85-9.68c-.21-.16-4.48-3.84-8.24-7.07l-7.13-6.13a79.16,79.16,0,0,0-16-10.23c-21.71-10-37-20.29-44.21-29.69C36-269.39,13.38-266.39,4.87-265.26A21,21,0,0,1,2.1-265a.34.34,0,0,1,.14.08l-.66.75c.32.28.82.23,3.42-.12,8.35-1.11,30.54-4.05,41.52,10.26,7.31,9.53,22.73,19.9,44.59,30a77.8,77.8,0,0,1,15.77,10.11c.18.14,3.69,3.17,7.1,6.09,4.86,4.19,8.07,6.95,8.28,7.11a76.86,76.86,0,0,1,9.71,9.56c6.17,6.9,20.37,19.3,46.19,24.86,35.72,7.71,53.14,12.32,91.66,41,15.5,11.51,31.09,25.81,47.68,43.7,3.55,3.83,6.95,7.91,10.23,11.86a200,200,0,0,0,15.21,16.94c5.83,5.57,12.64,9.61,19.23,13.53a137.43,137.43,0,0,1,14.27,9.28c9.37,7.23,17.64,15.34,26.7,24.43C405.42-3.22,407.72-1,410,1.28,415.69,6.84,421.56,12.59,427,18.7c1,1.14,3.86,4.67,6.63,8.08C436.67,30.58,444.74,40.31,445.34,40.91Z" transform="translate(-0.04 607.21)"/><path class="cls-4" d="M330.56,1.65a200.25,200.25,0,0,0-17.9-15.89A122,122,0,0,0,300.77-22c-5.4-3.22-11-6.55-15.76-11.06a170.07,170.07,0,0,1-12.59-13.79c-2.76-3.26-5.62-6.62-8.6-9.79C250-71.34,237-83.13,224.07-92.67c-32.06-23.83-47.29-28-76-34.5-19.83-4.48-31.48-13.6-37.76-20.47a67.92,67.92,0,0,0-8.2-8c-.24-.19-3.73-3.18-6.82-5.82s-5.71-4.89-5.93-5.07A67.35,67.35,0,0,0,76.13-175C58-183.57,45.68-191.87,39.62-199.65c-9.1-11.7-26.67-10-34.18-9.34a17.54,17.54,0,0,1-3,.17s0,0,.09.06l-.66.74c.35.32,1,.27,3.67,0,7.34-.7,24.53-2.31,33.29,9,6.16,7.91,18.56,16.3,36.87,24.94a67.13,67.13,0,0,1,13,8.38l5.9,5.05c4,3.41,6.62,5.66,6.86,5.85a67.29,67.29,0,0,1,8.07,7.85c6.38,7,18.2,16.24,38.28,20.78,29.35,6.63,43.67,10.56,75.64,34.33,12.85,9.5,25.81,21.25,39.62,35.92,3,3.14,5.81,6.5,8.56,9.74a168.6,168.6,0,0,0,12.68,13.88c4.85,4.58,10.48,7.94,15.92,11.19a118.46,118.46,0,0,1,11.8,7.69c7.78,6,14.64,12.64,22.17,20.1,1.85,1.84,3.72,3.65,5.58,5.46,4.76,4.62,9.68,9.41,14.24,14.45.84.93,3.13,3.72,5.34,6.41a50.62,50.62,0,0,0,6,5.93l.43.14c-.53-.52-3.12-3.67-5.62-6.71-2.32-2.82-4.51-5.49-5.37-6.44-4.58-5.07-9.51-9.86-14.28-14.5-1.86-1.81-3.72-3.62-5.58-5.45q-2.21-2.2-4.36-4.3" transform="translate(-0.04 607.21)"/><path class="cls-4" d="M285.34,39.91l3,1c-.51-.46-.39,0-2.32-2.28-1.78-2.11-3.46-4.11-4.17-4.88-3.74-4-7.73-7.83-11.59-11.53q-2.13-2-4.26-4.11A200,200,0,0,0,248.27,2.26a101.88,101.88,0,0,0-9.42-6.15,73.09,73.09,0,0,1-12.46-8.73,139.33,139.33,0,0,1-10.06-10.75c-2.23-2.54-4.53-5.17-6.93-7.66a249.53,249.53,0,0,0-31.68-28.25c-24.24-17.93-36.3-22-60-27.79C102.32-90.8,93-98,87.85-103.47l-.11-.12a58.45,58.45,0,0,0-6.43-6.14c-.28-.21-3-2.55-5.46-4.62s-4.42-3.75-4.67-4a57.69,57.69,0,0,0-10.45-6.78c-14.51-7.07-23.93-13.48-28.8-19.61-6.94-8.73-19.82-8.2-26-7.95a14.8,14.8,0,0,1-3.14,0l-.63.78c.41.36,1.3.34,3.81.24,6-.25,18.56-.76,25.19,7.57,5,6.25,14.5,12.76,29.14,19.89a56.21,56.21,0,0,1,10.27,6.66c.24.19,2.48,2.1,4.64,3.94,2.56,2.17,5.2,4.41,5.49,4.64a57.3,57.3,0,0,1,6.32,6l.12.12c5.22,5.52,14.72,12.9,30.37,16.68,24.05,5.83,35.42,9.72,59.62,27.62a247.06,247.06,0,0,1,31.56,28.15c2.39,2.46,4.68,5.08,6.89,7.62a143.24,143.24,0,0,0,10.14,10.83A74.19,74.19,0,0,0,238.34-3a97.23,97.23,0,0,1,9.32,6.09A192.85,192.85,0,0,1,265.3,18.83q2.13,2.07,4.27,4.11c3.84,3.69,7.83,7.51,11.54,11.49.7.75,2.45,2.83,4.14,4.85C287.4,41.83,284.79,39.4,285.34,39.91Z" transform="translate(-0.04 607.21)"/><path class="cls-4" d="M162.36,2.4c-.72-.76-1.42-1.53-2.12-2.29-1.69-1.84-3.44-3.74-5.25-5.54A203.7,203.7,0,0,0,131.36-25.9C113.28-39.1,104.08-42.45,87.42-47a48.21,48.21,0,0,1-22-12.33L65-59.75a45.61,45.61,0,0,0-4.45-4.09l-4.06-3.39c-1.62-1.36-3.16-2.65-3.45-2.88a48.22,48.22,0,0,0-7.67-5C38.58-78.62,29-83.9,24.23-89.73S11.16-96,6.26-96.16a11.35,11.35,0,0,1-3.15-.34l-.67.75c.48.43,1.51.49,3.78.58,4.73.2,12.66.53,17.24,6.08,4.92,6,14.58,11.32,21.42,14.82a46.33,46.33,0,0,1,7.52,5c.27.21,1.87,1.56,3.42,2.86,1.85,1.55,3.76,3.15,4.09,3.41a42.35,42.35,0,0,1,4.35,4l.45.45A49.32,49.32,0,0,0,87.16-46c16.54,4.48,25.66,7.81,43.61,20.91A201.7,201.7,0,0,1,154.28-4.72c1.8,1.78,3.54,3.68,5.22,5.51,2.41,2.62,4.9,5.33,7.6,7.76a59.94,59.94,0,0,0,9.32,6.51c2.29,1.4,4.67,2.84,6.86,4.5A158.86,158.86,0,0,1,196.38,31l2.83,2.66c3,2.79,6.07,5.67,9,8.65.56.57,1.75,1.93,3,3.38,1.62,1.85,3.15,3.6,3.67,4.06l.66-.76c-.48-.41-2.12-2.3-3.58-4-1.27-1.46-2.47-2.83-3.05-3.43-2.93-3-6-5.88-9-8.67l-2.82-2.65a156.22,156.22,0,0,0-13.19-11.52,82.61,82.61,0,0,0-6.94-4.55,60,60,0,0,1-9.17-6.4c-1.89-1.7-3.68-3.55-5.41-5.41" transform="translate(-0.04 607.21)"/><path class="cls-4" d="M77.59,2.5A89,89,0,0,0,57.12-6.86,39,39,0,0,1,43-15.14l-.62-.57c-.83-.76-1.69-1.55-2.61-2.25-.37-.28-1.58-1.27-2.71-2.19-1-.79-1.87-1.52-2.18-1.76A41.29,41.29,0,0,0,30-25.23c-3.46-2-9.91-5.62-13.42-9.54C13.66-38,9.45-38.84,6.38-39.47a8.81,8.81,0,0,1-3-.89l-.67.74c.6.54,1.8.79,3.45,1.13,2.93.6,7,1.42,9.6,4.38,3.62,4.05,10.16,7.76,13.68,9.75a41.34,41.34,0,0,1,4.78,3.24c.3.23,1.2,1,2.15,1.74,1.15.94,2.37,1.93,2.74,2.21A33.37,33.37,0,0,1,41.67-15l.63.57A40,40,0,0,0,56.8-5.91C66.69-2.59,73.34.39,84.43,8.29A165.27,165.27,0,0,1,99.89,20.9c1.22,1.1,2.41,2.27,3.56,3.4,1.62,1.57,3.28,3.2,5,4.7a49.78,49.78,0,0,0,6,4.15c1.47.92,3,1.86,4.4,2.91,3,2.22,5.78,4.64,8.58,7.12l.86.75c2.3,2,4.68,4.14,7,6.25.43.41,1.18,1.19,2,2,1.05,1.1,6.6,6.32,7.09,6.71L140.41,54c-.43-.35-1.49-1.47-2.43-2.45s-1.55-1.64-2-2.06c-2.29-2.12-4.68-4.23-7-6.26l-.85-.76c-2.83-2.5-5.61-4.93-8.65-7.18-1.45-1.07-3-2-4.47-3a48.63,48.63,0,0,1-5.88-4.07c-1.73-1.47-3.39-3.08-5-4.65-1.16-1.13-2.36-2.3-3.59-3.42A165.54,165.54,0,0,0,85,7.48c-2.7-1.93-5.13-3.56-7.42-5" transform="translate(-0.04 607.21)"/><g id="Path_2-3" data-name="Path 2"><path class="cls-4" d="M56.34,51.91h0C45.88,44.46,34.07,37.08,21.6,29.26A169.58,169.58,0,0,1,.34,13.91v1A159.11,159.11,0,0,0,21.12,30C33.57,37.82,45.9,44.48,56.34,51.91Z" transform="translate(-0.04 607.21)"/></g></g></g></g></svg>